<svg width="25" height="25" viewBox="0 0 25 25" fill="none" xmlns="http://www.w3.org/2000/svg">
<g clip-path="url(#clip0_97_1275)">
<path d="M19.1299 1.75574H5.12988C3.80429 1.75733 2.53344 2.28462 1.5961 3.22196C0.658765 4.1593 0.131471 5.43014 0.129883 6.75574L0.129883 14.7557C0.131471 16.0813 0.658765 17.3522 1.5961 18.2895C2.53344 19.2269 3.80429 19.7542 5.12988 19.7557H11.1299V21.7557H7.12988C6.86467 21.7557 6.61031 21.8611 6.42278 22.0486C6.23524 22.2362 6.12988 22.4905 6.12988 22.7557C6.12988 23.021 6.23524 23.2753 6.42278 23.4628C6.61031 23.6504 6.86467 23.7557 7.12988 23.7557H17.1299C17.3951 23.7557 17.6495 23.6504 17.837 23.4628C18.0245 23.2753 18.1299 23.021 18.1299 22.7557C18.1299 22.4905 18.0245 22.2362 17.837 22.0486C17.6495 21.8611 17.3951 21.7557 17.1299 21.7557H13.1299V19.7557H19.1299C20.4555 19.7542 21.7263 19.2269 22.6637 18.2895C23.601 17.3522 24.1283 16.0813 24.1299 14.7557V6.75574C24.1283 5.43014 23.601 4.1593 22.6637 3.22196C21.7263 2.28462 20.4555 1.75733 19.1299 1.75574ZM22.1299 14.7557C22.1299 15.5514 21.8138 16.3144 21.2512 16.8771C20.6886 17.4397 19.9255 17.7557 19.1299 17.7557H5.12988C4.33423 17.7557 3.57117 17.4397 3.00856 16.8771C2.44595 16.3144 2.12988 15.5514 2.12988 14.7557V6.75574C2.12988 5.96009 2.44595 5.19703 3.00856 4.63442C3.57117 4.07181 4.33423 3.75574 5.12988 3.75574H19.1299C19.9255 3.75574 20.6886 4.07181 21.2512 4.63442C21.8138 5.19703 22.1299 5.96009 22.1299 6.75574V14.7557ZM20.1299 10.7557C20.1299 11.021 20.0245 11.2753 19.837 11.4628C19.6495 11.6504 19.3951 11.7557 19.1299 11.7557H16.1649L14.4649 14.3107C14.3733 14.4481 14.249 14.5606 14.1033 14.6382C13.9576 14.7159 13.795 14.7563 13.6299 14.7557C13.6089 14.7557 13.5879 14.7557 13.5679 14.7557C13.3929 14.745 13.2239 14.6884 13.0777 14.5917C12.9315 14.495 12.8133 14.3615 12.7349 14.2047L10.5059 9.74374L9.46188 11.3107C9.37053 11.4477 9.2468 11.5599 9.10167 11.6375C8.95653 11.7152 8.79448 11.7558 8.62988 11.7557H5.12988C4.86467 11.7557 4.61031 11.6504 4.42278 11.4628C4.23524 11.2753 4.12988 11.021 4.12988 10.7557C4.12988 10.4905 4.23524 10.2362 4.42278 10.0486C4.61031 9.86109 4.86467 9.75574 5.12988 9.75574H8.09488L9.79488 7.20074C9.89112 7.0533 10.025 6.93429 10.1828 6.85604C10.3405 6.7778 10.5163 6.74316 10.6919 6.75574C10.8668 6.76651 11.0359 6.82309 11.1821 6.9198C11.3283 7.01651 11.4465 7.14994 11.5249 7.30674L13.7539 11.7657L14.7979 10.1987C14.8895 10.0622 15.0133 9.95033 15.1584 9.87306C15.3035 9.79579 15.4655 9.75549 15.6299 9.75574H19.1299C19.3951 9.75574 19.6495 9.86109 19.837 10.0486C20.0245 10.2362 20.1299 10.4905 20.1299 10.7557Z" fill="url(#paint0_linear_97_1275)"/>
</g>
<defs>
<linearGradient id="paint0_linear_97_1275" x1="12.1299" y1="1.75574" x2="12.1299" y2="23.7557" gradientUnits="userSpaceOnUse">
<stop stop-color="#EE771B"/>
<stop offset="1" stop-color="#FFC700"/>
</linearGradient>
<clipPath id="clip0_97_1275">
<rect width="24" height="24" fill="white" transform="translate(0.129883 0.756348)"/>
</clipPath>
</defs>
</svg>
