<svg width="25" height="25" viewBox="0 0 25 25" fill="none" xmlns="http://www.w3.org/2000/svg">
<g clip-path="url(#clip0_97_1271)">
<path d="M24.2948 11.6104C24.2924 10.9362 24.1378 10.2712 23.8423 9.66517C23.5469 9.05912 23.1184 8.52763 22.5888 8.1104C23.3215 7.53281 23.8557 6.74093 24.1167 5.84523C24.3778 4.94953 24.3528 3.99468 24.0451 3.11388C23.7375 2.23308 23.1626 1.47026 22.4007 0.931844C21.6388 0.393424 20.7278 0.106255 19.7948 0.110396H4.79484C3.86187 0.106255 2.95088 0.393424 2.18895 0.931844C1.42702 1.47026 0.852147 2.23308 0.544528 3.11388C0.236909 3.99468 0.211887 4.94953 0.472952 5.84523C0.734017 6.74093 1.26815 7.53281 2.00083 8.1104C1.46938 8.52597 1.03954 9.05711 0.743922 9.66354C0.448303 10.27 0.294667 10.9358 0.294667 11.6104C0.294667 12.285 0.448303 12.9508 0.743922 13.5573C1.03954 14.1637 1.46938 14.6948 2.00083 15.1104C1.26815 15.688 0.734017 16.4799 0.472952 17.3756C0.211887 18.2713 0.236909 19.2261 0.544528 20.1069C0.852147 20.9877 1.42702 21.7505 2.18895 22.2889C2.95088 22.8274 3.86187 23.1145 4.79484 23.1104H19.7948C20.7278 23.1145 21.6388 22.8274 22.4007 22.2889C23.1626 21.7505 23.7375 20.9877 24.0451 20.1069C24.3528 19.2261 24.3778 18.2713 24.1167 17.3756C23.8557 16.4799 23.3215 15.688 22.5888 15.1104C23.1184 14.6932 23.5469 14.1617 23.8423 13.5556C24.1378 12.9496 24.2924 12.2846 24.2948 11.6104ZM2.29484 4.6104C2.29484 3.94735 2.55823 3.31147 3.02707 2.84263C3.49591 2.37379 4.13179 2.1104 4.79484 2.1104H5.29484V3.1104C5.29484 3.37561 5.40019 3.62997 5.58773 3.8175C5.77526 4.00504 6.02962 4.1104 6.29484 4.1104C6.56005 4.1104 6.81441 4.00504 7.00194 3.8175C7.18948 3.62997 7.29484 3.37561 7.29484 3.1104V2.1104H9.29484V3.1104C9.29484 3.37561 9.40019 3.62997 9.58773 3.8175C9.77526 4.00504 10.0296 4.1104 10.2948 4.1104C10.5601 4.1104 10.8144 4.00504 11.0019 3.8175C11.1895 3.62997 11.2948 3.37561 11.2948 3.1104V2.1104H19.7948C20.4579 2.1104 21.0938 2.37379 21.5626 2.84263C22.0314 3.31147 22.2948 3.94735 22.2948 4.6104C22.2948 5.27344 22.0314 5.90932 21.5626 6.37816C21.0938 6.847 20.4579 7.1104 19.7948 7.1104H4.79484C4.13179 7.1104 3.49591 6.847 3.02707 6.37816C2.55823 5.90932 2.29484 5.27344 2.29484 4.6104ZM22.2948 18.6104C22.2948 19.2734 22.0314 19.9093 21.5626 20.3782C21.0938 20.847 20.4579 21.1104 19.7948 21.1104H4.79484C4.13179 21.1104 3.49591 20.847 3.02707 20.3782C2.55823 19.9093 2.29484 19.2734 2.29484 18.6104C2.29484 17.9474 2.55823 17.3115 3.02707 16.8426C3.49591 16.3738 4.13179 16.1104 4.79484 16.1104H5.29484V17.1104C5.29484 17.3756 5.40019 17.63 5.58773 17.8175C5.77526 18.005 6.02962 18.1104 6.29484 18.1104C6.56005 18.1104 6.81441 18.005 7.00194 17.8175C7.18948 17.63 7.29484 17.3756 7.29484 17.1104V16.1104H9.29484V17.1104C9.29484 17.3756 9.40019 17.63 9.58773 17.8175C9.77526 18.005 10.0296 18.1104 10.2948 18.1104C10.5601 18.1104 10.8144 18.005 11.0019 17.8175C11.1895 17.63 11.2948 17.3756 11.2948 17.1104V16.1104H19.7948C20.4579 16.1104 21.0938 16.3738 21.5626 16.8426C22.0314 17.3115 22.2948 17.9474 22.2948 18.6104ZM4.79484 14.1104C4.13179 14.1104 3.49591 13.847 3.02707 13.3782C2.55823 12.9093 2.29484 12.2734 2.29484 11.6104C2.29484 10.9474 2.55823 10.3115 3.02707 9.84263C3.49591 9.37379 4.13179 9.1104 4.79484 9.1104H5.29484V10.1104C5.29484 10.3756 5.40019 10.63 5.58773 10.8175C5.77526 11.005 6.02962 11.1104 6.29484 11.1104C6.56005 11.1104 6.81441 11.005 7.00194 10.8175C7.18948 10.63 7.29484 10.3756 7.29484 10.1104V9.1104H9.29484V10.1104C9.29484 10.3756 9.40019 10.63 9.58773 10.8175C9.77526 11.005 10.0296 11.1104 10.2948 11.1104C10.5601 11.1104 10.8144 11.005 11.0019 10.8175C11.1895 10.63 11.2948 10.3756 11.2948 10.1104V9.1104H19.7948C20.4579 9.1104 21.0938 9.37379 21.5626 9.84263C22.0314 10.3115 22.2948 10.9474 22.2948 11.6104C22.2948 12.2734 22.0314 12.9093 21.5626 13.3782C21.0938 13.847 20.4579 14.1104 19.7948 14.1104H4.79484Z" fill="url(#paint0_linear_97_1271)"/>
</g>
<defs>
<linearGradient id="paint0_linear_97_1271" x1="12.2948" y1="0.110352" x2="12.2948" y2="23.1104" gradientUnits="userSpaceOnUse">
<stop stop-color="#EE771B"/>
<stop offset="1" stop-color="#FFC700"/>
</linearGradient>
<clipPath id="clip0_97_1271">
<rect width="24" height="24" fill="white" transform="translate(0.294922 0.110352)"/>
</clipPath>
</defs>
</svg>
