<svg width="25" height="25" viewBox="0 0 25 25" fill="none" xmlns="http://www.w3.org/2000/svg">
<g clip-path="url(#clip0_97_1267)">
<path d="M17.6245 0.097168H7.62451C6.29892 0.0987558 5.02807 0.62605 4.09073 1.56339C3.15339 2.50073 2.6261 3.77157 2.62451 5.09717V20.0972C2.62451 21.158 3.04594 22.1754 3.79608 22.9256C4.54623 23.6757 5.56365 24.0972 6.62451 24.0972H17.6245C18.9501 24.0956 20.221 23.5683 21.1583 22.6309C22.0956 21.6936 22.6229 20.4228 22.6245 19.0972V5.09717C22.6229 3.77157 22.0956 2.50073 21.1583 1.56339C20.221 0.62605 18.9501 0.0987558 17.6245 0.097168V0.097168ZM20.6245 5.09717V16.0972H8.62451V2.09717H17.6245C18.4202 2.09717 19.1832 2.41324 19.7458 2.97585C20.3084 3.53846 20.6245 4.30152 20.6245 5.09717ZM6.62451 2.26917V16.0972C5.92214 16.0966 5.23212 16.2818 4.62451 16.6342V5.09717C4.6246 4.47686 4.81697 3.87183 5.17515 3.36537C5.53332 2.85891 6.03968 2.47594 6.62451 2.26917ZM17.6245 22.0972H6.62451C6.09408 22.0972 5.58537 21.8865 5.2103 21.5114C4.83523 21.1363 4.62451 20.6276 4.62451 20.0972C4.62451 19.5667 4.83523 19.058 5.2103 18.683C5.58537 18.3079 6.09408 18.0972 6.62451 18.0972H20.6245V19.0972C20.6245 19.8928 20.3084 20.6559 19.7458 21.2185C19.1832 21.7811 18.4202 22.0972 17.6245 22.0972Z" fill="url(#paint0_linear_97_1267)"/>
</g>
<defs>
<linearGradient id="paint0_linear_97_1267" x1="12.6245" y1="0.097168" x2="12.6245" y2="24.0972" gradientUnits="userSpaceOnUse">
<stop stop-color="#EE771B"/>
<stop offset="1" stop-color="#FFC700"/>
</linearGradient>
<clipPath id="clip0_97_1267">
<rect width="24" height="24" fill="white" transform="translate(0.624512 0.097168)"/>
</clipPath>
</defs>
</svg>
