<svg width="25" height="25" viewBox="0 0 25 25" fill="none" xmlns="http://www.w3.org/2000/svg">
<g clip-path="url(#clip0_97_1297)">
<path d="M11.1195 23.3542C11.1195 23.1564 11.1782 22.9631 11.288 22.7986C11.3979 22.6342 11.5541 22.506 11.7368 22.4303C11.9196 22.3546 12.1206 22.3348 12.3146 22.3734C12.5086 22.412 12.6868 22.5072 12.8266 22.6471C12.9665 22.7869 13.0617 22.9651 13.1003 23.1591C13.1389 23.3531 13.1191 23.5541 13.0434 23.7369C12.9677 23.9196 12.8395 24.0758 12.6751 24.1857C12.5106 24.2955 12.3173 24.3542 12.1195 24.3542C11.8543 24.3542 11.5999 24.2488 11.4124 24.0613C11.2249 23.8738 11.1195 23.6194 11.1195 23.3542ZM15.6545 21.2322C15.842 21.0447 15.9473 20.7903 15.9473 20.5252C15.9473 20.26 15.842 20.0057 15.6545 19.8182C14.7169 18.8808 13.4453 18.3543 12.1195 18.3543C10.7937 18.3543 9.52216 18.8808 8.58452 19.8182C8.40236 20.0068 8.30157 20.2594 8.30385 20.5216C8.30612 20.7838 8.41129 21.0346 8.5967 21.22C8.78211 21.4054 9.03292 21.5106 9.29512 21.5129C9.55731 21.5151 9.80992 21.4143 9.99852 21.2322C10.5702 20.6872 11.3297 20.3832 12.1195 20.3832C12.9093 20.3832 13.6688 20.6872 14.2405 21.2322C14.428 21.4197 14.6824 21.525 14.9475 21.525C15.2127 21.525 15.467 21.4197 15.6545 21.2322ZM18.4835 18.4042C18.671 18.2167 18.7763 17.9624 18.7763 17.6972C18.7763 17.432 18.671 17.1777 18.4835 16.9902C16.7944 15.3048 14.5057 14.3582 12.1195 14.3582C9.73336 14.3582 7.44465 15.3048 5.75552 16.9902C5.57336 17.1788 5.47257 17.4314 5.47484 17.6936C5.47712 17.9558 5.58229 18.2066 5.7677 18.392C5.95311 18.5774 6.20392 18.6826 6.46612 18.6849C6.72831 18.6871 6.98092 18.5863 7.16952 18.4042C8.48372 17.094 10.2638 16.3582 12.1195 16.3582C13.9753 16.3582 15.7553 17.094 17.0695 18.4042C17.257 18.5917 17.5114 18.697 17.7765 18.697C18.0417 18.697 18.296 18.5917 18.4835 18.4042ZM6.10652 22.5152C6.12767 22.3856 6.12308 22.2531 6.09301 22.1252C6.06295 21.9974 6.008 21.8767 5.93129 21.7701C5.85459 21.6635 5.75764 21.5731 5.64598 21.5039C5.53432 21.4348 5.41014 21.3883 5.28052 21.3672C4.52487 21.2477 3.82273 20.9034 3.26552 20.3792C2.70831 19.855 2.32187 19.1751 2.15652 18.4282C2.04892 17.7139 2.16669 16.9839 2.49343 16.3397C2.82018 15.6956 3.33965 15.1693 3.97952 14.8342C4.44014 14.5814 4.7828 14.1576 4.93344 13.6542C5.08407 13.1508 5.03058 12.6084 4.78452 12.1442C4.39568 11.4037 4.16597 10.59 4.11012 9.75545C4.05428 8.92091 4.17354 8.0839 4.46025 7.29816C4.74696 6.51243 5.19478 5.79531 5.77497 5.19285C6.35517 4.59038 7.05491 4.11588 7.8293 3.7998C8.60369 3.48371 9.43561 3.33303 10.2717 3.35741C11.1077 3.3818 11.9295 3.58072 12.6841 3.9414C13.4387 4.30208 14.1096 4.81656 14.6537 5.45182C15.1978 6.08708 15.6031 6.82907 15.8435 7.63019C15.9915 8.11289 16.2552 8.55215 16.6116 8.90977C16.968 9.26738 17.4063 9.53254 17.8885 9.68219C19.1949 10.0799 20.3255 10.9133 21.092 12.0435C21.8584 13.1737 22.2144 14.5324 22.1005 15.8932C22.0111 16.9151 21.647 17.8938 21.0467 18.7256C20.4463 19.5574 19.6322 20.2114 18.6905 20.6182C18.4573 20.7358 18.2794 20.9399 18.1947 21.1869C18.11 21.434 18.1254 21.7044 18.2375 21.9402C18.3495 22.1761 18.5494 22.3588 18.7944 22.4493C19.0394 22.5397 19.3101 22.5307 19.5485 22.4242C20.8113 21.8708 21.9008 20.9858 22.7014 19.8633C23.5019 18.7407 23.9837 17.4224 24.0955 16.0482C24.2465 14.2339 23.7711 12.4226 22.7484 10.9164C21.7257 9.41022 20.2176 8.30011 18.4755 7.77119C18.304 7.71788 18.1483 7.62297 18.0223 7.4949C17.8963 7.36683 17.804 7.20959 17.7535 7.03719C17.2241 5.33727 16.1428 3.86253 14.6807 2.84648C13.2187 1.83043 11.4594 1.33114 9.68161 1.42767C7.90378 1.5242 6.20896 2.21103 4.86551 3.37941C3.52205 4.54779 2.60674 6.13094 2.26452 7.87819C1.91493 9.64608 2.18992 11.4805 3.04252 13.0682C2.03753 13.5937 1.22138 14.4194 0.707691 15.4305C0.194 16.4416 0.00832704 17.5876 0.176518 18.7092C0.405002 19.8773 0.985783 20.9474 1.84072 21.7755C2.69565 22.6036 3.78372 23.15 4.95852 23.3412C5.08813 23.3623 5.22065 23.3577 5.34849 23.3277C5.47633 23.2976 5.597 23.2427 5.7036 23.166C5.8102 23.0893 5.90065 22.9923 5.96979 22.8806C6.03892 22.769 6.08538 22.6448 6.10652 22.5152Z" fill="url(#paint0_linear_97_1297)"/>
</g>
<defs>
<linearGradient id="paint0_linear_97_1297" x1="12.1196" y1="1.41589" x2="12.1196" y2="24.3542" gradientUnits="userSpaceOnUse">
<stop stop-color="#EE771B"/>
<stop offset="1" stop-color="#FFC700"/>
</linearGradient>
<clipPath id="clip0_97_1297">
<rect width="24" height="24" fill="white" transform="translate(0.119629 0.354858)"/>
</clipPath>
</defs>
</svg>
