<svg width="25" height="25" viewBox="0 0 25 25" fill="none" xmlns="http://www.w3.org/2000/svg">
<g clip-path="url(#clip0_97_1263)">
<path d="M22.8191 2.7602C22.257 2.29013 21.5982 1.94959 20.8896 1.76277C20.181 1.57594 19.44 1.54741 18.7191 1.6792L14.8971 2.3732C14.0147 2.53524 13.2124 2.98923 12.6191 3.6622C12.0243 2.98807 11.2197 2.53398 10.3351 2.3732L6.51914 1.6792C5.7983 1.5473 5.05727 1.57545 4.34852 1.76168C3.63976 1.9479 2.98061 2.28765 2.41771 2.75686C1.85481 3.22606 1.40193 3.81327 1.09112 4.47691C0.780319 5.14055 0.619189 5.86439 0.619141 6.5972L0.619141 17.3902C0.619198 18.561 1.03012 19.6947 1.78027 20.5936C2.53043 21.4925 3.57225 22.0996 4.72414 22.3092L11.0101 23.4522C12.0741 23.6455 13.1642 23.6455 14.2281 23.4522L20.5191 22.3092C21.6701 22.0986 22.7108 21.491 23.4599 20.5922C24.2091 19.6934 24.6193 18.5603 24.6191 17.3902V6.5972C24.6196 5.86465 24.4585 5.141 24.1474 4.47779C23.8363 3.81459 23.3828 3.22814 22.8191 2.7602ZM11.6191 21.5252C11.5351 21.5132 11.4511 21.4992 11.3671 21.4842L5.08214 20.3422C4.39091 20.2164 3.76574 19.8521 3.31563 19.3126C2.86552 18.7731 2.61903 18.0928 2.61914 17.3902V6.5972C2.61914 5.80155 2.93521 5.03849 3.49782 4.47588C4.06043 3.91327 4.82349 3.5972 5.61914 3.5972C5.80023 3.59763 5.98093 3.61403 6.15914 3.6462L9.97914 4.3462C10.4388 4.4303 10.8544 4.67267 11.154 5.03124C11.4536 5.38982 11.6181 5.84196 11.6191 6.3092V21.5252ZM22.6191 17.3902C22.6192 18.0928 22.3728 18.7731 21.9227 19.3126C21.4725 19.8521 20.8474 20.2164 20.1561 20.3422L13.8711 21.4842C13.7871 21.4992 13.7031 21.5132 13.6191 21.5252V6.3092C13.6191 5.84081 13.7834 5.38726 14.0835 5.02761C14.3835 4.66796 14.8003 4.42504 15.2611 4.3412L19.0821 3.6412C19.5149 3.56247 19.9596 3.57985 20.3849 3.69211C20.8101 3.80437 21.2055 4.00876 21.543 4.29081C21.8804 4.57285 22.1518 4.92566 22.3378 5.32422C22.5237 5.72279 22.6198 6.15738 22.6191 6.5972V17.3902Z" fill="url(#paint0_linear_97_1263)"/>
</g>
<defs>
<linearGradient id="paint0_linear_97_1263" x1="12.6191" y1="1.59753" x2="12.6191" y2="23.5972" gradientUnits="userSpaceOnUse">
<stop stop-color="#EE771B"/>
<stop offset="1" stop-color="#FFC700"/>
</linearGradient>
<clipPath id="clip0_97_1263">
<rect width="24" height="24" fill="white" transform="translate(0.619141 0.597168)"/>
</clipPath>
</defs>
</svg>
