<svg width="25" height="25" viewBox="0 0 25 25" fill="none" xmlns="http://www.w3.org/2000/svg">
<g clip-path="url(#clip0_97_1259)">
<path d="M19.793 24.5972H5.79297C4.46737 24.5956 3.19653 24.0683 2.25919 23.1309C1.32185 22.1936 0.794557 20.9228 0.792969 19.5972L0.792969 5.59717C0.794557 4.27157 1.32185 3.00073 2.25919 2.06339C3.19653 1.12605 4.46737 0.598756 5.79297 0.597168L19.793 0.597168C21.1186 0.598756 22.3894 1.12605 23.3267 2.06339C24.2641 3.00073 24.7914 4.27157 24.793 5.59717V19.5972C24.7914 20.9228 24.2641 22.1936 23.3267 23.1309C22.3894 24.0683 21.1186 24.5956 19.793 24.5972ZM5.79297 2.59717C4.99732 2.59717 4.23426 2.91324 3.67165 3.47585C3.10904 4.03846 2.79297 4.80152 2.79297 5.59717V19.5972C2.79297 20.3928 3.10904 21.1559 3.67165 21.7185C4.23426 22.2811 4.99732 22.5972 5.79297 22.5972H19.793C20.5886 22.5972 21.3517 22.2811 21.9143 21.7185C22.4769 21.1559 22.793 20.3928 22.793 19.5972V5.59717C22.793 4.80152 22.4769 4.03846 21.9143 3.47585C21.3517 2.91324 20.5886 2.59717 19.793 2.59717H5.79297ZM10.135 17.6022C9.7181 17.6008 9.30898 17.4894 8.94897 17.2792C8.59331 17.0756 8.29812 16.7812 8.0936 16.4261C7.88908 16.071 7.78257 15.6679 7.78497 15.2582V9.93617C7.78463 9.52631 7.89208 9.12358 8.09655 8.76836C8.30102 8.41315 8.5953 8.11796 8.94989 7.91241C9.30447 7.70685 9.70687 7.59816 10.1167 7.59724C10.5266 7.59632 10.9295 7.7032 11.285 7.90717L16.563 10.5422C16.9296 10.7401 17.2366 11.0324 17.4522 11.389C17.6678 11.7455 17.7841 12.1531 17.7891 12.5698C17.7941 12.9864 17.6876 13.3967 17.4806 13.7583C17.2737 14.1199 16.9737 14.4195 16.612 14.6262L11.236 17.3132C10.9007 17.5044 10.521 17.6041 10.135 17.6022ZM10.11 9.60217C10.0549 9.60215 10.0007 9.61663 9.95297 9.64417C9.9011 9.67301 9.85807 9.71543 9.82847 9.76687C9.79888 9.81831 9.78384 9.87683 9.78497 9.93617V15.2582C9.78531 15.3166 9.80085 15.374 9.83006 15.4246C9.85927 15.4753 9.90115 15.5174 9.95158 15.547C10.002 15.5765 10.0593 15.5925 10.1177 15.5932C10.1762 15.5939 10.2338 15.5794 10.285 15.5512L15.661 12.8632C15.701 12.8319 15.7328 12.7913 15.7537 12.745C15.7746 12.6986 15.784 12.6479 15.781 12.5972C15.7822 12.5377 15.7671 12.479 15.7373 12.4275C15.7075 12.376 15.6642 12.3337 15.612 12.3052L10.338 9.67017C10.2692 9.62799 10.1906 9.60454 10.11 9.60217Z" fill="url(#paint0_linear_97_1259)"/>
</g>
<defs>
<linearGradient id="paint0_linear_97_1259" x1="12.793" y1="0.597168" x2="12.793" y2="24.5972" gradientUnits="userSpaceOnUse">
<stop stop-color="#EE771B"/>
<stop offset="1" stop-color="#FFC700"/>
</linearGradient>
<clipPath id="clip0_97_1259">
<rect width="24" height="24" fill="white" transform="translate(0.792969 0.597168)"/>
</clipPath>
</defs>
</svg>
