<svg width="25" height="25" viewBox="0 0 25 25" fill="none" xmlns="http://www.w3.org/2000/svg">
<g clip-path="url(#clip0_97_1283)">
<path d="M21.1274 16.3669V12.3669C21.1271 11.0234 20.8254 9.69708 20.2446 8.48563C19.6638 7.27418 18.8187 6.20843 17.7714 5.36686H20.4044C20.6261 5.74448 20.966 6.03851 21.3716 6.20344C21.7771 6.36838 22.2258 6.39502 22.648 6.27925C23.0703 6.16347 23.4426 5.91173 23.7074 5.563C23.9721 5.21427 24.1145 4.78799 24.1125 4.35016C24.1106 3.91232 23.9643 3.48734 23.6965 3.14101C23.4286 2.79467 23.054 2.54629 22.6307 2.43432C22.2075 2.32235 21.7591 2.35303 21.355 2.52161C20.9509 2.69019 20.6136 2.98727 20.3954 3.36686H15.9854C15.7672 2.50928 15.2694 1.74887 14.5707 1.20575C13.8721 0.662643 13.0124 0.367798 12.1274 0.367798C11.2425 0.367798 10.3828 0.662643 9.68416 1.20575C8.9855 1.74887 8.48771 2.50928 8.26944 3.36686H3.85044C3.62883 2.98925 3.28892 2.69522 2.88333 2.53028C2.47775 2.36534 2.0291 2.3387 1.60684 2.45448C1.18459 2.57025 0.812268 2.82199 0.547521 3.17072C0.282774 3.51946 0.140364 3.94573 0.142334 4.38357C0.144304 4.82141 0.290546 5.24638 0.55842 5.59272C0.826295 5.93905 1.20086 6.18743 1.62415 6.2994C2.04743 6.41137 2.49581 6.3807 2.8999 6.21212C3.30399 6.04354 3.64124 5.74646 3.85944 5.36686H6.48344C5.4362 6.20843 4.59106 7.27418 4.01025 8.48563C3.42945 9.69708 3.12777 11.0234 3.12744 12.3669V16.3669C2.33179 16.3669 1.56873 16.6829 1.00612 17.2455C0.443512 17.8082 0.127441 18.5712 0.127441 19.3669L0.127441 21.3669C0.127441 22.1625 0.443512 22.9256 1.00612 23.4882C1.56873 24.0508 2.33179 24.3669 3.12744 24.3669H5.12744C5.92309 24.3669 6.68615 24.0508 7.24876 23.4882C7.81137 22.9256 8.12744 22.1625 8.12744 21.3669V19.3669C8.12744 18.5712 7.81137 17.8082 7.24876 17.2455C6.68615 16.6829 5.92309 16.3669 5.12744 16.3669V12.3669C5.12907 11.1356 5.45545 9.92649 6.07365 8.86163C6.69184 7.79677 7.57998 6.91382 8.64844 6.30186C8.98938 6.92683 9.49237 7.44843 10.1046 7.81182C10.7167 8.17521 11.4155 8.36699 12.1274 8.36699C12.8394 8.36699 13.5381 8.17521 14.1503 7.81182C14.7625 7.44843 15.2655 6.92683 15.6064 6.30186C16.6749 6.91382 17.563 7.79677 18.1812 8.86163C18.7994 9.92649 19.1258 11.1356 19.1274 12.3669V16.3669C18.3318 16.3669 17.5687 16.6829 17.0061 17.2455C16.4435 17.8082 16.1274 18.5712 16.1274 19.3669V21.3669C16.1274 22.1625 16.4435 22.9256 17.0061 23.4882C17.5687 24.0508 18.3318 24.3669 19.1274 24.3669H21.1274C21.9231 24.3669 22.6862 24.0508 23.2488 23.4882C23.8114 22.9256 24.1274 22.1625 24.1274 21.3669V19.3669C24.1274 18.5712 23.8114 17.8082 23.2488 17.2455C22.6862 16.6829 21.9231 16.3669 21.1274 16.3669ZM6.12744 19.3669V21.3669C6.12744 21.6321 6.02208 21.8864 5.83455 22.074C5.64701 22.2615 5.39266 22.3669 5.12744 22.3669H3.12744C2.86222 22.3669 2.60787 22.2615 2.42033 22.074C2.2328 21.8864 2.12744 21.6321 2.12744 21.3669V19.3669C2.12744 19.1016 2.2328 18.8473 2.42033 18.6598C2.60787 18.4722 2.86222 18.3669 3.12744 18.3669H5.12744C5.39266 18.3669 5.64701 18.4722 5.83455 18.6598C6.02208 18.8473 6.12744 19.1016 6.12744 19.3669ZM12.1274 6.36686C11.7319 6.36686 11.3452 6.24956 11.0163 6.0298C10.6874 5.81004 10.4311 5.49768 10.2797 5.13223C10.1283 4.76678 10.0887 4.36464 10.1659 3.97668C10.243 3.58872 10.4335 3.23235 10.7132 2.95265C10.9929 2.67294 11.3493 2.48246 11.7373 2.40529C12.1252 2.32812 12.5274 2.36773 12.8928 2.5191C13.2583 2.67048 13.5706 2.92682 13.7904 3.25572C14.0101 3.58462 14.1274 3.9713 14.1274 4.36686C14.1274 4.8973 13.9167 5.406 13.5417 5.78108C13.1666 6.15615 12.6579 6.36686 12.1274 6.36686ZM22.1274 21.3669C22.1274 21.6321 22.0221 21.8864 21.8345 22.074C21.647 22.2615 21.3927 22.3669 21.1274 22.3669H19.1274C18.8622 22.3669 18.6079 22.2615 18.4203 22.074C18.2328 21.8864 18.1274 21.6321 18.1274 21.3669V19.3669C18.1274 19.1016 18.2328 18.8473 18.4203 18.6598C18.6079 18.4722 18.8622 18.3669 19.1274 18.3669H21.1274C21.3927 18.3669 21.647 18.4722 21.8345 18.6598C22.0221 18.8473 22.1274 19.1016 22.1274 19.3669V21.3669Z" fill="url(#paint0_linear_97_1283)"/>
</g>
<defs>
<linearGradient id="paint0_linear_97_1283" x1="12.1274" y1="0.367798" x2="12.1274" y2="24.3669" gradientUnits="userSpaceOnUse">
<stop stop-color="#EE771B"/>
<stop offset="1" stop-color="#FFC700"/>
</linearGradient>
<clipPath id="clip0_97_1283">
<rect width="24" height="24" fill="white" transform="translate(0.127441 0.366455)"/>
</clipPath>
</defs>
</svg>
