<svg width="13" height="15" viewBox="0 0 13 15" fill="none" xmlns="http://www.w3.org/2000/svg">
<path d="M9.3566 7.86313L9.26572 7.80978C8.76456 7.52593 8.17251 7.22714 7.59959 6.93742C6.45695 6.36065 5.27605 5.7636 4.88914 5.31649C4.66487 5.05931 4.57452 4.80908 4.62076 4.57325C4.67762 4.28139 4.93963 4.00128 5.3951 3.74037C5.49554 3.68328 5.63425 3.61392 5.79741 3.53282C6.70089 3.0809 8.36277 2.24909 8.44196 1.02886C8.44686 0.984136 8.44453 0.938912 8.43505 0.894937C8.43045 0.887029 8.42472 0.879838 8.41804 0.873595C8.40261 0.857991 8.38275 0.847555 8.36118 0.843716C8.34364 0.840181 8.32557 0.840181 8.30803 0.843716C8.29642 0.848251 8.28521 0.853785 8.27455 0.860256C8.249 0.880654 8.22468 0.902568 8.20174 0.925883C7.98915 1.1361 6.88265 2.06182 3.39468 2.67113C1.694 2.96779 0.765543 3.45172 0.550301 4.15014C0.385017 4.68369 0.444009 5.70651 2.67933 6.53512C6.44207 7.92876 8.71407 8.86408 8.53709 10.0987C8.35852 11.3446 6.05889 11.8877 4.0303 12.3663L3.79806 12.4197C1.92572 12.8636 0.99035 13.5583 0.686355 14.7305C0.67732 14.7593 0.669879 14.7838 0.664565 14.8111C0.664033 14.8146 0.664033 14.8182 0.664565 14.8217C0.663501 14.8288 0.663501 14.836 0.664565 14.8431C0.665063 14.8482 0.666133 14.8532 0.667753 14.858C0.669963 14.865 0.673186 14.8717 0.677319 14.8777C0.678873 14.8812 0.680837 14.8844 0.683166 14.8874C0.689805 14.8961 0.697893 14.9037 0.707081 14.9098L0.71399 14.9135C0.72365 14.9183 0.733809 14.9221 0.744284 14.9247H0.749599H0.75757C0.758976 14.9244 0.760416 14.9244 0.761821 14.9247C0.77241 14.926 0.783121 14.926 0.793709 14.9247L0.805933 14.922C0.814556 14.9194 0.822918 14.916 0.830912 14.9119L0.838352 14.9082C0.84698 14.9024 0.854839 14.8956 0.861736 14.8879C0.870771 14.8767 1.83697 13.784 5.12511 13.3785C5.58748 13.3214 6.0456 13.2691 6.49362 13.2184C9.22799 12.9073 11.5903 12.6379 12.2796 11.5548C13.2336 10.0571 10.9005 8.73709 9.3566 7.86313ZM3.87193 5.18683C4.33164 5.905 6.2837 6.8942 7.8632 7.69453C9.74829 8.65066 12.0942 9.83995 11.3708 11.1861C10.8086 12.2367 8.40476 12.5552 5.85959 12.8935L5.27498 12.9719L5.34567 12.9607C7.91634 12.5664 10.3414 12.194 10.8729 10.9865C11.5308 9.47766 8.94525 8.28197 6.66422 7.22767C4.7988 6.36492 3.48981 5.46001 3.24746 4.86457C3.20111 4.76262 3.17931 4.65115 3.18384 4.53918C3.18836 4.42721 3.21908 4.31788 3.2735 4.22004C3.45792 3.88497 3.92933 3.59311 4.60216 3.3973C5.20656 3.22358 5.79914 3.01078 6.37617 2.76024C5.95667 2.96797 5.46596 3.17712 4.90403 3.38769C4.29657 3.61712 3.88415 3.94686 3.74332 4.31554C3.63702 4.59566 3.68007 4.88804 3.87193 5.18683ZM6.79124 7.77776C8.72735 8.65386 10.3122 9.5769 9.95237 10.644C9.56122 11.8018 7.14732 12.2287 4.81261 12.6406L4.31623 12.7291L4.14988 12.7601L4.43475 12.7025C6.74926 12.2308 9.14295 11.7421 9.46236 10.4135C9.7063 9.3971 8.53922 8.58236 6.79124 7.77776ZM3.03541 4.93126C3.42763 5.89166 5.83195 7.06547 6.55952 7.40268C8.75711 8.41643 11.2486 9.5705 10.6624 10.9151C10.1809 12.0195 7.81377 12.3829 5.30794 12.767L4.7127 12.8588L4.85673 12.8337C7.25627 12.4095 9.73766 11.9715 10.1671 10.6995C10.6736 9.20075 7.97374 8.04934 5.36268 6.93582C3.71993 6.23526 2.53849 5.31382 2.42317 4.64154C2.31688 4.03329 2.97004 3.51521 4.20994 3.21963C4.96809 3.04007 5.71132 2.80211 6.43304 2.50787C5.81678 2.78862 5.18044 3.02261 4.52935 3.20789C4.01383 3.35782 3.34153 3.64006 3.07102 4.13147C3.00299 4.25262 2.96431 4.38815 2.95813 4.5271C2.95194 4.66604 2.97842 4.80449 3.03541 4.93126ZM4.15148 3.02915C2.78881 3.35408 2.07878 3.95326 2.20155 4.67249C2.32963 5.41626 3.5302 6.37452 5.26542 7.11349C5.53115 7.22767 5.80113 7.34239 6.06686 7.45763C5.4408 7.19086 4.76266 6.92408 4.06272 6.64397C2.18454 5.89699 1.55689 5.00863 1.59568 4.42332C1.64883 3.6438 2.83505 3.24257 3.82197 3.04355C4.5918 2.89269 5.35053 2.68947 6.0929 2.4353C5.45992 2.6772 4.81128 2.87561 4.15148 3.02915ZM0.763416 4.20296C0.95421 3.58404 1.82634 3.14653 3.43507 2.86588C4.28308 2.72408 5.12087 2.52641 5.94303 2.27417C5.23272 2.51382 4.50749 2.70632 3.77201 2.85041C2.24938 3.15773 1.41977 3.69715 1.37247 4.41158C1.31932 5.18523 2.13512 6.00744 3.569 6.6525C3.30805 6.55433 3.04019 6.45402 2.7633 6.35158C0.684228 5.58273 0.617795 4.67516 0.763416 4.20296ZM3.85333 12.6134L4.08504 12.56C6.18219 12.0649 8.55941 11.5041 8.75658 10.1254C8.86288 9.36722 8.20227 8.73229 6.9374 8.07495C8.43399 8.79312 9.44482 9.53209 9.2434 10.3724C8.95535 11.5772 6.52604 12.0713 4.38479 12.5077L4.05688 12.5744C3.86608 12.6134 3.68485 12.656 3.51213 12.7003C3.62214 12.6715 3.73534 12.6416 3.85333 12.6134ZM12.0835 11.4614C11.4495 12.4581 9.13924 12.7211 6.46439 13.0258L5.86597 13.0946L5.8952 13.0909C8.61362 12.7302 10.9616 12.4181 11.5754 11.2725C12.3849 9.76098 9.93961 8.521 7.96417 7.51899C6.41922 6.7352 4.49586 5.75827 4.06644 5.08973C3.90701 4.84163 3.87087 4.60366 3.95537 4.38117C4.07601 4.06637 4.44378 3.77879 4.99225 3.5723C5.55771 3.36349 6.11034 3.12119 6.64722 2.84667C6.3007 3.05316 5.95632 3.22549 5.68421 3.36155C5.5168 3.44532 5.37437 3.51681 5.27126 3.57497C4.75947 3.86682 4.46557 4.19176 4.39754 4.5407C4.34015 4.83362 4.44484 5.13561 4.70898 5.43867C5.12564 5.91887 6.2736 6.49724 7.48852 7.11082C8.05878 7.39894 8.6487 7.69773 9.14455 7.97785L9.23596 8.0312C10.7092 8.86408 12.9344 10.1243 12.0835 11.4614Z" fill="#F07E19"/>
</svg>
