<?xml version="1.0" encoding="utf-8" standalone="no"?>
<!DOCTYPE svg PUBLIC "-//W3C//DTD SVG 1.1//EN"
  "http://www.w3.org/Graphics/SVG/1.1/DTD/svg11.dtd">
<svg height="432pt" version="1.1" viewBox="0 0 720 432" width="720pt" xmlns="http://www.w3.org/2000/svg" xmlns:xlink="http://www.w3.org/1999/xlink">
 <metadata>
  <rdf:RDF xmlns:cc="http://creativecommons.org/ns#" xmlns:dc="http://purl.org/dc/elements/1.1/" xmlns:rdf="http://www.w3.org/1999/02/22-rdf-syntax-ns#">
   <cc:Work>
    <dc:type rdf:resource="http://purl.org/dc/dcmitype/StillImage"/>
    <dc:date>2021-10-14T21:17:41.766493</dc:date>
    <dc:format>image/svg+xml</dc:format>
    <dc:creator>
     <cc:Agent>
      <dc:title>Matplotlib v3.4.2, https://matplotlib.org/</dc:title>
     </cc:Agent>
    </dc:creator>
   </cc:Work>
  </rdf:RDF>
 </metadata>
 <defs>
  <style type="text/css">*{stroke-linecap:butt;stroke-linejoin:round;}</style>
 </defs>
 <g id="figure_1">
  <g id="patch_1">
   <path d="M 0 432 
L 720 432 
L 720 0 
L 0 0 
z
" style="fill:#ffffff;"/>
  </g>
  <g id="axes_1">
   <g id="patch_2">
    <path d="M 90 384.48 
L 648 384.48 
L 648 51.84 
L 90 51.84 
z
" style="fill:#ffffff;"/>
   </g>
   <g id="matplotlib.axis_1">
    <g id="xtick_1">
     <g id="line2d_1"/>
     <g id="text_1">
      <!-- 0 -->
      <g style="fill:#262626;" transform="translate(111.47098 398.000938)scale(0.14 -0.14)">
       <defs>
        <path d="M 266 2259 
Q 266 3072 433 3567 
Q 600 4063 929 4331 
Q 1259 4600 1759 4600 
Q 2128 4600 2406 4451 
Q 2684 4303 2865 4023 
Q 3047 3744 3150 3342 
Q 3253 2941 3253 2259 
Q 3253 1453 3087 958 
Q 2922 463 2592 192 
Q 2263 -78 1759 -78 
Q 1097 -78 719 397 
Q 266 969 266 2259 
z
M 844 2259 
Q 844 1131 1108 757 
Q 1372 384 1759 384 
Q 2147 384 2411 759 
Q 2675 1134 2675 2259 
Q 2675 3391 2411 3762 
Q 2147 4134 1753 4134 
Q 1366 4134 1134 3806 
Q 844 3388 844 2259 
z
" id="ArialMT-30" transform="scale(0.015625)"/>
       </defs>
       <use xlink:href="#ArialMT-30"/>
      </g>
     </g>
    </g>
    <g id="xtick_2">
     <g id="line2d_2"/>
     <g id="text_2">
      <!-- 20 -->
      <g style="fill:#262626;" transform="translate(210.057663 398.000938)scale(0.14 -0.14)">
       <defs>
        <path d="M 3222 541 
L 3222 0 
L 194 0 
Q 188 203 259 391 
Q 375 700 629 1000 
Q 884 1300 1366 1694 
Q 2113 2306 2375 2664 
Q 2638 3022 2638 3341 
Q 2638 3675 2398 3904 
Q 2159 4134 1775 4134 
Q 1369 4134 1125 3890 
Q 881 3647 878 3216 
L 300 3275 
Q 359 3922 746 4261 
Q 1134 4600 1788 4600 
Q 2447 4600 2831 4234 
Q 3216 3869 3216 3328 
Q 3216 3053 3103 2787 
Q 2991 2522 2730 2228 
Q 2469 1934 1863 1422 
Q 1356 997 1212 845 
Q 1069 694 975 541 
L 3222 541 
z
" id="ArialMT-32" transform="scale(0.015625)"/>
       </defs>
       <use xlink:href="#ArialMT-32"/>
       <use x="55.615234" xlink:href="#ArialMT-30"/>
      </g>
     </g>
    </g>
    <g id="xtick_3">
     <g id="line2d_3"/>
     <g id="text_3">
      <!-- 40 -->
      <g style="fill:#262626;" transform="translate(312.537002 398.000938)scale(0.14 -0.14)">
       <defs>
        <path d="M 2069 0 
L 2069 1097 
L 81 1097 
L 81 1613 
L 2172 4581 
L 2631 4581 
L 2631 1613 
L 3250 1613 
L 3250 1097 
L 2631 1097 
L 2631 0 
L 2069 0 
z
M 2069 1613 
L 2069 3678 
L 634 1613 
L 2069 1613 
z
" id="ArialMT-34" transform="scale(0.015625)"/>
       </defs>
       <use xlink:href="#ArialMT-34"/>
       <use x="55.615234" xlink:href="#ArialMT-30"/>
      </g>
     </g>
    </g>
    <g id="xtick_4">
     <g id="line2d_4"/>
     <g id="text_4">
      <!-- 60 -->
      <g style="fill:#262626;" transform="translate(415.01634 398.000938)scale(0.14 -0.14)">
       <defs>
        <path d="M 3184 3459 
L 2625 3416 
Q 2550 3747 2413 3897 
Q 2184 4138 1850 4138 
Q 1581 4138 1378 3988 
Q 1113 3794 959 3422 
Q 806 3050 800 2363 
Q 1003 2672 1297 2822 
Q 1591 2972 1913 2972 
Q 2475 2972 2870 2558 
Q 3266 2144 3266 1488 
Q 3266 1056 3080 686 
Q 2894 316 2569 119 
Q 2244 -78 1831 -78 
Q 1128 -78 684 439 
Q 241 956 241 2144 
Q 241 3472 731 4075 
Q 1159 4600 1884 4600 
Q 2425 4600 2770 4297 
Q 3116 3994 3184 3459 
z
M 888 1484 
Q 888 1194 1011 928 
Q 1134 663 1356 523 
Q 1578 384 1822 384 
Q 2178 384 2434 671 
Q 2691 959 2691 1453 
Q 2691 1928 2437 2201 
Q 2184 2475 1800 2475 
Q 1419 2475 1153 2201 
Q 888 1928 888 1484 
z
" id="ArialMT-36" transform="scale(0.015625)"/>
       </defs>
       <use xlink:href="#ArialMT-36"/>
       <use x="55.615234" xlink:href="#ArialMT-30"/>
      </g>
     </g>
    </g>
    <g id="xtick_5">
     <g id="line2d_5"/>
     <g id="text_5">
      <!-- 80 -->
      <g style="fill:#262626;" transform="translate(517.495679 398.000938)scale(0.14 -0.14)">
       <defs>
        <path d="M 1131 2484 
Q 781 2613 612 2850 
Q 444 3088 444 3419 
Q 444 3919 803 4259 
Q 1163 4600 1759 4600 
Q 2359 4600 2725 4251 
Q 3091 3903 3091 3403 
Q 3091 3084 2923 2848 
Q 2756 2613 2416 2484 
Q 2838 2347 3058 2040 
Q 3278 1734 3278 1309 
Q 3278 722 2862 322 
Q 2447 -78 1769 -78 
Q 1091 -78 675 323 
Q 259 725 259 1325 
Q 259 1772 486 2073 
Q 713 2375 1131 2484 
z
M 1019 3438 
Q 1019 3113 1228 2906 
Q 1438 2700 1772 2700 
Q 2097 2700 2305 2904 
Q 2513 3109 2513 3406 
Q 2513 3716 2298 3927 
Q 2084 4138 1766 4138 
Q 1444 4138 1231 3931 
Q 1019 3725 1019 3438 
z
M 838 1322 
Q 838 1081 952 856 
Q 1066 631 1291 507 
Q 1516 384 1775 384 
Q 2178 384 2440 643 
Q 2703 903 2703 1303 
Q 2703 1709 2433 1975 
Q 2163 2241 1756 2241 
Q 1359 2241 1098 1978 
Q 838 1716 838 1322 
z
" id="ArialMT-38" transform="scale(0.015625)"/>
       </defs>
       <use xlink:href="#ArialMT-38"/>
       <use x="55.615234" xlink:href="#ArialMT-30"/>
      </g>
     </g>
    </g>
    <g id="xtick_6">
     <g id="line2d_6"/>
     <g id="text_6">
      <!-- 100 -->
      <g style="fill:#262626;" transform="translate(616.082362 398.000938)scale(0.14 -0.14)">
       <defs>
        <path d="M 2384 0 
L 1822 0 
L 1822 3584 
Q 1619 3391 1289 3197 
Q 959 3003 697 2906 
L 697 3450 
Q 1169 3672 1522 3987 
Q 1875 4303 2022 4600 
L 2384 4600 
L 2384 0 
z
" id="ArialMT-31" transform="scale(0.015625)"/>
       </defs>
       <use xlink:href="#ArialMT-31"/>
       <use x="55.615234" xlink:href="#ArialMT-30"/>
       <use x="111.230469" xlink:href="#ArialMT-30"/>
      </g>
     </g>
    </g>
    <g id="text_7">
     <!-- Samples -->
     <g style="fill:#262626;" transform="translate(341.766719 414.975)scale(0.14 -0.14)">
      <defs>
       <path d="M 288 1472 
L 859 1522 
Q 900 1178 1048 958 
Q 1197 738 1509 602 
Q 1822 466 2213 466 
Q 2559 466 2825 569 
Q 3091 672 3220 851 
Q 3350 1031 3350 1244 
Q 3350 1459 3225 1620 
Q 3100 1781 2813 1891 
Q 2628 1963 1997 2114 
Q 1366 2266 1113 2400 
Q 784 2572 623 2826 
Q 463 3081 463 3397 
Q 463 3744 659 4045 
Q 856 4347 1234 4503 
Q 1613 4659 2075 4659 
Q 2584 4659 2973 4495 
Q 3363 4331 3572 4012 
Q 3781 3694 3797 3291 
L 3216 3247 
Q 3169 3681 2898 3903 
Q 2628 4125 2100 4125 
Q 1550 4125 1298 3923 
Q 1047 3722 1047 3438 
Q 1047 3191 1225 3031 
Q 1400 2872 2139 2705 
Q 2878 2538 3153 2413 
Q 3553 2228 3743 1945 
Q 3934 1663 3934 1294 
Q 3934 928 3725 604 
Q 3516 281 3123 101 
Q 2731 -78 2241 -78 
Q 1619 -78 1198 103 
Q 778 284 539 648 
Q 300 1013 288 1472 
z
" id="ArialMT-53" transform="scale(0.015625)"/>
       <path d="M 2588 409 
Q 2275 144 1986 34 
Q 1697 -75 1366 -75 
Q 819 -75 525 192 
Q 231 459 231 875 
Q 231 1119 342 1320 
Q 453 1522 633 1644 
Q 813 1766 1038 1828 
Q 1203 1872 1538 1913 
Q 2219 1994 2541 2106 
Q 2544 2222 2544 2253 
Q 2544 2597 2384 2738 
Q 2169 2928 1744 2928 
Q 1347 2928 1158 2789 
Q 969 2650 878 2297 
L 328 2372 
Q 403 2725 575 2942 
Q 747 3159 1072 3276 
Q 1397 3394 1825 3394 
Q 2250 3394 2515 3294 
Q 2781 3194 2906 3042 
Q 3031 2891 3081 2659 
Q 3109 2516 3109 2141 
L 3109 1391 
Q 3109 606 3145 398 
Q 3181 191 3288 0 
L 2700 0 
Q 2613 175 2588 409 
z
M 2541 1666 
Q 2234 1541 1622 1453 
Q 1275 1403 1131 1340 
Q 988 1278 909 1158 
Q 831 1038 831 891 
Q 831 666 1001 516 
Q 1172 366 1500 366 
Q 1825 366 2078 508 
Q 2331 650 2450 897 
Q 2541 1088 2541 1459 
L 2541 1666 
z
" id="ArialMT-61" transform="scale(0.015625)"/>
       <path d="M 422 0 
L 422 3319 
L 925 3319 
L 925 2853 
Q 1081 3097 1340 3245 
Q 1600 3394 1931 3394 
Q 2300 3394 2536 3241 
Q 2772 3088 2869 2813 
Q 3263 3394 3894 3394 
Q 4388 3394 4653 3120 
Q 4919 2847 4919 2278 
L 4919 0 
L 4359 0 
L 4359 2091 
Q 4359 2428 4304 2576 
Q 4250 2725 4106 2815 
Q 3963 2906 3769 2906 
Q 3419 2906 3187 2673 
Q 2956 2441 2956 1928 
L 2956 0 
L 2394 0 
L 2394 2156 
Q 2394 2531 2256 2718 
Q 2119 2906 1806 2906 
Q 1569 2906 1367 2781 
Q 1166 2656 1075 2415 
Q 984 2175 984 1722 
L 984 0 
L 422 0 
z
" id="ArialMT-6d" transform="scale(0.015625)"/>
       <path d="M 422 -1272 
L 422 3319 
L 934 3319 
L 934 2888 
Q 1116 3141 1344 3267 
Q 1572 3394 1897 3394 
Q 2322 3394 2647 3175 
Q 2972 2956 3137 2557 
Q 3303 2159 3303 1684 
Q 3303 1175 3120 767 
Q 2938 359 2589 142 
Q 2241 -75 1856 -75 
Q 1575 -75 1351 44 
Q 1128 163 984 344 
L 984 -1272 
L 422 -1272 
z
M 931 1641 
Q 931 1000 1190 694 
Q 1450 388 1819 388 
Q 2194 388 2461 705 
Q 2728 1022 2728 1688 
Q 2728 2322 2467 2637 
Q 2206 2953 1844 2953 
Q 1484 2953 1207 2617 
Q 931 2281 931 1641 
z
" id="ArialMT-70" transform="scale(0.015625)"/>
       <path d="M 409 0 
L 409 4581 
L 972 4581 
L 972 0 
L 409 0 
z
" id="ArialMT-6c" transform="scale(0.015625)"/>
       <path d="M 2694 1069 
L 3275 997 
Q 3138 488 2766 206 
Q 2394 -75 1816 -75 
Q 1088 -75 661 373 
Q 234 822 234 1631 
Q 234 2469 665 2931 
Q 1097 3394 1784 3394 
Q 2450 3394 2872 2941 
Q 3294 2488 3294 1666 
Q 3294 1616 3291 1516 
L 816 1516 
Q 847 969 1125 678 
Q 1403 388 1819 388 
Q 2128 388 2347 550 
Q 2566 713 2694 1069 
z
M 847 1978 
L 2700 1978 
Q 2663 2397 2488 2606 
Q 2219 2931 1791 2931 
Q 1403 2931 1139 2672 
Q 875 2413 847 1978 
z
" id="ArialMT-65" transform="scale(0.015625)"/>
       <path d="M 197 991 
L 753 1078 
Q 800 744 1014 566 
Q 1228 388 1613 388 
Q 2000 388 2187 545 
Q 2375 703 2375 916 
Q 2375 1106 2209 1216 
Q 2094 1291 1634 1406 
Q 1016 1563 777 1677 
Q 538 1791 414 1992 
Q 291 2194 291 2438 
Q 291 2659 392 2848 
Q 494 3038 669 3163 
Q 800 3259 1026 3326 
Q 1253 3394 1513 3394 
Q 1903 3394 2198 3281 
Q 2494 3169 2634 2976 
Q 2775 2784 2828 2463 
L 2278 2388 
Q 2241 2644 2061 2787 
Q 1881 2931 1553 2931 
Q 1166 2931 1000 2803 
Q 834 2675 834 2503 
Q 834 2394 903 2306 
Q 972 2216 1119 2156 
Q 1203 2125 1616 2013 
Q 2213 1853 2448 1751 
Q 2684 1650 2818 1456 
Q 2953 1263 2953 975 
Q 2953 694 2789 445 
Q 2625 197 2315 61 
Q 2006 -75 1616 -75 
Q 969 -75 630 194 
Q 291 463 197 991 
z
" id="ArialMT-73" transform="scale(0.015625)"/>
      </defs>
      <use xlink:href="#ArialMT-53"/>
      <use x="66.699219" xlink:href="#ArialMT-61"/>
      <use x="122.314453" xlink:href="#ArialMT-6d"/>
      <use x="205.615234" xlink:href="#ArialMT-70"/>
      <use x="261.230469" xlink:href="#ArialMT-6c"/>
      <use x="283.447266" xlink:href="#ArialMT-65"/>
      <use x="339.0625" xlink:href="#ArialMT-73"/>
     </g>
    </g>
   </g>
   <g id="matplotlib.axis_2">
    <g id="ytick_1">
     <g id="line2d_7"/>
     <g id="text_8">
      <!-- −0.75 -->
      <g style="fill:#262626;" transform="translate(51.077812 355.921236)scale(0.14 -0.14)">
       <defs>
        <path d="M 3381 1997 
L 356 1997 
L 356 2522 
L 3381 2522 
L 3381 1997 
z
" id="ArialMT-2212" transform="scale(0.015625)"/>
        <path d="M 581 0 
L 581 641 
L 1222 641 
L 1222 0 
L 581 0 
z
" id="ArialMT-2e" transform="scale(0.015625)"/>
        <path d="M 303 3981 
L 303 4522 
L 3269 4522 
L 3269 4084 
Q 2831 3619 2401 2847 
Q 1972 2075 1738 1259 
Q 1569 684 1522 0 
L 944 0 
Q 953 541 1156 1306 
Q 1359 2072 1739 2783 
Q 2119 3494 2547 3981 
L 303 3981 
z
" id="ArialMT-37" transform="scale(0.015625)"/>
        <path d="M 266 1200 
L 856 1250 
Q 922 819 1161 601 
Q 1400 384 1738 384 
Q 2144 384 2425 690 
Q 2706 997 2706 1503 
Q 2706 1984 2436 2262 
Q 2166 2541 1728 2541 
Q 1456 2541 1237 2417 
Q 1019 2294 894 2097 
L 366 2166 
L 809 4519 
L 3088 4519 
L 3088 3981 
L 1259 3981 
L 1013 2750 
Q 1425 3038 1878 3038 
Q 2478 3038 2890 2622 
Q 3303 2206 3303 1553 
Q 3303 931 2941 478 
Q 2500 -78 1738 -78 
Q 1113 -78 717 272 
Q 322 622 266 1200 
z
" id="ArialMT-35" transform="scale(0.015625)"/>
       </defs>
       <use xlink:href="#ArialMT-2212"/>
       <use x="58.398438" xlink:href="#ArialMT-30"/>
       <use x="114.013672" xlink:href="#ArialMT-2e"/>
       <use x="141.796875" xlink:href="#ArialMT-37"/>
       <use x="197.412109" xlink:href="#ArialMT-35"/>
      </g>
     </g>
    </g>
    <g id="ytick_2">
     <g id="line2d_8"/>
     <g id="text_9">
      <!-- −0.50 -->
      <g style="fill:#262626;" transform="translate(51.077812 315.983281)scale(0.14 -0.14)">
       <use xlink:href="#ArialMT-2212"/>
       <use x="58.398438" xlink:href="#ArialMT-30"/>
       <use x="114.013672" xlink:href="#ArialMT-2e"/>
       <use x="141.796875" xlink:href="#ArialMT-35"/>
       <use x="197.412109" xlink:href="#ArialMT-30"/>
      </g>
     </g>
    </g>
    <g id="ytick_3">
     <g id="line2d_9"/>
     <g id="text_10">
      <!-- −0.25 -->
      <g style="fill:#262626;" transform="translate(51.077812 276.045325)scale(0.14 -0.14)">
       <use xlink:href="#ArialMT-2212"/>
       <use x="58.398438" xlink:href="#ArialMT-30"/>
       <use x="114.013672" xlink:href="#ArialMT-2e"/>
       <use x="141.796875" xlink:href="#ArialMT-32"/>
       <use x="197.412109" xlink:href="#ArialMT-35"/>
      </g>
     </g>
    </g>
    <g id="ytick_4">
     <g id="line2d_10"/>
     <g id="text_11">
      <!-- 0.00 -->
      <g style="fill:#262626;" transform="translate(59.254687 236.10737)scale(0.14 -0.14)">
       <use xlink:href="#ArialMT-30"/>
       <use x="55.615234" xlink:href="#ArialMT-2e"/>
       <use x="83.398438" xlink:href="#ArialMT-30"/>
       <use x="139.013672" xlink:href="#ArialMT-30"/>
      </g>
     </g>
    </g>
    <g id="ytick_5">
     <g id="line2d_11"/>
     <g id="text_12">
      <!-- 0.25 -->
      <g style="fill:#262626;" transform="translate(59.254687 196.169414)scale(0.14 -0.14)">
       <use xlink:href="#ArialMT-30"/>
       <use x="55.615234" xlink:href="#ArialMT-2e"/>
       <use x="83.398438" xlink:href="#ArialMT-32"/>
       <use x="139.013672" xlink:href="#ArialMT-35"/>
      </g>
     </g>
    </g>
    <g id="ytick_6">
     <g id="line2d_12"/>
     <g id="text_13">
      <!-- 0.50 -->
      <g style="fill:#262626;" transform="translate(59.254687 156.231458)scale(0.14 -0.14)">
       <use xlink:href="#ArialMT-30"/>
       <use x="55.615234" xlink:href="#ArialMT-2e"/>
       <use x="83.398438" xlink:href="#ArialMT-35"/>
       <use x="139.013672" xlink:href="#ArialMT-30"/>
      </g>
     </g>
    </g>
    <g id="ytick_7">
     <g id="line2d_13"/>
     <g id="text_14">
      <!-- 0.75 -->
      <g style="fill:#262626;" transform="translate(59.254687 116.293503)scale(0.14 -0.14)">
       <use xlink:href="#ArialMT-30"/>
       <use x="55.615234" xlink:href="#ArialMT-2e"/>
       <use x="83.398438" xlink:href="#ArialMT-37"/>
       <use x="139.013672" xlink:href="#ArialMT-35"/>
      </g>
     </g>
    </g>
    <g id="ytick_8">
     <g id="line2d_14"/>
     <g id="text_15">
      <!-- 1.00 -->
      <g style="fill:#262626;" transform="translate(59.254687 76.355547)scale(0.14 -0.14)">
       <use xlink:href="#ArialMT-31"/>
       <use x="55.615234" xlink:href="#ArialMT-2e"/>
       <use x="83.398438" xlink:href="#ArialMT-30"/>
       <use x="139.013672" xlink:href="#ArialMT-30"/>
      </g>
     </g>
    </g>
    <g id="text_16">
     <!-- y, $\hat{y}$ -->
     <g style="fill:#262626;" transform="translate(43.997812 229.71)rotate(-90)scale(0.14 -0.14)">
      <defs>
       <path d="M 397 -1278 
L 334 -750 
Q 519 -800 656 -800 
Q 844 -800 956 -737 
Q 1069 -675 1141 -563 
Q 1194 -478 1313 -144 
Q 1328 -97 1363 -6 
L 103 3319 
L 709 3319 
L 1400 1397 
Q 1534 1031 1641 628 
Q 1738 1016 1872 1384 
L 2581 3319 
L 3144 3319 
L 1881 -56 
Q 1678 -603 1566 -809 
Q 1416 -1088 1222 -1217 
Q 1028 -1347 759 -1347 
Q 597 -1347 397 -1278 
z
" id="ArialMT-79" transform="scale(0.015625)"/>
       <path d="M 569 0 
L 569 641 
L 1209 641 
L 1209 0 
Q 1209 -353 1084 -570 
Q 959 -788 688 -906 
L 531 -666 
Q 709 -588 793 -436 
Q 878 -284 888 0 
L 569 0 
z
" id="ArialMT-2c" transform="scale(0.015625)"/>
       <path id="ArialMT-20" transform="scale(0.015625)"/>
       <path d="M -1831 5119 
L -1369 5119 
L -603 3944 
L -1038 3944 
L -1600 4709 
L -2163 3944 
L -2597 3944 
L -1831 5119 
z
M -1600 3584 
L -1600 3584 
z
" id="DejaVuSans-302" transform="scale(0.015625)"/>
       <path d="M 1588 -325 
Q 1188 -997 936 -1164 
Q 684 -1331 294 -1331 
L -159 -1331 
L -63 -850 
L 269 -850 
Q 509 -850 678 -719 
Q 847 -588 1056 -206 
L 1234 128 
L 459 3500 
L 1069 3500 
L 1650 819 
L 3256 3500 
L 3859 3500 
L 1588 -325 
z
" id="DejaVuSans-Oblique-79" transform="scale(0.015625)"/>
      </defs>
      <use transform="translate(0 0.828125)" xlink:href="#ArialMT-79"/>
      <use transform="translate(50 0.828125)" xlink:href="#ArialMT-2c"/>
      <use transform="translate(77.783203 0.828125)" xlink:href="#ArialMT-20"/>
      <use transform="translate(167.939453 12.015625)" xlink:href="#DejaVuSans-302"/>
      <use transform="translate(105.566406 0.828125)" xlink:href="#DejaVuSans-Oblique-79"/>
     </g>
    </g>
   </g>
   <g id="line2d_15">
    <path clip-path="url(#pf4c4872d49)" d="M 115.363636 126.966155 
L 120.487603 110.793252 
L 125.61157 116.606294 
L 130.735537 66.986244 
L 135.859504 140.093553 
L 140.983471 197.844691 
L 146.107438 239.005777 
L 151.231405 102.556097 
L 156.355372 296.179305 
L 161.479339 193.650068 
L 166.603306 347.806966 
L 171.727273 344.618864 
L 176.85124 365.720099 
L 181.975207 298.008216 
L 187.099174 145.427743 
L 192.22314 221.377423 
L 197.347107 90.821603 
L 202.471074 238.196277 
L 207.595041 172.022304 
L 212.719008 81.536729 
L 217.842975 157.228385 
L 222.966942 119.604254 
L 228.090909 103.933474 
L 233.214876 244.440225 
L 238.338843 278.647055 
L 243.46281 369.256559 
L 248.586777 141.692135 
L 253.710744 300.343319 
L 258.834711 134.773011 
L 263.958678 235.108722 
L 269.082645 367.537602 
L 274.206612 281.535243 
L 279.330579 103.231913 
L 284.454545 294.230759 
L 289.578512 214.288417 
L 294.702479 103.40827 
L 299.826446 321.870958 
L 304.950413 140.321507 
L 310.07438 340.029636 
L 315.198347 333.167533 
L 320.322314 255.287691 
L 325.446281 134.147441 
L 330.570248 113.457295 
L 335.694215 154.574653 
L 340.818182 280.281911 
L 345.942149 206.865896 
L 351.066116 300.253271 
L 356.190083 246.113244 
L 361.31405 282.20379 
L 366.438017 240.642571 
L 371.561983 201.558047 
L 376.68595 236.960505 
L 381.809917 243.340771 
L 386.933884 170.950428 
L 392.057851 194.130675 
L 397.181818 222.141423 
L 402.305785 359.183604 
L 407.429752 138.560019 
L 412.553719 179.558734 
L 417.677686 291.505557 
L 422.801653 282.105597 
L 427.92562 347.427312 
L 433.049587 219.765113 
L 438.173554 216.366427 
L 443.297521 112.710839 
L 448.421488 94.758851 
L 453.545455 206.421063 
L 458.669421 245.781318 
L 463.793388 138.48742 
L 468.917355 83.372179 
L 474.041322 135.042555 
L 479.165289 332.31454 
L 484.289256 211.209919 
L 489.413223 140.287652 
L 494.53719 261.133563 
L 499.661157 312.082626 
L 504.785124 369.346491 
L 509.909091 297.105816 
L 515.033058 309.16341 
L 520.157025 169.653458 
L 525.280992 208.929493 
L 530.404959 156.861105 
L 535.528926 222.459625 
L 540.652893 327.404794 
L 545.77686 191.292853 
L 550.900826 347.839197 
L 556.024793 187.837215 
L 561.14876 312.863395 
L 566.272727 225.078352 
L 571.396694 110.96791 
L 576.520661 157.202911 
L 581.644628 184.914755 
L 586.768595 118.047532 
L 591.892562 236.664401 
L 597.016529 289.064353 
L 602.140496 197.981569 
L 607.264463 203.200145 
L 612.38843 329.725119 
L 617.512397 103.882682 
L 622.636364 328.688077 
" style="fill:none;stroke:#1f77b4;stroke-linecap:round;stroke-width:1.5;"/>
    <defs>
     <path d="M 0 3 
C 0.795609 3 1.55874 2.683901 2.12132 2.12132 
C 2.683901 1.55874 3 0.795609 3 0 
C 3 -0.795609 2.683901 -1.55874 2.12132 -2.12132 
C 1.55874 -2.683901 0.795609 -3 0 -3 
C -0.795609 -3 -1.55874 -2.683901 -2.12132 -2.12132 
C -2.683901 -1.55874 -3 -0.795609 -3 0 
C -3 0.795609 -2.683901 1.55874 -2.12132 2.12132 
C -1.55874 2.683901 -0.795609 3 0 3 
z
" id="mef66985e0d" style="stroke:#1f77b4;"/>
    </defs>
    <g clip-path="url(#pf4c4872d49)">
     <use style="fill:#1f77b4;stroke:#1f77b4;" x="115.363636" xlink:href="#mef66985e0d" y="126.966155"/>
     <use style="fill:#1f77b4;stroke:#1f77b4;" x="120.487603" xlink:href="#mef66985e0d" y="110.793252"/>
     <use style="fill:#1f77b4;stroke:#1f77b4;" x="125.61157" xlink:href="#mef66985e0d" y="116.606294"/>
     <use style="fill:#1f77b4;stroke:#1f77b4;" x="130.735537" xlink:href="#mef66985e0d" y="66.986244"/>
     <use style="fill:#1f77b4;stroke:#1f77b4;" x="135.859504" xlink:href="#mef66985e0d" y="140.093553"/>
     <use style="fill:#1f77b4;stroke:#1f77b4;" x="140.983471" xlink:href="#mef66985e0d" y="197.844691"/>
     <use style="fill:#1f77b4;stroke:#1f77b4;" x="146.107438" xlink:href="#mef66985e0d" y="239.005777"/>
     <use style="fill:#1f77b4;stroke:#1f77b4;" x="151.231405" xlink:href="#mef66985e0d" y="102.556097"/>
     <use style="fill:#1f77b4;stroke:#1f77b4;" x="156.355372" xlink:href="#mef66985e0d" y="296.179305"/>
     <use style="fill:#1f77b4;stroke:#1f77b4;" x="161.479339" xlink:href="#mef66985e0d" y="193.650068"/>
     <use style="fill:#1f77b4;stroke:#1f77b4;" x="166.603306" xlink:href="#mef66985e0d" y="347.806966"/>
     <use style="fill:#1f77b4;stroke:#1f77b4;" x="171.727273" xlink:href="#mef66985e0d" y="344.618864"/>
     <use style="fill:#1f77b4;stroke:#1f77b4;" x="176.85124" xlink:href="#mef66985e0d" y="365.720099"/>
     <use style="fill:#1f77b4;stroke:#1f77b4;" x="181.975207" xlink:href="#mef66985e0d" y="298.008216"/>
     <use style="fill:#1f77b4;stroke:#1f77b4;" x="187.099174" xlink:href="#mef66985e0d" y="145.427743"/>
     <use style="fill:#1f77b4;stroke:#1f77b4;" x="192.22314" xlink:href="#mef66985e0d" y="221.377423"/>
     <use style="fill:#1f77b4;stroke:#1f77b4;" x="197.347107" xlink:href="#mef66985e0d" y="90.821603"/>
     <use style="fill:#1f77b4;stroke:#1f77b4;" x="202.471074" xlink:href="#mef66985e0d" y="238.196277"/>
     <use style="fill:#1f77b4;stroke:#1f77b4;" x="207.595041" xlink:href="#mef66985e0d" y="172.022304"/>
     <use style="fill:#1f77b4;stroke:#1f77b4;" x="212.719008" xlink:href="#mef66985e0d" y="81.536729"/>
     <use style="fill:#1f77b4;stroke:#1f77b4;" x="217.842975" xlink:href="#mef66985e0d" y="157.228385"/>
     <use style="fill:#1f77b4;stroke:#1f77b4;" x="222.966942" xlink:href="#mef66985e0d" y="119.604254"/>
     <use style="fill:#1f77b4;stroke:#1f77b4;" x="228.090909" xlink:href="#mef66985e0d" y="103.933474"/>
     <use style="fill:#1f77b4;stroke:#1f77b4;" x="233.214876" xlink:href="#mef66985e0d" y="244.440225"/>
     <use style="fill:#1f77b4;stroke:#1f77b4;" x="238.338843" xlink:href="#mef66985e0d" y="278.647055"/>
     <use style="fill:#1f77b4;stroke:#1f77b4;" x="243.46281" xlink:href="#mef66985e0d" y="369.256559"/>
     <use style="fill:#1f77b4;stroke:#1f77b4;" x="248.586777" xlink:href="#mef66985e0d" y="141.692135"/>
     <use style="fill:#1f77b4;stroke:#1f77b4;" x="253.710744" xlink:href="#mef66985e0d" y="300.343319"/>
     <use style="fill:#1f77b4;stroke:#1f77b4;" x="258.834711" xlink:href="#mef66985e0d" y="134.773011"/>
     <use style="fill:#1f77b4;stroke:#1f77b4;" x="263.958678" xlink:href="#mef66985e0d" y="235.108722"/>
     <use style="fill:#1f77b4;stroke:#1f77b4;" x="269.082645" xlink:href="#mef66985e0d" y="367.537602"/>
     <use style="fill:#1f77b4;stroke:#1f77b4;" x="274.206612" xlink:href="#mef66985e0d" y="281.535243"/>
     <use style="fill:#1f77b4;stroke:#1f77b4;" x="279.330579" xlink:href="#mef66985e0d" y="103.231913"/>
     <use style="fill:#1f77b4;stroke:#1f77b4;" x="284.454545" xlink:href="#mef66985e0d" y="294.230759"/>
     <use style="fill:#1f77b4;stroke:#1f77b4;" x="289.578512" xlink:href="#mef66985e0d" y="214.288417"/>
     <use style="fill:#1f77b4;stroke:#1f77b4;" x="294.702479" xlink:href="#mef66985e0d" y="103.40827"/>
     <use style="fill:#1f77b4;stroke:#1f77b4;" x="299.826446" xlink:href="#mef66985e0d" y="321.870958"/>
     <use style="fill:#1f77b4;stroke:#1f77b4;" x="304.950413" xlink:href="#mef66985e0d" y="140.321507"/>
     <use style="fill:#1f77b4;stroke:#1f77b4;" x="310.07438" xlink:href="#mef66985e0d" y="340.029636"/>
     <use style="fill:#1f77b4;stroke:#1f77b4;" x="315.198347" xlink:href="#mef66985e0d" y="333.167533"/>
     <use style="fill:#1f77b4;stroke:#1f77b4;" x="320.322314" xlink:href="#mef66985e0d" y="255.287691"/>
     <use style="fill:#1f77b4;stroke:#1f77b4;" x="325.446281" xlink:href="#mef66985e0d" y="134.147441"/>
     <use style="fill:#1f77b4;stroke:#1f77b4;" x="330.570248" xlink:href="#mef66985e0d" y="113.457295"/>
     <use style="fill:#1f77b4;stroke:#1f77b4;" x="335.694215" xlink:href="#mef66985e0d" y="154.574653"/>
     <use style="fill:#1f77b4;stroke:#1f77b4;" x="340.818182" xlink:href="#mef66985e0d" y="280.281911"/>
     <use style="fill:#1f77b4;stroke:#1f77b4;" x="345.942149" xlink:href="#mef66985e0d" y="206.865896"/>
     <use style="fill:#1f77b4;stroke:#1f77b4;" x="351.066116" xlink:href="#mef66985e0d" y="300.253271"/>
     <use style="fill:#1f77b4;stroke:#1f77b4;" x="356.190083" xlink:href="#mef66985e0d" y="246.113244"/>
     <use style="fill:#1f77b4;stroke:#1f77b4;" x="361.31405" xlink:href="#mef66985e0d" y="282.20379"/>
     <use style="fill:#1f77b4;stroke:#1f77b4;" x="366.438017" xlink:href="#mef66985e0d" y="240.642571"/>
     <use style="fill:#1f77b4;stroke:#1f77b4;" x="371.561983" xlink:href="#mef66985e0d" y="201.558047"/>
     <use style="fill:#1f77b4;stroke:#1f77b4;" x="376.68595" xlink:href="#mef66985e0d" y="236.960505"/>
     <use style="fill:#1f77b4;stroke:#1f77b4;" x="381.809917" xlink:href="#mef66985e0d" y="243.340771"/>
     <use style="fill:#1f77b4;stroke:#1f77b4;" x="386.933884" xlink:href="#mef66985e0d" y="170.950428"/>
     <use style="fill:#1f77b4;stroke:#1f77b4;" x="392.057851" xlink:href="#mef66985e0d" y="194.130675"/>
     <use style="fill:#1f77b4;stroke:#1f77b4;" x="397.181818" xlink:href="#mef66985e0d" y="222.141423"/>
     <use style="fill:#1f77b4;stroke:#1f77b4;" x="402.305785" xlink:href="#mef66985e0d" y="359.183604"/>
     <use style="fill:#1f77b4;stroke:#1f77b4;" x="407.429752" xlink:href="#mef66985e0d" y="138.560019"/>
     <use style="fill:#1f77b4;stroke:#1f77b4;" x="412.553719" xlink:href="#mef66985e0d" y="179.558734"/>
     <use style="fill:#1f77b4;stroke:#1f77b4;" x="417.677686" xlink:href="#mef66985e0d" y="291.505557"/>
     <use style="fill:#1f77b4;stroke:#1f77b4;" x="422.801653" xlink:href="#mef66985e0d" y="282.105597"/>
     <use style="fill:#1f77b4;stroke:#1f77b4;" x="427.92562" xlink:href="#mef66985e0d" y="347.427312"/>
     <use style="fill:#1f77b4;stroke:#1f77b4;" x="433.049587" xlink:href="#mef66985e0d" y="219.765113"/>
     <use style="fill:#1f77b4;stroke:#1f77b4;" x="438.173554" xlink:href="#mef66985e0d" y="216.366427"/>
     <use style="fill:#1f77b4;stroke:#1f77b4;" x="443.297521" xlink:href="#mef66985e0d" y="112.710839"/>
     <use style="fill:#1f77b4;stroke:#1f77b4;" x="448.421488" xlink:href="#mef66985e0d" y="94.758851"/>
     <use style="fill:#1f77b4;stroke:#1f77b4;" x="453.545455" xlink:href="#mef66985e0d" y="206.421063"/>
     <use style="fill:#1f77b4;stroke:#1f77b4;" x="458.669421" xlink:href="#mef66985e0d" y="245.781318"/>
     <use style="fill:#1f77b4;stroke:#1f77b4;" x="463.793388" xlink:href="#mef66985e0d" y="138.48742"/>
     <use style="fill:#1f77b4;stroke:#1f77b4;" x="468.917355" xlink:href="#mef66985e0d" y="83.372179"/>
     <use style="fill:#1f77b4;stroke:#1f77b4;" x="474.041322" xlink:href="#mef66985e0d" y="135.042555"/>
     <use style="fill:#1f77b4;stroke:#1f77b4;" x="479.165289" xlink:href="#mef66985e0d" y="332.31454"/>
     <use style="fill:#1f77b4;stroke:#1f77b4;" x="484.289256" xlink:href="#mef66985e0d" y="211.209919"/>
     <use style="fill:#1f77b4;stroke:#1f77b4;" x="489.413223" xlink:href="#mef66985e0d" y="140.287652"/>
     <use style="fill:#1f77b4;stroke:#1f77b4;" x="494.53719" xlink:href="#mef66985e0d" y="261.133563"/>
     <use style="fill:#1f77b4;stroke:#1f77b4;" x="499.661157" xlink:href="#mef66985e0d" y="312.082626"/>
     <use style="fill:#1f77b4;stroke:#1f77b4;" x="504.785124" xlink:href="#mef66985e0d" y="369.346491"/>
     <use style="fill:#1f77b4;stroke:#1f77b4;" x="509.909091" xlink:href="#mef66985e0d" y="297.105816"/>
     <use style="fill:#1f77b4;stroke:#1f77b4;" x="515.033058" xlink:href="#mef66985e0d" y="309.16341"/>
     <use style="fill:#1f77b4;stroke:#1f77b4;" x="520.157025" xlink:href="#mef66985e0d" y="169.653458"/>
     <use style="fill:#1f77b4;stroke:#1f77b4;" x="525.280992" xlink:href="#mef66985e0d" y="208.929493"/>
     <use style="fill:#1f77b4;stroke:#1f77b4;" x="530.404959" xlink:href="#mef66985e0d" y="156.861105"/>
     <use style="fill:#1f77b4;stroke:#1f77b4;" x="535.528926" xlink:href="#mef66985e0d" y="222.459625"/>
     <use style="fill:#1f77b4;stroke:#1f77b4;" x="540.652893" xlink:href="#mef66985e0d" y="327.404794"/>
     <use style="fill:#1f77b4;stroke:#1f77b4;" x="545.77686" xlink:href="#mef66985e0d" y="191.292853"/>
     <use style="fill:#1f77b4;stroke:#1f77b4;" x="550.900826" xlink:href="#mef66985e0d" y="347.839197"/>
     <use style="fill:#1f77b4;stroke:#1f77b4;" x="556.024793" xlink:href="#mef66985e0d" y="187.837215"/>
     <use style="fill:#1f77b4;stroke:#1f77b4;" x="561.14876" xlink:href="#mef66985e0d" y="312.863395"/>
     <use style="fill:#1f77b4;stroke:#1f77b4;" x="566.272727" xlink:href="#mef66985e0d" y="225.078352"/>
     <use style="fill:#1f77b4;stroke:#1f77b4;" x="571.396694" xlink:href="#mef66985e0d" y="110.96791"/>
     <use style="fill:#1f77b4;stroke:#1f77b4;" x="576.520661" xlink:href="#mef66985e0d" y="157.202911"/>
     <use style="fill:#1f77b4;stroke:#1f77b4;" x="581.644628" xlink:href="#mef66985e0d" y="184.914755"/>
     <use style="fill:#1f77b4;stroke:#1f77b4;" x="586.768595" xlink:href="#mef66985e0d" y="118.047532"/>
     <use style="fill:#1f77b4;stroke:#1f77b4;" x="591.892562" xlink:href="#mef66985e0d" y="236.664401"/>
     <use style="fill:#1f77b4;stroke:#1f77b4;" x="597.016529" xlink:href="#mef66985e0d" y="289.064353"/>
     <use style="fill:#1f77b4;stroke:#1f77b4;" x="602.140496" xlink:href="#mef66985e0d" y="197.981569"/>
     <use style="fill:#1f77b4;stroke:#1f77b4;" x="607.264463" xlink:href="#mef66985e0d" y="203.200145"/>
     <use style="fill:#1f77b4;stroke:#1f77b4;" x="612.38843" xlink:href="#mef66985e0d" y="329.725119"/>
     <use style="fill:#1f77b4;stroke:#1f77b4;" x="617.512397" xlink:href="#mef66985e0d" y="103.882682"/>
     <use style="fill:#1f77b4;stroke:#1f77b4;" x="622.636364" xlink:href="#mef66985e0d" y="328.688077"/>
    </g>
   </g>
   <g id="line2d_16">
    <path clip-path="url(#pf4c4872d49)" d="M 115.363636 126.966155 
L 120.487603 110.793252 
L 125.61157 116.606612 
L 130.735537 66.96 
L 135.859504 140.070676 
L 140.983471 197.845281 
L 146.107438 239.010049 
L 151.231405 102.557606 
L 156.355372 296.160562 
L 161.479339 193.644009 
L 166.603306 347.80598 
L 171.727273 344.598803 
L 176.85124 365.733235 
L 181.975207 297.993276 
L 187.099174 145.397857 
L 192.22314 221.392026 
L 197.347107 90.822813 
L 202.471074 238.218894 
L 207.595041 172.027486 
L 212.719008 81.531981 
L 217.842975 157.210206 
L 222.966942 119.595503 
L 228.090909 103.915614 
L 233.214876 244.453724 
L 238.338843 278.633503 
L 243.46281 369.254287 
L 248.586777 141.693946 
L 253.710744 300.324402 
L 258.834711 134.766865 
L 263.958678 235.10108 
L 269.082645 367.535655 
L 274.206612 281.555097 
L 279.330579 103.257399 
L 284.454545 294.224167 
L 289.578512 214.323464 
L 294.702479 103.420818 
L 299.826446 321.889443 
L 304.950413 140.355208 
L 310.07438 340.04096 
L 315.198347 333.174104 
L 320.322314 255.296267 
L 325.446281 134.16666 
L 330.570248 113.451894 
L 335.694215 154.576735 
L 340.818182 280.281448 
L 345.942149 206.83085 
L 351.066116 300.237049 
L 356.190083 246.110473 
L 361.31405 282.181553 
L 366.438017 240.625679 
L 371.561983 201.563343 
L 376.68595 236.96125 
L 381.809917 243.34597 
L 386.933884 170.967498 
L 392.057851 194.118462 
L 397.181818 222.09918 
L 402.305785 359.162132 
L 407.429752 138.54985 
L 412.553719 179.541493 
L 417.677686 291.495543 
L 422.801653 282.084184 
L 427.92562 347.4337 
L 433.049587 219.76774 
L 438.173554 216.362923 
L 443.297521 112.711689 
L 448.421488 94.772115 
L 453.545455 206.447382 
L 458.669421 245.800893 
L 463.793388 138.489513 
L 468.917355 83.351711 
L 474.041322 135.035776 
L 479.165289 332.300841 
L 484.289256 211.196088 
L 489.413223 140.269609 
L 494.53719 261.119981 
L 499.661157 312.110173 
L 504.785124 369.36 
L 509.909091 297.123776 
L 515.033058 309.146451 
L 520.157025 169.634418 
L 525.280992 208.952442 
L 530.404959 156.855757 
L 535.528926 222.482875 
L 540.652893 327.403079 
L 545.77686 191.281004 
L 550.900826 347.821625 
L 556.024793 187.833751 
L 561.14876 312.869183 
L 566.272727 225.087613 
L 571.396694 110.951738 
L 576.520661 157.200897 
L 581.644628 184.941229 
L 586.768595 118.051882 
L 591.892562 236.691648 
L 597.016529 289.059772 
L 602.140496 197.977341 
L 607.264463 203.218366 
L 612.38843 329.726798 
L 617.512397 103.898027 
L 622.636364 328.671687 
" style="fill:none;stroke:#ff7f0e;stroke-linecap:round;stroke-width:1.5;"/>
    <defs>
     <path d="M 0 -3 
L -0.673542 -0.927051 
L -2.85317 -0.927051 
L -1.089814 0.354102 
L -1.763356 2.427051 
L -0 1.145898 
L 1.763356 2.427051 
L 1.089814 0.354102 
L 2.85317 -0.927051 
L 0.673542 -0.927051 
z
" id="m656e8413cd" style="stroke:#ff7f0e;stroke-linejoin:bevel;"/>
    </defs>
    <g clip-path="url(#pf4c4872d49)">
     <use style="fill:#ff7f0e;stroke:#ff7f0e;stroke-linejoin:bevel;" x="115.363636" xlink:href="#m656e8413cd" y="126.966155"/>
     <use style="fill:#ff7f0e;stroke:#ff7f0e;stroke-linejoin:bevel;" x="120.487603" xlink:href="#m656e8413cd" y="110.793252"/>
     <use style="fill:#ff7f0e;stroke:#ff7f0e;stroke-linejoin:bevel;" x="125.61157" xlink:href="#m656e8413cd" y="116.606612"/>
     <use style="fill:#ff7f0e;stroke:#ff7f0e;stroke-linejoin:bevel;" x="130.735537" xlink:href="#m656e8413cd" y="66.96"/>
     <use style="fill:#ff7f0e;stroke:#ff7f0e;stroke-linejoin:bevel;" x="135.859504" xlink:href="#m656e8413cd" y="140.070676"/>
     <use style="fill:#ff7f0e;stroke:#ff7f0e;stroke-linejoin:bevel;" x="140.983471" xlink:href="#m656e8413cd" y="197.845281"/>
     <use style="fill:#ff7f0e;stroke:#ff7f0e;stroke-linejoin:bevel;" x="146.107438" xlink:href="#m656e8413cd" y="239.010049"/>
     <use style="fill:#ff7f0e;stroke:#ff7f0e;stroke-linejoin:bevel;" x="151.231405" xlink:href="#m656e8413cd" y="102.557606"/>
     <use style="fill:#ff7f0e;stroke:#ff7f0e;stroke-linejoin:bevel;" x="156.355372" xlink:href="#m656e8413cd" y="296.160562"/>
     <use style="fill:#ff7f0e;stroke:#ff7f0e;stroke-linejoin:bevel;" x="161.479339" xlink:href="#m656e8413cd" y="193.644009"/>
     <use style="fill:#ff7f0e;stroke:#ff7f0e;stroke-linejoin:bevel;" x="166.603306" xlink:href="#m656e8413cd" y="347.80598"/>
     <use style="fill:#ff7f0e;stroke:#ff7f0e;stroke-linejoin:bevel;" x="171.727273" xlink:href="#m656e8413cd" y="344.598803"/>
     <use style="fill:#ff7f0e;stroke:#ff7f0e;stroke-linejoin:bevel;" x="176.85124" xlink:href="#m656e8413cd" y="365.733235"/>
     <use style="fill:#ff7f0e;stroke:#ff7f0e;stroke-linejoin:bevel;" x="181.975207" xlink:href="#m656e8413cd" y="297.993276"/>
     <use style="fill:#ff7f0e;stroke:#ff7f0e;stroke-linejoin:bevel;" x="187.099174" xlink:href="#m656e8413cd" y="145.397857"/>
     <use style="fill:#ff7f0e;stroke:#ff7f0e;stroke-linejoin:bevel;" x="192.22314" xlink:href="#m656e8413cd" y="221.392026"/>
     <use style="fill:#ff7f0e;stroke:#ff7f0e;stroke-linejoin:bevel;" x="197.347107" xlink:href="#m656e8413cd" y="90.822813"/>
     <use style="fill:#ff7f0e;stroke:#ff7f0e;stroke-linejoin:bevel;" x="202.471074" xlink:href="#m656e8413cd" y="238.218894"/>
     <use style="fill:#ff7f0e;stroke:#ff7f0e;stroke-linejoin:bevel;" x="207.595041" xlink:href="#m656e8413cd" y="172.027486"/>
     <use style="fill:#ff7f0e;stroke:#ff7f0e;stroke-linejoin:bevel;" x="212.719008" xlink:href="#m656e8413cd" y="81.531981"/>
     <use style="fill:#ff7f0e;stroke:#ff7f0e;stroke-linejoin:bevel;" x="217.842975" xlink:href="#m656e8413cd" y="157.210206"/>
     <use style="fill:#ff7f0e;stroke:#ff7f0e;stroke-linejoin:bevel;" x="222.966942" xlink:href="#m656e8413cd" y="119.595503"/>
     <use style="fill:#ff7f0e;stroke:#ff7f0e;stroke-linejoin:bevel;" x="228.090909" xlink:href="#m656e8413cd" y="103.915614"/>
     <use style="fill:#ff7f0e;stroke:#ff7f0e;stroke-linejoin:bevel;" x="233.214876" xlink:href="#m656e8413cd" y="244.453724"/>
     <use style="fill:#ff7f0e;stroke:#ff7f0e;stroke-linejoin:bevel;" x="238.338843" xlink:href="#m656e8413cd" y="278.633503"/>
     <use style="fill:#ff7f0e;stroke:#ff7f0e;stroke-linejoin:bevel;" x="243.46281" xlink:href="#m656e8413cd" y="369.254287"/>
     <use style="fill:#ff7f0e;stroke:#ff7f0e;stroke-linejoin:bevel;" x="248.586777" xlink:href="#m656e8413cd" y="141.693946"/>
     <use style="fill:#ff7f0e;stroke:#ff7f0e;stroke-linejoin:bevel;" x="253.710744" xlink:href="#m656e8413cd" y="300.324402"/>
     <use style="fill:#ff7f0e;stroke:#ff7f0e;stroke-linejoin:bevel;" x="258.834711" xlink:href="#m656e8413cd" y="134.766865"/>
     <use style="fill:#ff7f0e;stroke:#ff7f0e;stroke-linejoin:bevel;" x="263.958678" xlink:href="#m656e8413cd" y="235.10108"/>
     <use style="fill:#ff7f0e;stroke:#ff7f0e;stroke-linejoin:bevel;" x="269.082645" xlink:href="#m656e8413cd" y="367.535655"/>
     <use style="fill:#ff7f0e;stroke:#ff7f0e;stroke-linejoin:bevel;" x="274.206612" xlink:href="#m656e8413cd" y="281.555097"/>
     <use style="fill:#ff7f0e;stroke:#ff7f0e;stroke-linejoin:bevel;" x="279.330579" xlink:href="#m656e8413cd" y="103.257399"/>
     <use style="fill:#ff7f0e;stroke:#ff7f0e;stroke-linejoin:bevel;" x="284.454545" xlink:href="#m656e8413cd" y="294.224167"/>
     <use style="fill:#ff7f0e;stroke:#ff7f0e;stroke-linejoin:bevel;" x="289.578512" xlink:href="#m656e8413cd" y="214.323464"/>
     <use style="fill:#ff7f0e;stroke:#ff7f0e;stroke-linejoin:bevel;" x="294.702479" xlink:href="#m656e8413cd" y="103.420818"/>
     <use style="fill:#ff7f0e;stroke:#ff7f0e;stroke-linejoin:bevel;" x="299.826446" xlink:href="#m656e8413cd" y="321.889443"/>
     <use style="fill:#ff7f0e;stroke:#ff7f0e;stroke-linejoin:bevel;" x="304.950413" xlink:href="#m656e8413cd" y="140.355208"/>
     <use style="fill:#ff7f0e;stroke:#ff7f0e;stroke-linejoin:bevel;" x="310.07438" xlink:href="#m656e8413cd" y="340.04096"/>
     <use style="fill:#ff7f0e;stroke:#ff7f0e;stroke-linejoin:bevel;" x="315.198347" xlink:href="#m656e8413cd" y="333.174104"/>
     <use style="fill:#ff7f0e;stroke:#ff7f0e;stroke-linejoin:bevel;" x="320.322314" xlink:href="#m656e8413cd" y="255.296267"/>
     <use style="fill:#ff7f0e;stroke:#ff7f0e;stroke-linejoin:bevel;" x="325.446281" xlink:href="#m656e8413cd" y="134.16666"/>
     <use style="fill:#ff7f0e;stroke:#ff7f0e;stroke-linejoin:bevel;" x="330.570248" xlink:href="#m656e8413cd" y="113.451894"/>
     <use style="fill:#ff7f0e;stroke:#ff7f0e;stroke-linejoin:bevel;" x="335.694215" xlink:href="#m656e8413cd" y="154.576735"/>
     <use style="fill:#ff7f0e;stroke:#ff7f0e;stroke-linejoin:bevel;" x="340.818182" xlink:href="#m656e8413cd" y="280.281448"/>
     <use style="fill:#ff7f0e;stroke:#ff7f0e;stroke-linejoin:bevel;" x="345.942149" xlink:href="#m656e8413cd" y="206.83085"/>
     <use style="fill:#ff7f0e;stroke:#ff7f0e;stroke-linejoin:bevel;" x="351.066116" xlink:href="#m656e8413cd" y="300.237049"/>
     <use style="fill:#ff7f0e;stroke:#ff7f0e;stroke-linejoin:bevel;" x="356.190083" xlink:href="#m656e8413cd" y="246.110473"/>
     <use style="fill:#ff7f0e;stroke:#ff7f0e;stroke-linejoin:bevel;" x="361.31405" xlink:href="#m656e8413cd" y="282.181553"/>
     <use style="fill:#ff7f0e;stroke:#ff7f0e;stroke-linejoin:bevel;" x="366.438017" xlink:href="#m656e8413cd" y="240.625679"/>
     <use style="fill:#ff7f0e;stroke:#ff7f0e;stroke-linejoin:bevel;" x="371.561983" xlink:href="#m656e8413cd" y="201.563343"/>
     <use style="fill:#ff7f0e;stroke:#ff7f0e;stroke-linejoin:bevel;" x="376.68595" xlink:href="#m656e8413cd" y="236.96125"/>
     <use style="fill:#ff7f0e;stroke:#ff7f0e;stroke-linejoin:bevel;" x="381.809917" xlink:href="#m656e8413cd" y="243.34597"/>
     <use style="fill:#ff7f0e;stroke:#ff7f0e;stroke-linejoin:bevel;" x="386.933884" xlink:href="#m656e8413cd" y="170.967498"/>
     <use style="fill:#ff7f0e;stroke:#ff7f0e;stroke-linejoin:bevel;" x="392.057851" xlink:href="#m656e8413cd" y="194.118462"/>
     <use style="fill:#ff7f0e;stroke:#ff7f0e;stroke-linejoin:bevel;" x="397.181818" xlink:href="#m656e8413cd" y="222.09918"/>
     <use style="fill:#ff7f0e;stroke:#ff7f0e;stroke-linejoin:bevel;" x="402.305785" xlink:href="#m656e8413cd" y="359.162132"/>
     <use style="fill:#ff7f0e;stroke:#ff7f0e;stroke-linejoin:bevel;" x="407.429752" xlink:href="#m656e8413cd" y="138.54985"/>
     <use style="fill:#ff7f0e;stroke:#ff7f0e;stroke-linejoin:bevel;" x="412.553719" xlink:href="#m656e8413cd" y="179.541493"/>
     <use style="fill:#ff7f0e;stroke:#ff7f0e;stroke-linejoin:bevel;" x="417.677686" xlink:href="#m656e8413cd" y="291.495543"/>
     <use style="fill:#ff7f0e;stroke:#ff7f0e;stroke-linejoin:bevel;" x="422.801653" xlink:href="#m656e8413cd" y="282.084184"/>
     <use style="fill:#ff7f0e;stroke:#ff7f0e;stroke-linejoin:bevel;" x="427.92562" xlink:href="#m656e8413cd" y="347.4337"/>
     <use style="fill:#ff7f0e;stroke:#ff7f0e;stroke-linejoin:bevel;" x="433.049587" xlink:href="#m656e8413cd" y="219.76774"/>
     <use style="fill:#ff7f0e;stroke:#ff7f0e;stroke-linejoin:bevel;" x="438.173554" xlink:href="#m656e8413cd" y="216.362923"/>
     <use style="fill:#ff7f0e;stroke:#ff7f0e;stroke-linejoin:bevel;" x="443.297521" xlink:href="#m656e8413cd" y="112.711689"/>
     <use style="fill:#ff7f0e;stroke:#ff7f0e;stroke-linejoin:bevel;" x="448.421488" xlink:href="#m656e8413cd" y="94.772115"/>
     <use style="fill:#ff7f0e;stroke:#ff7f0e;stroke-linejoin:bevel;" x="453.545455" xlink:href="#m656e8413cd" y="206.447382"/>
     <use style="fill:#ff7f0e;stroke:#ff7f0e;stroke-linejoin:bevel;" x="458.669421" xlink:href="#m656e8413cd" y="245.800893"/>
     <use style="fill:#ff7f0e;stroke:#ff7f0e;stroke-linejoin:bevel;" x="463.793388" xlink:href="#m656e8413cd" y="138.489513"/>
     <use style="fill:#ff7f0e;stroke:#ff7f0e;stroke-linejoin:bevel;" x="468.917355" xlink:href="#m656e8413cd" y="83.351711"/>
     <use style="fill:#ff7f0e;stroke:#ff7f0e;stroke-linejoin:bevel;" x="474.041322" xlink:href="#m656e8413cd" y="135.035776"/>
     <use style="fill:#ff7f0e;stroke:#ff7f0e;stroke-linejoin:bevel;" x="479.165289" xlink:href="#m656e8413cd" y="332.300841"/>
     <use style="fill:#ff7f0e;stroke:#ff7f0e;stroke-linejoin:bevel;" x="484.289256" xlink:href="#m656e8413cd" y="211.196088"/>
     <use style="fill:#ff7f0e;stroke:#ff7f0e;stroke-linejoin:bevel;" x="489.413223" xlink:href="#m656e8413cd" y="140.269609"/>
     <use style="fill:#ff7f0e;stroke:#ff7f0e;stroke-linejoin:bevel;" x="494.53719" xlink:href="#m656e8413cd" y="261.119981"/>
     <use style="fill:#ff7f0e;stroke:#ff7f0e;stroke-linejoin:bevel;" x="499.661157" xlink:href="#m656e8413cd" y="312.110173"/>
     <use style="fill:#ff7f0e;stroke:#ff7f0e;stroke-linejoin:bevel;" x="504.785124" xlink:href="#m656e8413cd" y="369.36"/>
     <use style="fill:#ff7f0e;stroke:#ff7f0e;stroke-linejoin:bevel;" x="509.909091" xlink:href="#m656e8413cd" y="297.123776"/>
     <use style="fill:#ff7f0e;stroke:#ff7f0e;stroke-linejoin:bevel;" x="515.033058" xlink:href="#m656e8413cd" y="309.146451"/>
     <use style="fill:#ff7f0e;stroke:#ff7f0e;stroke-linejoin:bevel;" x="520.157025" xlink:href="#m656e8413cd" y="169.634418"/>
     <use style="fill:#ff7f0e;stroke:#ff7f0e;stroke-linejoin:bevel;" x="525.280992" xlink:href="#m656e8413cd" y="208.952442"/>
     <use style="fill:#ff7f0e;stroke:#ff7f0e;stroke-linejoin:bevel;" x="530.404959" xlink:href="#m656e8413cd" y="156.855757"/>
     <use style="fill:#ff7f0e;stroke:#ff7f0e;stroke-linejoin:bevel;" x="535.528926" xlink:href="#m656e8413cd" y="222.482875"/>
     <use style="fill:#ff7f0e;stroke:#ff7f0e;stroke-linejoin:bevel;" x="540.652893" xlink:href="#m656e8413cd" y="327.403079"/>
     <use style="fill:#ff7f0e;stroke:#ff7f0e;stroke-linejoin:bevel;" x="545.77686" xlink:href="#m656e8413cd" y="191.281004"/>
     <use style="fill:#ff7f0e;stroke:#ff7f0e;stroke-linejoin:bevel;" x="550.900826" xlink:href="#m656e8413cd" y="347.821625"/>
     <use style="fill:#ff7f0e;stroke:#ff7f0e;stroke-linejoin:bevel;" x="556.024793" xlink:href="#m656e8413cd" y="187.833751"/>
     <use style="fill:#ff7f0e;stroke:#ff7f0e;stroke-linejoin:bevel;" x="561.14876" xlink:href="#m656e8413cd" y="312.869183"/>
     <use style="fill:#ff7f0e;stroke:#ff7f0e;stroke-linejoin:bevel;" x="566.272727" xlink:href="#m656e8413cd" y="225.087613"/>
     <use style="fill:#ff7f0e;stroke:#ff7f0e;stroke-linejoin:bevel;" x="571.396694" xlink:href="#m656e8413cd" y="110.951738"/>
     <use style="fill:#ff7f0e;stroke:#ff7f0e;stroke-linejoin:bevel;" x="576.520661" xlink:href="#m656e8413cd" y="157.200897"/>
     <use style="fill:#ff7f0e;stroke:#ff7f0e;stroke-linejoin:bevel;" x="581.644628" xlink:href="#m656e8413cd" y="184.941229"/>
     <use style="fill:#ff7f0e;stroke:#ff7f0e;stroke-linejoin:bevel;" x="586.768595" xlink:href="#m656e8413cd" y="118.051882"/>
     <use style="fill:#ff7f0e;stroke:#ff7f0e;stroke-linejoin:bevel;" x="591.892562" xlink:href="#m656e8413cd" y="236.691648"/>
     <use style="fill:#ff7f0e;stroke:#ff7f0e;stroke-linejoin:bevel;" x="597.016529" xlink:href="#m656e8413cd" y="289.059772"/>
     <use style="fill:#ff7f0e;stroke:#ff7f0e;stroke-linejoin:bevel;" x="602.140496" xlink:href="#m656e8413cd" y="197.977341"/>
     <use style="fill:#ff7f0e;stroke:#ff7f0e;stroke-linejoin:bevel;" x="607.264463" xlink:href="#m656e8413cd" y="203.218366"/>
     <use style="fill:#ff7f0e;stroke:#ff7f0e;stroke-linejoin:bevel;" x="612.38843" xlink:href="#m656e8413cd" y="329.726798"/>
     <use style="fill:#ff7f0e;stroke:#ff7f0e;stroke-linejoin:bevel;" x="617.512397" xlink:href="#m656e8413cd" y="103.898027"/>
     <use style="fill:#ff7f0e;stroke:#ff7f0e;stroke-linejoin:bevel;" x="622.636364" xlink:href="#m656e8413cd" y="328.671687"/>
    </g>
   </g>
   <g id="patch_3">
    <path d="M 90 384.48 
L 90 51.84 
" style="fill:none;stroke:#262626;stroke-linecap:square;stroke-linejoin:miter;stroke-width:1.25;"/>
   </g>
   <g id="patch_4">
    <path d="M 90 384.48 
L 648 384.48 
" style="fill:none;stroke:#262626;stroke-linecap:square;stroke-linejoin:miter;stroke-width:1.25;"/>
   </g>
   <g id="text_17">
    <!-- Free run simulation -->
    <g style="fill:#262626;" transform="translate(291.974063 45.84)scale(0.18 -0.18)">
     <defs>
      <path d="M 525 0 
L 525 4581 
L 3616 4581 
L 3616 4041 
L 1131 4041 
L 1131 2622 
L 3281 2622 
L 3281 2081 
L 1131 2081 
L 1131 0 
L 525 0 
z
" id="ArialMT-46" transform="scale(0.015625)"/>
      <path d="M 416 0 
L 416 3319 
L 922 3319 
L 922 2816 
Q 1116 3169 1280 3281 
Q 1444 3394 1641 3394 
Q 1925 3394 2219 3213 
L 2025 2691 
Q 1819 2813 1613 2813 
Q 1428 2813 1281 2702 
Q 1134 2591 1072 2394 
Q 978 2094 978 1738 
L 978 0 
L 416 0 
z
" id="ArialMT-72" transform="scale(0.015625)"/>
      <path d="M 2597 0 
L 2597 488 
Q 2209 -75 1544 -75 
Q 1250 -75 995 37 
Q 741 150 617 320 
Q 494 491 444 738 
Q 409 903 409 1263 
L 409 3319 
L 972 3319 
L 972 1478 
Q 972 1038 1006 884 
Q 1059 663 1231 536 
Q 1403 409 1656 409 
Q 1909 409 2131 539 
Q 2353 669 2445 892 
Q 2538 1116 2538 1541 
L 2538 3319 
L 3100 3319 
L 3100 0 
L 2597 0 
z
" id="ArialMT-75" transform="scale(0.015625)"/>
      <path d="M 422 0 
L 422 3319 
L 928 3319 
L 928 2847 
Q 1294 3394 1984 3394 
Q 2284 3394 2536 3286 
Q 2788 3178 2913 3003 
Q 3038 2828 3088 2588 
Q 3119 2431 3119 2041 
L 3119 0 
L 2556 0 
L 2556 2019 
Q 2556 2363 2490 2533 
Q 2425 2703 2258 2804 
Q 2091 2906 1866 2906 
Q 1506 2906 1245 2678 
Q 984 2450 984 1813 
L 984 0 
L 422 0 
z
" id="ArialMT-6e" transform="scale(0.015625)"/>
      <path d="M 425 3934 
L 425 4581 
L 988 4581 
L 988 3934 
L 425 3934 
z
M 425 0 
L 425 3319 
L 988 3319 
L 988 0 
L 425 0 
z
" id="ArialMT-69" transform="scale(0.015625)"/>
      <path d="M 1650 503 
L 1731 6 
Q 1494 -44 1306 -44 
Q 1000 -44 831 53 
Q 663 150 594 308 
Q 525 466 525 972 
L 525 2881 
L 113 2881 
L 113 3319 
L 525 3319 
L 525 4141 
L 1084 4478 
L 1084 3319 
L 1650 3319 
L 1650 2881 
L 1084 2881 
L 1084 941 
Q 1084 700 1114 631 
Q 1144 563 1211 522 
Q 1278 481 1403 481 
Q 1497 481 1650 503 
z
" id="ArialMT-74" transform="scale(0.015625)"/>
      <path d="M 213 1659 
Q 213 2581 725 3025 
Q 1153 3394 1769 3394 
Q 2453 3394 2887 2945 
Q 3322 2497 3322 1706 
Q 3322 1066 3130 698 
Q 2938 331 2570 128 
Q 2203 -75 1769 -75 
Q 1072 -75 642 372 
Q 213 819 213 1659 
z
M 791 1659 
Q 791 1022 1069 705 
Q 1347 388 1769 388 
Q 2188 388 2466 706 
Q 2744 1025 2744 1678 
Q 2744 2294 2464 2611 
Q 2184 2928 1769 2928 
Q 1347 2928 1069 2612 
Q 791 2297 791 1659 
z
" id="ArialMT-6f" transform="scale(0.015625)"/>
     </defs>
     <use xlink:href="#ArialMT-46"/>
     <use x="61.083984" xlink:href="#ArialMT-72"/>
     <use x="94.384766" xlink:href="#ArialMT-65"/>
     <use x="150" xlink:href="#ArialMT-65"/>
     <use x="205.615234" xlink:href="#ArialMT-20"/>
     <use x="233.398438" xlink:href="#ArialMT-72"/>
     <use x="266.699219" xlink:href="#ArialMT-75"/>
     <use x="322.314453" xlink:href="#ArialMT-6e"/>
     <use x="377.929688" xlink:href="#ArialMT-20"/>
     <use x="405.712891" xlink:href="#ArialMT-73"/>
     <use x="455.712891" xlink:href="#ArialMT-69"/>
     <use x="477.929688" xlink:href="#ArialMT-6d"/>
     <use x="561.230469" xlink:href="#ArialMT-75"/>
     <use x="616.845703" xlink:href="#ArialMT-6c"/>
     <use x="639.0625" xlink:href="#ArialMT-61"/>
     <use x="694.677734" xlink:href="#ArialMT-74"/>
     <use x="722.460938" xlink:href="#ArialMT-69"/>
     <use x="744.677734" xlink:href="#ArialMT-6f"/>
     <use x="800.292969" xlink:href="#ArialMT-6e"/>
    </g>
   </g>
   <g id="legend_1">
    <g id="line2d_17">
     <path d="M 583.765625 64.497812 
L 603.765625 64.497812 
" style="fill:none;stroke:#1f77b4;stroke-linecap:round;stroke-width:1.5;"/>
    </g>
    <g id="line2d_18">
     <g>
      <use style="fill:#1f77b4;stroke:#1f77b4;" x="593.765625" xlink:href="#mef66985e0d" y="64.497812"/>
     </g>
    </g>
    <g id="text_18">
     <!-- Data -->
     <g style="fill:#262626;" transform="translate(611.765625 67.997812)scale(0.1 -0.1)">
      <defs>
       <path d="M 494 0 
L 494 4581 
L 2072 4581 
Q 2606 4581 2888 4516 
Q 3281 4425 3559 4188 
Q 3922 3881 4101 3404 
Q 4281 2928 4281 2316 
Q 4281 1794 4159 1391 
Q 4038 988 3847 723 
Q 3656 459 3429 307 
Q 3203 156 2883 78 
Q 2563 0 2147 0 
L 494 0 
z
M 1100 541 
L 2078 541 
Q 2531 541 2789 625 
Q 3047 709 3200 863 
Q 3416 1078 3536 1442 
Q 3656 1806 3656 2325 
Q 3656 3044 3420 3430 
Q 3184 3816 2847 3947 
Q 2603 4041 2063 4041 
L 1100 4041 
L 1100 541 
z
" id="ArialMT-44" transform="scale(0.015625)"/>
      </defs>
      <use xlink:href="#ArialMT-44"/>
      <use x="72.216797" xlink:href="#ArialMT-61"/>
      <use x="127.832031" xlink:href="#ArialMT-74"/>
      <use x="155.615234" xlink:href="#ArialMT-61"/>
     </g>
    </g>
    <g id="line2d_19">
     <path d="M 583.765625 78.643125 
L 603.765625 78.643125 
" style="fill:none;stroke:#ff7f0e;stroke-linecap:round;stroke-width:1.5;"/>
    </g>
    <g id="line2d_20">
     <g>
      <use style="fill:#ff7f0e;stroke:#ff7f0e;stroke-linejoin:bevel;" x="593.765625" xlink:href="#m656e8413cd" y="78.643125"/>
     </g>
    </g>
    <g id="text_19">
     <!-- Model -->
     <g style="fill:#262626;" transform="translate(611.765625 82.143125)scale(0.1 -0.1)">
      <defs>
       <path d="M 475 0 
L 475 4581 
L 1388 4581 
L 2472 1338 
Q 2622 884 2691 659 
Q 2769 909 2934 1394 
L 4031 4581 
L 4847 4581 
L 4847 0 
L 4263 0 
L 4263 3834 
L 2931 0 
L 2384 0 
L 1059 3900 
L 1059 0 
L 475 0 
z
" id="ArialMT-4d" transform="scale(0.015625)"/>
       <path d="M 2575 0 
L 2575 419 
Q 2259 -75 1647 -75 
Q 1250 -75 917 144 
Q 584 363 401 755 
Q 219 1147 219 1656 
Q 219 2153 384 2558 
Q 550 2963 881 3178 
Q 1213 3394 1622 3394 
Q 1922 3394 2156 3267 
Q 2391 3141 2538 2938 
L 2538 4581 
L 3097 4581 
L 3097 0 
L 2575 0 
z
M 797 1656 
Q 797 1019 1065 703 
Q 1334 388 1700 388 
Q 2069 388 2326 689 
Q 2584 991 2584 1609 
Q 2584 2291 2321 2609 
Q 2059 2928 1675 2928 
Q 1300 2928 1048 2622 
Q 797 2316 797 1656 
z
" id="ArialMT-64" transform="scale(0.015625)"/>
      </defs>
      <use xlink:href="#ArialMT-4d"/>
      <use x="83.300781" xlink:href="#ArialMT-6f"/>
      <use x="138.916016" xlink:href="#ArialMT-64"/>
      <use x="194.53125" xlink:href="#ArialMT-65"/>
      <use x="250.146484" xlink:href="#ArialMT-6c"/>
     </g>
    </g>
   </g>
  </g>
 </g>
 <defs>
  <clipPath id="pf4c4872d49">
   <rect height="332.64" width="558" x="90" y="51.84"/>
  </clipPath>
 </defs>
</svg>
