<svg width="1600" height="571" viewBox="0 0 1600 571" fill="none" xmlns="http://www.w3.org/2000/svg">
<g opacity="0.5">
<g opacity="0.4">
<path d="M800.006 194.107C872.103 194.107 872.103 305.827 944.199 305.827C1016.3 305.827 1016.3 40.9139 1088.39 40.9139C1160.49 40.9139 1160.49 178.497 1232.59 178.497C1304.68 178.497 1304.68 399.952 1376.78 399.952C1448.88 399.952 1448.88 5.06299 1520.97 5.06299C1593.07 5.06299 1593.07 399.952 1665.17 399.952C1737.26 399.952 1737.26 162.886 1809.36 162.886C1881.46 162.886 1881.46 422.111 1953.55 422.111C2025.65 422.111 2025.65 226.188 2097.75 226.188C2169.84 226.188 2169.84 567.962 2241.94 567.962H799.94L800.006 194.107Z" fill="url(#paint0_linear_97_1580)"/>
<path d="M799.995 194.107C727.898 194.107 727.898 305.827 655.801 305.827C583.705 305.827 583.705 40.9139 511.608 40.9139C439.511 40.9139 439.511 178.497 367.415 178.497C295.318 178.497 295.318 399.952 223.221 399.952C151.125 399.952 151.125 5.06299 79.0279 5.06299C6.93121 5.06299 6.93121 399.952 -65.1655 399.952C-137.262 399.952 -137.262 162.886 -209.359 162.886C-281.456 162.886 -281.456 422.111 -353.552 422.111C-425.649 422.111 -425.649 226.188 -497.746 226.188C-569.842 226.188 -569.842 567.962 -641.939 567.962H800.061L799.995 194.107Z" fill="url(#paint1_linear_97_1580)"/>
</g>
<g opacity="0.5">
<path d="M-641.967 568.028C-569.87 568.028 -569.87 226.254 -497.773 226.254C-425.677 226.254 -425.677 422.177 -353.58 422.177C-281.483 422.177 -281.483 162.953 -209.387 162.953C-137.29 162.953 -137.29 400.019 -65.1933 400.019C6.9034 400.019 6.9034 5.12915 79.0001 5.12915C151.097 5.12915 151.097 400.019 223.193 400.019C295.29 400.019 295.29 178.563 367.387 178.563C439.484 178.563 439.484 40.9801 511.58 40.9801C583.677 40.9801 583.677 305.893 655.774 305.893C727.87 305.893 727.87 194.173 799.967 194.173" stroke="#F18417" stroke-miterlimit="10" stroke-linecap="round" stroke-linejoin="round"/>
<path d="M2242.03 568.028C2169.94 568.028 2169.94 226.254 2097.84 226.254C2025.74 226.254 2025.74 422.177 1953.65 422.177C1881.55 422.177 1881.55 162.953 1809.45 162.953C1737.36 162.953 1737.36 400.019 1665.26 400.019C1593.16 400.019 1593.16 5.12915 1521.07 5.12915C1448.97 5.12915 1448.97 400.019 1376.87 400.019C1304.78 400.019 1304.78 178.563 1232.68 178.563C1160.58 178.563 1160.58 40.9801 1088.49 40.9801C1016.39 40.9801 1016.39 305.893 944.293 305.893C872.196 305.893 872.196 194.173 800.1 194.173" stroke="#F18417" stroke-miterlimit="10" stroke-linecap="round" stroke-linejoin="round"/>
</g>
<path d="M83.7627 5.12918C83.7627 2.5495 81.6461 0.366699 79.0665 0.366699C76.4869 0.366699 74.3042 2.48336 74.3042 5.12918C74.3042 7.70886 76.4208 9.89167 79.0665 9.89167C81.6461 9.89167 83.7627 7.77501 83.7627 5.12918Z" fill="#F18317"/>
<path d="M223.26 405.641C225.89 405.641 228.022 403.509 228.022 400.878C228.022 398.248 225.89 396.116 223.26 396.116C220.63 396.116 218.498 398.248 218.498 400.878C218.498 403.509 220.63 405.641 223.26 405.641Z" fill="#F18317"/>
<path d="M372.15 180.217C372.15 177.637 370.033 175.454 367.387 175.454C364.808 175.454 362.625 177.571 362.625 180.217C362.625 182.796 364.742 184.913 367.387 184.913C370.033 184.913 372.15 182.796 372.15 180.217Z" fill="#F18317"/>
<path d="M516.343 40.914C516.343 38.3343 514.226 36.1515 511.647 36.1515C509.067 36.1515 506.884 38.2682 506.884 40.914C506.884 43.4937 509.001 45.6765 511.647 45.6765C514.226 45.6765 516.343 43.5598 516.343 40.914Z" fill="#F18317"/>
<path d="M655.84 310.259C658.47 310.259 660.602 308.127 660.602 305.497C660.602 302.866 658.47 300.734 655.84 300.734C653.21 300.734 651.078 302.866 651.078 305.497C651.078 308.127 653.21 310.259 655.84 310.259Z" fill="#F18317"/>
<path d="M1516.3 5.12918C1516.3 2.5495 1518.42 0.366699 1521 0.366699C1523.58 0.366699 1525.76 2.48336 1525.76 5.12918C1525.76 7.70886 1523.65 9.89167 1521 9.89167C1518.42 9.89167 1516.3 7.77501 1516.3 5.12918Z" fill="#F18317"/>
<path d="M1376.81 405.641C1379.44 405.641 1381.57 403.509 1381.57 400.878C1381.57 398.248 1379.44 396.116 1376.81 396.116C1374.18 396.116 1372.04 398.248 1372.04 400.878C1372.04 403.509 1374.18 405.641 1376.81 405.641Z" fill="#F18317"/>
<path d="M1227.92 180.217C1227.92 177.637 1230.03 175.454 1232.68 175.454C1235.26 175.454 1237.38 177.571 1237.38 180.217C1237.38 182.796 1235.26 184.913 1232.68 184.913C1230.03 184.913 1227.92 182.796 1227.92 180.217Z" fill="#F18317"/>
<path d="M1083.72 40.914C1083.72 38.3343 1085.84 36.1515 1088.42 36.1515C1091 36.1515 1093.18 38.2682 1093.18 40.914C1093.18 43.4937 1091.07 45.6765 1088.42 45.6765C1085.84 45.6765 1083.72 43.5598 1083.72 40.914Z" fill="#F18317"/>
<path d="M944.227 310.259C946.857 310.259 948.989 308.127 948.989 305.497C948.989 302.866 946.857 300.734 944.227 300.734C941.597 300.734 939.464 302.866 939.464 305.497C939.464 308.127 941.597 310.259 944.227 310.259Z" fill="#F18317"/>
<path d="M795.337 194.107C795.337 191.528 797.453 189.411 800.099 189.411C802.679 189.411 804.862 191.528 804.862 194.107C804.862 196.687 802.745 198.87 800.099 198.87C797.453 198.87 795.337 196.753 795.337 194.107Z" fill="#F18317"/>
<path d="M804.796 194.107C804.796 191.528 802.679 189.411 800.033 189.411C797.454 189.411 795.271 191.528 795.271 194.107C795.271 196.687 797.388 198.87 800.033 198.87C802.613 198.87 804.796 196.753 804.796 194.107Z" fill="#F18317"/>
</g>
<defs>
<linearGradient id="paint0_linear_97_1580" x1="1520.94" y1="-132.319" x2="1520.94" y2="598.938" gradientUnits="userSpaceOnUse">
<stop offset="0.00215294" stop-color="#F18517"/>
<stop offset="0.9375" stop-color="#F18517" stop-opacity="0"/>
</linearGradient>
<linearGradient id="paint1_linear_97_1580" x1="79.0623" y1="-132.319" x2="79.0623" y2="598.938" gradientUnits="userSpaceOnUse">
<stop offset="0.00215294" stop-color="#F28616"/>
<stop offset="0.9375" stop-color="#F18218" stop-opacity="0"/>
</linearGradient>
</defs>
</svg>
