<svg width="120" height="32" viewBox="0 0 120 32" fill="none" xmlns="http://www.w3.org/2000/svg">
<path d="M19.5032 16.1766L19.3032 16.0592C18.2004 15.4346 16.8975 14.7771 15.6368 14.1396C13.1224 12.8704 10.5238 11.5566 9.6724 10.5727C9.17888 10.0067 8.98007 9.45609 9.08181 8.93714C9.20695 8.29491 9.78351 7.67851 10.7858 7.10438C11.0068 6.97875 11.312 6.82611 11.6711 6.64765C13.6592 5.65319 17.3162 3.82277 17.4905 1.13761C17.5013 1.0392 17.4961 0.939681 17.4753 0.842914C17.4651 0.825511 17.4525 0.809688 17.4378 0.79595C17.4039 0.761612 17.3602 0.738648 17.3127 0.7302C17.2741 0.72242 17.2344 0.72242 17.1958 0.7302C17.1702 0.740179 17.1456 0.752357 17.1221 0.766597C17.0659 0.811482 17.0124 0.859706 16.9619 0.911011C16.4941 1.37361 14.0592 3.41066 6.38379 4.75148C2.64141 5.40428 0.598302 6.46919 0.124657 8.00608C-0.239056 9.18018 -0.109242 11.4309 4.80965 13.2543C13.0897 16.321 18.0893 18.3792 17.6998 21.0961C17.3069 23.8376 12.2465 25.0328 7.7825 26.086L7.27143 26.2034C3.15131 27.1803 1.093 28.7089 0.424047 31.2884C0.404166 31.3518 0.387792 31.4058 0.376098 31.4657C0.374927 31.4735 0.374927 31.4814 0.376098 31.4892C0.373757 31.5048 0.373757 31.5206 0.376098 31.5362C0.377194 31.5474 0.379548 31.5584 0.383114 31.569C0.387978 31.5845 0.395069 31.5991 0.404164 31.6125C0.407583 31.62 0.411904 31.6271 0.41703 31.6336C0.43164 31.653 0.449437 31.6696 0.469656 31.6829L0.48486 31.6911C0.506116 31.7018 0.528471 31.7101 0.551522 31.7158H0.563217H0.580759C0.583851 31.7152 0.587021 31.7152 0.590113 31.7158C0.613413 31.7187 0.636984 31.7187 0.660284 31.7158L0.687183 31.7099C0.706157 31.7042 0.724559 31.6968 0.74215 31.6876L0.758521 31.6794C0.777507 31.6668 0.794802 31.6518 0.809979 31.6348C0.82986 31.6101 2.956 29.2056 10.1917 28.3133C11.2091 28.1876 12.2172 28.0726 13.2031 27.961C19.2202 27.2765 24.4186 26.6836 25.9354 24.3002C28.0346 21.0045 22.9006 18.0998 19.5032 16.1766ZM7.434 10.2874C8.44561 11.8677 12.7412 14.0445 16.2169 15.8056C20.3651 17.9096 25.5272 20.5267 23.9356 23.4889C22.6982 25.8007 17.4086 26.5016 11.8079 27.246L10.5215 27.4186L10.677 27.394C16.3338 26.5263 21.6702 25.7068 22.8397 23.0498C24.2876 19.7294 18.598 17.0983 13.5785 14.7783C9.47359 12.8798 6.59313 10.8885 6.05984 9.5782C5.95784 9.35386 5.90987 9.10857 5.91983 8.86217C5.92978 8.61578 5.99738 8.37519 6.11714 8.15989C6.52296 7.42256 7.5603 6.78032 9.04088 6.34943C10.3709 5.96716 11.6749 5.49889 12.9446 4.94756C12.0215 5.40467 10.9417 5.86492 9.70515 6.3283C8.36842 6.83316 7.46089 7.55875 7.15098 8.37005C6.91708 8.98645 7.01181 9.62986 7.434 10.2874ZM13.858 15.9888C18.1185 17.9166 21.6059 19.9478 20.8142 22.296C19.9534 24.8438 14.6416 25.7831 9.504 26.6895L8.41169 26.8844L8.04564 26.9525L8.67249 26.8257C13.7656 25.7878 19.033 24.7123 19.7359 21.7888C20.2727 19.5522 17.7045 17.7593 13.858 15.9888ZM5.59321 9.72496C6.4563 11.8383 11.7471 14.4214 13.3481 15.1634C18.184 17.3942 23.6666 19.9337 22.3766 22.8925C21.3171 25.3228 16.1081 26.1224 10.594 26.9678L9.28413 27.1697L9.60107 27.1145C14.8813 26.1811 20.3417 25.2172 21.2866 22.4181C22.4012 19.1201 16.4602 16.5864 10.7144 14.136C7.09952 12.5945 4.49973 10.5668 4.24595 9.08743C4.01205 7.74895 5.44936 6.60891 8.17779 5.95846C9.84612 5.56334 11.4816 5.0397 13.0698 4.39221C11.7137 5.01001 10.3134 5.52492 8.88066 5.93263C7.74625 6.26255 6.26684 6.88365 5.67157 7.96499C5.52186 8.2316 5.43676 8.52984 5.42315 8.83559C5.40954 9.14133 5.46779 9.44601 5.59321 9.72496ZM8.04915 5.5393C5.05056 6.25433 3.48812 7.57284 3.75828 9.15552C4.04012 10.7922 6.68201 12.9009 10.5004 14.527C11.0852 14.7783 11.6793 15.0307 12.264 15.2843C10.8863 14.6973 9.39407 14.1102 7.85384 13.4938C3.72085 11.8501 2.33968 9.89521 2.42505 8.60722C2.542 6.89186 5.15231 6.00894 7.32406 5.571C9.01809 5.23903 10.6877 4.79184 12.3213 4.23253C10.9284 4.76484 9.50106 5.20143 8.04915 5.5393ZM0.593622 8.12232C1.01347 6.76036 2.93261 5.79761 6.47267 5.18003C8.33874 4.86799 10.1823 4.43303 11.9915 3.87796C10.4285 4.40532 8.83256 4.82891 7.21413 5.14598C3.86353 5.82226 2.03795 7.00927 1.93386 8.58139C1.81692 10.2838 3.61209 12.0931 6.76738 13.5126C6.19316 13.2966 5.60373 13.0758 4.99443 12.8504C0.419368 11.1585 0.27318 9.16139 0.593622 8.12232ZM7.39306 26.6296L7.90296 26.5122C12.5178 25.4226 17.7489 24.1887 18.1828 21.1548C18.4167 19.4864 16.963 18.0892 14.1796 16.6427C17.4729 18.2231 19.6973 19.8492 19.2541 21.6984C18.6202 24.3495 13.2744 25.4367 8.56256 26.3971L7.84098 26.5439C7.42113 26.6296 7.02233 26.7235 6.64225 26.821C6.88433 26.7576 7.13343 26.6918 7.39306 26.6296ZM25.5038 24.0947C24.1086 26.288 19.0249 26.8668 13.1388 27.5372L11.8219 27.6887L11.8863 27.6804C17.8682 26.8867 23.035 26.1999 24.3858 23.6791C26.1669 20.3529 20.7861 17.6243 16.4391 15.4193C13.0394 13.6946 8.80698 11.5448 7.86203 10.0737C7.51118 9.52771 7.43166 9.00407 7.61761 8.51447C7.88308 7.82175 8.69237 7.18891 9.89929 6.73453C11.1436 6.27504 12.3597 5.74184 13.5411 5.13776C12.7786 5.59214 12.0208 5.97137 11.422 6.27077C11.0536 6.4551 10.7402 6.61243 10.5133 6.74041C9.38705 7.38264 8.74032 8.09766 8.59062 8.86552C8.46432 9.5101 8.69471 10.1746 9.27594 10.8415C10.1928 11.8982 12.7189 13.1709 15.3924 14.5211C16.6473 15.1552 17.9454 15.8127 19.0365 16.4291L19.2377 16.5465C22.4795 18.3792 27.3762 21.1525 25.5038 24.0947Z" fill="#F07E19"/>
<g clip-path="url(#clip0_149_960)">
<path d="M37.9117 13.6364C37.2654 13.5542 36.7736 13.4941 36.3946 13.4328C35.7258 13.3101 35.2351 13.1285 34.9453 12.8194C34.807 12.7047 34.6953 12.5596 34.618 12.3948C34.5408 12.2299 34.5 12.0494 34.4986 11.8663C34.5208 11.2774 34.7437 10.8309 35.1674 10.5267C35.5915 10.2421 36.1048 10.101 36.7522 10.101C37.926 10.116 39.077 10.4367 40.0988 11.0333L41.2357 9.49136C39.9871 8.68051 38.5366 8.25362 36.8639 8.21313C35.4573 8.23399 34.3869 8.55907 33.629 9.208C32.8473 9.85692 32.441 10.7291 32.441 11.8049C32.4349 12.2302 32.5151 12.6521 32.6766 13.0434C32.838 13.4347 33.0771 13.7867 33.3783 14.0768C33.9806 14.6901 34.8728 15.0716 36.0335 15.2544C36.6798 15.3354 37.2821 15.4164 37.8155 15.4777C39.0035 15.6605 39.5785 16.2076 39.5785 17.1202C39.5563 18.2366 38.6637 18.8049 36.9007 18.8254C35.4288 18.8045 34.1339 18.3985 33.0635 17.6073L31.7246 19.0081C33.1502 20.1232 34.893 20.6912 36.8781 20.6912C39.98 20.6507 41.541 19.4743 41.6088 17.1202C41.614 16.6961 41.5377 16.2751 41.3844 15.8815C41.231 15.488 41.0037 15.1298 40.7154 14.8275C40.1202 14.2044 39.1841 13.8032 37.9117 13.6364Z" fill="white"/>
<path d="M63.3453 8.36048H61.2925V20.6361H63.3453V8.36048Z" fill="white"/>
<path d="M71.7564 12.822C71.4161 12.525 71.0414 12.2728 70.6409 12.0713C70.2102 11.8829 69.7472 11.7861 69.2795 11.7867C68.0974 11.8075 67.2492 12.1927 66.7146 12.9238C66.4325 13.2244 66.2457 13.6065 66.1788 14.0193C66.0671 14.4658 66.022 15.2165 66.022 16.2507C66.022 17.2848 66.0671 18.0159 66.1788 18.4833C66.2417 18.9031 66.4289 19.2926 66.7146 19.5983C67.0151 19.9505 67.3887 20.2281 67.8075 20.4104C68.2766 20.6305 68.7869 20.7411 69.302 20.7343C70.3285 20.7146 71.1541 20.3663 71.7968 19.7198V20.6337H73.738V8.36048H71.8004V12.822H71.7564ZM71.7339 17.205C71.6907 17.5123 71.608 17.8122 71.488 18.0968C71.3839 18.3684 71.196 18.5969 70.9534 18.747C70.6849 18.9089 70.3285 18.9923 69.8604 18.9923C69.4137 18.9923 69.0573 18.9114 68.8114 18.747C68.5579 18.6067 68.3547 18.3861 68.2317 18.1177C68.1087 17.8352 68.0332 17.5333 68.0083 17.2247C67.9698 16.9016 67.9547 16.576 67.9632 16.2507C67.9632 15.906 67.9857 15.5612 68.0083 15.2362C68.0461 14.9431 68.1212 14.6564 68.2317 14.3836C68.3609 14.1199 68.5625 13.9015 68.8114 13.7555C69.0573 13.6132 69.3911 13.5519 69.8604 13.5519C70.2391 13.5352 70.6155 13.6197 70.9534 13.7972C71.2018 13.9395 71.3918 14.1701 71.488 14.4462C71.6156 14.7141 71.6988 15.0023 71.7339 15.2987C71.7564 15.603 71.7564 15.928 71.7564 16.2727C71.7564 16.5782 71.7564 16.8824 71.7339 17.2075V17.205Z" fill="white"/>
<path d="M79.342 11.7891C78.8732 11.796 78.4076 11.8711 77.9591 12.0124C77.4801 12.1631 77.0383 12.4192 76.6642 12.7631C76.2555 13.1397 75.9415 13.6134 75.7495 14.1432C75.5047 14.7111 75.3931 15.4422 75.3931 16.2936C75.3931 17.1866 75.5273 17.9165 75.8172 18.4857C76.0277 19.0175 76.3658 19.4852 76.7997 19.8449C77.2261 20.1455 77.6911 20.3829 78.1813 20.5502C78.6611 20.6867 79.1567 20.7548 79.6544 20.7526C80.9707 20.7735 82.1302 20.2865 83.1127 19.3321L81.7073 18.2367C81.137 18.7837 80.3877 19.0882 79.6093 19.0892C78.9404 19.0892 78.3821 18.9065 77.9805 18.5409C77.535 18.1729 77.3117 17.6479 77.3117 16.9388H83.3135V15.5023C83.2909 14.3456 82.9119 13.4538 82.1255 12.784C81.3723 12.135 80.4349 11.81 79.342 11.7891ZM77.3117 15.4827C77.3568 14.8129 77.5576 14.2855 77.914 13.9408C78.3266 13.6256 78.8264 13.4555 79.3396 13.4555C79.8529 13.4555 80.3526 13.6256 80.7652 13.9408C81.1442 14.2855 81.3449 14.7921 81.3675 15.4827H77.3117Z" fill="white"/>
<path d="M91.9919 12.5607C91.3654 12.0619 90.597 11.7907 89.806 11.7891C88.7796 11.7891 87.9313 12.135 87.3112 12.8244H87.2672V11.8909H85.3213V20.6361H87.2625V15.4422C87.2625 14.8322 87.4407 14.3652 87.7971 14.0413C88.1771 13.7139 88.6603 13.5419 89.155 13.558C89.6521 13.5386 90.138 13.7138 90.5152 14.0487C90.8724 14.3758 91.051 14.8428 91.051 15.4496V20.6361H92.9922V14.8326C92.9958 13.8389 92.6394 13.0673 91.9919 12.5607Z" fill="white"/>
<path d="M97.5696 9.23289H95.6284V11.8912H94.6685V13.2307H95.6284V18.4859C95.6284 19.1754 95.8513 19.7028 96.2972 20.0684C96.7213 20.4536 97.2797 20.6364 97.9711 20.6364H98.975V18.9717H98.2622C97.7941 18.9926 97.5707 18.7693 97.5707 18.3228V13.2307H98.9761V11.8912H97.5696V9.23289Z" fill="white"/>
<path d="M108.876 9.21296C108.426 8.87458 107.919 8.62504 107.381 8.47694C106.871 8.3875 106.354 8.34032 105.837 8.33587H100.96V20.6152H103.013V15.831H106.113C107.498 15.8102 108.568 15.4042 109.282 14.6129C109.995 13.8622 110.331 13.0305 110.331 12.1387C110.35 11.5273 110.203 10.9227 109.907 10.3931C109.673 9.91036 109.317 9.50242 108.876 9.21296ZM107.737 13.4537C107.359 13.8585 106.779 14.0818 106.02 14.1026H102.99V10.1465H105.935C106.448 10.118 106.958 10.2374 107.408 10.4912C107.669 10.627 107.892 10.8297 108.055 11.08C108.215 11.3986 108.292 11.7552 108.278 12.1141C108.3 12.6007 108.122 13.0472 107.742 13.4537H107.737Z" fill="#EE771B"/>
<path d="M56.3849 15.4422L54.8001 15.3404C54.3321 15.2999 53.997 15.1981 53.8188 15.0362C53.7331 14.9835 53.6616 14.9093 53.6109 14.8206C53.5603 14.7318 53.5321 14.6313 53.529 14.5283C53.5281 14.3808 53.5622 14.2353 53.6282 14.1044C53.6943 13.9736 53.7903 13.8614 53.9079 13.7776C54.1535 13.5748 54.5776 13.4734 55.1803 13.4734C55.6566 13.4625 56.1314 13.5325 56.5857 13.6807C56.9949 13.8422 57.3903 14.0388 57.7677 14.2683L58.9724 12.9901C58.4888 12.6153 57.9555 12.3145 57.3888 12.097C57.0666 11.9941 56.7384 11.9122 56.4063 11.8517C56.0065 11.8015 55.6044 11.7744 55.2017 11.7707C54.1768 11.7707 53.3294 11.994 52.6594 12.4405C51.9667 12.887 51.6329 13.5556 51.6104 14.4695C51.6329 15.2202 51.8777 15.7882 52.4134 16.2138C52.9267 16.6395 53.5729 16.8836 54.3772 16.9646L56.0725 17.1069C56.373 17.1099 56.6694 17.1789 56.9421 17.3093C57.1429 17.432 57.2545 17.654 57.2545 17.9594C57.2545 18.3041 57.0763 18.5875 56.7187 18.7911C56.2976 19.0099 55.8295 19.1145 55.3585 19.0954C54.1087 19.0954 53.1013 18.7274 52.3243 17.9791L50.9629 19.1763C52.1548 20.194 53.6551 20.7467 55.2017 20.7379C56.3623 20.7183 57.2997 20.4926 58.035 20.008C58.7716 19.5419 59.1506 18.8917 59.1731 18.0453C59.1731 17.3093 58.9724 16.7266 58.5483 16.2592C58.1028 15.7869 57.3662 15.5023 56.3849 15.4422Z" fill="white"/>
<path d="M42.3965 11.9118H44.4493L46.7434 18.0588H46.7873L49.0635 11.9118H51.139L46.9667 22.5228C46.6982 23.1926 46.3193 23.6391 45.8512 23.9028C45.3433 24.1543 44.7856 24.2803 44.2224 24.2708H43.575V22.6038H44.1333C44.3818 22.6039 44.6266 22.5412 44.8461 22.421C44.9541 22.3628 45.0493 22.2824 45.1259 22.1847C45.2026 22.087 45.259 21.9741 45.2916 21.853L45.8274 20.3724L42.3965 11.9118Z" fill="white"/>
<path d="M111.157 11.9118H113.208L115.507 18.0588H115.551L117.827 11.9118H119.902L115.729 22.5228C115.462 23.1926 115.083 23.6391 114.614 23.9028C114.106 24.1545 113.548 24.2805 112.985 24.2708H112.339V22.6038H112.896C113.144 22.6042 113.389 22.5414 113.609 22.421C113.717 22.3631 113.813 22.2827 113.889 22.185C113.966 22.0873 114.023 21.9743 114.055 21.853L114.591 20.3724L111.157 11.9118Z" fill="#EE771B"/>
</g>
<defs>
<clipPath id="clip0_149_960">
<rect width="88.3871" height="16.1925" fill="white" transform="translate(31.6128 8.12494)"/>
</clipPath>
</defs>
</svg>
