<?xml version="1.0" encoding="utf-8" standalone="no"?>
<!DOCTYPE svg PUBLIC "-//W3C//DTD SVG 1.1//EN"
  "http://www.w3.org/Graphics/SVG/1.1/DTD/svg11.dtd">
<!-- Created with matplotlib (https://matplotlib.org/) -->
<svg height="568.944375pt" version="1.1" viewBox="0 0 711.946643 568.944375" width="711.946643pt" xmlns="http://www.w3.org/2000/svg" xmlns:xlink="http://www.w3.org/1999/xlink">
 <metadata>
  <rdf:RDF xmlns:cc="http://creativecommons.org/ns#" xmlns:dc="http://purl.org/dc/elements/1.1/" xmlns:rdf="http://www.w3.org/1999/02/22-rdf-syntax-ns#">
   <cc:Work>
    <dc:type rdf:resource="http://purl.org/dc/dcmitype/StillImage"/>
    <dc:date>2021-03-08T21:52:57.053019</dc:date>
    <dc:format>image/svg+xml</dc:format>
    <dc:creator>
     <cc:Agent>
      <dc:title>Matplotlib v3.3.3, https://matplotlib.org/</dc:title>
     </cc:Agent>
    </dc:creator>
   </cc:Work>
  </rdf:RDF>
 </metadata>
 <defs>
  <style type="text/css">*{stroke-linecap:butt;stroke-linejoin:round;}</style>
 </defs>
 <g id="figure_1">
  <g id="patch_1">
   <path d="M 0 568.944375 
L 711.946643 568.944375 
L 711.946643 0 
L 0 0 
z
" style="fill:#ffffff;"/>
  </g>
  <g id="axes_1">
   <g id="patch_2">
    <path d="M 55.304375 533.984062 
L 352.912962 533.984062 
L 352.912962 304.934062 
L 55.304375 304.934062 
z
" style="fill:#ffffff;"/>
   </g>
   <g id="matplotlib.axis_1">
    <g id="xtick_1">
     <g id="line2d_1"/>
     <g id="text_1">
      <!-- 0 -->
      <g style="fill:#262626;" transform="translate(66.051569 544.641875)scale(0.1 -0.1)">
       <defs>
        <path d="M 4.15625 35.296875 
Q 4.15625 48 6.765625 55.734375 
Q 9.375 63.484375 14.515625 67.671875 
Q 19.671875 71.875 27.484375 71.875 
Q 33.25 71.875 37.59375 69.546875 
Q 41.9375 67.234375 44.765625 62.859375 
Q 47.609375 58.5 49.21875 52.21875 
Q 50.828125 45.953125 50.828125 35.296875 
Q 50.828125 22.703125 48.234375 14.96875 
Q 45.65625 7.234375 40.5 3 
Q 35.359375 -1.21875 27.484375 -1.21875 
Q 17.140625 -1.21875 11.234375 6.203125 
Q 4.15625 15.140625 4.15625 35.296875 
z
M 13.1875 35.296875 
Q 13.1875 17.671875 17.3125 11.828125 
Q 21.4375 6 27.484375 6 
Q 33.546875 6 37.671875 11.859375 
Q 41.796875 17.71875 41.796875 35.296875 
Q 41.796875 52.984375 37.671875 58.78125 
Q 33.546875 64.59375 27.390625 64.59375 
Q 21.34375 64.59375 17.71875 59.46875 
Q 13.1875 52.9375 13.1875 35.296875 
z
" id="ArialMT-48"/>
       </defs>
       <use xlink:href="#ArialMT-48"/>
      </g>
     </g>
    </g>
    <g id="xtick_2">
     <g id="line2d_2"/>
     <g id="text_2">
      <!-- 20 -->
      <g style="fill:#262626;" transform="translate(117.928325 544.641875)scale(0.1 -0.1)">
       <defs>
        <path d="M 50.34375 8.453125 
L 50.34375 0 
L 3.03125 0 
Q 2.9375 3.171875 4.046875 6.109375 
Q 5.859375 10.9375 9.828125 15.625 
Q 13.8125 20.3125 21.34375 26.46875 
Q 33.015625 36.03125 37.109375 41.625 
Q 41.21875 47.21875 41.21875 52.203125 
Q 41.21875 57.421875 37.46875 61 
Q 33.734375 64.59375 27.734375 64.59375 
Q 21.390625 64.59375 17.578125 60.78125 
Q 13.765625 56.984375 13.71875 50.25 
L 4.6875 51.171875 
Q 5.609375 61.28125 11.65625 66.578125 
Q 17.71875 71.875 27.9375 71.875 
Q 38.234375 71.875 44.234375 66.15625 
Q 50.25 60.453125 50.25 52 
Q 50.25 47.703125 48.484375 43.546875 
Q 46.734375 39.40625 42.65625 34.8125 
Q 38.578125 30.21875 29.109375 22.21875 
Q 21.1875 15.578125 18.9375 13.203125 
Q 16.703125 10.84375 15.234375 8.453125 
z
" id="ArialMT-50"/>
       </defs>
       <use xlink:href="#ArialMT-50"/>
       <use x="55.615234" xlink:href="#ArialMT-48"/>
      </g>
     </g>
    </g>
    <g id="xtick_3">
     <g id="line2d_3"/>
     <g id="text_3">
      <!-- 40 -->
      <g style="fill:#262626;" transform="translate(172.585549 544.641875)scale(0.1 -0.1)">
       <defs>
        <path d="M 32.328125 0 
L 32.328125 17.140625 
L 1.265625 17.140625 
L 1.265625 25.203125 
L 33.9375 71.578125 
L 41.109375 71.578125 
L 41.109375 25.203125 
L 50.78125 25.203125 
L 50.78125 17.140625 
L 41.109375 17.140625 
L 41.109375 0 
z
M 32.328125 25.203125 
L 32.328125 57.46875 
L 9.90625 25.203125 
z
" id="ArialMT-52"/>
       </defs>
       <use xlink:href="#ArialMT-52"/>
       <use x="55.615234" xlink:href="#ArialMT-48"/>
      </g>
     </g>
    </g>
    <g id="xtick_4">
     <g id="line2d_4"/>
     <g id="text_4">
      <!-- 60 -->
      <g style="fill:#262626;" transform="translate(227.242774 544.641875)scale(0.1 -0.1)">
       <defs>
        <path d="M 49.75 54.046875 
L 41.015625 53.375 
Q 39.84375 58.546875 37.703125 60.890625 
Q 34.125 64.65625 28.90625 64.65625 
Q 24.703125 64.65625 21.53125 62.3125 
Q 17.390625 59.28125 14.984375 53.46875 
Q 12.59375 47.65625 12.5 36.921875 
Q 15.671875 41.75 20.265625 44.09375 
Q 24.859375 46.4375 29.890625 46.4375 
Q 38.671875 46.4375 44.84375 39.96875 
Q 51.03125 33.5 51.03125 23.25 
Q 51.03125 16.5 48.125 10.71875 
Q 45.21875 4.9375 40.140625 1.859375 
Q 35.0625 -1.21875 28.609375 -1.21875 
Q 17.625 -1.21875 10.6875 6.859375 
Q 3.765625 14.9375 3.765625 33.5 
Q 3.765625 54.25 11.421875 63.671875 
Q 18.109375 71.875 29.4375 71.875 
Q 37.890625 71.875 43.28125 67.140625 
Q 48.6875 62.40625 49.75 54.046875 
z
M 13.875 23.1875 
Q 13.875 18.65625 15.796875 14.5 
Q 17.71875 10.359375 21.1875 8.171875 
Q 24.65625 6 28.46875 6 
Q 34.03125 6 38.03125 10.484375 
Q 42.046875 14.984375 42.046875 22.703125 
Q 42.046875 30.125 38.078125 34.390625 
Q 34.125 38.671875 28.125 38.671875 
Q 22.171875 38.671875 18.015625 34.390625 
Q 13.875 30.125 13.875 23.1875 
z
" id="ArialMT-54"/>
       </defs>
       <use xlink:href="#ArialMT-54"/>
       <use x="55.615234" xlink:href="#ArialMT-48"/>
      </g>
     </g>
    </g>
    <g id="xtick_5">
     <g id="line2d_5"/>
     <g id="text_5">
      <!-- 80 -->
      <g style="fill:#262626;" transform="translate(281.899998 544.641875)scale(0.1 -0.1)">
       <defs>
        <path d="M 17.671875 38.8125 
Q 12.203125 40.828125 9.5625 44.53125 
Q 6.9375 48.25 6.9375 53.421875 
Q 6.9375 61.234375 12.546875 66.546875 
Q 18.171875 71.875 27.484375 71.875 
Q 36.859375 71.875 42.578125 66.421875 
Q 48.296875 60.984375 48.296875 53.171875 
Q 48.296875 48.1875 45.671875 44.5 
Q 43.0625 40.828125 37.75 38.8125 
Q 44.34375 36.671875 47.78125 31.875 
Q 51.21875 27.09375 51.21875 20.453125 
Q 51.21875 11.28125 44.71875 5.03125 
Q 38.234375 -1.21875 27.640625 -1.21875 
Q 17.046875 -1.21875 10.546875 5.046875 
Q 4.046875 11.328125 4.046875 20.703125 
Q 4.046875 27.6875 7.59375 32.390625 
Q 11.140625 37.109375 17.671875 38.8125 
z
M 15.921875 53.71875 
Q 15.921875 48.640625 19.1875 45.40625 
Q 22.46875 42.1875 27.6875 42.1875 
Q 32.765625 42.1875 36.015625 45.375 
Q 39.265625 48.578125 39.265625 53.21875 
Q 39.265625 58.0625 35.90625 61.359375 
Q 32.5625 64.65625 27.59375 64.65625 
Q 22.5625 64.65625 19.234375 61.421875 
Q 15.921875 58.203125 15.921875 53.71875 
z
M 13.09375 20.65625 
Q 13.09375 16.890625 14.875 13.375 
Q 16.65625 9.859375 20.171875 7.921875 
Q 23.6875 6 27.734375 6 
Q 34.03125 6 38.125 10.046875 
Q 42.234375 14.109375 42.234375 20.359375 
Q 42.234375 26.703125 38.015625 30.859375 
Q 33.796875 35.015625 27.4375 35.015625 
Q 21.234375 35.015625 17.15625 30.90625 
Q 13.09375 26.8125 13.09375 20.65625 
z
" id="ArialMT-56"/>
       </defs>
       <use xlink:href="#ArialMT-56"/>
       <use x="55.615234" xlink:href="#ArialMT-48"/>
      </g>
     </g>
    </g>
    <g id="xtick_6">
     <g id="line2d_6"/>
     <g id="text_6">
      <!-- 100 -->
      <g style="fill:#262626;" transform="translate(333.776754 544.641875)scale(0.1 -0.1)">
       <defs>
        <path d="M 37.25 0 
L 28.46875 0 
L 28.46875 56 
Q 25.296875 52.984375 20.140625 49.953125 
Q 14.984375 46.921875 10.890625 45.40625 
L 10.890625 53.90625 
Q 18.265625 57.375 23.78125 62.296875 
Q 29.296875 67.234375 31.59375 71.875 
L 37.25 71.875 
z
" id="ArialMT-49"/>
       </defs>
       <use xlink:href="#ArialMT-49"/>
       <use x="55.615234" xlink:href="#ArialMT-48"/>
       <use x="111.230469" xlink:href="#ArialMT-48"/>
      </g>
     </g>
    </g>
    <g id="text_7">
     <!-- Lag -->
     <g style="fill:#262626;" transform="translate(194.098981 559.21875)scale(0.12 -0.12)">
      <defs>
       <path d="M 7.328125 0 
L 7.328125 71.578125 
L 16.796875 71.578125 
L 16.796875 8.453125 
L 52.046875 8.453125 
L 52.046875 0 
z
" id="ArialMT-76"/>
       <path d="M 40.4375 6.390625 
Q 35.546875 2.25 31.03125 0.53125 
Q 26.515625 -1.171875 21.34375 -1.171875 
Q 12.796875 -1.171875 8.203125 3 
Q 3.609375 7.171875 3.609375 13.671875 
Q 3.609375 17.484375 5.34375 20.625 
Q 7.078125 23.78125 9.890625 25.6875 
Q 12.703125 27.59375 16.21875 28.5625 
Q 18.796875 29.25 24.03125 29.890625 
Q 34.671875 31.15625 39.703125 32.90625 
Q 39.75 34.71875 39.75 35.203125 
Q 39.75 40.578125 37.25 42.78125 
Q 33.890625 45.75 27.25 45.75 
Q 21.046875 45.75 18.09375 43.578125 
Q 15.140625 41.40625 13.71875 35.890625 
L 5.125 37.0625 
Q 6.296875 42.578125 8.984375 45.96875 
Q 11.671875 49.359375 16.75 51.1875 
Q 21.828125 53.03125 28.515625 53.03125 
Q 35.15625 53.03125 39.296875 51.46875 
Q 43.453125 49.90625 45.40625 47.53125 
Q 47.359375 45.171875 48.140625 41.546875 
Q 48.578125 39.3125 48.578125 33.453125 
L 48.578125 21.734375 
Q 48.578125 9.46875 49.140625 6.21875 
Q 49.703125 2.984375 51.375 0 
L 42.1875 0 
Q 40.828125 2.734375 40.4375 6.390625 
z
M 39.703125 26.03125 
Q 34.90625 24.078125 25.34375 22.703125 
Q 19.921875 21.921875 17.671875 20.9375 
Q 15.4375 19.96875 14.203125 18.09375 
Q 12.984375 16.21875 12.984375 13.921875 
Q 12.984375 10.40625 15.640625 8.0625 
Q 18.3125 5.71875 23.4375 5.71875 
Q 28.515625 5.71875 32.46875 7.9375 
Q 36.421875 10.15625 38.28125 14.015625 
Q 39.703125 17 39.703125 22.796875 
z
" id="ArialMT-97"/>
       <path d="M 4.984375 -4.296875 
L 13.53125 -5.5625 
Q 14.0625 -9.515625 16.5 -11.328125 
Q 19.78125 -13.765625 25.4375 -13.765625 
Q 31.546875 -13.765625 34.859375 -11.328125 
Q 38.1875 -8.890625 39.359375 -4.5 
Q 40.046875 -1.8125 39.984375 6.78125 
Q 34.234375 0 25.640625 0 
Q 14.9375 0 9.078125 7.71875 
Q 3.21875 15.4375 3.21875 26.21875 
Q 3.21875 33.640625 5.90625 39.90625 
Q 8.59375 46.1875 13.6875 49.609375 
Q 18.796875 53.03125 25.6875 53.03125 
Q 34.859375 53.03125 40.828125 45.609375 
L 40.828125 51.859375 
L 48.921875 51.859375 
L 48.921875 7.03125 
Q 48.921875 -5.078125 46.453125 -10.125 
Q 44 -15.1875 38.640625 -18.109375 
Q 33.296875 -21.046875 25.484375 -21.046875 
Q 16.21875 -21.046875 10.5 -16.875 
Q 4.78125 -12.703125 4.984375 -4.296875 
z
M 12.25 26.859375 
Q 12.25 16.65625 16.296875 11.96875 
Q 20.359375 7.28125 26.46875 7.28125 
Q 32.515625 7.28125 36.609375 11.9375 
Q 40.71875 16.609375 40.71875 26.5625 
Q 40.71875 36.078125 36.5 40.90625 
Q 32.28125 45.75 26.3125 45.75 
Q 20.453125 45.75 16.34375 40.984375 
Q 12.25 36.234375 12.25 26.859375 
z
" id="ArialMT-103"/>
      </defs>
      <use xlink:href="#ArialMT-76"/>
      <use x="55.615234" xlink:href="#ArialMT-97"/>
      <use x="111.230469" xlink:href="#ArialMT-103"/>
     </g>
    </g>
   </g>
   <g id="matplotlib.axis_2">
    <g id="ytick_1">
     <g id="line2d_7"/>
     <g id="text_8">
      <!-- −1.00 -->
      <g style="fill:#262626;" transform="translate(26.502813 537.562969)scale(0.1 -0.1)">
       <defs>
        <path d="M 52.828125 31.203125 
L 5.5625 31.203125 
L 5.5625 39.40625 
L 52.828125 39.40625 
z
" id="ArialMT-8722"/>
        <path d="M 9.078125 0 
L 9.078125 10.015625 
L 19.09375 10.015625 
L 19.09375 0 
z
" id="ArialMT-46"/>
       </defs>
       <use xlink:href="#ArialMT-8722"/>
       <use x="58.398438" xlink:href="#ArialMT-49"/>
       <use x="114.013672" xlink:href="#ArialMT-46"/>
       <use x="141.796875" xlink:href="#ArialMT-48"/>
       <use x="197.412109" xlink:href="#ArialMT-48"/>
      </g>
     </g>
    </g>
    <g id="ytick_2">
     <g id="line2d_8"/>
     <g id="text_9">
      <!-- −0.75 -->
      <g style="fill:#262626;" transform="translate(26.502813 508.931719)scale(0.1 -0.1)">
       <defs>
        <path d="M 4.734375 62.203125 
L 4.734375 70.65625 
L 51.078125 70.65625 
L 51.078125 63.8125 
Q 44.234375 56.546875 37.515625 44.484375 
Q 30.8125 32.421875 27.15625 19.671875 
Q 24.515625 10.6875 23.78125 0 
L 14.75 0 
Q 14.890625 8.453125 18.0625 20.40625 
Q 21.234375 32.375 27.171875 43.484375 
Q 33.109375 54.59375 39.796875 62.203125 
z
" id="ArialMT-55"/>
        <path d="M 4.15625 18.75 
L 13.375 19.53125 
Q 14.40625 12.796875 18.140625 9.390625 
Q 21.875 6 27.15625 6 
Q 33.5 6 37.890625 10.78125 
Q 42.28125 15.578125 42.28125 23.484375 
Q 42.28125 31 38.0625 35.34375 
Q 33.84375 39.703125 27 39.703125 
Q 22.75 39.703125 19.328125 37.765625 
Q 15.921875 35.84375 13.96875 32.765625 
L 5.71875 33.84375 
L 12.640625 70.609375 
L 48.25 70.609375 
L 48.25 62.203125 
L 19.671875 62.203125 
L 15.828125 42.96875 
Q 22.265625 47.46875 29.34375 47.46875 
Q 38.71875 47.46875 45.15625 40.96875 
Q 51.609375 34.46875 51.609375 24.265625 
Q 51.609375 14.546875 45.953125 7.46875 
Q 39.0625 -1.21875 27.15625 -1.21875 
Q 17.390625 -1.21875 11.203125 4.25 
Q 5.03125 9.71875 4.15625 18.75 
z
" id="ArialMT-53"/>
       </defs>
       <use xlink:href="#ArialMT-8722"/>
       <use x="58.398438" xlink:href="#ArialMT-48"/>
       <use x="114.013672" xlink:href="#ArialMT-46"/>
       <use x="141.796875" xlink:href="#ArialMT-55"/>
       <use x="197.412109" xlink:href="#ArialMT-53"/>
      </g>
     </g>
    </g>
    <g id="ytick_3">
     <g id="line2d_9"/>
     <g id="text_10">
      <!-- −0.50 -->
      <g style="fill:#262626;" transform="translate(26.502813 480.300469)scale(0.1 -0.1)">
       <use xlink:href="#ArialMT-8722"/>
       <use x="58.398438" xlink:href="#ArialMT-48"/>
       <use x="114.013672" xlink:href="#ArialMT-46"/>
       <use x="141.796875" xlink:href="#ArialMT-53"/>
       <use x="197.412109" xlink:href="#ArialMT-48"/>
      </g>
     </g>
    </g>
    <g id="ytick_4">
     <g id="line2d_10"/>
     <g id="text_11">
      <!-- −0.25 -->
      <g style="fill:#262626;" transform="translate(26.502813 451.669219)scale(0.1 -0.1)">
       <use xlink:href="#ArialMT-8722"/>
       <use x="58.398438" xlink:href="#ArialMT-48"/>
       <use x="114.013672" xlink:href="#ArialMT-46"/>
       <use x="141.796875" xlink:href="#ArialMT-50"/>
       <use x="197.412109" xlink:href="#ArialMT-53"/>
      </g>
     </g>
    </g>
    <g id="ytick_5">
     <g id="line2d_11"/>
     <g id="text_12">
      <!-- 0.00 -->
      <g style="fill:#262626;" transform="translate(32.343438 423.037969)scale(0.1 -0.1)">
       <use xlink:href="#ArialMT-48"/>
       <use x="55.615234" xlink:href="#ArialMT-46"/>
       <use x="83.398438" xlink:href="#ArialMT-48"/>
       <use x="139.013672" xlink:href="#ArialMT-48"/>
      </g>
     </g>
    </g>
    <g id="ytick_6">
     <g id="line2d_12"/>
     <g id="text_13">
      <!-- 0.25 -->
      <g style="fill:#262626;" transform="translate(32.343438 394.406719)scale(0.1 -0.1)">
       <use xlink:href="#ArialMT-48"/>
       <use x="55.615234" xlink:href="#ArialMT-46"/>
       <use x="83.398438" xlink:href="#ArialMT-50"/>
       <use x="139.013672" xlink:href="#ArialMT-53"/>
      </g>
     </g>
    </g>
    <g id="ytick_7">
     <g id="line2d_13"/>
     <g id="text_14">
      <!-- 0.50 -->
      <g style="fill:#262626;" transform="translate(32.343438 365.775469)scale(0.1 -0.1)">
       <use xlink:href="#ArialMT-48"/>
       <use x="55.615234" xlink:href="#ArialMT-46"/>
       <use x="83.398438" xlink:href="#ArialMT-53"/>
       <use x="139.013672" xlink:href="#ArialMT-48"/>
      </g>
     </g>
    </g>
    <g id="ytick_8">
     <g id="line2d_14"/>
     <g id="text_15">
      <!-- 0.75 -->
      <g style="fill:#262626;" transform="translate(32.343438 337.144219)scale(0.1 -0.1)">
       <use xlink:href="#ArialMT-48"/>
       <use x="55.615234" xlink:href="#ArialMT-46"/>
       <use x="83.398438" xlink:href="#ArialMT-55"/>
       <use x="139.013672" xlink:href="#ArialMT-53"/>
      </g>
     </g>
    </g>
    <g id="ytick_9">
     <g id="line2d_15"/>
     <g id="text_16">
      <!-- 1.00 -->
      <g style="fill:#262626;" transform="translate(32.343438 308.512969)scale(0.1 -0.1)">
       <use xlink:href="#ArialMT-49"/>
       <use x="55.615234" xlink:href="#ArialMT-46"/>
       <use x="83.398438" xlink:href="#ArialMT-48"/>
       <use x="139.013672" xlink:href="#ArialMT-48"/>
      </g>
     </g>
    </g>
    <g id="text_17">
     <!-- Cross Correlation: ee, ex -->
     <g style="fill:#262626;" transform="translate(20.117812 485.815312)rotate(-90)scale(0.12 -0.12)">
      <defs>
       <path d="M 58.796875 25.09375 
L 68.265625 22.703125 
Q 65.28125 11.03125 57.546875 4.90625 
Q 49.8125 -1.21875 38.625 -1.21875 
Q 27.046875 -1.21875 19.796875 3.484375 
Q 12.546875 8.203125 8.765625 17.140625 
Q 4.984375 26.078125 4.984375 36.328125 
Q 4.984375 47.515625 9.25 55.828125 
Q 13.53125 64.15625 21.40625 68.46875 
Q 29.296875 72.796875 38.765625 72.796875 
Q 49.515625 72.796875 56.828125 67.328125 
Q 64.15625 61.859375 67.046875 51.953125 
L 57.71875 49.75 
Q 55.21875 57.5625 50.484375 61.125 
Q 45.75 64.703125 38.578125 64.703125 
Q 30.328125 64.703125 24.78125 60.734375 
Q 19.234375 56.78125 16.984375 50.109375 
Q 14.75 43.453125 14.75 36.375 
Q 14.75 27.25 17.40625 20.4375 
Q 20.0625 13.625 25.671875 10.25 
Q 31.296875 6.890625 37.84375 6.890625 
Q 45.796875 6.890625 51.3125 11.46875 
Q 56.84375 16.0625 58.796875 25.09375 
z
" id="ArialMT-67"/>
       <path d="M 6.5 0 
L 6.5 51.859375 
L 14.40625 51.859375 
L 14.40625 44 
Q 17.4375 49.515625 20 51.265625 
Q 22.5625 53.03125 25.640625 53.03125 
Q 30.078125 53.03125 34.671875 50.203125 
L 31.640625 42.046875 
Q 28.421875 43.953125 25.203125 43.953125 
Q 22.3125 43.953125 20.015625 42.21875 
Q 17.71875 40.484375 16.75 37.40625 
Q 15.28125 32.71875 15.28125 27.15625 
L 15.28125 0 
z
" id="ArialMT-114"/>
       <path d="M 3.328125 25.921875 
Q 3.328125 40.328125 11.328125 47.265625 
Q 18.015625 53.03125 27.640625 53.03125 
Q 38.328125 53.03125 45.109375 46.015625 
Q 51.90625 39.015625 51.90625 26.65625 
Q 51.90625 16.65625 48.90625 10.90625 
Q 45.90625 5.171875 40.15625 2 
Q 34.421875 -1.171875 27.640625 -1.171875 
Q 16.75 -1.171875 10.03125 5.8125 
Q 3.328125 12.796875 3.328125 25.921875 
z
M 12.359375 25.921875 
Q 12.359375 15.96875 16.703125 11.015625 
Q 21.046875 6.0625 27.640625 6.0625 
Q 34.1875 6.0625 38.53125 11.03125 
Q 42.875 16.015625 42.875 26.21875 
Q 42.875 35.84375 38.5 40.796875 
Q 34.125 45.75 27.640625 45.75 
Q 21.046875 45.75 16.703125 40.8125 
Q 12.359375 35.890625 12.359375 25.921875 
z
" id="ArialMT-111"/>
       <path d="M 3.078125 15.484375 
L 11.765625 16.84375 
Q 12.5 11.625 15.84375 8.84375 
Q 19.1875 6.0625 25.203125 6.0625 
Q 31.25 6.0625 34.171875 8.515625 
Q 37.109375 10.984375 37.109375 14.3125 
Q 37.109375 17.28125 34.515625 19 
Q 32.71875 20.171875 25.53125 21.96875 
Q 15.875 24.421875 12.140625 26.203125 
Q 8.40625 27.984375 6.46875 31.125 
Q 4.546875 34.28125 4.546875 38.09375 
Q 4.546875 41.546875 6.125 44.5 
Q 7.71875 47.46875 10.453125 49.421875 
Q 12.5 50.921875 16.03125 51.96875 
Q 19.578125 53.03125 23.640625 53.03125 
Q 29.734375 53.03125 34.34375 51.265625 
Q 38.96875 49.515625 41.15625 46.5 
Q 43.359375 43.5 44.1875 38.484375 
L 35.59375 37.3125 
Q 35.015625 41.3125 32.203125 43.546875 
Q 29.390625 45.796875 24.265625 45.796875 
Q 18.21875 45.796875 15.625 43.796875 
Q 13.03125 41.796875 13.03125 39.109375 
Q 13.03125 37.40625 14.109375 36.03125 
Q 15.1875 34.625 17.484375 33.6875 
Q 18.796875 33.203125 25.25 31.453125 
Q 34.578125 28.953125 38.25 27.359375 
Q 41.9375 25.78125 44.03125 22.75 
Q 46.140625 19.734375 46.140625 15.234375 
Q 46.140625 10.84375 43.578125 6.953125 
Q 41.015625 3.078125 36.171875 0.953125 
Q 31.34375 -1.171875 25.25 -1.171875 
Q 15.140625 -1.171875 9.84375 3.03125 
Q 4.546875 7.234375 3.078125 15.484375 
z
" id="ArialMT-115"/>
       <path id="ArialMT-32"/>
       <path d="M 42.09375 16.703125 
L 51.171875 15.578125 
Q 49.03125 7.625 43.21875 3.21875 
Q 37.40625 -1.171875 28.375 -1.171875 
Q 17 -1.171875 10.328125 5.828125 
Q 3.65625 12.84375 3.65625 25.484375 
Q 3.65625 38.578125 10.390625 45.796875 
Q 17.140625 53.03125 27.875 53.03125 
Q 38.28125 53.03125 44.875 45.953125 
Q 51.46875 38.875 51.46875 26.03125 
Q 51.46875 25.25 51.421875 23.6875 
L 12.75 23.6875 
Q 13.234375 15.140625 17.578125 10.59375 
Q 21.921875 6.0625 28.421875 6.0625 
Q 33.25 6.0625 36.671875 8.59375 
Q 40.09375 11.140625 42.09375 16.703125 
z
M 13.234375 30.90625 
L 42.1875 30.90625 
Q 41.609375 37.453125 38.875 40.71875 
Q 34.671875 45.796875 27.984375 45.796875 
Q 21.921875 45.796875 17.796875 41.75 
Q 13.671875 37.703125 13.234375 30.90625 
z
" id="ArialMT-101"/>
       <path d="M 6.390625 0 
L 6.390625 71.578125 
L 15.1875 71.578125 
L 15.1875 0 
z
" id="ArialMT-108"/>
       <path d="M 25.78125 7.859375 
L 27.046875 0.09375 
Q 23.34375 -0.6875 20.40625 -0.6875 
Q 15.625 -0.6875 12.984375 0.828125 
Q 10.359375 2.34375 9.28125 4.8125 
Q 8.203125 7.28125 8.203125 15.1875 
L 8.203125 45.015625 
L 1.765625 45.015625 
L 1.765625 51.859375 
L 8.203125 51.859375 
L 8.203125 64.703125 
L 16.9375 69.96875 
L 16.9375 51.859375 
L 25.78125 51.859375 
L 25.78125 45.015625 
L 16.9375 45.015625 
L 16.9375 14.703125 
Q 16.9375 10.9375 17.40625 9.859375 
Q 17.875 8.796875 18.921875 8.15625 
Q 19.96875 7.515625 21.921875 7.515625 
Q 23.390625 7.515625 25.78125 7.859375 
z
" id="ArialMT-116"/>
       <path d="M 6.640625 61.46875 
L 6.640625 71.578125 
L 15.4375 71.578125 
L 15.4375 61.46875 
z
M 6.640625 0 
L 6.640625 51.859375 
L 15.4375 51.859375 
L 15.4375 0 
z
" id="ArialMT-105"/>
       <path d="M 6.59375 0 
L 6.59375 51.859375 
L 14.5 51.859375 
L 14.5 44.484375 
Q 20.21875 53.03125 31 53.03125 
Q 35.6875 53.03125 39.625 51.34375 
Q 43.5625 49.65625 45.515625 46.921875 
Q 47.46875 44.1875 48.25 40.4375 
Q 48.734375 37.984375 48.734375 31.890625 
L 48.734375 0 
L 39.9375 0 
L 39.9375 31.546875 
Q 39.9375 36.921875 38.90625 39.578125 
Q 37.890625 42.234375 35.28125 43.8125 
Q 32.671875 45.40625 29.15625 45.40625 
Q 23.53125 45.40625 19.453125 41.84375 
Q 15.375 38.28125 15.375 28.328125 
L 15.375 0 
z
" id="ArialMT-110"/>
       <path d="M 9.03125 41.84375 
L 9.03125 51.859375 
L 19.046875 51.859375 
L 19.046875 41.84375 
z
M 9.03125 0 
L 9.03125 10.015625 
L 19.046875 10.015625 
L 19.046875 0 
z
" id="ArialMT-58"/>
       <path d="M 8.890625 0 
L 8.890625 10.015625 
L 18.890625 10.015625 
L 18.890625 0 
Q 18.890625 -5.515625 16.9375 -8.90625 
Q 14.984375 -12.3125 10.75 -14.15625 
L 8.296875 -10.40625 
Q 11.078125 -9.1875 12.390625 -6.8125 
Q 13.71875 -4.4375 13.875 0 
z
" id="ArialMT-44"/>
       <path d="M 0.734375 0 
L 19.671875 26.953125 
L 2.15625 51.859375 
L 13.140625 51.859375 
L 21.09375 39.703125 
Q 23.34375 36.234375 24.703125 33.890625 
Q 26.859375 37.109375 28.65625 39.59375 
L 37.40625 51.859375 
L 47.90625 51.859375 
L 29.984375 27.4375 
L 49.265625 0 
L 38.484375 0 
L 27.828125 16.109375 
L 25 20.453125 
L 11.375 0 
z
" id="ArialMT-120"/>
      </defs>
      <use xlink:href="#ArialMT-67"/>
      <use x="72.216797" xlink:href="#ArialMT-114"/>
      <use x="105.517578" xlink:href="#ArialMT-111"/>
      <use x="161.132812" xlink:href="#ArialMT-115"/>
      <use x="211.132812" xlink:href="#ArialMT-115"/>
      <use x="261.132812" xlink:href="#ArialMT-32"/>
      <use x="288.916016" xlink:href="#ArialMT-67"/>
      <use x="361.132812" xlink:href="#ArialMT-111"/>
      <use x="416.748047" xlink:href="#ArialMT-114"/>
      <use x="450.048828" xlink:href="#ArialMT-114"/>
      <use x="483.349609" xlink:href="#ArialMT-101"/>
      <use x="538.964844" xlink:href="#ArialMT-108"/>
      <use x="561.181641" xlink:href="#ArialMT-97"/>
      <use x="616.796875" xlink:href="#ArialMT-116"/>
      <use x="644.580078" xlink:href="#ArialMT-105"/>
      <use x="666.796875" xlink:href="#ArialMT-111"/>
      <use x="722.412109" xlink:href="#ArialMT-110"/>
      <use x="778.027344" xlink:href="#ArialMT-58"/>
      <use x="805.810547" xlink:href="#ArialMT-32"/>
      <use x="833.59375" xlink:href="#ArialMT-101"/>
      <use x="889.208984" xlink:href="#ArialMT-101"/>
      <use x="944.824219" xlink:href="#ArialMT-44"/>
      <use x="972.607422" xlink:href="#ArialMT-32"/>
      <use x="1000.390625" xlink:href="#ArialMT-101"/>
      <use x="1056.005859" xlink:href="#ArialMT-120"/>
     </g>
    </g>
   </g>
   <g id="patch_3">
    <path clip-path="url(#p2b8aecad05)" d="M 55.304375 403.546877 
L 55.304375 435.371248 
L 352.912962 435.371248 
L 352.912962 403.546877 
z
" style="fill:#ccd9ff;opacity:0.5;"/>
   </g>
   <g id="line2d_16">
    <path clip-path="url(#p2b8aecad05)" d="M 68.832038 304.934062 
L 71.564899 384.03644 
L 74.29776 400.831749 
L 77.030622 427.258648 
L 79.763483 436.634505 
L 82.496344 437.766121 
L 85.229205 431.683274 
L 87.962067 420.304794 
L 90.694928 386.457481 
L 93.427789 393.105149 
L 96.16065 395.74703 
L 98.893512 408.081805 
L 101.626373 417.185551 
L 104.359234 436.450516 
L 107.092095 431.711203 
L 109.824956 436.621773 
L 112.557818 406.053366 
L 115.290679 395.853864 
L 118.02354 412.984539 
L 120.756401 412.819446 
L 123.489263 419.25818 
L 126.222124 431.382747 
L 128.954985 432.312993 
L 131.687846 442.472294 
L 134.420707 433.68454 
L 137.153569 415.550029 
L 139.88643 417.644306 
L 142.619291 396.078682 
L 145.352152 390.061697 
L 148.085014 402.038377 
L 150.817875 422.312737 
L 153.550736 432.452322 
L 156.283597 432.607604 
L 159.016458 432.916108 
L 161.74932 440.569347 
L 164.482181 426.882731 
L 167.215042 417.210055 
L 169.947903 396.86212 
L 172.680765 410.30542 
L 175.413626 402.716273 
L 178.146487 413.221692 
L 180.879348 419.992223 
L 183.612209 426.475682 
L 186.345071 426.455499 
L 189.077932 423.244997 
L 191.810793 405.056242 
L 194.543654 417.065078 
L 197.276516 410.673812 
L 200.009377 413.418246 
L 202.742238 407.70309 
L 205.475099 421.488879 
L 208.20796 424.068359 
L 210.940822 430.154179 
L 213.673683 416.210429 
L 216.406544 413.462812 
L 219.139405 414.482816 
L 221.872267 403.351888 
L 224.605128 402.332186 
L 227.337989 416.270892 
L 230.07085 413.993937 
L 232.803711 436.730916 
L 235.536573 432.55803 
L 238.269434 434.208774 
L 241.002295 434.126971 
L 243.735156 418.394566 
L 246.468018 407.809142 
L 249.200879 403.744796 
L 251.93374 407.669323 
L 254.666601 420.742307 
L 257.399462 431.538543 
L 260.132324 429.850686 
L 262.865185 434.202564 
L 265.598046 425.740742 
L 268.330907 417.218559 
L 271.063769 414.901455 
L 273.79663 414.129326 
L 276.529491 416.809326 
L 279.262352 427.162114 
L 281.995213 428.788781 
L 284.728075 431.720315 
L 287.460936 427.460698 
L 290.193797 418.94888 
L 292.926658 417.671208 
L 295.65952 417.766327 
L 298.392381 414.967914 
L 301.125242 422.706288 
L 303.858103 421.984943 
L 306.590964 426.871982 
L 309.323826 425.627156 
L 312.056687 422.140551 
L 314.789548 420.46374 
L 317.522409 420.148985 
L 320.255271 418.771275 
L 322.988132 417.090053 
L 325.720993 421.008687 
L 328.453854 419.367267 
L 331.186715 421.077793 
L 333.919577 420.807206 
L 336.652438 419.459062 
L 339.385299 419.459062 
" style="fill:none;stroke:#1f77b4;stroke-linecap:round;stroke-width:1.5;"/>
   </g>
   <g id="patch_4">
    <path d="M 55.304375 533.984062 
L 55.304375 304.934062 
" style="fill:none;stroke:#262626;stroke-linecap:square;stroke-linejoin:miter;stroke-width:1.25;"/>
   </g>
   <g id="patch_5">
    <path d="M 55.304375 533.984062 
L 352.912962 533.984062 
" style="fill:none;stroke:#262626;stroke-linecap:square;stroke-linejoin:miter;stroke-width:1.25;"/>
   </g>
  </g>
  <g id="axes_2">
   <g id="patch_6">
    <path d="M 406.712962 533.984062 
L 704.321549 533.984062 
L 704.321549 304.934062 
L 406.712962 304.934062 
z
" style="fill:#ffffff;"/>
   </g>
   <g id="matplotlib.axis_3">
    <g id="xtick_7">
     <g id="line2d_17"/>
     <g id="text_18">
      <!-- 0 -->
      <g style="fill:#262626;" transform="translate(417.460156 544.641875)scale(0.1 -0.1)">
       <use xlink:href="#ArialMT-48"/>
      </g>
     </g>
    </g>
    <g id="xtick_8">
     <g id="line2d_18"/>
     <g id="text_19">
      <!-- 10 -->
      <g style="fill:#262626;" transform="translate(469.894639 544.641875)scale(0.1 -0.1)">
       <use xlink:href="#ArialMT-49"/>
       <use x="55.615234" xlink:href="#ArialMT-48"/>
      </g>
     </g>
    </g>
    <g id="xtick_9">
     <g id="line2d_19"/>
     <g id="text_20">
      <!-- 20 -->
      <g style="fill:#262626;" transform="translate(525.10959 544.641875)scale(0.1 -0.1)">
       <use xlink:href="#ArialMT-50"/>
       <use x="55.615234" xlink:href="#ArialMT-48"/>
      </g>
     </g>
    </g>
    <g id="xtick_10">
     <g id="line2d_20"/>
     <g id="text_21">
      <!-- 30 -->
      <g style="fill:#262626;" transform="translate(580.324541 544.641875)scale(0.1 -0.1)">
       <defs>
        <path d="M 4.203125 18.890625 
L 12.984375 20.0625 
Q 14.5 12.59375 18.140625 9.296875 
Q 21.78125 6 27 6 
Q 33.203125 6 37.46875 10.296875 
Q 41.75 14.59375 41.75 20.953125 
Q 41.75 27 37.796875 30.921875 
Q 33.84375 34.859375 27.734375 34.859375 
Q 25.25 34.859375 21.53125 33.890625 
L 22.515625 41.609375 
Q 23.390625 41.5 23.921875 41.5 
Q 29.546875 41.5 34.03125 44.421875 
Q 38.53125 47.359375 38.53125 53.46875 
Q 38.53125 58.296875 35.25 61.46875 
Q 31.984375 64.65625 26.8125 64.65625 
Q 21.6875 64.65625 18.265625 61.421875 
Q 14.84375 58.203125 13.875 51.765625 
L 5.078125 53.328125 
Q 6.6875 62.15625 12.390625 67.015625 
Q 18.109375 71.875 26.609375 71.875 
Q 32.46875 71.875 37.390625 69.359375 
Q 42.328125 66.84375 44.9375 62.5 
Q 47.5625 58.15625 47.5625 53.265625 
Q 47.5625 48.640625 45.0625 44.828125 
Q 42.578125 41.015625 37.703125 38.765625 
Q 44.046875 37.3125 47.5625 32.6875 
Q 51.078125 28.078125 51.078125 21.140625 
Q 51.078125 11.765625 44.234375 5.25 
Q 37.40625 -1.265625 26.953125 -1.265625 
Q 17.53125 -1.265625 11.296875 4.34375 
Q 5.078125 9.96875 4.203125 18.890625 
z
" id="ArialMT-51"/>
       </defs>
       <use xlink:href="#ArialMT-51"/>
       <use x="55.615234" xlink:href="#ArialMT-48"/>
      </g>
     </g>
    </g>
    <g id="xtick_11">
     <g id="line2d_21"/>
     <g id="text_22">
      <!-- 40 -->
      <g style="fill:#262626;" transform="translate(635.539493 544.641875)scale(0.1 -0.1)">
       <use xlink:href="#ArialMT-52"/>
       <use x="55.615234" xlink:href="#ArialMT-48"/>
      </g>
     </g>
    </g>
    <g id="xtick_12">
     <g id="line2d_22"/>
     <g id="text_23">
      <!-- 50 -->
      <g style="fill:#262626;" transform="translate(690.754444 544.641875)scale(0.1 -0.1)">
       <use xlink:href="#ArialMT-53"/>
       <use x="55.615234" xlink:href="#ArialMT-48"/>
      </g>
     </g>
    </g>
    <g id="text_24">
     <!-- Lag -->
     <g style="fill:#262626;" transform="translate(545.507568 559.21875)scale(0.12 -0.12)">
      <use xlink:href="#ArialMT-76"/>
      <use x="55.615234" xlink:href="#ArialMT-97"/>
      <use x="111.230469" xlink:href="#ArialMT-103"/>
     </g>
    </g>
   </g>
   <g id="matplotlib.axis_4">
    <g id="ytick_10">
     <g id="line2d_23"/>
     <g id="text_25">
      <!-- −1.00 -->
      <g style="fill:#262626;" transform="translate(377.9114 537.562969)scale(0.1 -0.1)">
       <use xlink:href="#ArialMT-8722"/>
       <use x="58.398438" xlink:href="#ArialMT-49"/>
       <use x="114.013672" xlink:href="#ArialMT-46"/>
       <use x="141.796875" xlink:href="#ArialMT-48"/>
       <use x="197.412109" xlink:href="#ArialMT-48"/>
      </g>
     </g>
    </g>
    <g id="ytick_11">
     <g id="line2d_24"/>
     <g id="text_26">
      <!-- −0.75 -->
      <g style="fill:#262626;" transform="translate(377.9114 508.931719)scale(0.1 -0.1)">
       <use xlink:href="#ArialMT-8722"/>
       <use x="58.398438" xlink:href="#ArialMT-48"/>
       <use x="114.013672" xlink:href="#ArialMT-46"/>
       <use x="141.796875" xlink:href="#ArialMT-55"/>
       <use x="197.412109" xlink:href="#ArialMT-53"/>
      </g>
     </g>
    </g>
    <g id="ytick_12">
     <g id="line2d_25"/>
     <g id="text_27">
      <!-- −0.50 -->
      <g style="fill:#262626;" transform="translate(377.9114 480.300469)scale(0.1 -0.1)">
       <use xlink:href="#ArialMT-8722"/>
       <use x="58.398438" xlink:href="#ArialMT-48"/>
       <use x="114.013672" xlink:href="#ArialMT-46"/>
       <use x="141.796875" xlink:href="#ArialMT-53"/>
       <use x="197.412109" xlink:href="#ArialMT-48"/>
      </g>
     </g>
    </g>
    <g id="ytick_13">
     <g id="line2d_26"/>
     <g id="text_28">
      <!-- −0.25 -->
      <g style="fill:#262626;" transform="translate(377.9114 451.669219)scale(0.1 -0.1)">
       <use xlink:href="#ArialMT-8722"/>
       <use x="58.398438" xlink:href="#ArialMT-48"/>
       <use x="114.013672" xlink:href="#ArialMT-46"/>
       <use x="141.796875" xlink:href="#ArialMT-50"/>
       <use x="197.412109" xlink:href="#ArialMT-53"/>
      </g>
     </g>
    </g>
    <g id="ytick_14">
     <g id="line2d_27"/>
     <g id="text_29">
      <!-- 0.00 -->
      <g style="fill:#262626;" transform="translate(383.752025 423.037969)scale(0.1 -0.1)">
       <use xlink:href="#ArialMT-48"/>
       <use x="55.615234" xlink:href="#ArialMT-46"/>
       <use x="83.398438" xlink:href="#ArialMT-48"/>
       <use x="139.013672" xlink:href="#ArialMT-48"/>
      </g>
     </g>
    </g>
    <g id="ytick_15">
     <g id="line2d_28"/>
     <g id="text_30">
      <!-- 0.25 -->
      <g style="fill:#262626;" transform="translate(383.752025 394.406719)scale(0.1 -0.1)">
       <use xlink:href="#ArialMT-48"/>
       <use x="55.615234" xlink:href="#ArialMT-46"/>
       <use x="83.398438" xlink:href="#ArialMT-50"/>
       <use x="139.013672" xlink:href="#ArialMT-53"/>
      </g>
     </g>
    </g>
    <g id="ytick_16">
     <g id="line2d_29"/>
     <g id="text_31">
      <!-- 0.50 -->
      <g style="fill:#262626;" transform="translate(383.752025 365.775469)scale(0.1 -0.1)">
       <use xlink:href="#ArialMT-48"/>
       <use x="55.615234" xlink:href="#ArialMT-46"/>
       <use x="83.398438" xlink:href="#ArialMT-53"/>
       <use x="139.013672" xlink:href="#ArialMT-48"/>
      </g>
     </g>
    </g>
    <g id="ytick_17">
     <g id="line2d_30"/>
     <g id="text_32">
      <!-- 0.75 -->
      <g style="fill:#262626;" transform="translate(383.752025 337.144219)scale(0.1 -0.1)">
       <use xlink:href="#ArialMT-48"/>
       <use x="55.615234" xlink:href="#ArialMT-46"/>
       <use x="83.398438" xlink:href="#ArialMT-55"/>
       <use x="139.013672" xlink:href="#ArialMT-53"/>
      </g>
     </g>
    </g>
    <g id="ytick_18">
     <g id="line2d_31"/>
     <g id="text_33">
      <!-- 1.00 -->
      <g style="fill:#262626;" transform="translate(383.752025 308.512969)scale(0.1 -0.1)">
       <use xlink:href="#ArialMT-49"/>
       <use x="55.615234" xlink:href="#ArialMT-46"/>
       <use x="83.398438" xlink:href="#ArialMT-48"/>
       <use x="139.013672" xlink:href="#ArialMT-48"/>
      </g>
     </g>
    </g>
    <g id="text_34">
     <!-- Cross Correlation: ee, ex -->
     <g style="fill:#262626;" transform="translate(371.5264 485.815312)rotate(-90)scale(0.12 -0.12)">
      <use xlink:href="#ArialMT-67"/>
      <use x="72.216797" xlink:href="#ArialMT-114"/>
      <use x="105.517578" xlink:href="#ArialMT-111"/>
      <use x="161.132812" xlink:href="#ArialMT-115"/>
      <use x="211.132812" xlink:href="#ArialMT-115"/>
      <use x="261.132812" xlink:href="#ArialMT-32"/>
      <use x="288.916016" xlink:href="#ArialMT-67"/>
      <use x="361.132812" xlink:href="#ArialMT-111"/>
      <use x="416.748047" xlink:href="#ArialMT-114"/>
      <use x="450.048828" xlink:href="#ArialMT-114"/>
      <use x="483.349609" xlink:href="#ArialMT-101"/>
      <use x="538.964844" xlink:href="#ArialMT-108"/>
      <use x="561.181641" xlink:href="#ArialMT-97"/>
      <use x="616.796875" xlink:href="#ArialMT-116"/>
      <use x="644.580078" xlink:href="#ArialMT-105"/>
      <use x="666.796875" xlink:href="#ArialMT-111"/>
      <use x="722.412109" xlink:href="#ArialMT-110"/>
      <use x="778.027344" xlink:href="#ArialMT-58"/>
      <use x="805.810547" xlink:href="#ArialMT-32"/>
      <use x="833.59375" xlink:href="#ArialMT-101"/>
      <use x="889.208984" xlink:href="#ArialMT-101"/>
      <use x="944.824219" xlink:href="#ArialMT-44"/>
      <use x="972.607422" xlink:href="#ArialMT-32"/>
      <use x="1000.390625" xlink:href="#ArialMT-101"/>
      <use x="1056.005859" xlink:href="#ArialMT-120"/>
     </g>
    </g>
   </g>
   <g id="patch_7">
    <path clip-path="url(#p20f9523d53)" d="M 406.712962 403.546877 
L 406.712962 435.371248 
L 704.321549 435.371248 
L 704.321549 403.546877 
z
" style="fill:#ccd9ff;opacity:0.5;"/>
   </g>
   <g id="line2d_32">
    <path clip-path="url(#p20f9523d53)" d="M 420.240625 415.839362 
L 425.76212 435.997702 
L 431.283615 414.973782 
L 436.805111 429.190663 
L 442.326606 402.933753 
L 447.848101 396.036273 
L 453.369596 394.028369 
L 458.891091 411.926434 
L 464.412586 407.784178 
L 469.934081 442.774525 
L 475.455576 430.936362 
L 480.977072 436.14362 
L 486.498567 425.606278 
L 492.020062 405.47985 
L 497.541557 416.883727 
L 503.063052 428.44983 
L 508.584547 410.416977 
L 514.106042 418.22147 
L 519.627537 416.956935 
L 525.149033 426.083875 
L 530.670528 423.272827 
L 536.192023 416.9922 
L 541.713518 419.458151 
L 547.235013 427.734967 
L 552.756508 425.760557 
L 558.278003 417.96587 
L 563.799498 424.910901 
L 569.320994 417.235236 
L 574.842489 430.172285 
L 580.363984 418.032685 
L 585.885479 399.321577 
L 591.406974 418.371748 
L 596.928469 416.63671 
L 602.449964 395.37661 
L 607.971459 413.274382 
L 613.492955 417.941128 
L 619.01445 447.351027 
L 624.535945 420.556522 
L 630.05744 421.150749 
L 635.578935 415.400691 
L 641.10043 432.289898 
L 646.621925 407.744726 
L 652.14342 389.942413 
L 657.664916 394.114141 
L 663.186411 425.692311 
L 668.707906 417.760798 
L 674.229401 404.163455 
L 679.750896 399.774272 
L 685.272391 449.986191 
L 690.793886 430.663089 
" style="fill:none;stroke:#1f77b4;stroke-linecap:round;stroke-width:1.5;"/>
   </g>
   <g id="patch_8">
    <path d="M 406.712962 533.984062 
L 406.712962 304.934062 
" style="fill:none;stroke:#262626;stroke-linecap:square;stroke-linejoin:miter;stroke-width:1.25;"/>
   </g>
   <g id="patch_9">
    <path d="M 406.712962 533.984062 
L 704.321549 533.984062 
" style="fill:none;stroke:#262626;stroke-linecap:square;stroke-linejoin:miter;stroke-width:1.25;"/>
   </g>
  </g>
  <g id="axes_3">
   <g id="patch_10">
    <path d="M 55.304375 255.134062 
L 704.321549 255.134062 
L 704.321549 26.084062 
L 55.304375 26.084062 
z
" style="fill:#ffffff;"/>
   </g>
   <g id="matplotlib.axis_5">
    <g id="xtick_13">
     <g id="line2d_33"/>
     <g id="text_35">
      <!-- 0 -->
      <g style="fill:#262626;" transform="translate(80.912499 268.655)scale(0.14 -0.14)">
       <use xlink:href="#ArialMT-48"/>
      </g>
     </g>
    </g>
    <g id="xtick_14">
     <g id="line2d_34"/>
     <g id="text_36">
      <!-- 20 -->
      <g style="fill:#262626;" transform="translate(198.672547 268.655)scale(0.14 -0.14)">
       <use xlink:href="#ArialMT-50"/>
       <use x="55.615234" xlink:href="#ArialMT-48"/>
      </g>
     </g>
    </g>
    <g id="xtick_15">
     <g id="line2d_35"/>
     <g id="text_37">
      <!-- 40 -->
      <g style="fill:#262626;" transform="translate(320.325251 268.655)scale(0.14 -0.14)">
       <use xlink:href="#ArialMT-52"/>
       <use x="55.615234" xlink:href="#ArialMT-48"/>
      </g>
     </g>
    </g>
    <g id="xtick_16">
     <g id="line2d_36"/>
     <g id="text_38">
      <!-- 60 -->
      <g style="fill:#262626;" transform="translate(441.977954 268.655)scale(0.14 -0.14)">
       <use xlink:href="#ArialMT-54"/>
       <use x="55.615234" xlink:href="#ArialMT-48"/>
      </g>
     </g>
    </g>
    <g id="xtick_17">
     <g id="line2d_37"/>
     <g id="text_39">
      <!-- 80 -->
      <g style="fill:#262626;" transform="translate(563.630658 268.655)scale(0.14 -0.14)">
       <use xlink:href="#ArialMT-56"/>
       <use x="55.615234" xlink:href="#ArialMT-48"/>
      </g>
     </g>
    </g>
    <g id="xtick_18">
     <g id="line2d_38"/>
     <g id="text_40">
      <!-- 100 -->
      <g style="fill:#262626;" transform="translate(681.390705 268.655)scale(0.14 -0.14)">
       <use xlink:href="#ArialMT-49"/>
       <use x="55.615234" xlink:href="#ArialMT-48"/>
       <use x="111.230469" xlink:href="#ArialMT-48"/>
      </g>
     </g>
    </g>
    <g id="text_41">
     <!-- Samples -->
     <g style="fill:#262626;" transform="translate(352.579681 285.629062)scale(0.14 -0.14)">
      <defs>
       <path d="M 4.5 23 
L 13.421875 23.78125 
Q 14.0625 18.40625 16.375 14.96875 
Q 18.703125 11.53125 23.578125 9.40625 
Q 28.46875 7.28125 34.578125 7.28125 
Q 39.984375 7.28125 44.140625 8.890625 
Q 48.296875 10.5 50.3125 13.296875 
Q 52.34375 16.109375 52.34375 19.4375 
Q 52.34375 22.796875 50.390625 25.3125 
Q 48.4375 27.828125 43.953125 29.546875 
Q 41.0625 30.671875 31.203125 33.03125 
Q 21.34375 35.40625 17.390625 37.5 
Q 12.25 40.1875 9.734375 44.15625 
Q 7.234375 48.140625 7.234375 53.078125 
Q 7.234375 58.5 10.296875 63.203125 
Q 13.375 67.921875 19.28125 70.359375 
Q 25.203125 72.796875 32.421875 72.796875 
Q 40.375 72.796875 46.453125 70.234375 
Q 52.546875 67.671875 55.8125 62.6875 
Q 59.078125 57.71875 59.328125 51.421875 
L 50.25 50.734375 
Q 49.515625 57.515625 45.28125 60.984375 
Q 41.0625 64.453125 32.8125 64.453125 
Q 24.21875 64.453125 20.28125 61.296875 
Q 16.359375 58.15625 16.359375 53.71875 
Q 16.359375 49.859375 19.140625 47.359375 
Q 21.875 44.875 33.421875 42.265625 
Q 44.96875 39.65625 49.265625 37.703125 
Q 55.515625 34.8125 58.484375 30.390625 
Q 61.46875 25.984375 61.46875 20.21875 
Q 61.46875 14.5 58.203125 9.4375 
Q 54.9375 4.390625 48.796875 1.578125 
Q 42.671875 -1.21875 35.015625 -1.21875 
Q 25.296875 -1.21875 18.71875 1.609375 
Q 12.15625 4.4375 8.421875 10.125 
Q 4.6875 15.828125 4.5 23 
z
" id="ArialMT-83"/>
       <path d="M 6.59375 0 
L 6.59375 51.859375 
L 14.453125 51.859375 
L 14.453125 44.578125 
Q 16.890625 48.390625 20.9375 50.703125 
Q 25 53.03125 30.171875 53.03125 
Q 35.9375 53.03125 39.625 50.640625 
Q 43.3125 48.25 44.828125 43.953125 
Q 50.984375 53.03125 60.84375 53.03125 
Q 68.5625 53.03125 72.703125 48.75 
Q 76.859375 44.484375 76.859375 35.59375 
L 76.859375 0 
L 68.109375 0 
L 68.109375 32.671875 
Q 68.109375 37.9375 67.25 40.25 
Q 66.40625 42.578125 64.15625 43.984375 
Q 61.921875 45.40625 58.890625 45.40625 
Q 53.421875 45.40625 49.796875 41.765625 
Q 46.1875 38.140625 46.1875 30.125 
L 46.1875 0 
L 37.40625 0 
L 37.40625 33.6875 
Q 37.40625 39.546875 35.25 42.46875 
Q 33.109375 45.40625 28.21875 45.40625 
Q 24.515625 45.40625 21.359375 43.453125 
Q 18.21875 41.5 16.796875 37.734375 
Q 15.375 33.984375 15.375 26.90625 
L 15.375 0 
z
" id="ArialMT-109"/>
       <path d="M 6.59375 -19.875 
L 6.59375 51.859375 
L 14.59375 51.859375 
L 14.59375 45.125 
Q 17.4375 49.078125 21 51.046875 
Q 24.5625 53.03125 29.640625 53.03125 
Q 36.28125 53.03125 41.359375 49.609375 
Q 46.4375 46.1875 49.015625 39.953125 
Q 51.609375 33.734375 51.609375 26.3125 
Q 51.609375 18.359375 48.75 11.984375 
Q 45.90625 5.609375 40.453125 2.21875 
Q 35.015625 -1.171875 29 -1.171875 
Q 24.609375 -1.171875 21.109375 0.6875 
Q 17.625 2.546875 15.375 5.375 
L 15.375 -19.875 
z
M 14.546875 25.640625 
Q 14.546875 15.625 18.59375 10.84375 
Q 22.65625 6.0625 28.421875 6.0625 
Q 34.28125 6.0625 38.453125 11.015625 
Q 42.625 15.96875 42.625 26.375 
Q 42.625 36.28125 38.546875 41.203125 
Q 34.46875 46.140625 28.8125 46.140625 
Q 23.1875 46.140625 18.859375 40.890625 
Q 14.546875 35.640625 14.546875 25.640625 
z
" id="ArialMT-112"/>
      </defs>
      <use xlink:href="#ArialMT-83"/>
      <use x="66.699219" xlink:href="#ArialMT-97"/>
      <use x="122.314453" xlink:href="#ArialMT-109"/>
      <use x="205.615234" xlink:href="#ArialMT-112"/>
      <use x="261.230469" xlink:href="#ArialMT-108"/>
      <use x="283.447266" xlink:href="#ArialMT-101"/>
      <use x="339.0625" xlink:href="#ArialMT-115"/>
     </g>
    </g>
   </g>
   <g id="matplotlib.axis_6">
    <g id="ytick_19">
     <g id="line2d_39"/>
     <g id="text_42">
      <!-- −1.0 -->
      <g style="fill:#262626;" transform="translate(24.1675 249.791309)scale(0.14 -0.14)">
       <use xlink:href="#ArialMT-8722"/>
       <use x="58.398438" xlink:href="#ArialMT-49"/>
       <use x="114.013672" xlink:href="#ArialMT-46"/>
       <use x="141.796875" xlink:href="#ArialMT-48"/>
      </g>
     </g>
    </g>
    <g id="ytick_20">
     <g id="line2d_40"/>
     <g id="text_43">
      <!-- −0.5 -->
      <g style="fill:#262626;" transform="translate(24.1675 200.435168)scale(0.14 -0.14)">
       <use xlink:href="#ArialMT-8722"/>
       <use x="58.398438" xlink:href="#ArialMT-48"/>
       <use x="114.013672" xlink:href="#ArialMT-46"/>
       <use x="141.796875" xlink:href="#ArialMT-53"/>
      </g>
     </g>
    </g>
    <g id="ytick_21">
     <g id="line2d_41"/>
     <g id="text_44">
      <!-- 0.0 -->
      <g style="fill:#262626;" transform="translate(32.344375 151.079026)scale(0.14 -0.14)">
       <use xlink:href="#ArialMT-48"/>
       <use x="55.615234" xlink:href="#ArialMT-46"/>
       <use x="83.398438" xlink:href="#ArialMT-48"/>
      </g>
     </g>
    </g>
    <g id="ytick_22">
     <g id="line2d_42"/>
     <g id="text_45">
      <!-- 0.5 -->
      <g style="fill:#262626;" transform="translate(32.344375 101.722885)scale(0.14 -0.14)">
       <use xlink:href="#ArialMT-48"/>
       <use x="55.615234" xlink:href="#ArialMT-46"/>
       <use x="83.398438" xlink:href="#ArialMT-53"/>
      </g>
     </g>
    </g>
    <g id="ytick_23">
     <g id="line2d_43"/>
     <g id="text_46">
      <!-- 1.0 -->
      <g style="fill:#262626;" transform="translate(32.344375 52.366744)scale(0.14 -0.14)">
       <use xlink:href="#ArialMT-49"/>
       <use x="55.615234" xlink:href="#ArialMT-46"/>
       <use x="83.398438" xlink:href="#ArialMT-48"/>
      </g>
     </g>
    </g>
    <g id="text_47">
     <!-- y, yhat -->
     <g style="fill:#262626;" transform="translate(17.220938 160.712187)rotate(-90)scale(0.14 -0.14)">
      <defs>
       <path d="M 6.203125 -19.96875 
L 5.21875 -11.71875 
Q 8.109375 -12.5 10.25 -12.5 
Q 13.1875 -12.5 14.9375 -11.515625 
Q 16.703125 -10.546875 17.828125 -8.796875 
Q 18.65625 -7.46875 20.515625 -2.25 
Q 20.75 -1.515625 21.296875 -0.09375 
L 1.609375 51.859375 
L 11.078125 51.859375 
L 21.875 21.828125 
Q 23.96875 16.109375 25.640625 9.8125 
Q 27.15625 15.875 29.25 21.625 
L 40.328125 51.859375 
L 49.125 51.859375 
L 29.390625 -0.875 
Q 26.21875 -9.421875 24.46875 -12.640625 
Q 22.125 -17 19.09375 -19.015625 
Q 16.0625 -21.046875 11.859375 -21.046875 
Q 9.328125 -21.046875 6.203125 -19.96875 
z
" id="ArialMT-121"/>
       <path d="M 6.59375 0 
L 6.59375 71.578125 
L 15.375 71.578125 
L 15.375 45.90625 
Q 21.53125 53.03125 30.90625 53.03125 
Q 36.671875 53.03125 40.921875 50.75 
Q 45.171875 48.484375 47 44.484375 
Q 48.828125 40.484375 48.828125 32.859375 
L 48.828125 0 
L 40.046875 0 
L 40.046875 32.859375 
Q 40.046875 39.453125 37.1875 42.453125 
Q 34.328125 45.453125 29.109375 45.453125 
Q 25.203125 45.453125 21.75 43.421875 
Q 18.3125 41.40625 16.84375 37.9375 
Q 15.375 34.46875 15.375 28.375 
L 15.375 0 
z
" id="ArialMT-104"/>
      </defs>
      <use xlink:href="#ArialMT-121"/>
      <use x="42.625" xlink:href="#ArialMT-44"/>
      <use x="70.408203" xlink:href="#ArialMT-32"/>
      <use x="98.191406" xlink:href="#ArialMT-121"/>
      <use x="148.191406" xlink:href="#ArialMT-104"/>
      <use x="203.806641" xlink:href="#ArialMT-97"/>
      <use x="259.421875" xlink:href="#ArialMT-116"/>
     </g>
    </g>
   </g>
   <g id="line2d_44">
    <path clip-path="url(#p4847fbd26e)" d="M 84.805156 194.849925 
L 90.887791 167.402313 
L 96.970426 134.192462 
L 103.053061 224.736305 
L 109.135696 111.67381 
L 115.218332 113.724402 
L 121.300967 141.195668 
L 127.383602 167.35577 
L 133.466237 148.733381 
L 139.548872 175.069606 
L 145.631508 101.142413 
L 151.714143 134.603432 
L 157.796778 158.323082 
L 163.879413 158.436706 
L 169.962048 208.925873 
L 176.044683 198.822508 
L 182.127319 220.571427 
L 188.209954 133.563586 
L 194.292589 223.859316 
L 200.375224 131.802468 
L 206.457859 209.51355 
L 212.540495 131.402574 
L 218.62313 160.412219 
L 224.705765 181.33803 
L 230.7884 113.118768 
L 236.871035 98.588627 
L 242.95367 203.277831 
L 249.036306 236.62053 
L 255.118941 223.987528 
L 261.201576 181.946069 
L 267.284211 96.581695 
L 273.366846 168.161351 
L 279.449482 75.833896 
L 285.532117 72.802143 
L 291.614752 192.238103 
L 297.697387 157.398418 
L 303.780022 133.895689 
L 309.862658 79.080295 
L 315.945293 221.522323 
L 322.027928 180.198877 
L 328.110563 153.566635 
L 334.193198 94.653205 
L 340.275833 203.28827 
L 346.358469 168.743903 
L 352.441104 92.05438 
L 358.523739 47.298387 
L 364.606374 108.304798 
L 370.689009 182.754783 
L 376.771645 179.350702 
L 382.85428 102.659765 
L 388.936915 193.219166 
L 395.01955 222.524051 
L 401.102185 172.075001 
L 407.18482 134.319997 
L 413.267456 101.74402 
L 419.350091 196.4789 
L 425.432726 89.899139 
L 431.515361 120.57313 
L 437.597996 71.103734 
L 443.680632 59.202226 
L 449.763267 98.40406 
L 455.845902 223.853499 
L 461.928537 211.760791 
L 468.011172 208.54512 
L 474.093808 165.989197 
L 480.176443 230.780974 
L 486.259078 101.210505 
L 492.341713 133.967263 
L 498.424348 173.844697 
L 504.506983 211.614832 
L 510.589619 103.822983 
L 516.672254 99.315037 
L 522.754889 128.818541 
L 528.837524 215.714992 
L 534.920159 190.813343 
L 541.002795 183.089282 
L 547.08543 150.356756 
L 553.168065 109.626177 
L 559.2507 79.639445 
L 565.333335 95.616164 
L 571.415971 104.597583 
L 577.498606 211.049867 
L 583.581241 181.676691 
L 589.663876 83.169885 
L 595.746511 222.584453 
L 601.829146 176.501024 
L 607.911782 173.241284 
L 613.994417 74.743581 
L 620.077052 176.279113 
L 626.159687 186.290327 
L 632.242322 223.403954 
L 638.324958 244.698098 
L 644.407593 113.392716 
L 650.490228 70.783696 
L 656.572863 36.495426 
L 662.655498 52.249486 
L 668.738133 87.229569 
L 674.820769 59.383682 
" style="fill:none;stroke:#1f77b4;stroke-linecap:round;stroke-width:1.5;"/>
    <defs>
     <path d="M 0 3 
C 0.795609 3 1.55874 2.683901 2.12132 2.12132 
C 2.683901 1.55874 3 0.795609 3 0 
C 3 -0.795609 2.683901 -1.55874 2.12132 -2.12132 
C 1.55874 -2.683901 0.795609 -3 0 -3 
C -0.795609 -3 -1.55874 -2.683901 -2.12132 -2.12132 
C -2.683901 -1.55874 -3 -0.795609 -3 0 
C -3 0.795609 -2.683901 1.55874 -2.12132 2.12132 
C -1.55874 2.683901 -0.795609 3 0 3 
z
" id="ma1ba32ad57" style="stroke:#1f77b4;"/>
    </defs>
    <g clip-path="url(#p4847fbd26e)">
     <use style="fill:#1f77b4;stroke:#1f77b4;" x="84.805156" xlink:href="#ma1ba32ad57" y="194.849925"/>
     <use style="fill:#1f77b4;stroke:#1f77b4;" x="90.887791" xlink:href="#ma1ba32ad57" y="167.402313"/>
     <use style="fill:#1f77b4;stroke:#1f77b4;" x="96.970426" xlink:href="#ma1ba32ad57" y="134.192462"/>
     <use style="fill:#1f77b4;stroke:#1f77b4;" x="103.053061" xlink:href="#ma1ba32ad57" y="224.736305"/>
     <use style="fill:#1f77b4;stroke:#1f77b4;" x="109.135696" xlink:href="#ma1ba32ad57" y="111.67381"/>
     <use style="fill:#1f77b4;stroke:#1f77b4;" x="115.218332" xlink:href="#ma1ba32ad57" y="113.724402"/>
     <use style="fill:#1f77b4;stroke:#1f77b4;" x="121.300967" xlink:href="#ma1ba32ad57" y="141.195668"/>
     <use style="fill:#1f77b4;stroke:#1f77b4;" x="127.383602" xlink:href="#ma1ba32ad57" y="167.35577"/>
     <use style="fill:#1f77b4;stroke:#1f77b4;" x="133.466237" xlink:href="#ma1ba32ad57" y="148.733381"/>
     <use style="fill:#1f77b4;stroke:#1f77b4;" x="139.548872" xlink:href="#ma1ba32ad57" y="175.069606"/>
     <use style="fill:#1f77b4;stroke:#1f77b4;" x="145.631508" xlink:href="#ma1ba32ad57" y="101.142413"/>
     <use style="fill:#1f77b4;stroke:#1f77b4;" x="151.714143" xlink:href="#ma1ba32ad57" y="134.603432"/>
     <use style="fill:#1f77b4;stroke:#1f77b4;" x="157.796778" xlink:href="#ma1ba32ad57" y="158.323082"/>
     <use style="fill:#1f77b4;stroke:#1f77b4;" x="163.879413" xlink:href="#ma1ba32ad57" y="158.436706"/>
     <use style="fill:#1f77b4;stroke:#1f77b4;" x="169.962048" xlink:href="#ma1ba32ad57" y="208.925873"/>
     <use style="fill:#1f77b4;stroke:#1f77b4;" x="176.044683" xlink:href="#ma1ba32ad57" y="198.822508"/>
     <use style="fill:#1f77b4;stroke:#1f77b4;" x="182.127319" xlink:href="#ma1ba32ad57" y="220.571427"/>
     <use style="fill:#1f77b4;stroke:#1f77b4;" x="188.209954" xlink:href="#ma1ba32ad57" y="133.563586"/>
     <use style="fill:#1f77b4;stroke:#1f77b4;" x="194.292589" xlink:href="#ma1ba32ad57" y="223.859316"/>
     <use style="fill:#1f77b4;stroke:#1f77b4;" x="200.375224" xlink:href="#ma1ba32ad57" y="131.802468"/>
     <use style="fill:#1f77b4;stroke:#1f77b4;" x="206.457859" xlink:href="#ma1ba32ad57" y="209.51355"/>
     <use style="fill:#1f77b4;stroke:#1f77b4;" x="212.540495" xlink:href="#ma1ba32ad57" y="131.402574"/>
     <use style="fill:#1f77b4;stroke:#1f77b4;" x="218.62313" xlink:href="#ma1ba32ad57" y="160.412219"/>
     <use style="fill:#1f77b4;stroke:#1f77b4;" x="224.705765" xlink:href="#ma1ba32ad57" y="181.33803"/>
     <use style="fill:#1f77b4;stroke:#1f77b4;" x="230.7884" xlink:href="#ma1ba32ad57" y="113.118768"/>
     <use style="fill:#1f77b4;stroke:#1f77b4;" x="236.871035" xlink:href="#ma1ba32ad57" y="98.588627"/>
     <use style="fill:#1f77b4;stroke:#1f77b4;" x="242.95367" xlink:href="#ma1ba32ad57" y="203.277831"/>
     <use style="fill:#1f77b4;stroke:#1f77b4;" x="249.036306" xlink:href="#ma1ba32ad57" y="236.62053"/>
     <use style="fill:#1f77b4;stroke:#1f77b4;" x="255.118941" xlink:href="#ma1ba32ad57" y="223.987528"/>
     <use style="fill:#1f77b4;stroke:#1f77b4;" x="261.201576" xlink:href="#ma1ba32ad57" y="181.946069"/>
     <use style="fill:#1f77b4;stroke:#1f77b4;" x="267.284211" xlink:href="#ma1ba32ad57" y="96.581695"/>
     <use style="fill:#1f77b4;stroke:#1f77b4;" x="273.366846" xlink:href="#ma1ba32ad57" y="168.161351"/>
     <use style="fill:#1f77b4;stroke:#1f77b4;" x="279.449482" xlink:href="#ma1ba32ad57" y="75.833896"/>
     <use style="fill:#1f77b4;stroke:#1f77b4;" x="285.532117" xlink:href="#ma1ba32ad57" y="72.802143"/>
     <use style="fill:#1f77b4;stroke:#1f77b4;" x="291.614752" xlink:href="#ma1ba32ad57" y="192.238103"/>
     <use style="fill:#1f77b4;stroke:#1f77b4;" x="297.697387" xlink:href="#ma1ba32ad57" y="157.398418"/>
     <use style="fill:#1f77b4;stroke:#1f77b4;" x="303.780022" xlink:href="#ma1ba32ad57" y="133.895689"/>
     <use style="fill:#1f77b4;stroke:#1f77b4;" x="309.862658" xlink:href="#ma1ba32ad57" y="79.080295"/>
     <use style="fill:#1f77b4;stroke:#1f77b4;" x="315.945293" xlink:href="#ma1ba32ad57" y="221.522323"/>
     <use style="fill:#1f77b4;stroke:#1f77b4;" x="322.027928" xlink:href="#ma1ba32ad57" y="180.198877"/>
     <use style="fill:#1f77b4;stroke:#1f77b4;" x="328.110563" xlink:href="#ma1ba32ad57" y="153.566635"/>
     <use style="fill:#1f77b4;stroke:#1f77b4;" x="334.193198" xlink:href="#ma1ba32ad57" y="94.653205"/>
     <use style="fill:#1f77b4;stroke:#1f77b4;" x="340.275833" xlink:href="#ma1ba32ad57" y="203.28827"/>
     <use style="fill:#1f77b4;stroke:#1f77b4;" x="346.358469" xlink:href="#ma1ba32ad57" y="168.743903"/>
     <use style="fill:#1f77b4;stroke:#1f77b4;" x="352.441104" xlink:href="#ma1ba32ad57" y="92.05438"/>
     <use style="fill:#1f77b4;stroke:#1f77b4;" x="358.523739" xlink:href="#ma1ba32ad57" y="47.298387"/>
     <use style="fill:#1f77b4;stroke:#1f77b4;" x="364.606374" xlink:href="#ma1ba32ad57" y="108.304798"/>
     <use style="fill:#1f77b4;stroke:#1f77b4;" x="370.689009" xlink:href="#ma1ba32ad57" y="182.754783"/>
     <use style="fill:#1f77b4;stroke:#1f77b4;" x="376.771645" xlink:href="#ma1ba32ad57" y="179.350702"/>
     <use style="fill:#1f77b4;stroke:#1f77b4;" x="382.85428" xlink:href="#ma1ba32ad57" y="102.659765"/>
     <use style="fill:#1f77b4;stroke:#1f77b4;" x="388.936915" xlink:href="#ma1ba32ad57" y="193.219166"/>
     <use style="fill:#1f77b4;stroke:#1f77b4;" x="395.01955" xlink:href="#ma1ba32ad57" y="222.524051"/>
     <use style="fill:#1f77b4;stroke:#1f77b4;" x="401.102185" xlink:href="#ma1ba32ad57" y="172.075001"/>
     <use style="fill:#1f77b4;stroke:#1f77b4;" x="407.18482" xlink:href="#ma1ba32ad57" y="134.319997"/>
     <use style="fill:#1f77b4;stroke:#1f77b4;" x="413.267456" xlink:href="#ma1ba32ad57" y="101.74402"/>
     <use style="fill:#1f77b4;stroke:#1f77b4;" x="419.350091" xlink:href="#ma1ba32ad57" y="196.4789"/>
     <use style="fill:#1f77b4;stroke:#1f77b4;" x="425.432726" xlink:href="#ma1ba32ad57" y="89.899139"/>
     <use style="fill:#1f77b4;stroke:#1f77b4;" x="431.515361" xlink:href="#ma1ba32ad57" y="120.57313"/>
     <use style="fill:#1f77b4;stroke:#1f77b4;" x="437.597996" xlink:href="#ma1ba32ad57" y="71.103734"/>
     <use style="fill:#1f77b4;stroke:#1f77b4;" x="443.680632" xlink:href="#ma1ba32ad57" y="59.202226"/>
     <use style="fill:#1f77b4;stroke:#1f77b4;" x="449.763267" xlink:href="#ma1ba32ad57" y="98.40406"/>
     <use style="fill:#1f77b4;stroke:#1f77b4;" x="455.845902" xlink:href="#ma1ba32ad57" y="223.853499"/>
     <use style="fill:#1f77b4;stroke:#1f77b4;" x="461.928537" xlink:href="#ma1ba32ad57" y="211.760791"/>
     <use style="fill:#1f77b4;stroke:#1f77b4;" x="468.011172" xlink:href="#ma1ba32ad57" y="208.54512"/>
     <use style="fill:#1f77b4;stroke:#1f77b4;" x="474.093808" xlink:href="#ma1ba32ad57" y="165.989197"/>
     <use style="fill:#1f77b4;stroke:#1f77b4;" x="480.176443" xlink:href="#ma1ba32ad57" y="230.780974"/>
     <use style="fill:#1f77b4;stroke:#1f77b4;" x="486.259078" xlink:href="#ma1ba32ad57" y="101.210505"/>
     <use style="fill:#1f77b4;stroke:#1f77b4;" x="492.341713" xlink:href="#ma1ba32ad57" y="133.967263"/>
     <use style="fill:#1f77b4;stroke:#1f77b4;" x="498.424348" xlink:href="#ma1ba32ad57" y="173.844697"/>
     <use style="fill:#1f77b4;stroke:#1f77b4;" x="504.506983" xlink:href="#ma1ba32ad57" y="211.614832"/>
     <use style="fill:#1f77b4;stroke:#1f77b4;" x="510.589619" xlink:href="#ma1ba32ad57" y="103.822983"/>
     <use style="fill:#1f77b4;stroke:#1f77b4;" x="516.672254" xlink:href="#ma1ba32ad57" y="99.315037"/>
     <use style="fill:#1f77b4;stroke:#1f77b4;" x="522.754889" xlink:href="#ma1ba32ad57" y="128.818541"/>
     <use style="fill:#1f77b4;stroke:#1f77b4;" x="528.837524" xlink:href="#ma1ba32ad57" y="215.714992"/>
     <use style="fill:#1f77b4;stroke:#1f77b4;" x="534.920159" xlink:href="#ma1ba32ad57" y="190.813343"/>
     <use style="fill:#1f77b4;stroke:#1f77b4;" x="541.002795" xlink:href="#ma1ba32ad57" y="183.089282"/>
     <use style="fill:#1f77b4;stroke:#1f77b4;" x="547.08543" xlink:href="#ma1ba32ad57" y="150.356756"/>
     <use style="fill:#1f77b4;stroke:#1f77b4;" x="553.168065" xlink:href="#ma1ba32ad57" y="109.626177"/>
     <use style="fill:#1f77b4;stroke:#1f77b4;" x="559.2507" xlink:href="#ma1ba32ad57" y="79.639445"/>
     <use style="fill:#1f77b4;stroke:#1f77b4;" x="565.333335" xlink:href="#ma1ba32ad57" y="95.616164"/>
     <use style="fill:#1f77b4;stroke:#1f77b4;" x="571.415971" xlink:href="#ma1ba32ad57" y="104.597583"/>
     <use style="fill:#1f77b4;stroke:#1f77b4;" x="577.498606" xlink:href="#ma1ba32ad57" y="211.049867"/>
     <use style="fill:#1f77b4;stroke:#1f77b4;" x="583.581241" xlink:href="#ma1ba32ad57" y="181.676691"/>
     <use style="fill:#1f77b4;stroke:#1f77b4;" x="589.663876" xlink:href="#ma1ba32ad57" y="83.169885"/>
     <use style="fill:#1f77b4;stroke:#1f77b4;" x="595.746511" xlink:href="#ma1ba32ad57" y="222.584453"/>
     <use style="fill:#1f77b4;stroke:#1f77b4;" x="601.829146" xlink:href="#ma1ba32ad57" y="176.501024"/>
     <use style="fill:#1f77b4;stroke:#1f77b4;" x="607.911782" xlink:href="#ma1ba32ad57" y="173.241284"/>
     <use style="fill:#1f77b4;stroke:#1f77b4;" x="613.994417" xlink:href="#ma1ba32ad57" y="74.743581"/>
     <use style="fill:#1f77b4;stroke:#1f77b4;" x="620.077052" xlink:href="#ma1ba32ad57" y="176.279113"/>
     <use style="fill:#1f77b4;stroke:#1f77b4;" x="626.159687" xlink:href="#ma1ba32ad57" y="186.290327"/>
     <use style="fill:#1f77b4;stroke:#1f77b4;" x="632.242322" xlink:href="#ma1ba32ad57" y="223.403954"/>
     <use style="fill:#1f77b4;stroke:#1f77b4;" x="638.324958" xlink:href="#ma1ba32ad57" y="244.698098"/>
     <use style="fill:#1f77b4;stroke:#1f77b4;" x="644.407593" xlink:href="#ma1ba32ad57" y="113.392716"/>
     <use style="fill:#1f77b4;stroke:#1f77b4;" x="650.490228" xlink:href="#ma1ba32ad57" y="70.783696"/>
     <use style="fill:#1f77b4;stroke:#1f77b4;" x="656.572863" xlink:href="#ma1ba32ad57" y="36.495426"/>
     <use style="fill:#1f77b4;stroke:#1f77b4;" x="662.655498" xlink:href="#ma1ba32ad57" y="52.249486"/>
     <use style="fill:#1f77b4;stroke:#1f77b4;" x="668.738133" xlink:href="#ma1ba32ad57" y="87.229569"/>
     <use style="fill:#1f77b4;stroke:#1f77b4;" x="674.820769" xlink:href="#ma1ba32ad57" y="59.383682"/>
    </g>
   </g>
   <g id="line2d_45">
    <path clip-path="url(#p4847fbd26e)" d="M 84.805156 194.776553 
L 90.887791 167.293497 
L 96.970426 134.142479 
L 103.053061 224.622464 
L 109.135696 111.760085 
L 115.218332 113.745659 
L 121.300967 141.248472 
L 127.383602 167.350587 
L 133.466237 148.884133 
L 139.548872 175.048323 
L 145.631508 101.029494 
L 151.714143 134.545346 
L 157.796778 158.09575 
L 163.879413 158.497833 
L 169.962048 208.893068 
L 176.044683 198.940977 
L 182.127319 220.546159 
L 188.209954 133.540634 
L 194.292589 223.771821 
L 200.375224 131.795243 
L 206.457859 209.382739 
L 212.540495 131.383856 
L 218.62313 160.478747 
L 224.705765 181.458236 
L 230.7884 113.17357 
L 236.871035 98.675868 
L 242.95367 203.108473 
L 249.036306 236.636659 
L 255.118941 223.868594 
L 261.201576 181.93089 
L 267.284211 96.587256 
L 273.366846 168.139954 
L 279.449482 75.898955 
L 285.532117 72.852257 
L 291.614752 192.176232 
L 297.697387 157.644114 
L 303.780022 134.121161 
L 309.862658 79.076861 
L 315.945293 221.465931 
L 322.027928 180.130924 
L 328.110563 153.527485 
L 334.193198 94.725443 
L 340.275833 203.226383 
L 346.358469 168.75583 
L 352.441104 92.037098 
L 358.523739 47.388001 
L 364.606374 108.430984 
L 370.689009 182.730689 
L 376.771645 179.313175 
L 382.85428 102.69413 
L 388.936915 193.182861 
L 395.01955 222.489142 
L 401.102185 172.218782 
L 407.18482 134.350844 
L 413.267456 101.752134 
L 419.350091 196.461926 
L 425.432726 89.828264 
L 431.515361 120.582408 
L 437.597996 71.100409 
L 443.680632 59.11144 
L 449.763267 98.494076 
L 455.845902 223.916077 
L 461.928537 211.878509 
L 468.011172 208.593655 
L 474.093808 166.147297 
L 480.176443 230.772221 
L 486.259078 100.980799 
L 492.341713 133.799353 
L 498.424348 173.718221 
L 504.506983 211.519156 
L 510.589619 103.824057 
L 516.672254 99.239696 
L 522.754889 129.003195 
L 528.837524 215.76264 
L 534.920159 190.97317 
L 541.002795 183.097415 
L 547.08543 150.316611 
L 553.168065 109.62581 
L 559.2507 79.654159 
L 565.333335 95.639375 
L 571.415971 104.779433 
L 577.498606 211.305116 
L 583.581241 181.836457 
L 589.663876 83.144906 
L 595.746511 222.627602 
L 601.829146 176.544319 
L 607.911782 173.289139 
L 613.994417 74.726024 
L 620.077052 176.383154 
L 626.159687 186.566128 
L 632.242322 223.527408 
L 638.324958 244.722699 
L 644.407593 113.433315 
L 650.490228 70.732482 
L 656.572863 36.538423 
L 662.655498 52.198814 
L 668.738133 87.186289 
L 674.820769 59.536964 
" style="fill:none;stroke:#ff7f0e;stroke-linecap:round;stroke-width:1.5;"/>
    <defs>
     <path d="M 0 -3 
L -0.673542 -0.927051 
L -2.85317 -0.927051 
L -1.089814 0.354102 
L -1.763356 2.427051 
L -0 1.145898 
L 1.763356 2.427051 
L 1.089814 0.354102 
L 2.85317 -0.927051 
L 0.673542 -0.927051 
z
" id="m6c98be38b8" style="stroke:#ff7f0e;stroke-linejoin:bevel;"/>
    </defs>
    <g clip-path="url(#p4847fbd26e)">
     <use style="fill:#ff7f0e;stroke:#ff7f0e;stroke-linejoin:bevel;" x="84.805156" xlink:href="#m6c98be38b8" y="194.776553"/>
     <use style="fill:#ff7f0e;stroke:#ff7f0e;stroke-linejoin:bevel;" x="90.887791" xlink:href="#m6c98be38b8" y="167.293497"/>
     <use style="fill:#ff7f0e;stroke:#ff7f0e;stroke-linejoin:bevel;" x="96.970426" xlink:href="#m6c98be38b8" y="134.142479"/>
     <use style="fill:#ff7f0e;stroke:#ff7f0e;stroke-linejoin:bevel;" x="103.053061" xlink:href="#m6c98be38b8" y="224.622464"/>
     <use style="fill:#ff7f0e;stroke:#ff7f0e;stroke-linejoin:bevel;" x="109.135696" xlink:href="#m6c98be38b8" y="111.760085"/>
     <use style="fill:#ff7f0e;stroke:#ff7f0e;stroke-linejoin:bevel;" x="115.218332" xlink:href="#m6c98be38b8" y="113.745659"/>
     <use style="fill:#ff7f0e;stroke:#ff7f0e;stroke-linejoin:bevel;" x="121.300967" xlink:href="#m6c98be38b8" y="141.248472"/>
     <use style="fill:#ff7f0e;stroke:#ff7f0e;stroke-linejoin:bevel;" x="127.383602" xlink:href="#m6c98be38b8" y="167.350587"/>
     <use style="fill:#ff7f0e;stroke:#ff7f0e;stroke-linejoin:bevel;" x="133.466237" xlink:href="#m6c98be38b8" y="148.884133"/>
     <use style="fill:#ff7f0e;stroke:#ff7f0e;stroke-linejoin:bevel;" x="139.548872" xlink:href="#m6c98be38b8" y="175.048323"/>
     <use style="fill:#ff7f0e;stroke:#ff7f0e;stroke-linejoin:bevel;" x="145.631508" xlink:href="#m6c98be38b8" y="101.029494"/>
     <use style="fill:#ff7f0e;stroke:#ff7f0e;stroke-linejoin:bevel;" x="151.714143" xlink:href="#m6c98be38b8" y="134.545346"/>
     <use style="fill:#ff7f0e;stroke:#ff7f0e;stroke-linejoin:bevel;" x="157.796778" xlink:href="#m6c98be38b8" y="158.09575"/>
     <use style="fill:#ff7f0e;stroke:#ff7f0e;stroke-linejoin:bevel;" x="163.879413" xlink:href="#m6c98be38b8" y="158.497833"/>
     <use style="fill:#ff7f0e;stroke:#ff7f0e;stroke-linejoin:bevel;" x="169.962048" xlink:href="#m6c98be38b8" y="208.893068"/>
     <use style="fill:#ff7f0e;stroke:#ff7f0e;stroke-linejoin:bevel;" x="176.044683" xlink:href="#m6c98be38b8" y="198.940977"/>
     <use style="fill:#ff7f0e;stroke:#ff7f0e;stroke-linejoin:bevel;" x="182.127319" xlink:href="#m6c98be38b8" y="220.546159"/>
     <use style="fill:#ff7f0e;stroke:#ff7f0e;stroke-linejoin:bevel;" x="188.209954" xlink:href="#m6c98be38b8" y="133.540634"/>
     <use style="fill:#ff7f0e;stroke:#ff7f0e;stroke-linejoin:bevel;" x="194.292589" xlink:href="#m6c98be38b8" y="223.771821"/>
     <use style="fill:#ff7f0e;stroke:#ff7f0e;stroke-linejoin:bevel;" x="200.375224" xlink:href="#m6c98be38b8" y="131.795243"/>
     <use style="fill:#ff7f0e;stroke:#ff7f0e;stroke-linejoin:bevel;" x="206.457859" xlink:href="#m6c98be38b8" y="209.382739"/>
     <use style="fill:#ff7f0e;stroke:#ff7f0e;stroke-linejoin:bevel;" x="212.540495" xlink:href="#m6c98be38b8" y="131.383856"/>
     <use style="fill:#ff7f0e;stroke:#ff7f0e;stroke-linejoin:bevel;" x="218.62313" xlink:href="#m6c98be38b8" y="160.478747"/>
     <use style="fill:#ff7f0e;stroke:#ff7f0e;stroke-linejoin:bevel;" x="224.705765" xlink:href="#m6c98be38b8" y="181.458236"/>
     <use style="fill:#ff7f0e;stroke:#ff7f0e;stroke-linejoin:bevel;" x="230.7884" xlink:href="#m6c98be38b8" y="113.17357"/>
     <use style="fill:#ff7f0e;stroke:#ff7f0e;stroke-linejoin:bevel;" x="236.871035" xlink:href="#m6c98be38b8" y="98.675868"/>
     <use style="fill:#ff7f0e;stroke:#ff7f0e;stroke-linejoin:bevel;" x="242.95367" xlink:href="#m6c98be38b8" y="203.108473"/>
     <use style="fill:#ff7f0e;stroke:#ff7f0e;stroke-linejoin:bevel;" x="249.036306" xlink:href="#m6c98be38b8" y="236.636659"/>
     <use style="fill:#ff7f0e;stroke:#ff7f0e;stroke-linejoin:bevel;" x="255.118941" xlink:href="#m6c98be38b8" y="223.868594"/>
     <use style="fill:#ff7f0e;stroke:#ff7f0e;stroke-linejoin:bevel;" x="261.201576" xlink:href="#m6c98be38b8" y="181.93089"/>
     <use style="fill:#ff7f0e;stroke:#ff7f0e;stroke-linejoin:bevel;" x="267.284211" xlink:href="#m6c98be38b8" y="96.587256"/>
     <use style="fill:#ff7f0e;stroke:#ff7f0e;stroke-linejoin:bevel;" x="273.366846" xlink:href="#m6c98be38b8" y="168.139954"/>
     <use style="fill:#ff7f0e;stroke:#ff7f0e;stroke-linejoin:bevel;" x="279.449482" xlink:href="#m6c98be38b8" y="75.898955"/>
     <use style="fill:#ff7f0e;stroke:#ff7f0e;stroke-linejoin:bevel;" x="285.532117" xlink:href="#m6c98be38b8" y="72.852257"/>
     <use style="fill:#ff7f0e;stroke:#ff7f0e;stroke-linejoin:bevel;" x="291.614752" xlink:href="#m6c98be38b8" y="192.176232"/>
     <use style="fill:#ff7f0e;stroke:#ff7f0e;stroke-linejoin:bevel;" x="297.697387" xlink:href="#m6c98be38b8" y="157.644114"/>
     <use style="fill:#ff7f0e;stroke:#ff7f0e;stroke-linejoin:bevel;" x="303.780022" xlink:href="#m6c98be38b8" y="134.121161"/>
     <use style="fill:#ff7f0e;stroke:#ff7f0e;stroke-linejoin:bevel;" x="309.862658" xlink:href="#m6c98be38b8" y="79.076861"/>
     <use style="fill:#ff7f0e;stroke:#ff7f0e;stroke-linejoin:bevel;" x="315.945293" xlink:href="#m6c98be38b8" y="221.465931"/>
     <use style="fill:#ff7f0e;stroke:#ff7f0e;stroke-linejoin:bevel;" x="322.027928" xlink:href="#m6c98be38b8" y="180.130924"/>
     <use style="fill:#ff7f0e;stroke:#ff7f0e;stroke-linejoin:bevel;" x="328.110563" xlink:href="#m6c98be38b8" y="153.527485"/>
     <use style="fill:#ff7f0e;stroke:#ff7f0e;stroke-linejoin:bevel;" x="334.193198" xlink:href="#m6c98be38b8" y="94.725443"/>
     <use style="fill:#ff7f0e;stroke:#ff7f0e;stroke-linejoin:bevel;" x="340.275833" xlink:href="#m6c98be38b8" y="203.226383"/>
     <use style="fill:#ff7f0e;stroke:#ff7f0e;stroke-linejoin:bevel;" x="346.358469" xlink:href="#m6c98be38b8" y="168.75583"/>
     <use style="fill:#ff7f0e;stroke:#ff7f0e;stroke-linejoin:bevel;" x="352.441104" xlink:href="#m6c98be38b8" y="92.037098"/>
     <use style="fill:#ff7f0e;stroke:#ff7f0e;stroke-linejoin:bevel;" x="358.523739" xlink:href="#m6c98be38b8" y="47.388001"/>
     <use style="fill:#ff7f0e;stroke:#ff7f0e;stroke-linejoin:bevel;" x="364.606374" xlink:href="#m6c98be38b8" y="108.430984"/>
     <use style="fill:#ff7f0e;stroke:#ff7f0e;stroke-linejoin:bevel;" x="370.689009" xlink:href="#m6c98be38b8" y="182.730689"/>
     <use style="fill:#ff7f0e;stroke:#ff7f0e;stroke-linejoin:bevel;" x="376.771645" xlink:href="#m6c98be38b8" y="179.313175"/>
     <use style="fill:#ff7f0e;stroke:#ff7f0e;stroke-linejoin:bevel;" x="382.85428" xlink:href="#m6c98be38b8" y="102.69413"/>
     <use style="fill:#ff7f0e;stroke:#ff7f0e;stroke-linejoin:bevel;" x="388.936915" xlink:href="#m6c98be38b8" y="193.182861"/>
     <use style="fill:#ff7f0e;stroke:#ff7f0e;stroke-linejoin:bevel;" x="395.01955" xlink:href="#m6c98be38b8" y="222.489142"/>
     <use style="fill:#ff7f0e;stroke:#ff7f0e;stroke-linejoin:bevel;" x="401.102185" xlink:href="#m6c98be38b8" y="172.218782"/>
     <use style="fill:#ff7f0e;stroke:#ff7f0e;stroke-linejoin:bevel;" x="407.18482" xlink:href="#m6c98be38b8" y="134.350844"/>
     <use style="fill:#ff7f0e;stroke:#ff7f0e;stroke-linejoin:bevel;" x="413.267456" xlink:href="#m6c98be38b8" y="101.752134"/>
     <use style="fill:#ff7f0e;stroke:#ff7f0e;stroke-linejoin:bevel;" x="419.350091" xlink:href="#m6c98be38b8" y="196.461926"/>
     <use style="fill:#ff7f0e;stroke:#ff7f0e;stroke-linejoin:bevel;" x="425.432726" xlink:href="#m6c98be38b8" y="89.828264"/>
     <use style="fill:#ff7f0e;stroke:#ff7f0e;stroke-linejoin:bevel;" x="431.515361" xlink:href="#m6c98be38b8" y="120.582408"/>
     <use style="fill:#ff7f0e;stroke:#ff7f0e;stroke-linejoin:bevel;" x="437.597996" xlink:href="#m6c98be38b8" y="71.100409"/>
     <use style="fill:#ff7f0e;stroke:#ff7f0e;stroke-linejoin:bevel;" x="443.680632" xlink:href="#m6c98be38b8" y="59.11144"/>
     <use style="fill:#ff7f0e;stroke:#ff7f0e;stroke-linejoin:bevel;" x="449.763267" xlink:href="#m6c98be38b8" y="98.494076"/>
     <use style="fill:#ff7f0e;stroke:#ff7f0e;stroke-linejoin:bevel;" x="455.845902" xlink:href="#m6c98be38b8" y="223.916077"/>
     <use style="fill:#ff7f0e;stroke:#ff7f0e;stroke-linejoin:bevel;" x="461.928537" xlink:href="#m6c98be38b8" y="211.878509"/>
     <use style="fill:#ff7f0e;stroke:#ff7f0e;stroke-linejoin:bevel;" x="468.011172" xlink:href="#m6c98be38b8" y="208.593655"/>
     <use style="fill:#ff7f0e;stroke:#ff7f0e;stroke-linejoin:bevel;" x="474.093808" xlink:href="#m6c98be38b8" y="166.147297"/>
     <use style="fill:#ff7f0e;stroke:#ff7f0e;stroke-linejoin:bevel;" x="480.176443" xlink:href="#m6c98be38b8" y="230.772221"/>
     <use style="fill:#ff7f0e;stroke:#ff7f0e;stroke-linejoin:bevel;" x="486.259078" xlink:href="#m6c98be38b8" y="100.980799"/>
     <use style="fill:#ff7f0e;stroke:#ff7f0e;stroke-linejoin:bevel;" x="492.341713" xlink:href="#m6c98be38b8" y="133.799353"/>
     <use style="fill:#ff7f0e;stroke:#ff7f0e;stroke-linejoin:bevel;" x="498.424348" xlink:href="#m6c98be38b8" y="173.718221"/>
     <use style="fill:#ff7f0e;stroke:#ff7f0e;stroke-linejoin:bevel;" x="504.506983" xlink:href="#m6c98be38b8" y="211.519156"/>
     <use style="fill:#ff7f0e;stroke:#ff7f0e;stroke-linejoin:bevel;" x="510.589619" xlink:href="#m6c98be38b8" y="103.824057"/>
     <use style="fill:#ff7f0e;stroke:#ff7f0e;stroke-linejoin:bevel;" x="516.672254" xlink:href="#m6c98be38b8" y="99.239696"/>
     <use style="fill:#ff7f0e;stroke:#ff7f0e;stroke-linejoin:bevel;" x="522.754889" xlink:href="#m6c98be38b8" y="129.003195"/>
     <use style="fill:#ff7f0e;stroke:#ff7f0e;stroke-linejoin:bevel;" x="528.837524" xlink:href="#m6c98be38b8" y="215.76264"/>
     <use style="fill:#ff7f0e;stroke:#ff7f0e;stroke-linejoin:bevel;" x="534.920159" xlink:href="#m6c98be38b8" y="190.97317"/>
     <use style="fill:#ff7f0e;stroke:#ff7f0e;stroke-linejoin:bevel;" x="541.002795" xlink:href="#m6c98be38b8" y="183.097415"/>
     <use style="fill:#ff7f0e;stroke:#ff7f0e;stroke-linejoin:bevel;" x="547.08543" xlink:href="#m6c98be38b8" y="150.316611"/>
     <use style="fill:#ff7f0e;stroke:#ff7f0e;stroke-linejoin:bevel;" x="553.168065" xlink:href="#m6c98be38b8" y="109.62581"/>
     <use style="fill:#ff7f0e;stroke:#ff7f0e;stroke-linejoin:bevel;" x="559.2507" xlink:href="#m6c98be38b8" y="79.654159"/>
     <use style="fill:#ff7f0e;stroke:#ff7f0e;stroke-linejoin:bevel;" x="565.333335" xlink:href="#m6c98be38b8" y="95.639375"/>
     <use style="fill:#ff7f0e;stroke:#ff7f0e;stroke-linejoin:bevel;" x="571.415971" xlink:href="#m6c98be38b8" y="104.779433"/>
     <use style="fill:#ff7f0e;stroke:#ff7f0e;stroke-linejoin:bevel;" x="577.498606" xlink:href="#m6c98be38b8" y="211.305116"/>
     <use style="fill:#ff7f0e;stroke:#ff7f0e;stroke-linejoin:bevel;" x="583.581241" xlink:href="#m6c98be38b8" y="181.836457"/>
     <use style="fill:#ff7f0e;stroke:#ff7f0e;stroke-linejoin:bevel;" x="589.663876" xlink:href="#m6c98be38b8" y="83.144906"/>
     <use style="fill:#ff7f0e;stroke:#ff7f0e;stroke-linejoin:bevel;" x="595.746511" xlink:href="#m6c98be38b8" y="222.627602"/>
     <use style="fill:#ff7f0e;stroke:#ff7f0e;stroke-linejoin:bevel;" x="601.829146" xlink:href="#m6c98be38b8" y="176.544319"/>
     <use style="fill:#ff7f0e;stroke:#ff7f0e;stroke-linejoin:bevel;" x="607.911782" xlink:href="#m6c98be38b8" y="173.289139"/>
     <use style="fill:#ff7f0e;stroke:#ff7f0e;stroke-linejoin:bevel;" x="613.994417" xlink:href="#m6c98be38b8" y="74.726024"/>
     <use style="fill:#ff7f0e;stroke:#ff7f0e;stroke-linejoin:bevel;" x="620.077052" xlink:href="#m6c98be38b8" y="176.383154"/>
     <use style="fill:#ff7f0e;stroke:#ff7f0e;stroke-linejoin:bevel;" x="626.159687" xlink:href="#m6c98be38b8" y="186.566128"/>
     <use style="fill:#ff7f0e;stroke:#ff7f0e;stroke-linejoin:bevel;" x="632.242322" xlink:href="#m6c98be38b8" y="223.527408"/>
     <use style="fill:#ff7f0e;stroke:#ff7f0e;stroke-linejoin:bevel;" x="638.324958" xlink:href="#m6c98be38b8" y="244.722699"/>
     <use style="fill:#ff7f0e;stroke:#ff7f0e;stroke-linejoin:bevel;" x="644.407593" xlink:href="#m6c98be38b8" y="113.433315"/>
     <use style="fill:#ff7f0e;stroke:#ff7f0e;stroke-linejoin:bevel;" x="650.490228" xlink:href="#m6c98be38b8" y="70.732482"/>
     <use style="fill:#ff7f0e;stroke:#ff7f0e;stroke-linejoin:bevel;" x="656.572863" xlink:href="#m6c98be38b8" y="36.538423"/>
     <use style="fill:#ff7f0e;stroke:#ff7f0e;stroke-linejoin:bevel;" x="662.655498" xlink:href="#m6c98be38b8" y="52.198814"/>
     <use style="fill:#ff7f0e;stroke:#ff7f0e;stroke-linejoin:bevel;" x="668.738133" xlink:href="#m6c98be38b8" y="87.186289"/>
     <use style="fill:#ff7f0e;stroke:#ff7f0e;stroke-linejoin:bevel;" x="674.820769" xlink:href="#m6c98be38b8" y="59.536964"/>
    </g>
   </g>
   <g id="patch_11">
    <path d="M 55.304375 255.134062 
L 55.304375 26.084062 
" style="fill:none;stroke:#262626;stroke-linecap:square;stroke-linejoin:miter;stroke-width:1.25;"/>
   </g>
   <g id="patch_12">
    <path d="M 55.304375 255.134062 
L 704.321549 255.134062 
" style="fill:none;stroke:#262626;stroke-linecap:square;stroke-linejoin:miter;stroke-width:1.25;"/>
   </g>
   <g id="text_48">
    <!-- Free run simulation -->
    <g style="fill:#262626;" transform="translate(302.787025 20.084062)scale(0.18 -0.18)">
     <defs>
      <path d="M 8.203125 0 
L 8.203125 71.578125 
L 56.5 71.578125 
L 56.5 63.140625 
L 17.671875 63.140625 
L 17.671875 40.96875 
L 51.265625 40.96875 
L 51.265625 32.515625 
L 17.671875 32.515625 
L 17.671875 0 
z
" id="ArialMT-70"/>
      <path d="M 40.578125 0 
L 40.578125 7.625 
Q 34.515625 -1.171875 24.125 -1.171875 
Q 19.53125 -1.171875 15.546875 0.578125 
Q 11.578125 2.34375 9.640625 5 
Q 7.71875 7.671875 6.9375 11.53125 
Q 6.390625 14.109375 6.390625 19.734375 
L 6.390625 51.859375 
L 15.1875 51.859375 
L 15.1875 23.09375 
Q 15.1875 16.21875 15.71875 13.8125 
Q 16.546875 10.359375 19.234375 8.375 
Q 21.921875 6.390625 25.875 6.390625 
Q 29.828125 6.390625 33.296875 8.421875 
Q 36.765625 10.453125 38.203125 13.9375 
Q 39.65625 17.4375 39.65625 24.078125 
L 39.65625 51.859375 
L 48.4375 51.859375 
L 48.4375 0 
z
" id="ArialMT-117"/>
     </defs>
     <use xlink:href="#ArialMT-70"/>
     <use x="61.083984" xlink:href="#ArialMT-114"/>
     <use x="94.384766" xlink:href="#ArialMT-101"/>
     <use x="150" xlink:href="#ArialMT-101"/>
     <use x="205.615234" xlink:href="#ArialMT-32"/>
     <use x="233.398438" xlink:href="#ArialMT-114"/>
     <use x="266.699219" xlink:href="#ArialMT-117"/>
     <use x="322.314453" xlink:href="#ArialMT-110"/>
     <use x="377.929688" xlink:href="#ArialMT-32"/>
     <use x="405.712891" xlink:href="#ArialMT-115"/>
     <use x="455.712891" xlink:href="#ArialMT-105"/>
     <use x="477.929688" xlink:href="#ArialMT-109"/>
     <use x="561.230469" xlink:href="#ArialMT-117"/>
     <use x="616.845703" xlink:href="#ArialMT-108"/>
     <use x="639.0625" xlink:href="#ArialMT-97"/>
     <use x="694.677734" xlink:href="#ArialMT-116"/>
     <use x="722.460938" xlink:href="#ArialMT-105"/>
     <use x="744.677734" xlink:href="#ArialMT-111"/>
     <use x="800.292969" xlink:href="#ArialMT-110"/>
    </g>
   </g>
   <g id="legend_1">
    <g id="line2d_46">
     <path d="M 64.304375 38.741875 
L 84.304375 38.741875 
" style="fill:none;stroke:#1f77b4;stroke-linecap:round;stroke-width:1.5;"/>
    </g>
    <g id="line2d_47">
     <g>
      <use style="fill:#1f77b4;stroke:#1f77b4;" x="74.304375" xlink:href="#ma1ba32ad57" y="38.741875"/>
     </g>
    </g>
    <g id="text_49">
     <!-- Data -->
     <g style="fill:#262626;" transform="translate(92.304375 42.241875)scale(0.1 -0.1)">
      <defs>
       <path d="M 7.71875 0 
L 7.71875 71.578125 
L 32.375 71.578125 
Q 40.71875 71.578125 45.125 70.5625 
Q 51.265625 69.140625 55.609375 65.4375 
Q 61.28125 60.640625 64.078125 53.1875 
Q 66.890625 45.75 66.890625 36.1875 
Q 66.890625 28.03125 64.984375 21.734375 
Q 63.09375 15.4375 60.109375 11.296875 
Q 57.125 7.171875 53.578125 4.796875 
Q 50.046875 2.4375 45.046875 1.21875 
Q 40.046875 0 33.546875 0 
z
M 17.1875 8.453125 
L 32.46875 8.453125 
Q 39.546875 8.453125 43.578125 9.765625 
Q 47.609375 11.078125 50 13.484375 
Q 53.375 16.84375 55.25 22.53125 
Q 57.125 28.21875 57.125 36.328125 
Q 57.125 47.5625 53.4375 53.59375 
Q 49.75 59.625 44.484375 61.671875 
Q 40.671875 63.140625 32.234375 63.140625 
L 17.1875 63.140625 
z
" id="ArialMT-68"/>
      </defs>
      <use xlink:href="#ArialMT-68"/>
      <use x="72.216797" xlink:href="#ArialMT-97"/>
      <use x="127.832031" xlink:href="#ArialMT-116"/>
      <use x="155.615234" xlink:href="#ArialMT-97"/>
     </g>
    </g>
    <g id="line2d_48">
     <path d="M 64.304375 52.887187 
L 84.304375 52.887187 
" style="fill:none;stroke:#ff7f0e;stroke-linecap:round;stroke-width:1.5;"/>
    </g>
    <g id="line2d_49">
     <g>
      <use style="fill:#ff7f0e;stroke:#ff7f0e;stroke-linejoin:bevel;" x="74.304375" xlink:href="#m6c98be38b8" y="52.887187"/>
     </g>
    </g>
    <g id="text_50">
     <!-- Model -->
     <g style="fill:#262626;" transform="translate(92.304375 56.387187)scale(0.1 -0.1)">
      <defs>
       <path d="M 7.421875 0 
L 7.421875 71.578125 
L 21.6875 71.578125 
L 38.625 20.90625 
Q 40.96875 13.8125 42.046875 10.296875 
Q 43.265625 14.203125 45.84375 21.78125 
L 62.984375 71.578125 
L 75.734375 71.578125 
L 75.734375 0 
L 66.609375 0 
L 66.609375 59.90625 
L 45.796875 0 
L 37.25 0 
L 16.546875 60.9375 
L 16.546875 0 
z
" id="ArialMT-77"/>
       <path d="M 40.234375 0 
L 40.234375 6.546875 
Q 35.296875 -1.171875 25.734375 -1.171875 
Q 19.53125 -1.171875 14.328125 2.25 
Q 9.125 5.671875 6.265625 11.796875 
Q 3.421875 17.921875 3.421875 25.875 
Q 3.421875 33.640625 6 39.96875 
Q 8.59375 46.296875 13.765625 49.65625 
Q 18.953125 53.03125 25.34375 53.03125 
Q 30.03125 53.03125 33.6875 51.046875 
Q 37.359375 49.078125 39.65625 45.90625 
L 39.65625 71.578125 
L 48.390625 71.578125 
L 48.390625 0 
z
M 12.453125 25.875 
Q 12.453125 15.921875 16.640625 10.984375 
Q 20.84375 6.0625 26.5625 6.0625 
Q 32.328125 6.0625 36.34375 10.765625 
Q 40.375 15.484375 40.375 25.140625 
Q 40.375 35.796875 36.265625 40.765625 
Q 32.171875 45.75 26.171875 45.75 
Q 20.3125 45.75 16.375 40.96875 
Q 12.453125 36.1875 12.453125 25.875 
z
" id="ArialMT-100"/>
      </defs>
      <use xlink:href="#ArialMT-77"/>
      <use x="83.300781" xlink:href="#ArialMT-111"/>
      <use x="138.916016" xlink:href="#ArialMT-100"/>
      <use x="194.53125" xlink:href="#ArialMT-101"/>
      <use x="250.146484" xlink:href="#ArialMT-108"/>
     </g>
    </g>
   </g>
  </g>
 </g>
 <defs>
  <clipPath id="p2b8aecad05">
   <rect height="229.05" width="297.608587" x="55.304375" y="304.934062"/>
  </clipPath>
  <clipPath id="p20f9523d53">
   <rect height="229.05" width="297.608587" x="406.712962" y="304.934062"/>
  </clipPath>
  <clipPath id="p4847fbd26e">
   <rect height="229.05" width="649.017174" x="55.304375" y="26.084062"/>
  </clipPath>
 </defs>
</svg>
