<?xml version="1.0" encoding="utf-8" standalone="no"?>
<!DOCTYPE svg PUBLIC "-//W3C//DTD SVG 1.1//EN"
  "http://www.w3.org/Graphics/SVG/1.1/DTD/svg11.dtd">
<!-- Created with matplotlib (https://matplotlib.org/) -->
<svg height="467.546687pt" version="1.1" viewBox="0 0 715.282812 467.546687" width="715.282812pt" xmlns="http://www.w3.org/2000/svg" xmlns:xlink="http://www.w3.org/1999/xlink">
 <metadata>
  <rdf:RDF xmlns:cc="http://creativecommons.org/ns#" xmlns:dc="http://purl.org/dc/elements/1.1/" xmlns:rdf="http://www.w3.org/1999/02/22-rdf-syntax-ns#">
   <cc:Work>
    <dc:type rdf:resource="http://purl.org/dc/dcmitype/StillImage"/>
    <dc:date>2021-03-08T21:55:10.646111</dc:date>
    <dc:format>image/svg+xml</dc:format>
    <dc:creator>
     <cc:Agent>
      <dc:title>Matplotlib v3.3.3, https://matplotlib.org/</dc:title>
     </cc:Agent>
    </dc:creator>
   </cc:Work>
  </rdf:RDF>
 </metadata>
 <defs>
  <style type="text/css">*{stroke-linecap:butt;stroke-linejoin:round;}</style>
 </defs>
 <g id="figure_1">
  <g id="patch_1">
   <path d="M 0 467.546687 
L 715.282812 467.546687 
L 715.282812 0 
L 0 0 
z
" style="fill:none;"/>
  </g>
  <g id="axes_1">
   <g id="patch_2">
    <path d="M 38.482813 443.668562 
L 708.082813 443.668562 
L 708.082813 8.788562 
L 38.482813 8.788562 
z
" style="fill:#ffffff;"/>
   </g>
   <g id="matplotlib.axis_1">
    <g id="xtick_1">
     <g id="line2d_1">
      <defs>
       <path d="M 0 0 
L 0 3.5 
" id="m5b3f9058a9" style="stroke:#000000;stroke-width:0.8;"/>
      </defs>
      <g>
       <use style="stroke:#000000;stroke-width:0.8;" x="68.919176" xlink:href="#m5b3f9058a9" y="443.668562"/>
      </g>
     </g>
     <g id="text_1">
      <!-- 0 -->
      <g transform="translate(65.737926 458.267)scale(0.1 -0.1)">
       <defs>
        <path d="M 31.78125 66.40625 
Q 24.171875 66.40625 20.328125 58.90625 
Q 16.5 51.421875 16.5 36.375 
Q 16.5 21.390625 20.328125 13.890625 
Q 24.171875 6.390625 31.78125 6.390625 
Q 39.453125 6.390625 43.28125 13.890625 
Q 47.125 21.390625 47.125 36.375 
Q 47.125 51.421875 43.28125 58.90625 
Q 39.453125 66.40625 31.78125 66.40625 
z
M 31.78125 74.21875 
Q 44.046875 74.21875 50.515625 64.515625 
Q 56.984375 54.828125 56.984375 36.375 
Q 56.984375 17.96875 50.515625 8.265625 
Q 44.046875 -1.421875 31.78125 -1.421875 
Q 19.53125 -1.421875 13.0625 8.265625 
Q 6.59375 17.96875 6.59375 36.375 
Q 6.59375 54.828125 13.0625 64.515625 
Q 19.53125 74.21875 31.78125 74.21875 
z
" id="DejaVuSans-48"/>
       </defs>
       <use xlink:href="#DejaVuSans-48"/>
      </g>
     </g>
    </g>
    <g id="xtick_2">
     <g id="line2d_2">
      <g>
       <use style="stroke:#000000;stroke-width:0.8;" x="190.90861" xlink:href="#m5b3f9058a9" y="443.668562"/>
      </g>
     </g>
     <g id="text_2">
      <!-- 100 -->
      <g transform="translate(181.36486 458.267)scale(0.1 -0.1)">
       <defs>
        <path d="M 12.40625 8.296875 
L 28.515625 8.296875 
L 28.515625 63.921875 
L 10.984375 60.40625 
L 10.984375 69.390625 
L 28.421875 72.90625 
L 38.28125 72.90625 
L 38.28125 8.296875 
L 54.390625 8.296875 
L 54.390625 0 
L 12.40625 0 
z
" id="DejaVuSans-49"/>
       </defs>
       <use xlink:href="#DejaVuSans-49"/>
       <use x="63.623047" xlink:href="#DejaVuSans-48"/>
       <use x="127.246094" xlink:href="#DejaVuSans-48"/>
      </g>
     </g>
    </g>
    <g id="xtick_3">
     <g id="line2d_3">
      <g>
       <use style="stroke:#000000;stroke-width:0.8;" x="312.898043" xlink:href="#m5b3f9058a9" y="443.668562"/>
      </g>
     </g>
     <g id="text_3">
      <!-- 200 -->
      <g transform="translate(303.354293 458.267)scale(0.1 -0.1)">
       <defs>
        <path d="M 19.1875 8.296875 
L 53.609375 8.296875 
L 53.609375 0 
L 7.328125 0 
L 7.328125 8.296875 
Q 12.9375 14.109375 22.625 23.890625 
Q 32.328125 33.6875 34.8125 36.53125 
Q 39.546875 41.84375 41.421875 45.53125 
Q 43.3125 49.21875 43.3125 52.78125 
Q 43.3125 58.59375 39.234375 62.25 
Q 35.15625 65.921875 28.609375 65.921875 
Q 23.96875 65.921875 18.8125 64.3125 
Q 13.671875 62.703125 7.8125 59.421875 
L 7.8125 69.390625 
Q 13.765625 71.78125 18.9375 73 
Q 24.125 74.21875 28.421875 74.21875 
Q 39.75 74.21875 46.484375 68.546875 
Q 53.21875 62.890625 53.21875 53.421875 
Q 53.21875 48.921875 51.53125 44.890625 
Q 49.859375 40.875 45.40625 35.40625 
Q 44.1875 33.984375 37.640625 27.21875 
Q 31.109375 20.453125 19.1875 8.296875 
z
" id="DejaVuSans-50"/>
       </defs>
       <use xlink:href="#DejaVuSans-50"/>
       <use x="63.623047" xlink:href="#DejaVuSans-48"/>
       <use x="127.246094" xlink:href="#DejaVuSans-48"/>
      </g>
     </g>
    </g>
    <g id="xtick_4">
     <g id="line2d_4">
      <g>
       <use style="stroke:#000000;stroke-width:0.8;" x="434.887476" xlink:href="#m5b3f9058a9" y="443.668562"/>
      </g>
     </g>
     <g id="text_4">
      <!-- 300 -->
      <g transform="translate(425.343726 458.267)scale(0.1 -0.1)">
       <defs>
        <path d="M 40.578125 39.3125 
Q 47.65625 37.796875 51.625 33 
Q 55.609375 28.21875 55.609375 21.1875 
Q 55.609375 10.40625 48.1875 4.484375 
Q 40.765625 -1.421875 27.09375 -1.421875 
Q 22.515625 -1.421875 17.65625 -0.515625 
Q 12.796875 0.390625 7.625 2.203125 
L 7.625 11.71875 
Q 11.71875 9.328125 16.59375 8.109375 
Q 21.484375 6.890625 26.8125 6.890625 
Q 36.078125 6.890625 40.9375 10.546875 
Q 45.796875 14.203125 45.796875 21.1875 
Q 45.796875 27.640625 41.28125 31.265625 
Q 36.765625 34.90625 28.71875 34.90625 
L 20.21875 34.90625 
L 20.21875 43.015625 
L 29.109375 43.015625 
Q 36.375 43.015625 40.234375 45.921875 
Q 44.09375 48.828125 44.09375 54.296875 
Q 44.09375 59.90625 40.109375 62.90625 
Q 36.140625 65.921875 28.71875 65.921875 
Q 24.65625 65.921875 20.015625 65.03125 
Q 15.375 64.15625 9.8125 62.3125 
L 9.8125 71.09375 
Q 15.4375 72.65625 20.34375 73.4375 
Q 25.25 74.21875 29.59375 74.21875 
Q 40.828125 74.21875 47.359375 69.109375 
Q 53.90625 64.015625 53.90625 55.328125 
Q 53.90625 49.265625 50.4375 45.09375 
Q 46.96875 40.921875 40.578125 39.3125 
z
" id="DejaVuSans-51"/>
       </defs>
       <use xlink:href="#DejaVuSans-51"/>
       <use x="63.623047" xlink:href="#DejaVuSans-48"/>
       <use x="127.246094" xlink:href="#DejaVuSans-48"/>
      </g>
     </g>
    </g>
    <g id="xtick_5">
     <g id="line2d_5">
      <g>
       <use style="stroke:#000000;stroke-width:0.8;" x="556.87691" xlink:href="#m5b3f9058a9" y="443.668562"/>
      </g>
     </g>
     <g id="text_5">
      <!-- 400 -->
      <g transform="translate(547.33316 458.267)scale(0.1 -0.1)">
       <defs>
        <path d="M 37.796875 64.3125 
L 12.890625 25.390625 
L 37.796875 25.390625 
z
M 35.203125 72.90625 
L 47.609375 72.90625 
L 47.609375 25.390625 
L 58.015625 25.390625 
L 58.015625 17.1875 
L 47.609375 17.1875 
L 47.609375 0 
L 37.796875 0 
L 37.796875 17.1875 
L 4.890625 17.1875 
L 4.890625 26.703125 
z
" id="DejaVuSans-52"/>
       </defs>
       <use xlink:href="#DejaVuSans-52"/>
       <use x="63.623047" xlink:href="#DejaVuSans-48"/>
       <use x="127.246094" xlink:href="#DejaVuSans-48"/>
      </g>
     </g>
    </g>
    <g id="xtick_6">
     <g id="line2d_6">
      <g>
       <use style="stroke:#000000;stroke-width:0.8;" x="678.866343" xlink:href="#m5b3f9058a9" y="443.668562"/>
      </g>
     </g>
     <g id="text_6">
      <!-- 500 -->
      <g transform="translate(669.322593 458.267)scale(0.1 -0.1)">
       <defs>
        <path d="M 10.796875 72.90625 
L 49.515625 72.90625 
L 49.515625 64.59375 
L 19.828125 64.59375 
L 19.828125 46.734375 
Q 21.96875 47.46875 24.109375 47.828125 
Q 26.265625 48.1875 28.421875 48.1875 
Q 40.625 48.1875 47.75 41.5 
Q 54.890625 34.8125 54.890625 23.390625 
Q 54.890625 11.625 47.5625 5.09375 
Q 40.234375 -1.421875 26.90625 -1.421875 
Q 22.3125 -1.421875 17.546875 -0.640625 
Q 12.796875 0.140625 7.71875 1.703125 
L 7.71875 11.625 
Q 12.109375 9.234375 16.796875 8.0625 
Q 21.484375 6.890625 26.703125 6.890625 
Q 35.15625 6.890625 40.078125 11.328125 
Q 45.015625 15.765625 45.015625 23.390625 
Q 45.015625 31 40.078125 35.4375 
Q 35.15625 39.890625 26.703125 39.890625 
Q 22.75 39.890625 18.8125 39.015625 
Q 14.890625 38.140625 10.796875 36.28125 
z
" id="DejaVuSans-53"/>
       </defs>
       <use xlink:href="#DejaVuSans-53"/>
       <use x="63.623047" xlink:href="#DejaVuSans-48"/>
       <use x="127.246094" xlink:href="#DejaVuSans-48"/>
      </g>
     </g>
    </g>
   </g>
   <g id="matplotlib.axis_2">
    <g id="ytick_1">
     <g id="line2d_7">
      <defs>
       <path d="M 0 0 
L -3.5 0 
" id="mc863fc85ca" style="stroke:#000000;stroke-width:0.8;"/>
      </defs>
      <g>
       <use style="stroke:#000000;stroke-width:0.8;" x="38.482813" xlink:href="#mc863fc85ca" y="434.496666"/>
      </g>
     </g>
     <g id="text_7">
      <!-- −0.8 -->
      <g transform="translate(7.2 438.295885)scale(0.1 -0.1)">
       <defs>
        <path d="M 10.59375 35.5 
L 73.1875 35.5 
L 73.1875 27.203125 
L 10.59375 27.203125 
z
" id="DejaVuSans-8722"/>
        <path d="M 10.6875 12.40625 
L 21 12.40625 
L 21 0 
L 10.6875 0 
z
" id="DejaVuSans-46"/>
        <path d="M 31.78125 34.625 
Q 24.75 34.625 20.71875 30.859375 
Q 16.703125 27.09375 16.703125 20.515625 
Q 16.703125 13.921875 20.71875 10.15625 
Q 24.75 6.390625 31.78125 6.390625 
Q 38.8125 6.390625 42.859375 10.171875 
Q 46.921875 13.96875 46.921875 20.515625 
Q 46.921875 27.09375 42.890625 30.859375 
Q 38.875 34.625 31.78125 34.625 
z
M 21.921875 38.8125 
Q 15.578125 40.375 12.03125 44.71875 
Q 8.5 49.078125 8.5 55.328125 
Q 8.5 64.0625 14.71875 69.140625 
Q 20.953125 74.21875 31.78125 74.21875 
Q 42.671875 74.21875 48.875 69.140625 
Q 55.078125 64.0625 55.078125 55.328125 
Q 55.078125 49.078125 51.53125 44.71875 
Q 48 40.375 41.703125 38.8125 
Q 48.828125 37.15625 52.796875 32.3125 
Q 56.78125 27.484375 56.78125 20.515625 
Q 56.78125 9.90625 50.3125 4.234375 
Q 43.84375 -1.421875 31.78125 -1.421875 
Q 19.734375 -1.421875 13.25 4.234375 
Q 6.78125 9.90625 6.78125 20.515625 
Q 6.78125 27.484375 10.78125 32.3125 
Q 14.796875 37.15625 21.921875 38.8125 
z
M 18.3125 54.390625 
Q 18.3125 48.734375 21.84375 45.5625 
Q 25.390625 42.390625 31.78125 42.390625 
Q 38.140625 42.390625 41.71875 45.5625 
Q 45.3125 48.734375 45.3125 54.390625 
Q 45.3125 60.0625 41.71875 63.234375 
Q 38.140625 66.40625 31.78125 66.40625 
Q 25.390625 66.40625 21.84375 63.234375 
Q 18.3125 60.0625 18.3125 54.390625 
z
" id="DejaVuSans-56"/>
       </defs>
       <use xlink:href="#DejaVuSans-8722"/>
       <use x="83.789062" xlink:href="#DejaVuSans-48"/>
       <use x="147.412109" xlink:href="#DejaVuSans-46"/>
       <use x="179.199219" xlink:href="#DejaVuSans-56"/>
      </g>
     </g>
    </g>
    <g id="ytick_2">
     <g id="line2d_8">
      <g>
       <use style="stroke:#000000;stroke-width:0.8;" x="38.482813" xlink:href="#mc863fc85ca" y="381.559485"/>
      </g>
     </g>
     <g id="text_8">
      <!-- −0.6 -->
      <g transform="translate(7.2 385.358704)scale(0.1 -0.1)">
       <defs>
        <path d="M 33.015625 40.375 
Q 26.375 40.375 22.484375 35.828125 
Q 18.609375 31.296875 18.609375 23.390625 
Q 18.609375 15.53125 22.484375 10.953125 
Q 26.375 6.390625 33.015625 6.390625 
Q 39.65625 6.390625 43.53125 10.953125 
Q 47.40625 15.53125 47.40625 23.390625 
Q 47.40625 31.296875 43.53125 35.828125 
Q 39.65625 40.375 33.015625 40.375 
z
M 52.59375 71.296875 
L 52.59375 62.3125 
Q 48.875 64.0625 45.09375 64.984375 
Q 41.3125 65.921875 37.59375 65.921875 
Q 27.828125 65.921875 22.671875 59.328125 
Q 17.53125 52.734375 16.796875 39.40625 
Q 19.671875 43.65625 24.015625 45.921875 
Q 28.375 48.1875 33.59375 48.1875 
Q 44.578125 48.1875 50.953125 41.515625 
Q 57.328125 34.859375 57.328125 23.390625 
Q 57.328125 12.15625 50.6875 5.359375 
Q 44.046875 -1.421875 33.015625 -1.421875 
Q 20.359375 -1.421875 13.671875 8.265625 
Q 6.984375 17.96875 6.984375 36.375 
Q 6.984375 53.65625 15.1875 63.9375 
Q 23.390625 74.21875 37.203125 74.21875 
Q 40.921875 74.21875 44.703125 73.484375 
Q 48.484375 72.75 52.59375 71.296875 
z
" id="DejaVuSans-54"/>
       </defs>
       <use xlink:href="#DejaVuSans-8722"/>
       <use x="83.789062" xlink:href="#DejaVuSans-48"/>
       <use x="147.412109" xlink:href="#DejaVuSans-46"/>
       <use x="179.199219" xlink:href="#DejaVuSans-54"/>
      </g>
     </g>
    </g>
    <g id="ytick_3">
     <g id="line2d_9">
      <g>
       <use style="stroke:#000000;stroke-width:0.8;" x="38.482813" xlink:href="#mc863fc85ca" y="328.622304"/>
      </g>
     </g>
     <g id="text_9">
      <!-- −0.4 -->
      <g transform="translate(7.2 332.421523)scale(0.1 -0.1)">
       <use xlink:href="#DejaVuSans-8722"/>
       <use x="83.789062" xlink:href="#DejaVuSans-48"/>
       <use x="147.412109" xlink:href="#DejaVuSans-46"/>
       <use x="179.199219" xlink:href="#DejaVuSans-52"/>
      </g>
     </g>
    </g>
    <g id="ytick_4">
     <g id="line2d_10">
      <g>
       <use style="stroke:#000000;stroke-width:0.8;" x="38.482813" xlink:href="#mc863fc85ca" y="275.685123"/>
      </g>
     </g>
     <g id="text_10">
      <!-- −0.2 -->
      <g transform="translate(7.2 279.484342)scale(0.1 -0.1)">
       <use xlink:href="#DejaVuSans-8722"/>
       <use x="83.789062" xlink:href="#DejaVuSans-48"/>
       <use x="147.412109" xlink:href="#DejaVuSans-46"/>
       <use x="179.199219" xlink:href="#DejaVuSans-50"/>
      </g>
     </g>
    </g>
    <g id="ytick_5">
     <g id="line2d_11">
      <g>
       <use style="stroke:#000000;stroke-width:0.8;" x="38.482813" xlink:href="#mc863fc85ca" y="222.747942"/>
      </g>
     </g>
     <g id="text_11">
      <!-- 0.0 -->
      <g transform="translate(15.579688 226.547161)scale(0.1 -0.1)">
       <use xlink:href="#DejaVuSans-48"/>
       <use x="63.623047" xlink:href="#DejaVuSans-46"/>
       <use x="95.410156" xlink:href="#DejaVuSans-48"/>
      </g>
     </g>
    </g>
    <g id="ytick_6">
     <g id="line2d_12">
      <g>
       <use style="stroke:#000000;stroke-width:0.8;" x="38.482813" xlink:href="#mc863fc85ca" y="169.810762"/>
      </g>
     </g>
     <g id="text_12">
      <!-- 0.2 -->
      <g transform="translate(15.579688 173.60998)scale(0.1 -0.1)">
       <use xlink:href="#DejaVuSans-48"/>
       <use x="63.623047" xlink:href="#DejaVuSans-46"/>
       <use x="95.410156" xlink:href="#DejaVuSans-50"/>
      </g>
     </g>
    </g>
    <g id="ytick_7">
     <g id="line2d_13">
      <g>
       <use style="stroke:#000000;stroke-width:0.8;" x="38.482813" xlink:href="#mc863fc85ca" y="116.873581"/>
      </g>
     </g>
     <g id="text_13">
      <!-- 0.4 -->
      <g transform="translate(15.579688 120.672799)scale(0.1 -0.1)">
       <use xlink:href="#DejaVuSans-48"/>
       <use x="63.623047" xlink:href="#DejaVuSans-46"/>
       <use x="95.410156" xlink:href="#DejaVuSans-52"/>
      </g>
     </g>
    </g>
    <g id="ytick_8">
     <g id="line2d_14">
      <g>
       <use style="stroke:#000000;stroke-width:0.8;" x="38.482813" xlink:href="#mc863fc85ca" y="63.9364"/>
      </g>
     </g>
     <g id="text_14">
      <!-- 0.6 -->
      <g transform="translate(15.579688 67.735618)scale(0.1 -0.1)">
       <use xlink:href="#DejaVuSans-48"/>
       <use x="63.623047" xlink:href="#DejaVuSans-46"/>
       <use x="95.410156" xlink:href="#DejaVuSans-54"/>
      </g>
     </g>
    </g>
    <g id="ytick_9">
     <g id="line2d_15">
      <g>
       <use style="stroke:#000000;stroke-width:0.8;" x="38.482813" xlink:href="#mc863fc85ca" y="10.999219"/>
      </g>
     </g>
     <g id="text_15">
      <!-- 0.8 -->
      <g transform="translate(15.579688 14.798437)scale(0.1 -0.1)">
       <use xlink:href="#DejaVuSans-48"/>
       <use x="63.623047" xlink:href="#DejaVuSans-46"/>
       <use x="95.410156" xlink:href="#DejaVuSans-56"/>
      </g>
     </g>
    </g>
   </g>
   <g id="line2d_16">
    <path clip-path="url(#p81ff1b8962)" d="M 68.919176 241.023975 
L 71.358965 259.713976 
L 72.578859 268.220981 
L 73.798753 275.634833 
L 75.018648 281.802015 
L 76.238542 286.277853 
L 77.458436 288.94324 
L 78.678331 289.956987 
L 79.898225 289.12058 
L 81.118119 286.696057 
L 82.338014 282.437261 
L 83.557908 276.436831 
L 85.997697 262.098796 
L 88.437485 244.978117 
L 90.877274 226.966242 
L 93.317063 211.254222 
L 94.536957 204.236869 
L 95.756851 197.996899 
L 96.976746 192.586984 
L 98.19664 188.007917 
L 99.416534 184.066744 
L 100.636429 180.829636 
L 101.856323 178.18013 
L 105.516006 171.110369 
L 106.7359 168.482038 
L 107.955795 165.583728 
L 109.175689 161.99988 
L 110.395583 157.884015 
L 111.615478 153.265246 
L 114.055266 142.518998 
L 116.495055 129.890833 
L 120.154738 110.35172 
L 121.374633 104.716557 
L 122.594527 99.737815 
L 123.814421 95.54519 
L 125.034316 92.104274 
L 126.25421 89.460061 
L 127.474104 88.163101 
L 128.693999 88.02017 
L 129.913893 89.137145 
L 131.133787 91.196401 
L 132.353682 94.097358 
L 133.573576 98.19999 
L 134.79347 103.342837 
L 136.013365 109.380323 
L 138.453153 123.996278 
L 140.892942 141.092341 
L 143.332731 160.978193 
L 145.772519 183.664422 
L 148.212308 209.202906 
L 150.652097 237.672787 
L 154.31178 285.147644 
L 160.411251 362.909716 
L 161.631146 375.405538 
L 162.85104 386.564696 
L 164.070934 396.231025 
L 165.290829 403.798395 
L 166.510723 408.994179 
L 167.730617 411.307534 
L 168.950512 411.312828 
L 170.170406 408.81684 
L 171.3903 403.793101 
L 172.610195 396.702166 
L 173.830089 387.483156 
L 175.049983 376.382229 
L 177.489772 349.828939 
L 181.149455 307.857695 
L 183.589244 283.15456 
L 184.809138 273.11767 
L 186.029032 264.989166 
L 187.248927 258.877568 
L 188.468821 255.203728 
L 189.688715 253.284755 
L 190.90861 253.049185 
L 192.128504 254.576422 
L 193.348398 257.697069 
L 195.788187 266.841967 
L 198.227976 276.039802 
L 199.44787 279.681881 
L 200.667764 281.907889 
L 201.887659 282.540488 
L 203.107553 281.338814 
L 204.327447 277.88731 
L 205.547342 271.897468 
L 206.767236 263.618093 
L 207.98713 253.554735 
L 209.207025 241.719834 
L 210.426919 228.203913 
L 212.866708 196.912745 
L 216.526391 148.191217 
L 218.966179 119.779832 
L 220.186074 107.826616 
L 221.405968 97.818842 
L 222.625862 89.833269 
L 223.845757 83.859308 
L 225.065651 79.9896 
L 226.285545 77.946225 
L 227.50544 77.819175 
L 228.725334 79.338472 
L 229.945228 82.305601 
L 231.165123 86.508814 
L 232.385017 91.424031 
L 233.604911 96.839504 
L 242.144172 139.009263 
L 244.58396 152.076806 
L 245.803855 159.308025 
L 247.023749 167.357123 
L 248.243643 176.382913 
L 249.463538 186.456858 
L 251.903326 210.001993 
L 254.343115 237.313343 
L 259.222692 295.565682 
L 260.442587 308.567053 
L 261.662481 319.924725 
L 262.882375 329.220494 
L 264.10227 336.229377 
L 265.322164 340.443177 
L 266.542058 341.732197 
L 267.761953 339.97733 
L 268.981847 335.064759 
L 270.201741 327.232703 
L 271.421636 316.497043 
L 272.64153 303.236279 
L 273.861424 288.10948 
L 279.960896 205.176239 
L 281.18079 191.702933 
L 282.400685 180.729055 
L 283.620579 173.108748 
L 284.840473 168.410573 
L 286.060368 166.766874 
L 287.280262 168.373517 
L 288.500156 173.291381 
L 289.720051 181.560169 
L 290.939945 192.015262 
L 293.379734 216.044507 
L 295.819522 241.601519 
L 297.039417 253.004188 
L 298.259311 262.016743 
L 299.479205 268.464492 
L 300.6991 271.807475 
L 301.918994 271.561317 
L 303.138888 267.84248 
L 304.358783 260.415394 
L 305.578677 249.64003 
L 306.798571 235.902567 
L 308.018466 219.653235 
L 310.458254 182.738021 
L 312.898043 145.536417 
L 314.117937 129.316465 
L 315.337832 115.984236 
L 316.557726 106.227914 
L 317.77762 100.661569 
L 318.997515 99.822515 
L 320.217409 103.811331 
L 321.437303 112.776243 
L 322.657198 126.942232 
L 323.877092 145.830219 
L 325.096986 168.897595 
L 326.316881 195.20208 
L 328.756669 254.518192 
L 331.196458 315.605051 
L 332.416352 343.51618 
L 333.636247 368.37548 
L 334.856141 389.770042 
L 336.076035 406.619947 
L 337.29593 417.964385 
L 338.515824 423.657778 
L 339.735718 423.901289 
L 340.955613 418.821967 
L 342.175507 408.422458 
L 343.395401 392.800696 
L 344.615296 372.697801 
L 345.83519 349.130168 
L 348.274979 295.308936 
L 351.934662 211.727745 
L 353.154556 186.949174 
L 354.37445 164.810845 
L 355.594345 146.333122 
L 356.814239 132.138017 
L 358.034133 122.394929 
L 359.254028 116.63007 
L 360.473922 114.621104 
L 361.693816 116.447436 
L 362.913711 121.743801 
L 364.133605 130.131698 
L 365.353499 140.507385 
L 367.793288 164.943188 
L 370.233077 190.016883 
L 371.452971 201.527015 
L 372.672865 211.530818 
L 373.89276 219.934067 
L 375.112654 226.191771 
L 376.332548 230.302608 
L 377.552443 232.391244 
L 378.772337 232.428565 
L 379.992231 230.700166 
L 381.212126 227.662895 
L 382.43202 223.474929 
L 384.871809 213.478377 
L 386.091703 208.247655 
L 387.311597 203.591565 
L 388.531492 199.502697 
L 389.751386 196.033194 
L 390.97128 193.463094 
L 392.191175 191.71352 
L 393.411069 190.969753 
L 394.630963 191.017396 
L 395.850858 191.676464 
L 398.290646 194.034815 
L 399.510541 194.871223 
L 400.730435 195.466766 
L 401.950329 195.662634 
L 403.170224 195.318542 
L 404.390118 194.108928 
L 405.610012 192.174074 
L 406.829907 189.680732 
L 408.049801 186.6739 
L 411.709484 176.48614 
L 412.929378 173.900159 
L 414.149273 172.211463 
L 415.369167 171.750909 
L 416.589061 172.846709 
L 417.808956 175.461806 
L 419.02885 179.69678 
L 420.248744 185.911605 
L 421.468639 193.918354 
L 422.688533 203.685528 
L 425.128322 226.662118 
L 428.788005 264.973285 
L 430.007899 276.524178 
L 431.227793 286.796638 
L 432.447688 295.653028 
L 433.667582 302.394578 
L 434.887476 306.372807 
L 436.107371 307.675062 
L 437.327265 306.280167 
L 438.547159 302.214592 
L 439.767054 295.81184 
L 440.986948 286.910453 
L 442.206842 276.013334 
L 444.646631 250.32292 
L 448.306314 210.57345 
L 449.526208 199.182427 
L 450.746103 189.408106 
L 451.965997 181.869851 
L 453.185891 176.809057 
L 454.405786 174.262778 
L 455.62568 174.411003 
L 456.845574 177.015512 
L 458.065469 181.824855 
L 459.285363 188.770213 
L 460.505257 197.194106 
L 466.604729 244.479979 
L 467.824623 251.635762 
L 469.044518 256.69391 
L 470.264412 259.07873 
L 471.484306 259.470465 
L 472.704201 257.972343 
L 473.924095 254.219096 
L 475.143989 248.11544 
L 476.363884 239.521618 
L 478.803672 218.933819 
L 483.68325 175.411515 
L 484.903144 166.539244 
L 486.123038 159.15186 
L 487.342933 153.559047 
L 488.562827 150.134011 
L 489.782721 148.641183 
L 491.002616 149.300251 
L 492.22251 151.912701 
L 493.442404 156.195319 
L 494.662299 162.023702 
L 497.102087 176.457025 
L 501.981665 208.521869 
L 503.201559 215.60354 
L 504.421453 222.022438 
L 505.641348 227.651513 
L 506.861242 232.594787 
L 508.081136 237.056862 
L 510.520925 244.054628 
L 511.740819 247.451872 
L 512.960714 251.270496 
L 514.180608 255.833681 
L 515.400502 260.947412 
L 516.620397 266.754621 
L 517.840291 273.70792 
L 519.060185 281.807308 
L 520.28008 291.230127 
L 522.719868 312.735856 
L 527.599446 358.587396 
L 528.81934 368.110794 
L 530.039234 376.011669 
L 531.259129 381.797703 
L 532.479023 385.021577 
L 533.698917 385.521833 
L 534.918812 382.949086 
L 536.138706 377.213343 
L 537.3586 368.338424 
L 538.578495 356.21581 
L 539.798389 341.171063 
L 541.018283 323.474163 
L 543.458072 281.918476 
L 549.557544 169.797527 
L 550.777438 151.123937 
L 551.997332 134.9331 
L 553.217227 121.611458 
L 554.437121 111.198715 
L 555.657015 103.917206 
L 556.87691 100.026323 
L 558.096804 99.287849 
L 559.316698 101.582676 
L 560.536593 106.291438 
L 561.756487 113.101806 
L 562.976381 121.82056 
L 565.41617 142.373421 
L 567.855959 163.516531 
L 569.075853 173.172272 
L 570.295747 181.71104 
L 571.515642 188.87344 
L 572.735536 194.492722 
L 573.95543 198.278525 
L 575.175325 200.264198 
L 576.395219 200.710459 
L 577.615113 199.507461 
L 578.835008 197.129788 
L 580.054902 193.833654 
L 583.714585 182.462748 
L 584.934479 179.387098 
L 586.154374 177.31196 
L 587.374268 176.385559 
L 588.594162 177.129327 
L 589.814057 179.352688 
L 591.033951 183.262099 
L 592.253845 189.124892 
L 593.47374 196.581094 
L 594.693634 205.528801 
L 597.133423 226.842369 
L 602.013 274.928122 
L 603.232894 285.708779 
L 604.452789 295.327464 
L 605.672683 303.561843 
L 606.892577 309.961948 
L 608.112472 314.530427 
L 609.332366 317.026415 
L 610.55226 317.296394 
L 611.772155 315.544174 
L 612.992049 311.634763 
L 614.211943 305.740208 
L 615.431838 298.178132 
L 616.651732 288.94324 
L 617.871626 278.437857 
L 620.311415 254.306443 
L 627.630781 177.843979 
L 628.850675 167.026266 
L 630.07057 157.36523 
L 631.290464 148.927044 
L 632.510359 141.402023 
L 633.730253 135.083971 
L 634.950147 130.086701 
L 636.170042 126.277871 
L 637.389936 123.797764 
L 638.60983 122.304935 
L 639.829725 121.857616 
L 641.049619 122.363166 
L 642.269513 123.488081 
L 643.489408 125.25883 
L 644.709302 127.704528 
L 645.929196 130.444027 
L 652.028668 145.742872 
L 654.468457 150.75867 
L 655.688351 152.733227 
L 656.908245 154.329283 
L 660.567928 158.2334 
L 661.787823 159.133332 
L 663.007717 159.813575 
L 664.227611 160.880259 
L 665.447506 162.484256 
L 666.6674 164.543512 
L 667.887294 167.071262 
L 669.107189 170.247493 
L 670.327083 174.376593 
L 671.546977 179.56179 
L 672.766872 185.681328 
L 673.986766 192.976072 
L 675.20666 201.228714 
L 676.426555 210.573185 
L 677.646449 220.877884 
L 677.646449 220.877884 
" style="fill:none;stroke:#1f77b4;stroke-linecap:square;stroke-width:1.5;"/>
   </g>
   <g id="line2d_17">
    <path clip-path="url(#p81ff1b8962)" d="M 68.919176 204.797738 
L 71.358965 185.329296 
L 72.578859 176.422615 
L 73.798753 168.487332 
L 75.018648 161.785485 
L 76.238542 156.53941 
L 77.458436 152.905273 
L 78.678331 150.973066 
L 79.898225 150.774551 
L 81.118119 152.262086 
L 82.338014 155.335089 
L 83.557908 159.832103 
L 84.777802 165.541378 
L 85.997697 172.229991 
L 88.437485 187.481193 
L 92.097168 211.156288 
L 94.536957 225.024797 
L 95.756851 231.004025 
L 96.976746 236.292185 
L 98.19664 240.917042 
L 99.416534 244.940532 
L 100.636429 248.474089 
L 103.076217 254.642594 
L 105.516006 260.690667 
L 106.7359 264.068059 
L 107.955795 267.853067 
L 109.175689 272.14892 
L 110.395583 277.013847 
L 111.615478 282.466376 
L 114.055266 295.009841 
L 116.495055 309.133481 
L 120.154738 330.700089 
L 122.594527 343.283257 
L 123.814421 348.531978 
L 125.034316 352.896649 
L 126.25421 356.281981 
L 127.474104 358.611217 
L 128.693999 359.842007 
L 129.913893 359.953175 
L 131.133787 358.96325 
L 132.353682 356.903993 
L 133.573576 353.817756 
L 134.79347 349.768061 
L 136.013365 344.818435 
L 137.233259 339.019167 
L 138.453153 332.425841 
L 139.673048 325.075513 
L 142.112836 308.191199 
L 144.552625 288.411222 
L 146.992414 265.637646 
L 149.432202 239.811449 
L 151.871991 211.126643 
L 155.531674 164.371466 
L 159.191357 117.633229 
L 161.631146 90.07678 
L 162.85104 78.300904 
L 164.070934 68.253427 
L 165.290829 60.199035 
L 166.510723 54.346829 
L 167.730617 50.858269 
L 168.950512 49.828641 
L 170.170406 51.271179 
L 171.3903 55.127653 
L 172.610195 61.247191 
L 173.830089 69.410104 
L 175.049983 79.317298 
L 177.489772 102.884931 
L 181.149455 141.087047 
L 182.369349 152.791458 
L 183.589244 163.304782 
L 184.809138 172.290868 
L 186.029032 179.503559 
L 187.248927 184.778749 
L 188.468821 188.044973 
L 189.688715 189.3287 
L 190.90861 188.754332 
L 192.128504 186.538911 
L 193.348398 182.978885 
L 194.568293 178.442169 
L 198.227976 163.267726 
L 199.44787 159.186269 
L 200.667764 156.306487 
L 201.887659 154.977763 
L 203.107553 155.493901 
L 204.327447 158.061354 
L 205.547342 162.785998 
L 206.767236 169.686359 
L 207.98713 178.683033 
L 209.207025 189.590739 
L 210.426919 202.155644 
L 212.866708 230.871682 
L 217.746285 291.026318 
L 218.966179 304.215617 
L 220.186074 315.975612 
L 221.405968 326.062792 
L 222.625862 334.320992 
L 223.845757 340.670807 
L 225.065651 345.109589 
L 226.285545 347.722039 
L 227.50544 348.637852 
L 228.725334 348.060837 
L 229.945228 346.213329 
L 231.165123 343.349428 
L 232.385017 339.733819 
L 234.824806 331.163289 
L 243.364066 299.284519 
L 244.58396 294.080794 
L 245.803855 288.276232 
L 247.023749 281.698787 
L 248.243643 274.181707 
L 249.463538 265.621765 
L 250.683432 255.947495 
L 251.903326 245.167633 
L 254.343115 220.684478 
L 260.442587 154.758074 
L 261.662481 143.858309 
L 262.882375 134.737232 
L 264.10227 127.77864 
L 265.322164 123.310742 
L 266.542058 121.579696 
L 267.761953 122.728433 
L 268.981847 126.780774 
L 270.201741 133.65202 
L 271.421636 143.125129 
L 272.64153 154.863948 
L 273.861424 168.437042 
L 276.301213 198.887832 
L 278.741002 229.602513 
L 279.960896 243.449027 
L 281.18079 255.500176 
L 282.400685 265.248558 
L 283.620579 272.286556 
L 284.840473 276.341544 
L 286.060368 277.286473 
L 287.280262 275.134577 
L 288.500156 270.052607 
L 289.720051 262.371422 
L 290.939945 252.5304 
L 293.379734 228.774311 
L 295.819522 204.217812 
L 297.039417 193.468388 
L 298.259311 184.6517 
L 299.479205 178.360116 
L 300.6991 175.064777 
L 301.918994 175.099186 
L 303.138888 178.622155 
L 304.358783 185.623097 
L 305.578677 195.916732 
L 306.798571 209.129853 
L 308.018466 224.730069 
L 310.458254 260.312166 
L 312.898043 296.153284 
L 314.117937 311.933858 
L 315.337832 325.141685 
L 316.557726 335.006528 
L 317.77762 340.879909 
L 318.997515 342.27745 
L 320.217409 338.889471 
L 321.437303 330.607449 
L 322.657198 317.529318 
L 323.877092 299.964761 
L 325.096986 278.411388 
L 326.316881 253.549441 
L 328.756669 197.342595 
L 331.196458 139.128371 
L 332.416352 111.889545 
L 333.636247 87.231406 
L 334.856141 66.045946 
L 336.076035 49.090167 
L 337.29593 36.962259 
L 338.515824 30.048663 
L 339.735718 28.555835 
L 340.955613 32.470539 
L 342.175507 41.565147 
L 343.395401 55.424101 
L 344.615296 73.459799 
L 345.83519 94.931119 
L 348.274979 144.70001 
L 351.934662 222.302344 
L 353.154556 245.350001 
L 354.37445 265.72764 
L 355.594345 282.871346 
L 356.814239 296.383561 
L 358.034133 306.039303 
L 359.254028 311.769753 
L 360.473922 313.694019 
L 361.693816 312.071495 
L 362.913711 307.301855 
L 364.133605 299.895943 
L 365.353499 290.436069 
L 367.793288 267.908651 
L 370.233077 244.79469 
L 371.452971 234.435943 
L 372.672865 225.470502 
L 373.89276 218.221549 
L 375.112654 212.888922 
L 376.332548 209.562614 
L 377.552443 208.215098 
L 378.772337 208.717472 
L 379.992231 210.852958 
L 381.212126 214.334636 
L 382.43202 218.825562 
L 384.871809 229.409822 
L 387.311597 239.848769 
L 388.531492 244.307668 
L 389.751386 247.999242 
L 390.97128 250.825823 
L 392.191175 252.760677 
L 393.411069 253.848536 
L 394.630963 254.205862 
L 395.850858 253.99676 
L 397.070752 253.419745 
L 399.510541 252.080434 
L 400.730435 251.74693 
L 401.950329 251.884567 
L 403.170224 252.625687 
L 404.390118 254.031169 
L 405.610012 256.108954 
L 406.829907 258.790222 
L 409.269695 265.354432 
L 411.709484 271.976874 
L 412.929378 274.589324 
L 414.149273 276.330957 
L 415.369167 276.913266 
L 416.589061 276.09274 
L 417.808956 273.676157 
L 419.02885 269.547057 
L 420.248744 263.668383 
L 421.468639 256.093073 
L 422.688533 246.961938 
L 423.908427 236.516903 
L 426.348216 213.005119 
L 428.788005 188.807269 
L 430.007899 177.618996 
L 431.227793 167.666806 
L 432.447688 159.371549 
L 433.667582 153.109081 
L 434.887476 149.162614 
L 436.107371 147.72537 
L 437.327265 148.892634 
L 438.547159 152.632646 
L 439.767054 158.807768 
L 440.986948 167.17449 
L 442.206842 177.383425 
L 444.646631 201.551366 
L 448.306314 239.328662 
L 449.526208 250.195871 
L 450.746103 259.409587 
L 451.965997 266.614337 
L 453.185891 271.537495 
L 454.405786 274.02819 
L 455.62568 274.038777 
L 456.845574 271.653957 
L 458.065469 267.061657 
L 459.285363 260.55303 
L 460.505257 252.517166 
L 462.945046 233.707262 
L 465.384835 214.633202 
L 466.604729 206.251923 
L 467.824623 199.23854 
L 469.044518 193.947469 
L 470.264412 190.65213 
L 471.484306 189.516627 
L 472.704201 190.596546 
L 473.924095 193.857476 
L 475.143989 199.132137 
L 476.363884 206.171458 
L 477.583778 214.650407 
L 480.023567 234.297777 
L 482.463355 254.54466 
L 483.68325 263.784845 
L 484.903144 271.908055 
L 486.123038 278.588728 
L 487.342933 283.588644 
L 488.562827 286.748994 
L 489.782721 288.003605 
L 491.002616 287.378947 
L 492.22251 284.980892 
L 493.442404 280.994723 
L 494.662299 275.671889 
L 495.882193 269.295606 
L 498.321982 254.706119 
L 500.76177 239.750042 
L 503.201559 226.489807 
L 504.421453 220.898264 
L 505.641348 216.070976 
L 506.861242 211.974432 
L 508.081136 208.50387 
L 510.520925 202.714396 
L 512.960714 196.892894 
L 514.180608 193.336045 
L 515.400502 189.019018 
L 516.620397 183.751768 
L 517.840291 177.401953 
L 519.060185 169.908695 
L 520.28008 161.282582 
L 522.719868 141.110869 
L 527.599446 96.865973 
L 528.81934 87.289637 
L 530.039234 79.20613 
L 531.259129 73.049535 
L 532.479023 69.21159 
L 533.698917 68.009916 
L 534.918812 69.693318 
L 536.138706 74.396787 
L 537.3586 82.165318 
L 538.578495 92.919506 
L 539.798389 106.468778 
L 541.018283 122.524625 
L 543.458072 160.480583 
L 549.557544 264.025709 
L 550.777438 281.600853 
L 551.997332 296.952636 
L 553.217227 309.726378 
L 554.437121 319.673274 
L 555.657015 326.655688 
L 556.87691 330.647151 
L 558.096804 331.737657 
L 559.316698 330.11778 
L 560.536593 326.08132 
L 561.756487 320.001484 
L 562.976381 312.307065 
L 565.41617 293.985507 
L 567.855959 274.991646 
L 569.075853 266.362886 
L 570.295747 258.803456 
L 571.515642 252.588631 
L 572.735536 247.907396 
L 573.95543 244.86245 
L 575.175325 243.451674 
L 576.395219 243.587458 
L 577.615113 245.101196 
L 578.835008 247.746997 
L 580.054902 251.222852 
L 583.714585 263.091368 
L 584.934479 266.296714 
L 586.154374 268.562426 
L 587.374268 269.597348 
L 588.594162 269.176497 
L 589.814057 267.141062 
L 591.033951 263.408991 
L 592.253845 257.974989 
L 593.47374 250.91317 
L 594.693634 242.368314 
L 595.913528 232.550585 
L 598.353317 210.232534 
L 602.013 175.128301 
L 603.232894 164.429697 
L 604.452789 154.797777 
L 605.672683 146.528989 
L 606.892577 139.866845 
L 608.112472 135.015152 
L 609.332366 132.098314 
L 610.55226 131.198382 
L 611.772155 132.323297 
L 612.992049 135.436003 
L 614.211943 140.441214 
L 615.431838 147.18541 
L 616.651732 155.488607 
L 617.871626 165.125821 
L 620.311415 187.425608 
L 627.630781 260.018365 
L 630.07057 280.224487 
L 631.290464 288.882363 
L 632.510359 296.478848 
L 633.730253 302.961006 
L 634.950147 308.320895 
L 636.170042 312.571751 
L 637.389936 315.750629 
L 638.60983 317.918406 
L 639.829725 319.146549 
L 641.049619 319.530343 
L 642.269513 319.173017 
L 643.489408 318.19368 
L 644.709302 316.698204 
L 645.929196 314.816287 
L 648.368985 310.358977 
L 652.028668 303.524787 
L 653.248562 301.536996 
L 654.468457 299.787422 
L 655.688351 298.299887 
L 656.908245 297.069098 
L 658.12814 296.068585 
L 660.567928 294.554581 
L 663.007717 293.101456 
L 664.227611 292.114177 
L 665.447506 290.777514 
L 666.6674 288.953828 
L 667.887294 286.505483 
L 669.107189 283.305431 
L 670.327083 279.242502 
L 671.546977 274.218763 
L 672.766872 268.175984 
L 673.986766 261.071815 
L 675.20666 252.908901 
L 676.426555 243.729065 
L 677.646449 233.608799 
L 677.646449 233.608799 
" style="fill:none;stroke:#ff7f0e;stroke-linecap:square;stroke-width:1.5;"/>
   </g>
   <g id="patch_3">
    <path d="M 38.482813 443.668562 
L 38.482813 8.788562 
" style="fill:none;stroke:#000000;stroke-linecap:square;stroke-linejoin:miter;stroke-width:0.8;"/>
   </g>
   <g id="patch_4">
    <path d="M 708.082813 443.668562 
L 708.082813 8.788562 
" style="fill:none;stroke:#000000;stroke-linecap:square;stroke-linejoin:miter;stroke-width:0.8;"/>
   </g>
   <g id="patch_5">
    <path d="M 38.482813 443.668562 
L 708.082812 443.668562 
" style="fill:none;stroke:#000000;stroke-linecap:square;stroke-linejoin:miter;stroke-width:0.8;"/>
   </g>
   <g id="patch_6">
    <path d="M 38.482813 8.788562 
L 708.082812 8.788562 
" style="fill:none;stroke:#000000;stroke-linecap:square;stroke-linejoin:miter;stroke-width:0.8;"/>
   </g>
   <g id="legend_1">
    <g id="patch_7">
     <path d="M 656.801563 46.144812 
L 701.082813 46.144812 
Q 703.082813 46.144812 703.082813 44.144812 
L 703.082813 15.788562 
Q 703.082813 13.788562 701.082813 13.788562 
L 656.801563 13.788562 
Q 654.801563 13.788562 654.801563 15.788562 
L 654.801563 44.144812 
Q 654.801563 46.144812 656.801563 46.144812 
z
" style="fill:#ffffff;opacity:0.8;stroke:#cccccc;stroke-linejoin:miter;"/>
    </g>
    <g id="line2d_18">
     <path d="M 658.801563 21.887 
L 678.801563 21.887 
" style="fill:none;stroke:#1f77b4;stroke-linecap:square;stroke-width:1.5;"/>
    </g>
    <g id="line2d_19"/>
    <g id="text_16">
     <!-- x1 -->
     <g transform="translate(686.801563 25.387)scale(0.1 -0.1)">
      <defs>
       <path d="M 54.890625 54.6875 
L 35.109375 28.078125 
L 55.90625 0 
L 45.3125 0 
L 29.390625 21.484375 
L 13.484375 0 
L 2.875 0 
L 24.125 28.609375 
L 4.6875 54.6875 
L 15.28125 54.6875 
L 29.78125 35.203125 
L 44.28125 54.6875 
z
" id="DejaVuSans-120"/>
      </defs>
      <use xlink:href="#DejaVuSans-120"/>
      <use x="59.179688" xlink:href="#DejaVuSans-49"/>
     </g>
    </g>
    <g id="line2d_20">
     <path d="M 658.801563 36.565125 
L 678.801563 36.565125 
" style="fill:none;stroke:#ff7f0e;stroke-linecap:square;stroke-width:1.5;"/>
    </g>
    <g id="line2d_21"/>
    <g id="text_17">
     <!-- x2 -->
     <g transform="translate(686.801563 40.065125)scale(0.1 -0.1)">
      <use xlink:href="#DejaVuSans-120"/>
      <use x="59.179688" xlink:href="#DejaVuSans-50"/>
     </g>
    </g>
   </g>
  </g>
 </g>
 <defs>
  <clipPath id="p81ff1b8962">
   <rect height="434.88" width="669.6" x="38.482813" y="8.788562"/>
  </clipPath>
 </defs>
</svg>
