<?xml version="1.0" encoding="utf-8" standalone="no"?>
<!DOCTYPE svg PUBLIC "-//W3C//DTD SVG 1.1//EN"
  "http://www.w3.org/Graphics/SVG/1.1/DTD/svg11.dtd">
<!-- Created with matplotlib (https://matplotlib.org/) -->
<svg height="482.386875pt" version="1.1" viewBox="0 0 840.300625 482.386875" width="840.300625pt" xmlns="http://www.w3.org/2000/svg" xmlns:xlink="http://www.w3.org/1999/xlink">
 <metadata>
  <rdf:RDF xmlns:cc="http://creativecommons.org/ns#" xmlns:dc="http://purl.org/dc/elements/1.1/" xmlns:rdf="http://www.w3.org/1999/02/22-rdf-syntax-ns#">
   <cc:Work>
    <dc:type rdf:resource="http://purl.org/dc/dcmitype/StillImage"/>
    <dc:date>2021-01-07T16:51:40.355251</dc:date>
    <dc:format>image/svg+xml</dc:format>
    <dc:creator>
     <cc:Agent>
      <dc:title>Matplotlib v3.3.2, https://matplotlib.org/</dc:title>
     </cc:Agent>
    </dc:creator>
   </cc:Work>
  </rdf:RDF>
 </metadata>
 <defs>
  <style type="text/css">*{stroke-linecap:butt;stroke-linejoin:round;}</style>
 </defs>
 <g id="figure_1">
  <g id="patch_1">
   <path d="M 0 482.386875 
L 840.300625 482.386875 
L 840.300625 0 
L 0 0 
z
" style="fill:#ffffff;"/>
  </g>
  <g id="axes_1">
   <g id="patch_2">
    <path d="M 51.900625 442.08 
L 833.100625 442.08 
L 833.100625 7.2 
L 51.900625 7.2 
z
" style="fill:#ffffff;"/>
   </g>
   <g id="matplotlib.axis_1">
    <g id="xtick_1">
     <g id="line2d_1">
      <path clip-path="url(#p49905c307b)" d="M 87.409716 442.08 
L 87.409716 7.2 
" style="fill:none;stroke:#cccccc;stroke-linecap:round;stroke-width:0.8;"/>
     </g>
     <g id="line2d_2"/>
     <g id="text_1">
      <!-- 0 -->
      <g style="fill:#262626;" transform="translate(84.629247 452.737812)scale(0.1 -0.1)">
       <defs>
        <path d="M 4.15625 35.296875 
Q 4.15625 48 6.765625 55.734375 
Q 9.375 63.484375 14.515625 67.671875 
Q 19.671875 71.875 27.484375 71.875 
Q 33.25 71.875 37.59375 69.546875 
Q 41.9375 67.234375 44.765625 62.859375 
Q 47.609375 58.5 49.21875 52.21875 
Q 50.828125 45.953125 50.828125 35.296875 
Q 50.828125 22.703125 48.234375 14.96875 
Q 45.65625 7.234375 40.5 3 
Q 35.359375 -1.21875 27.484375 -1.21875 
Q 17.140625 -1.21875 11.234375 6.203125 
Q 4.15625 15.140625 4.15625 35.296875 
z
M 13.1875 35.296875 
Q 13.1875 17.671875 17.3125 11.828125 
Q 21.4375 6 27.484375 6 
Q 33.546875 6 37.671875 11.859375 
Q 41.796875 17.71875 41.796875 35.296875 
Q 41.796875 52.984375 37.671875 58.78125 
Q 33.546875 64.59375 27.390625 64.59375 
Q 21.34375 64.59375 17.71875 59.46875 
Q 13.1875 52.9375 13.1875 35.296875 
z
" id="ArialMT-48"/>
       </defs>
       <use xlink:href="#ArialMT-48"/>
      </g>
     </g>
    </g>
    <g id="xtick_2">
     <g id="line2d_3">
      <path clip-path="url(#p49905c307b)" d="M 176.628537 442.08 
L 176.628537 7.2 
" style="fill:none;stroke:#cccccc;stroke-linecap:round;stroke-width:0.8;"/>
     </g>
     <g id="line2d_4"/>
     <g id="text_2">
      <!-- 25 -->
      <g style="fill:#262626;" transform="translate(171.0676 452.737812)scale(0.1 -0.1)">
       <defs>
        <path d="M 50.34375 8.453125 
L 50.34375 0 
L 3.03125 0 
Q 2.9375 3.171875 4.046875 6.109375 
Q 5.859375 10.9375 9.828125 15.625 
Q 13.8125 20.3125 21.34375 26.46875 
Q 33.015625 36.03125 37.109375 41.625 
Q 41.21875 47.21875 41.21875 52.203125 
Q 41.21875 57.421875 37.46875 61 
Q 33.734375 64.59375 27.734375 64.59375 
Q 21.390625 64.59375 17.578125 60.78125 
Q 13.765625 56.984375 13.71875 50.25 
L 4.6875 51.171875 
Q 5.609375 61.28125 11.65625 66.578125 
Q 17.71875 71.875 27.9375 71.875 
Q 38.234375 71.875 44.234375 66.15625 
Q 50.25 60.453125 50.25 52 
Q 50.25 47.703125 48.484375 43.546875 
Q 46.734375 39.40625 42.65625 34.8125 
Q 38.578125 30.21875 29.109375 22.21875 
Q 21.1875 15.578125 18.9375 13.203125 
Q 16.703125 10.84375 15.234375 8.453125 
z
" id="ArialMT-50"/>
        <path d="M 4.15625 18.75 
L 13.375 19.53125 
Q 14.40625 12.796875 18.140625 9.390625 
Q 21.875 6 27.15625 6 
Q 33.5 6 37.890625 10.78125 
Q 42.28125 15.578125 42.28125 23.484375 
Q 42.28125 31 38.0625 35.34375 
Q 33.84375 39.703125 27 39.703125 
Q 22.75 39.703125 19.328125 37.765625 
Q 15.921875 35.84375 13.96875 32.765625 
L 5.71875 33.84375 
L 12.640625 70.609375 
L 48.25 70.609375 
L 48.25 62.203125 
L 19.671875 62.203125 
L 15.828125 42.96875 
Q 22.265625 47.46875 29.34375 47.46875 
Q 38.71875 47.46875 45.15625 40.96875 
Q 51.609375 34.46875 51.609375 24.265625 
Q 51.609375 14.546875 45.953125 7.46875 
Q 39.0625 -1.21875 27.15625 -1.21875 
Q 17.390625 -1.21875 11.203125 4.25 
Q 5.03125 9.71875 4.15625 18.75 
z
" id="ArialMT-53"/>
       </defs>
       <use xlink:href="#ArialMT-50"/>
       <use x="55.615234" xlink:href="#ArialMT-53"/>
      </g>
     </g>
    </g>
    <g id="xtick_3">
     <g id="line2d_5">
      <path clip-path="url(#p49905c307b)" d="M 265.847359 442.08 
L 265.847359 7.2 
" style="fill:none;stroke:#cccccc;stroke-linecap:round;stroke-width:0.8;"/>
     </g>
     <g id="line2d_6"/>
     <g id="text_3">
      <!-- 50 -->
      <g style="fill:#262626;" transform="translate(260.286421 452.737812)scale(0.1 -0.1)">
       <use xlink:href="#ArialMT-53"/>
       <use x="55.615234" xlink:href="#ArialMT-48"/>
      </g>
     </g>
    </g>
    <g id="xtick_4">
     <g id="line2d_7">
      <path clip-path="url(#p49905c307b)" d="M 355.06618 442.08 
L 355.06618 7.2 
" style="fill:none;stroke:#cccccc;stroke-linecap:round;stroke-width:0.8;"/>
     </g>
     <g id="line2d_8"/>
     <g id="text_4">
      <!-- 75 -->
      <g style="fill:#262626;" transform="translate(349.505243 452.737812)scale(0.1 -0.1)">
       <defs>
        <path d="M 4.734375 62.203125 
L 4.734375 70.65625 
L 51.078125 70.65625 
L 51.078125 63.8125 
Q 44.234375 56.546875 37.515625 44.484375 
Q 30.8125 32.421875 27.15625 19.671875 
Q 24.515625 10.6875 23.78125 0 
L 14.75 0 
Q 14.890625 8.453125 18.0625 20.40625 
Q 21.234375 32.375 27.171875 43.484375 
Q 33.109375 54.59375 39.796875 62.203125 
z
" id="ArialMT-55"/>
       </defs>
       <use xlink:href="#ArialMT-55"/>
       <use x="55.615234" xlink:href="#ArialMT-53"/>
      </g>
     </g>
    </g>
    <g id="xtick_5">
     <g id="line2d_9">
      <path clip-path="url(#p49905c307b)" d="M 444.285001 442.08 
L 444.285001 7.2 
" style="fill:none;stroke:#cccccc;stroke-linecap:round;stroke-width:0.8;"/>
     </g>
     <g id="line2d_10"/>
     <g id="text_5">
      <!-- 100 -->
      <g style="fill:#262626;" transform="translate(435.943595 452.737812)scale(0.1 -0.1)">
       <defs>
        <path d="M 37.25 0 
L 28.46875 0 
L 28.46875 56 
Q 25.296875 52.984375 20.140625 49.953125 
Q 14.984375 46.921875 10.890625 45.40625 
L 10.890625 53.90625 
Q 18.265625 57.375 23.78125 62.296875 
Q 29.296875 67.234375 31.59375 71.875 
L 37.25 71.875 
z
" id="ArialMT-49"/>
       </defs>
       <use xlink:href="#ArialMT-49"/>
       <use x="55.615234" xlink:href="#ArialMT-48"/>
       <use x="111.230469" xlink:href="#ArialMT-48"/>
      </g>
     </g>
    </g>
    <g id="xtick_6">
     <g id="line2d_11">
      <path clip-path="url(#p49905c307b)" d="M 533.503823 442.08 
L 533.503823 7.2 
" style="fill:none;stroke:#cccccc;stroke-linecap:round;stroke-width:0.8;"/>
     </g>
     <g id="line2d_12"/>
     <g id="text_6">
      <!-- 125 -->
      <g style="fill:#262626;" transform="translate(525.162417 452.737812)scale(0.1 -0.1)">
       <use xlink:href="#ArialMT-49"/>
       <use x="55.615234" xlink:href="#ArialMT-50"/>
       <use x="111.230469" xlink:href="#ArialMT-53"/>
      </g>
     </g>
    </g>
    <g id="xtick_7">
     <g id="line2d_13">
      <path clip-path="url(#p49905c307b)" d="M 622.722644 442.08 
L 622.722644 7.2 
" style="fill:none;stroke:#cccccc;stroke-linecap:round;stroke-width:0.8;"/>
     </g>
     <g id="line2d_14"/>
     <g id="text_7">
      <!-- 150 -->
      <g style="fill:#262626;" transform="translate(614.381238 452.737812)scale(0.1 -0.1)">
       <use xlink:href="#ArialMT-49"/>
       <use x="55.615234" xlink:href="#ArialMT-53"/>
       <use x="111.230469" xlink:href="#ArialMT-48"/>
      </g>
     </g>
    </g>
    <g id="xtick_8">
     <g id="line2d_15">
      <path clip-path="url(#p49905c307b)" d="M 711.941466 442.08 
L 711.941466 7.2 
" style="fill:none;stroke:#cccccc;stroke-linecap:round;stroke-width:0.8;"/>
     </g>
     <g id="line2d_16"/>
     <g id="text_8">
      <!-- 175 -->
      <g style="fill:#262626;" transform="translate(703.600059 452.737812)scale(0.1 -0.1)">
       <use xlink:href="#ArialMT-49"/>
       <use x="55.615234" xlink:href="#ArialMT-55"/>
       <use x="111.230469" xlink:href="#ArialMT-53"/>
      </g>
     </g>
    </g>
    <g id="xtick_9">
     <g id="line2d_17">
      <path clip-path="url(#p49905c307b)" d="M 801.160287 442.08 
L 801.160287 7.2 
" style="fill:none;stroke:#cccccc;stroke-linecap:round;stroke-width:0.8;"/>
     </g>
     <g id="line2d_18"/>
     <g id="text_9">
      <!-- 200 -->
      <g style="fill:#262626;" transform="translate(792.818881 452.737812)scale(0.1 -0.1)">
       <use xlink:href="#ArialMT-50"/>
       <use x="55.615234" xlink:href="#ArialMT-48"/>
       <use x="111.230469" xlink:href="#ArialMT-48"/>
      </g>
     </g>
    </g>
    <g id="text_10">
     <!-- $n$ -->
     <g style="fill:#262626;" transform="translate(436.740625 471.609375)scale(0.18 -0.18)">
      <defs>
       <path d="M 55.71875 33.015625 
L 49.3125 0 
L 40.28125 0 
L 46.6875 32.671875 
Q 47.125 34.96875 47.359375 36.71875 
Q 47.609375 38.484375 47.609375 39.5 
Q 47.609375 43.609375 45.015625 45.890625 
Q 42.4375 48.1875 37.796875 48.1875 
Q 30.5625 48.1875 25.34375 43.375 
Q 20.125 38.578125 18.5 30.328125 
L 12.5 0 
L 3.515625 0 
L 14.109375 54.6875 
L 23.09375 54.6875 
L 21.296875 46.09375 
Q 25.046875 50.828125 30.3125 53.40625 
Q 35.59375 56 41.40625 56 
Q 48.640625 56 52.609375 52.09375 
Q 56.59375 48.1875 56.59375 41.109375 
Q 56.59375 39.359375 56.375 37.359375 
Q 56.15625 35.359375 55.71875 33.015625 
z
" id="DejaVuSans-Oblique-110"/>
      </defs>
      <use xlink:href="#DejaVuSans-Oblique-110"/>
     </g>
    </g>
   </g>
   <g id="matplotlib.axis_2">
    <g id="ytick_1">
     <g id="line2d_19">
      <path clip-path="url(#p49905c307b)" d="M 51.900625 406.75427 
L 833.100625 406.75427 
" style="fill:none;stroke:#cccccc;stroke-linecap:round;stroke-width:0.8;"/>
     </g>
     <g id="line2d_20"/>
     <g id="text_11">
      <!-- −1.0 -->
      <g style="fill:#262626;" transform="translate(28.66 410.333177)scale(0.1 -0.1)">
       <defs>
        <path d="M 52.828125 31.203125 
L 5.5625 31.203125 
L 5.5625 39.40625 
L 52.828125 39.40625 
z
" id="ArialMT-8722"/>
        <path d="M 9.078125 0 
L 9.078125 10.015625 
L 19.09375 10.015625 
L 19.09375 0 
z
" id="ArialMT-46"/>
       </defs>
       <use xlink:href="#ArialMT-8722"/>
       <use x="58.398438" xlink:href="#ArialMT-49"/>
       <use x="114.013672" xlink:href="#ArialMT-46"/>
       <use x="141.796875" xlink:href="#ArialMT-48"/>
      </g>
     </g>
    </g>
    <g id="ytick_2">
     <g id="line2d_21">
      <path clip-path="url(#p49905c307b)" d="M 51.900625 313.278026 
L 833.100625 313.278026 
" style="fill:none;stroke:#cccccc;stroke-linecap:round;stroke-width:0.8;"/>
     </g>
     <g id="line2d_22"/>
     <g id="text_12">
      <!-- −0.5 -->
      <g style="fill:#262626;" transform="translate(28.66 316.856932)scale(0.1 -0.1)">
       <use xlink:href="#ArialMT-8722"/>
       <use x="58.398438" xlink:href="#ArialMT-48"/>
       <use x="114.013672" xlink:href="#ArialMT-46"/>
       <use x="141.796875" xlink:href="#ArialMT-53"/>
      </g>
     </g>
    </g>
    <g id="ytick_3">
     <g id="line2d_23">
      <path clip-path="url(#p49905c307b)" d="M 51.900625 219.801782 
L 833.100625 219.801782 
" style="fill:none;stroke:#cccccc;stroke-linecap:round;stroke-width:0.8;"/>
     </g>
     <g id="line2d_24"/>
     <g id="text_13">
      <!-- 0.0 -->
      <g style="fill:#262626;" transform="translate(34.500625 223.380688)scale(0.1 -0.1)">
       <use xlink:href="#ArialMT-48"/>
       <use x="55.615234" xlink:href="#ArialMT-46"/>
       <use x="83.398438" xlink:href="#ArialMT-48"/>
      </g>
     </g>
    </g>
    <g id="ytick_4">
     <g id="line2d_25">
      <path clip-path="url(#p49905c307b)" d="M 51.900625 126.325538 
L 833.100625 126.325538 
" style="fill:none;stroke:#cccccc;stroke-linecap:round;stroke-width:0.8;"/>
     </g>
     <g id="line2d_26"/>
     <g id="text_14">
      <!-- 0.5 -->
      <g style="fill:#262626;" transform="translate(34.500625 129.904444)scale(0.1 -0.1)">
       <use xlink:href="#ArialMT-48"/>
       <use x="55.615234" xlink:href="#ArialMT-46"/>
       <use x="83.398438" xlink:href="#ArialMT-53"/>
      </g>
     </g>
    </g>
    <g id="ytick_5">
     <g id="line2d_27">
      <path clip-path="url(#p49905c307b)" d="M 51.900625 32.849294 
L 833.100625 32.849294 
" style="fill:none;stroke:#cccccc;stroke-linecap:round;stroke-width:0.8;"/>
     </g>
     <g id="line2d_28"/>
     <g id="text_15">
      <!-- 1.0 -->
      <g style="fill:#262626;" transform="translate(34.500625 36.4282)scale(0.1 -0.1)">
       <use xlink:href="#ArialMT-49"/>
       <use x="55.615234" xlink:href="#ArialMT-46"/>
       <use x="83.398438" xlink:href="#ArialMT-48"/>
      </g>
     </g>
    </g>
    <g id="text_16">
     <!-- $y[n]$ -->
     <g style="fill:#262626;" transform="translate(20.88 242.73)rotate(-90)scale(0.18 -0.18)">
      <defs>
       <path d="M 24.8125 -5.078125 
Q 18.5625 -15.578125 14.625 -18.1875 
Q 10.6875 -20.796875 4.59375 -20.796875 
L -2.484375 -20.796875 
L -0.984375 -13.28125 
L 4.203125 -13.28125 
Q 7.953125 -13.28125 10.59375 -11.234375 
Q 13.234375 -9.1875 16.5 -3.21875 
L 19.28125 2 
L 7.171875 54.6875 
L 16.703125 54.6875 
L 25.78125 12.796875 
L 50.875 54.6875 
L 60.296875 54.6875 
z
" id="DejaVuSans-Oblique-121"/>
       <path d="M 8.59375 75.984375 
L 29.296875 75.984375 
L 29.296875 69 
L 17.578125 69 
L 17.578125 -6.203125 
L 29.296875 -6.203125 
L 29.296875 -13.1875 
L 8.59375 -13.1875 
z
" id="DejaVuSans-91"/>
       <path d="M 30.421875 75.984375 
L 30.421875 -13.1875 
L 9.71875 -13.1875 
L 9.71875 -6.203125 
L 21.390625 -6.203125 
L 21.390625 69 
L 9.71875 69 
L 9.71875 75.984375 
z
" id="DejaVuSans-93"/>
      </defs>
      <use transform="translate(0 0.015625)" xlink:href="#DejaVuSans-Oblique-121"/>
      <use transform="translate(59.179688 0.015625)" xlink:href="#DejaVuSans-91"/>
      <use transform="translate(98.193359 0.015625)" xlink:href="#DejaVuSans-Oblique-110"/>
      <use transform="translate(161.572266 0.015625)" xlink:href="#DejaVuSans-93"/>
     </g>
    </g>
   </g>
   <g id="line2d_29">
    <path clip-path="url(#p49905c307b)" d="M 87.409716 194.534434 
L 90.978469 115.869414 
L 94.547222 271.01488 
L 98.115974 246.39806 
L 101.684727 233.240428 
L 105.25348 255.133319 
L 108.822233 386.896272 
L 112.390986 148.242658 
L 115.959739 258.383329 
L 119.528492 77.478336 
L 123.097244 321.517161 
L 126.665997 184.052473 
L 130.23475 182.969079 
L 133.803503 287.581468 
L 137.372256 356.166516 
L 140.941009 384.873985 
L 144.509762 410.981774 
L 148.078514 231.011863 
L 151.647267 181.589282 
L 155.21602 165.277633 
L 158.784773 52.79839 
L 162.353526 112.796946 
L 165.922279 70.879593 
L 169.491032 263.796975 
L 173.059784 236.242076 
L 176.628537 371.517616 
L 180.19729 80.210449 
L 183.766043 257.955419 
L 187.334796 275.693573 
L 190.903549 272.798721 
L 194.472302 384.644602 
L 198.041054 229.393813 
L 201.609807 195.461257 
L 205.17856 143.465654 
L 208.747313 53.517314 
L 212.316066 349.466081 
L 215.884819 249.428357 
L 219.453572 130.891417 
L 223.022324 307.886482 
L 226.591077 306.247659 
L 230.15983 317.420012 
L 233.728583 172.547273 
L 237.297336 319.805033 
L 240.866089 306.16552 
L 244.434842 235.162 
L 248.003594 241.35416 
L 251.572347 366.688902 
L 255.1411 184.540474 
L 258.709853 209.713752 
L 262.278606 83.933619 
L 265.847359 208.476466 
L 269.416112 254.004419 
L 272.984864 184.415569 
L 276.553617 246.654628 
L 280.12237 287.207587 
L 283.691123 80.027935 
L 287.259876 323.573286 
L 290.828629 82.243502 
L 294.397382 306.882355 
L 297.966134 278.050102 
L 301.534887 154.643004 
L 305.10364 104.205936 
L 308.672393 237.959181 
L 312.241146 381.768592 
L 315.809899 207.144768 
L 319.378651 96.346273 
L 322.947404 111.447553 
L 326.516157 184.409142 
L 330.08491 179.640704 
L 333.653663 371.453452 
L 337.222416 84.865032 
L 340.791169 297.478383 
L 344.359921 125.176217 
L 347.928674 130.765654 
L 351.497427 305.899117 
L 355.06618 339.565224 
L 358.634933 204.760507 
L 362.203686 170.559378 
L 365.772439 373.510324 
L 369.341191 348.043112 
L 372.909944 88.41307 
L 376.478697 145.56275 
L 380.04745 205.249719 
L 383.616203 124.580561 
L 387.184956 301.687037 
L 390.753709 143.138543 
L 394.322461 224.715041 
L 397.891214 128.789574 
L 401.459967 121.909506 
L 405.02872 93.423614 
L 408.597473 292.676693 
L 412.166226 362.46729 
L 415.734979 87.394301 
L 419.303731 180.658593 
L 422.872484 95.156986 
L 426.441237 281.167603 
L 430.00999 137.019937 
L 433.578743 354.716334 
L 437.147496 358.120634 
L 440.716249 263.40887 
L 444.285001 386.278527 
L 447.853754 147.52124 
L 451.422507 238.836203 
L 454.99126 101.214217 
L 458.560013 210.452967 
L 462.128766 377.646129 
L 465.697519 219.971452 
L 469.266271 328.836562 
L 472.835024 259.680264 
L 476.403777 169.103883 
L 479.97253 253.610032 
L 483.541283 204.873386 
L 487.110036 143.92674 
L 490.678789 123.452864 
L 494.247541 183.760868 
L 497.816294 213.605257 
L 501.385047 94.123179 
L 504.9538 271.573465 
L 508.522553 315.70843 
L 512.091306 397.618221 
L 515.660059 379.847792 
L 519.228811 403.570051 
L 522.797564 422.312727 
L 526.366317 142.829376 
L 529.93507 303.464779 
L 533.503823 259.045996 
L 537.072576 104.52781 
L 540.641329 286.971088 
L 544.210081 198.777052 
L 547.778834 326.573069 
L 551.347587 103.892954 
L 554.91634 126.835823 
L 558.485093 152.741337 
L 562.053846 233.769258 
L 565.622599 343.326902 
L 569.191351 175.993526 
L 572.760104 317.901292 
L 576.328857 244.457556 
L 579.89761 183.913455 
L 583.466363 142.7027 
L 587.035116 106.376974 
L 590.603868 208.642546 
L 594.172621 79.827747 
L 597.741374 114.497692 
L 601.310127 317.289264 
L 604.87888 205.387362 
L 608.447633 275.387701 
L 612.016386 382.186629 
L 615.585138 217.658464 
L 619.153891 69.932494 
L 622.722644 26.967273 
L 626.291397 152.101202 
L 629.86015 226.12883 
L 633.428903 273.174796 
L 636.997656 301.918166 
L 640.566408 75.233206 
L 644.135161 331.093682 
L 647.703914 192.989957 
L 651.272667 144.82899 
L 654.84142 214.053807 
L 658.410173 337.785496 
L 661.978926 370.19088 
L 665.547678 210.28204 
L 669.116431 273.107249 
L 672.685184 375.978952 
L 676.253937 383.659082 
L 679.82269 73.289865 
L 683.391443 289.023987 
L 686.960196 210.810205 
L 690.528948 368.555936 
L 694.097701 388.844727 
L 697.666454 254.004639 
L 701.235207 332.227898 
L 704.80396 268.892512 
L 708.372713 340.975159 
L 711.941466 116.383884 
L 715.510218 176.026727 
L 719.078971 379.303493 
L 722.647724 387.902619 
L 726.216477 218.098649 
L 729.78523 159.697323 
L 733.353983 315.831143 
L 736.922736 90.705203 
L 740.491488 85.111077 
L 744.060241 53.56725 
L 747.628994 128.327214 
L 751.197747 124.666054 
L 754.7665 249.413753 
L 758.335253 222.752827 
L 761.904006 354.825633 
L 765.472758 210.534307 
L 769.041511 264.847798 
L 772.610264 254.524902 
L 776.179017 144.731128 
L 779.74777 373.38427 
L 783.316523 240.075043 
L 786.885276 390.220542 
L 790.454028 385.772389 
L 794.022781 135.097879 
L 797.591534 181.80217 
L 797.591534 181.80217 
" style="fill:none;stroke:#1f77b4;stroke-linecap:round;stroke-width:1.5;"/>
    <defs>
     <path d="M 0 3 
C 0.795609 3 1.55874 2.683901 2.12132 2.12132 
C 2.683901 1.55874 3 0.795609 3 0 
C 3 -0.795609 2.683901 -1.55874 2.12132 -2.12132 
C 1.55874 -2.683901 0.795609 -3 0 -3 
C -0.795609 -3 -1.55874 -2.683901 -2.12132 -2.12132 
C -2.683901 -1.55874 -3 -0.795609 -3 0 
C -3 0.795609 -2.683901 1.55874 -2.12132 2.12132 
C -1.55874 2.683901 -0.795609 3 0 3 
z
" id="m7192f4bbe4" style="stroke:#1f77b4;"/>
    </defs>
    <g clip-path="url(#p49905c307b)">
     <use style="fill:#1f77b4;stroke:#1f77b4;" x="87.409716" xlink:href="#m7192f4bbe4" y="194.534434"/>
     <use style="fill:#1f77b4;stroke:#1f77b4;" x="90.978469" xlink:href="#m7192f4bbe4" y="115.869414"/>
     <use style="fill:#1f77b4;stroke:#1f77b4;" x="94.547222" xlink:href="#m7192f4bbe4" y="271.01488"/>
     <use style="fill:#1f77b4;stroke:#1f77b4;" x="98.115974" xlink:href="#m7192f4bbe4" y="246.39806"/>
     <use style="fill:#1f77b4;stroke:#1f77b4;" x="101.684727" xlink:href="#m7192f4bbe4" y="233.240428"/>
     <use style="fill:#1f77b4;stroke:#1f77b4;" x="105.25348" xlink:href="#m7192f4bbe4" y="255.133319"/>
     <use style="fill:#1f77b4;stroke:#1f77b4;" x="108.822233" xlink:href="#m7192f4bbe4" y="386.896272"/>
     <use style="fill:#1f77b4;stroke:#1f77b4;" x="112.390986" xlink:href="#m7192f4bbe4" y="148.242658"/>
     <use style="fill:#1f77b4;stroke:#1f77b4;" x="115.959739" xlink:href="#m7192f4bbe4" y="258.383329"/>
     <use style="fill:#1f77b4;stroke:#1f77b4;" x="119.528492" xlink:href="#m7192f4bbe4" y="77.478336"/>
     <use style="fill:#1f77b4;stroke:#1f77b4;" x="123.097244" xlink:href="#m7192f4bbe4" y="321.517161"/>
     <use style="fill:#1f77b4;stroke:#1f77b4;" x="126.665997" xlink:href="#m7192f4bbe4" y="184.052473"/>
     <use style="fill:#1f77b4;stroke:#1f77b4;" x="130.23475" xlink:href="#m7192f4bbe4" y="182.969079"/>
     <use style="fill:#1f77b4;stroke:#1f77b4;" x="133.803503" xlink:href="#m7192f4bbe4" y="287.581468"/>
     <use style="fill:#1f77b4;stroke:#1f77b4;" x="137.372256" xlink:href="#m7192f4bbe4" y="356.166516"/>
     <use style="fill:#1f77b4;stroke:#1f77b4;" x="140.941009" xlink:href="#m7192f4bbe4" y="384.873985"/>
     <use style="fill:#1f77b4;stroke:#1f77b4;" x="144.509762" xlink:href="#m7192f4bbe4" y="410.981774"/>
     <use style="fill:#1f77b4;stroke:#1f77b4;" x="148.078514" xlink:href="#m7192f4bbe4" y="231.011863"/>
     <use style="fill:#1f77b4;stroke:#1f77b4;" x="151.647267" xlink:href="#m7192f4bbe4" y="181.589282"/>
     <use style="fill:#1f77b4;stroke:#1f77b4;" x="155.21602" xlink:href="#m7192f4bbe4" y="165.277633"/>
     <use style="fill:#1f77b4;stroke:#1f77b4;" x="158.784773" xlink:href="#m7192f4bbe4" y="52.79839"/>
     <use style="fill:#1f77b4;stroke:#1f77b4;" x="162.353526" xlink:href="#m7192f4bbe4" y="112.796946"/>
     <use style="fill:#1f77b4;stroke:#1f77b4;" x="165.922279" xlink:href="#m7192f4bbe4" y="70.879593"/>
     <use style="fill:#1f77b4;stroke:#1f77b4;" x="169.491032" xlink:href="#m7192f4bbe4" y="263.796975"/>
     <use style="fill:#1f77b4;stroke:#1f77b4;" x="173.059784" xlink:href="#m7192f4bbe4" y="236.242076"/>
     <use style="fill:#1f77b4;stroke:#1f77b4;" x="176.628537" xlink:href="#m7192f4bbe4" y="371.517616"/>
     <use style="fill:#1f77b4;stroke:#1f77b4;" x="180.19729" xlink:href="#m7192f4bbe4" y="80.210449"/>
     <use style="fill:#1f77b4;stroke:#1f77b4;" x="183.766043" xlink:href="#m7192f4bbe4" y="257.955419"/>
     <use style="fill:#1f77b4;stroke:#1f77b4;" x="187.334796" xlink:href="#m7192f4bbe4" y="275.693573"/>
     <use style="fill:#1f77b4;stroke:#1f77b4;" x="190.903549" xlink:href="#m7192f4bbe4" y="272.798721"/>
     <use style="fill:#1f77b4;stroke:#1f77b4;" x="194.472302" xlink:href="#m7192f4bbe4" y="384.644602"/>
     <use style="fill:#1f77b4;stroke:#1f77b4;" x="198.041054" xlink:href="#m7192f4bbe4" y="229.393813"/>
     <use style="fill:#1f77b4;stroke:#1f77b4;" x="201.609807" xlink:href="#m7192f4bbe4" y="195.461257"/>
     <use style="fill:#1f77b4;stroke:#1f77b4;" x="205.17856" xlink:href="#m7192f4bbe4" y="143.465654"/>
     <use style="fill:#1f77b4;stroke:#1f77b4;" x="208.747313" xlink:href="#m7192f4bbe4" y="53.517314"/>
     <use style="fill:#1f77b4;stroke:#1f77b4;" x="212.316066" xlink:href="#m7192f4bbe4" y="349.466081"/>
     <use style="fill:#1f77b4;stroke:#1f77b4;" x="215.884819" xlink:href="#m7192f4bbe4" y="249.428357"/>
     <use style="fill:#1f77b4;stroke:#1f77b4;" x="219.453572" xlink:href="#m7192f4bbe4" y="130.891417"/>
     <use style="fill:#1f77b4;stroke:#1f77b4;" x="223.022324" xlink:href="#m7192f4bbe4" y="307.886482"/>
     <use style="fill:#1f77b4;stroke:#1f77b4;" x="226.591077" xlink:href="#m7192f4bbe4" y="306.247659"/>
     <use style="fill:#1f77b4;stroke:#1f77b4;" x="230.15983" xlink:href="#m7192f4bbe4" y="317.420012"/>
     <use style="fill:#1f77b4;stroke:#1f77b4;" x="233.728583" xlink:href="#m7192f4bbe4" y="172.547273"/>
     <use style="fill:#1f77b4;stroke:#1f77b4;" x="237.297336" xlink:href="#m7192f4bbe4" y="319.805033"/>
     <use style="fill:#1f77b4;stroke:#1f77b4;" x="240.866089" xlink:href="#m7192f4bbe4" y="306.16552"/>
     <use style="fill:#1f77b4;stroke:#1f77b4;" x="244.434842" xlink:href="#m7192f4bbe4" y="235.162"/>
     <use style="fill:#1f77b4;stroke:#1f77b4;" x="248.003594" xlink:href="#m7192f4bbe4" y="241.35416"/>
     <use style="fill:#1f77b4;stroke:#1f77b4;" x="251.572347" xlink:href="#m7192f4bbe4" y="366.688902"/>
     <use style="fill:#1f77b4;stroke:#1f77b4;" x="255.1411" xlink:href="#m7192f4bbe4" y="184.540474"/>
     <use style="fill:#1f77b4;stroke:#1f77b4;" x="258.709853" xlink:href="#m7192f4bbe4" y="209.713752"/>
     <use style="fill:#1f77b4;stroke:#1f77b4;" x="262.278606" xlink:href="#m7192f4bbe4" y="83.933619"/>
     <use style="fill:#1f77b4;stroke:#1f77b4;" x="265.847359" xlink:href="#m7192f4bbe4" y="208.476466"/>
     <use style="fill:#1f77b4;stroke:#1f77b4;" x="269.416112" xlink:href="#m7192f4bbe4" y="254.004419"/>
     <use style="fill:#1f77b4;stroke:#1f77b4;" x="272.984864" xlink:href="#m7192f4bbe4" y="184.415569"/>
     <use style="fill:#1f77b4;stroke:#1f77b4;" x="276.553617" xlink:href="#m7192f4bbe4" y="246.654628"/>
     <use style="fill:#1f77b4;stroke:#1f77b4;" x="280.12237" xlink:href="#m7192f4bbe4" y="287.207587"/>
     <use style="fill:#1f77b4;stroke:#1f77b4;" x="283.691123" xlink:href="#m7192f4bbe4" y="80.027935"/>
     <use style="fill:#1f77b4;stroke:#1f77b4;" x="287.259876" xlink:href="#m7192f4bbe4" y="323.573286"/>
     <use style="fill:#1f77b4;stroke:#1f77b4;" x="290.828629" xlink:href="#m7192f4bbe4" y="82.243502"/>
     <use style="fill:#1f77b4;stroke:#1f77b4;" x="294.397382" xlink:href="#m7192f4bbe4" y="306.882355"/>
     <use style="fill:#1f77b4;stroke:#1f77b4;" x="297.966134" xlink:href="#m7192f4bbe4" y="278.050102"/>
     <use style="fill:#1f77b4;stroke:#1f77b4;" x="301.534887" xlink:href="#m7192f4bbe4" y="154.643004"/>
     <use style="fill:#1f77b4;stroke:#1f77b4;" x="305.10364" xlink:href="#m7192f4bbe4" y="104.205936"/>
     <use style="fill:#1f77b4;stroke:#1f77b4;" x="308.672393" xlink:href="#m7192f4bbe4" y="237.959181"/>
     <use style="fill:#1f77b4;stroke:#1f77b4;" x="312.241146" xlink:href="#m7192f4bbe4" y="381.768592"/>
     <use style="fill:#1f77b4;stroke:#1f77b4;" x="315.809899" xlink:href="#m7192f4bbe4" y="207.144768"/>
     <use style="fill:#1f77b4;stroke:#1f77b4;" x="319.378651" xlink:href="#m7192f4bbe4" y="96.346273"/>
     <use style="fill:#1f77b4;stroke:#1f77b4;" x="322.947404" xlink:href="#m7192f4bbe4" y="111.447553"/>
     <use style="fill:#1f77b4;stroke:#1f77b4;" x="326.516157" xlink:href="#m7192f4bbe4" y="184.409142"/>
     <use style="fill:#1f77b4;stroke:#1f77b4;" x="330.08491" xlink:href="#m7192f4bbe4" y="179.640704"/>
     <use style="fill:#1f77b4;stroke:#1f77b4;" x="333.653663" xlink:href="#m7192f4bbe4" y="371.453452"/>
     <use style="fill:#1f77b4;stroke:#1f77b4;" x="337.222416" xlink:href="#m7192f4bbe4" y="84.865032"/>
     <use style="fill:#1f77b4;stroke:#1f77b4;" x="340.791169" xlink:href="#m7192f4bbe4" y="297.478383"/>
     <use style="fill:#1f77b4;stroke:#1f77b4;" x="344.359921" xlink:href="#m7192f4bbe4" y="125.176217"/>
     <use style="fill:#1f77b4;stroke:#1f77b4;" x="347.928674" xlink:href="#m7192f4bbe4" y="130.765654"/>
     <use style="fill:#1f77b4;stroke:#1f77b4;" x="351.497427" xlink:href="#m7192f4bbe4" y="305.899117"/>
     <use style="fill:#1f77b4;stroke:#1f77b4;" x="355.06618" xlink:href="#m7192f4bbe4" y="339.565224"/>
     <use style="fill:#1f77b4;stroke:#1f77b4;" x="358.634933" xlink:href="#m7192f4bbe4" y="204.760507"/>
     <use style="fill:#1f77b4;stroke:#1f77b4;" x="362.203686" xlink:href="#m7192f4bbe4" y="170.559378"/>
     <use style="fill:#1f77b4;stroke:#1f77b4;" x="365.772439" xlink:href="#m7192f4bbe4" y="373.510324"/>
     <use style="fill:#1f77b4;stroke:#1f77b4;" x="369.341191" xlink:href="#m7192f4bbe4" y="348.043112"/>
     <use style="fill:#1f77b4;stroke:#1f77b4;" x="372.909944" xlink:href="#m7192f4bbe4" y="88.41307"/>
     <use style="fill:#1f77b4;stroke:#1f77b4;" x="376.478697" xlink:href="#m7192f4bbe4" y="145.56275"/>
     <use style="fill:#1f77b4;stroke:#1f77b4;" x="380.04745" xlink:href="#m7192f4bbe4" y="205.249719"/>
     <use style="fill:#1f77b4;stroke:#1f77b4;" x="383.616203" xlink:href="#m7192f4bbe4" y="124.580561"/>
     <use style="fill:#1f77b4;stroke:#1f77b4;" x="387.184956" xlink:href="#m7192f4bbe4" y="301.687037"/>
     <use style="fill:#1f77b4;stroke:#1f77b4;" x="390.753709" xlink:href="#m7192f4bbe4" y="143.138543"/>
     <use style="fill:#1f77b4;stroke:#1f77b4;" x="394.322461" xlink:href="#m7192f4bbe4" y="224.715041"/>
     <use style="fill:#1f77b4;stroke:#1f77b4;" x="397.891214" xlink:href="#m7192f4bbe4" y="128.789574"/>
     <use style="fill:#1f77b4;stroke:#1f77b4;" x="401.459967" xlink:href="#m7192f4bbe4" y="121.909506"/>
     <use style="fill:#1f77b4;stroke:#1f77b4;" x="405.02872" xlink:href="#m7192f4bbe4" y="93.423614"/>
     <use style="fill:#1f77b4;stroke:#1f77b4;" x="408.597473" xlink:href="#m7192f4bbe4" y="292.676693"/>
     <use style="fill:#1f77b4;stroke:#1f77b4;" x="412.166226" xlink:href="#m7192f4bbe4" y="362.46729"/>
     <use style="fill:#1f77b4;stroke:#1f77b4;" x="415.734979" xlink:href="#m7192f4bbe4" y="87.394301"/>
     <use style="fill:#1f77b4;stroke:#1f77b4;" x="419.303731" xlink:href="#m7192f4bbe4" y="180.658593"/>
     <use style="fill:#1f77b4;stroke:#1f77b4;" x="422.872484" xlink:href="#m7192f4bbe4" y="95.156986"/>
     <use style="fill:#1f77b4;stroke:#1f77b4;" x="426.441237" xlink:href="#m7192f4bbe4" y="281.167603"/>
     <use style="fill:#1f77b4;stroke:#1f77b4;" x="430.00999" xlink:href="#m7192f4bbe4" y="137.019937"/>
     <use style="fill:#1f77b4;stroke:#1f77b4;" x="433.578743" xlink:href="#m7192f4bbe4" y="354.716334"/>
     <use style="fill:#1f77b4;stroke:#1f77b4;" x="437.147496" xlink:href="#m7192f4bbe4" y="358.120634"/>
     <use style="fill:#1f77b4;stroke:#1f77b4;" x="440.716249" xlink:href="#m7192f4bbe4" y="263.40887"/>
     <use style="fill:#1f77b4;stroke:#1f77b4;" x="444.285001" xlink:href="#m7192f4bbe4" y="386.278527"/>
     <use style="fill:#1f77b4;stroke:#1f77b4;" x="447.853754" xlink:href="#m7192f4bbe4" y="147.52124"/>
     <use style="fill:#1f77b4;stroke:#1f77b4;" x="451.422507" xlink:href="#m7192f4bbe4" y="238.836203"/>
     <use style="fill:#1f77b4;stroke:#1f77b4;" x="454.99126" xlink:href="#m7192f4bbe4" y="101.214217"/>
     <use style="fill:#1f77b4;stroke:#1f77b4;" x="458.560013" xlink:href="#m7192f4bbe4" y="210.452967"/>
     <use style="fill:#1f77b4;stroke:#1f77b4;" x="462.128766" xlink:href="#m7192f4bbe4" y="377.646129"/>
     <use style="fill:#1f77b4;stroke:#1f77b4;" x="465.697519" xlink:href="#m7192f4bbe4" y="219.971452"/>
     <use style="fill:#1f77b4;stroke:#1f77b4;" x="469.266271" xlink:href="#m7192f4bbe4" y="328.836562"/>
     <use style="fill:#1f77b4;stroke:#1f77b4;" x="472.835024" xlink:href="#m7192f4bbe4" y="259.680264"/>
     <use style="fill:#1f77b4;stroke:#1f77b4;" x="476.403777" xlink:href="#m7192f4bbe4" y="169.103883"/>
     <use style="fill:#1f77b4;stroke:#1f77b4;" x="479.97253" xlink:href="#m7192f4bbe4" y="253.610032"/>
     <use style="fill:#1f77b4;stroke:#1f77b4;" x="483.541283" xlink:href="#m7192f4bbe4" y="204.873386"/>
     <use style="fill:#1f77b4;stroke:#1f77b4;" x="487.110036" xlink:href="#m7192f4bbe4" y="143.92674"/>
     <use style="fill:#1f77b4;stroke:#1f77b4;" x="490.678789" xlink:href="#m7192f4bbe4" y="123.452864"/>
     <use style="fill:#1f77b4;stroke:#1f77b4;" x="494.247541" xlink:href="#m7192f4bbe4" y="183.760868"/>
     <use style="fill:#1f77b4;stroke:#1f77b4;" x="497.816294" xlink:href="#m7192f4bbe4" y="213.605257"/>
     <use style="fill:#1f77b4;stroke:#1f77b4;" x="501.385047" xlink:href="#m7192f4bbe4" y="94.123179"/>
     <use style="fill:#1f77b4;stroke:#1f77b4;" x="504.9538" xlink:href="#m7192f4bbe4" y="271.573465"/>
     <use style="fill:#1f77b4;stroke:#1f77b4;" x="508.522553" xlink:href="#m7192f4bbe4" y="315.70843"/>
     <use style="fill:#1f77b4;stroke:#1f77b4;" x="512.091306" xlink:href="#m7192f4bbe4" y="397.618221"/>
     <use style="fill:#1f77b4;stroke:#1f77b4;" x="515.660059" xlink:href="#m7192f4bbe4" y="379.847792"/>
     <use style="fill:#1f77b4;stroke:#1f77b4;" x="519.228811" xlink:href="#m7192f4bbe4" y="403.570051"/>
     <use style="fill:#1f77b4;stroke:#1f77b4;" x="522.797564" xlink:href="#m7192f4bbe4" y="422.312727"/>
     <use style="fill:#1f77b4;stroke:#1f77b4;" x="526.366317" xlink:href="#m7192f4bbe4" y="142.829376"/>
     <use style="fill:#1f77b4;stroke:#1f77b4;" x="529.93507" xlink:href="#m7192f4bbe4" y="303.464779"/>
     <use style="fill:#1f77b4;stroke:#1f77b4;" x="533.503823" xlink:href="#m7192f4bbe4" y="259.045996"/>
     <use style="fill:#1f77b4;stroke:#1f77b4;" x="537.072576" xlink:href="#m7192f4bbe4" y="104.52781"/>
     <use style="fill:#1f77b4;stroke:#1f77b4;" x="540.641329" xlink:href="#m7192f4bbe4" y="286.971088"/>
     <use style="fill:#1f77b4;stroke:#1f77b4;" x="544.210081" xlink:href="#m7192f4bbe4" y="198.777052"/>
     <use style="fill:#1f77b4;stroke:#1f77b4;" x="547.778834" xlink:href="#m7192f4bbe4" y="326.573069"/>
     <use style="fill:#1f77b4;stroke:#1f77b4;" x="551.347587" xlink:href="#m7192f4bbe4" y="103.892954"/>
     <use style="fill:#1f77b4;stroke:#1f77b4;" x="554.91634" xlink:href="#m7192f4bbe4" y="126.835823"/>
     <use style="fill:#1f77b4;stroke:#1f77b4;" x="558.485093" xlink:href="#m7192f4bbe4" y="152.741337"/>
     <use style="fill:#1f77b4;stroke:#1f77b4;" x="562.053846" xlink:href="#m7192f4bbe4" y="233.769258"/>
     <use style="fill:#1f77b4;stroke:#1f77b4;" x="565.622599" xlink:href="#m7192f4bbe4" y="343.326902"/>
     <use style="fill:#1f77b4;stroke:#1f77b4;" x="569.191351" xlink:href="#m7192f4bbe4" y="175.993526"/>
     <use style="fill:#1f77b4;stroke:#1f77b4;" x="572.760104" xlink:href="#m7192f4bbe4" y="317.901292"/>
     <use style="fill:#1f77b4;stroke:#1f77b4;" x="576.328857" xlink:href="#m7192f4bbe4" y="244.457556"/>
     <use style="fill:#1f77b4;stroke:#1f77b4;" x="579.89761" xlink:href="#m7192f4bbe4" y="183.913455"/>
     <use style="fill:#1f77b4;stroke:#1f77b4;" x="583.466363" xlink:href="#m7192f4bbe4" y="142.7027"/>
     <use style="fill:#1f77b4;stroke:#1f77b4;" x="587.035116" xlink:href="#m7192f4bbe4" y="106.376974"/>
     <use style="fill:#1f77b4;stroke:#1f77b4;" x="590.603868" xlink:href="#m7192f4bbe4" y="208.642546"/>
     <use style="fill:#1f77b4;stroke:#1f77b4;" x="594.172621" xlink:href="#m7192f4bbe4" y="79.827747"/>
     <use style="fill:#1f77b4;stroke:#1f77b4;" x="597.741374" xlink:href="#m7192f4bbe4" y="114.497692"/>
     <use style="fill:#1f77b4;stroke:#1f77b4;" x="601.310127" xlink:href="#m7192f4bbe4" y="317.289264"/>
     <use style="fill:#1f77b4;stroke:#1f77b4;" x="604.87888" xlink:href="#m7192f4bbe4" y="205.387362"/>
     <use style="fill:#1f77b4;stroke:#1f77b4;" x="608.447633" xlink:href="#m7192f4bbe4" y="275.387701"/>
     <use style="fill:#1f77b4;stroke:#1f77b4;" x="612.016386" xlink:href="#m7192f4bbe4" y="382.186629"/>
     <use style="fill:#1f77b4;stroke:#1f77b4;" x="615.585138" xlink:href="#m7192f4bbe4" y="217.658464"/>
     <use style="fill:#1f77b4;stroke:#1f77b4;" x="619.153891" xlink:href="#m7192f4bbe4" y="69.932494"/>
     <use style="fill:#1f77b4;stroke:#1f77b4;" x="622.722644" xlink:href="#m7192f4bbe4" y="26.967273"/>
     <use style="fill:#1f77b4;stroke:#1f77b4;" x="626.291397" xlink:href="#m7192f4bbe4" y="152.101202"/>
     <use style="fill:#1f77b4;stroke:#1f77b4;" x="629.86015" xlink:href="#m7192f4bbe4" y="226.12883"/>
     <use style="fill:#1f77b4;stroke:#1f77b4;" x="633.428903" xlink:href="#m7192f4bbe4" y="273.174796"/>
     <use style="fill:#1f77b4;stroke:#1f77b4;" x="636.997656" xlink:href="#m7192f4bbe4" y="301.918166"/>
     <use style="fill:#1f77b4;stroke:#1f77b4;" x="640.566408" xlink:href="#m7192f4bbe4" y="75.233206"/>
     <use style="fill:#1f77b4;stroke:#1f77b4;" x="644.135161" xlink:href="#m7192f4bbe4" y="331.093682"/>
     <use style="fill:#1f77b4;stroke:#1f77b4;" x="647.703914" xlink:href="#m7192f4bbe4" y="192.989957"/>
     <use style="fill:#1f77b4;stroke:#1f77b4;" x="651.272667" xlink:href="#m7192f4bbe4" y="144.82899"/>
     <use style="fill:#1f77b4;stroke:#1f77b4;" x="654.84142" xlink:href="#m7192f4bbe4" y="214.053807"/>
     <use style="fill:#1f77b4;stroke:#1f77b4;" x="658.410173" xlink:href="#m7192f4bbe4" y="337.785496"/>
     <use style="fill:#1f77b4;stroke:#1f77b4;" x="661.978926" xlink:href="#m7192f4bbe4" y="370.19088"/>
     <use style="fill:#1f77b4;stroke:#1f77b4;" x="665.547678" xlink:href="#m7192f4bbe4" y="210.28204"/>
     <use style="fill:#1f77b4;stroke:#1f77b4;" x="669.116431" xlink:href="#m7192f4bbe4" y="273.107249"/>
     <use style="fill:#1f77b4;stroke:#1f77b4;" x="672.685184" xlink:href="#m7192f4bbe4" y="375.978952"/>
     <use style="fill:#1f77b4;stroke:#1f77b4;" x="676.253937" xlink:href="#m7192f4bbe4" y="383.659082"/>
     <use style="fill:#1f77b4;stroke:#1f77b4;" x="679.82269" xlink:href="#m7192f4bbe4" y="73.289865"/>
     <use style="fill:#1f77b4;stroke:#1f77b4;" x="683.391443" xlink:href="#m7192f4bbe4" y="289.023987"/>
     <use style="fill:#1f77b4;stroke:#1f77b4;" x="686.960196" xlink:href="#m7192f4bbe4" y="210.810205"/>
     <use style="fill:#1f77b4;stroke:#1f77b4;" x="690.528948" xlink:href="#m7192f4bbe4" y="368.555936"/>
     <use style="fill:#1f77b4;stroke:#1f77b4;" x="694.097701" xlink:href="#m7192f4bbe4" y="388.844727"/>
     <use style="fill:#1f77b4;stroke:#1f77b4;" x="697.666454" xlink:href="#m7192f4bbe4" y="254.004639"/>
     <use style="fill:#1f77b4;stroke:#1f77b4;" x="701.235207" xlink:href="#m7192f4bbe4" y="332.227898"/>
     <use style="fill:#1f77b4;stroke:#1f77b4;" x="704.80396" xlink:href="#m7192f4bbe4" y="268.892512"/>
     <use style="fill:#1f77b4;stroke:#1f77b4;" x="708.372713" xlink:href="#m7192f4bbe4" y="340.975159"/>
     <use style="fill:#1f77b4;stroke:#1f77b4;" x="711.941466" xlink:href="#m7192f4bbe4" y="116.383884"/>
     <use style="fill:#1f77b4;stroke:#1f77b4;" x="715.510218" xlink:href="#m7192f4bbe4" y="176.026727"/>
     <use style="fill:#1f77b4;stroke:#1f77b4;" x="719.078971" xlink:href="#m7192f4bbe4" y="379.303493"/>
     <use style="fill:#1f77b4;stroke:#1f77b4;" x="722.647724" xlink:href="#m7192f4bbe4" y="387.902619"/>
     <use style="fill:#1f77b4;stroke:#1f77b4;" x="726.216477" xlink:href="#m7192f4bbe4" y="218.098649"/>
     <use style="fill:#1f77b4;stroke:#1f77b4;" x="729.78523" xlink:href="#m7192f4bbe4" y="159.697323"/>
     <use style="fill:#1f77b4;stroke:#1f77b4;" x="733.353983" xlink:href="#m7192f4bbe4" y="315.831143"/>
     <use style="fill:#1f77b4;stroke:#1f77b4;" x="736.922736" xlink:href="#m7192f4bbe4" y="90.705203"/>
     <use style="fill:#1f77b4;stroke:#1f77b4;" x="740.491488" xlink:href="#m7192f4bbe4" y="85.111077"/>
     <use style="fill:#1f77b4;stroke:#1f77b4;" x="744.060241" xlink:href="#m7192f4bbe4" y="53.56725"/>
     <use style="fill:#1f77b4;stroke:#1f77b4;" x="747.628994" xlink:href="#m7192f4bbe4" y="128.327214"/>
     <use style="fill:#1f77b4;stroke:#1f77b4;" x="751.197747" xlink:href="#m7192f4bbe4" y="124.666054"/>
     <use style="fill:#1f77b4;stroke:#1f77b4;" x="754.7665" xlink:href="#m7192f4bbe4" y="249.413753"/>
     <use style="fill:#1f77b4;stroke:#1f77b4;" x="758.335253" xlink:href="#m7192f4bbe4" y="222.752827"/>
     <use style="fill:#1f77b4;stroke:#1f77b4;" x="761.904006" xlink:href="#m7192f4bbe4" y="354.825633"/>
     <use style="fill:#1f77b4;stroke:#1f77b4;" x="765.472758" xlink:href="#m7192f4bbe4" y="210.534307"/>
     <use style="fill:#1f77b4;stroke:#1f77b4;" x="769.041511" xlink:href="#m7192f4bbe4" y="264.847798"/>
     <use style="fill:#1f77b4;stroke:#1f77b4;" x="772.610264" xlink:href="#m7192f4bbe4" y="254.524902"/>
     <use style="fill:#1f77b4;stroke:#1f77b4;" x="776.179017" xlink:href="#m7192f4bbe4" y="144.731128"/>
     <use style="fill:#1f77b4;stroke:#1f77b4;" x="779.74777" xlink:href="#m7192f4bbe4" y="373.38427"/>
     <use style="fill:#1f77b4;stroke:#1f77b4;" x="783.316523" xlink:href="#m7192f4bbe4" y="240.075043"/>
     <use style="fill:#1f77b4;stroke:#1f77b4;" x="786.885276" xlink:href="#m7192f4bbe4" y="390.220542"/>
     <use style="fill:#1f77b4;stroke:#1f77b4;" x="790.454028" xlink:href="#m7192f4bbe4" y="385.772389"/>
     <use style="fill:#1f77b4;stroke:#1f77b4;" x="794.022781" xlink:href="#m7192f4bbe4" y="135.097879"/>
     <use style="fill:#1f77b4;stroke:#1f77b4;" x="797.591534" xlink:href="#m7192f4bbe4" y="181.80217"/>
    </g>
   </g>
   <g id="line2d_30">
    <path clip-path="url(#p49905c307b)" d="M 87.409716 86.792046 
L 90.978469 88.291803 
L 94.547222 92.467167 
L 98.115974 110.236956 
L 101.684727 73.628686 
L 105.25348 89.187947 
L 108.822233 84.447304 
L 112.390986 79.347898 
L 115.959739 131.477726 
L 119.528492 78.708422 
L 123.097244 71.042602 
L 126.665997 91.17015 
L 130.23475 87.726862 
L 133.803503 107.527378 
L 137.372256 116.16891 
L 140.941009 72.94307 
L 144.509762 88.63758 
L 148.078514 88.63758 
L 151.647267 127.433499 
L 155.21602 74.448843 
L 158.784773 103.440388 
L 162.353526 85.554794 
L 165.922279 92.467167 
L 169.491032 111.244682 
L 173.059784 112.256799 
L 176.628537 86.978639 
L 180.19729 89.242049 
L 183.766043 97.523204 
L 187.334796 85.915431 
L 190.903549 88.028934 
L 194.472302 92.318735 
L 198.041054 77.988637 
L 201.609807 126.307798 
L 205.17856 108.176767 
L 208.747313 89.359285 
L 212.316066 97.353051 
L 219.453572 91.113708 
L 223.022324 98.008046 
L 226.591077 81.698697 
L 230.15983 83.924273 
L 233.728583 99.950617 
L 237.297336 92.65256 
L 240.866089 92.855133 
L 244.434842 84.586529 
L 248.003594 78.782718 
L 251.572347 88.447853 
L 255.1411 97.593898 
L 258.709853 85.384855 
L 262.278606 110.236956 
L 265.847359 88.63758 
L 269.416112 107.205655 
L 272.984864 89.37489 
L 276.553617 85.004333 
L 280.12237 166.934515 
L 283.691123 79.912021 
L 287.259876 83.696482 
L 290.828629 96.124927 
L 294.397382 90.639842 
L 297.966134 89.032343 
L 301.534887 85.060158 
L 305.10364 68.182808 
L 308.672393 81.698697 
L 312.241146 125.890483 
L 315.809899 97.411933 
L 319.378651 93.33575 
L 322.947404 83.649261 
L 326.516157 110.707125 
L 330.08491 71.11086 
L 333.653663 72.418609 
L 337.222416 86.920998 
L 340.791169 128.816262 
L 344.359921 94.192636 
L 347.928674 94.192636 
L 351.497427 93.626748 
L 355.06618 79.841985 
L 358.634933 79.204955 
L 362.203686 79.17339 
L 365.772439 113.633111 
L 369.341191 79.841985 
L 372.909944 92.65256 
L 376.478697 92.67368 
L 380.04745 83.924273 
L 383.616203 88.041344 
L 387.184956 92.855133 
L 390.753709 84.056479 
L 394.322461 92.556107 
L 397.891214 84.119573 
L 401.459967 86.32435 
L 405.02872 66.782334 
L 408.597473 159.471756 
L 412.166226 90.143384 
L 415.734979 82.18961 
L 419.303731 81.284543 
L 422.872484 88.041344 
L 426.441237 48.816423 
L 430.00999 81.187913 
L 433.578743 80.379906 
L 437.147496 106.677548 
L 440.716249 91.92816 
L 444.285001 90.796081 
L 447.853754 112.820049 
L 451.422507 90.209134 
L 454.99126 116.16891 
L 458.560013 74.513162 
L 462.128766 87.528408 
L 465.697519 85.384855 
L 469.266271 81.698697 
L 472.835024 74.815612 
L 476.403777 99.846888 
L 479.97253 122.341085 
L 483.541283 90.639842 
L 487.110036 95.679253 
L 490.678789 92.65256 
L 494.247541 98.623891 
L 497.816294 86.792046 
L 501.385047 80.703134 
L 504.9538 127.395215 
L 508.522553 62.380669 
L 512.091306 79.204955 
L 515.660059 156.606157 
L 519.228811 82.606873 
L 522.797564 94.192636 
L 526.366317 90.476818 
L 529.93507 85.503184 
L 533.503823 92.171248 
L 537.072576 63.873464 
L 540.641329 88.241081 
L 544.210081 87.101245 
L 547.778834 93.78095 
L 551.347587 79.841985 
L 554.91634 88.564987 
L 558.485093 121.777174 
L 562.053846 81.698697 
L 565.622599 87.528408 
L 569.191351 92.65256 
L 572.760104 95.595714 
L 576.328857 77.988637 
L 579.89761 82.70175 
L 583.466363 88.564987 
L 587.035116 89.778911 
L 590.603868 73.93025 
L 594.172621 87.21998 
L 597.741374 93.082296 
L 601.310127 84.447304 
L 604.87888 76.752023 
L 608.447633 81.698697 
L 612.016386 76.46347 
L 615.585138 82.778347 
L 619.153891 81.114117 
L 622.722644 90.476818 
L 626.291397 90.385602 
L 629.86015 86.792046 
L 633.428903 81.649643 
L 636.997656 149.408924 
L 640.566408 81.698697 
L 644.135161 92.556107 
L 647.703914 92.787878 
L 651.272667 89.631627 
L 654.84142 68.724011 
L 658.410173 83.649261 
L 661.978926 85.670083 
L 665.547678 143.456551 
L 669.116431 71.699422 
L 672.685184 86.456907 
L 676.253937 87.64255 
L 679.82269 102.86326 
L 683.391443 121.758821 
L 686.960196 97.781791 
L 690.528948 89.205754 
L 694.097701 93.159358 
L 697.666454 85.060158 
L 701.235207 88.802826 
L 704.80396 95.375526 
L 708.372713 82.143235 
L 711.941466 118.808403 
L 715.510218 57.620591 
L 719.078971 93.626748 
L 722.647724 96.762347 
L 726.216477 93.576129 
L 729.78523 69.118057 
L 733.353983 89.187947 
L 736.922736 97.593898 
L 740.491488 79.841985 
L 744.060241 84.172605 
L 747.628994 98.069816 
L 751.197747 90.143384 
L 754.7665 69.191559 
L 758.335253 93.082296 
L 761.904006 92.772137 
L 765.472758 100.695006 
L 769.041511 87.508782 
L 772.610264 102.044893 
L 776.179017 85.407262 
L 779.74777 102.044893 
L 783.316523 73.052197 
L 786.885276 70.592463 
L 790.454028 93.850832 
L 794.022781 84.179358 
L 797.591534 110.236956 
L 797.591534 110.236956 
" style="fill:none;stroke:#ff7f0e;stroke-linecap:round;stroke-width:1.5;"/>
    <defs>
     <path d="M 0 -3 
L -0.673542 -0.927051 
L -2.85317 -0.927051 
L -1.089814 0.354102 
L -1.763356 2.427051 
L -0 1.145898 
L 1.763356 2.427051 
L 1.089814 0.354102 
L 2.85317 -0.927051 
L 0.673542 -0.927051 
z
" id="mdf4c3cd789" style="stroke:#ff7f0e;stroke-linejoin:bevel;"/>
    </defs>
    <g clip-path="url(#p49905c307b)">
     <use style="fill:#ff7f0e;stroke:#ff7f0e;stroke-linejoin:bevel;" x="87.409716" xlink:href="#mdf4c3cd789" y="86.792046"/>
     <use style="fill:#ff7f0e;stroke:#ff7f0e;stroke-linejoin:bevel;" x="90.978469" xlink:href="#mdf4c3cd789" y="88.291803"/>
     <use style="fill:#ff7f0e;stroke:#ff7f0e;stroke-linejoin:bevel;" x="94.547222" xlink:href="#mdf4c3cd789" y="92.467167"/>
     <use style="fill:#ff7f0e;stroke:#ff7f0e;stroke-linejoin:bevel;" x="98.115974" xlink:href="#mdf4c3cd789" y="110.236956"/>
     <use style="fill:#ff7f0e;stroke:#ff7f0e;stroke-linejoin:bevel;" x="101.684727" xlink:href="#mdf4c3cd789" y="73.628686"/>
     <use style="fill:#ff7f0e;stroke:#ff7f0e;stroke-linejoin:bevel;" x="105.25348" xlink:href="#mdf4c3cd789" y="89.187947"/>
     <use style="fill:#ff7f0e;stroke:#ff7f0e;stroke-linejoin:bevel;" x="108.822233" xlink:href="#mdf4c3cd789" y="84.447304"/>
     <use style="fill:#ff7f0e;stroke:#ff7f0e;stroke-linejoin:bevel;" x="112.390986" xlink:href="#mdf4c3cd789" y="79.347898"/>
     <use style="fill:#ff7f0e;stroke:#ff7f0e;stroke-linejoin:bevel;" x="115.959739" xlink:href="#mdf4c3cd789" y="131.477726"/>
     <use style="fill:#ff7f0e;stroke:#ff7f0e;stroke-linejoin:bevel;" x="119.528492" xlink:href="#mdf4c3cd789" y="78.708422"/>
     <use style="fill:#ff7f0e;stroke:#ff7f0e;stroke-linejoin:bevel;" x="123.097244" xlink:href="#mdf4c3cd789" y="71.042602"/>
     <use style="fill:#ff7f0e;stroke:#ff7f0e;stroke-linejoin:bevel;" x="126.665997" xlink:href="#mdf4c3cd789" y="91.17015"/>
     <use style="fill:#ff7f0e;stroke:#ff7f0e;stroke-linejoin:bevel;" x="130.23475" xlink:href="#mdf4c3cd789" y="87.726862"/>
     <use style="fill:#ff7f0e;stroke:#ff7f0e;stroke-linejoin:bevel;" x="133.803503" xlink:href="#mdf4c3cd789" y="107.527378"/>
     <use style="fill:#ff7f0e;stroke:#ff7f0e;stroke-linejoin:bevel;" x="137.372256" xlink:href="#mdf4c3cd789" y="116.16891"/>
     <use style="fill:#ff7f0e;stroke:#ff7f0e;stroke-linejoin:bevel;" x="140.941009" xlink:href="#mdf4c3cd789" y="72.94307"/>
     <use style="fill:#ff7f0e;stroke:#ff7f0e;stroke-linejoin:bevel;" x="144.509762" xlink:href="#mdf4c3cd789" y="88.63758"/>
     <use style="fill:#ff7f0e;stroke:#ff7f0e;stroke-linejoin:bevel;" x="148.078514" xlink:href="#mdf4c3cd789" y="88.63758"/>
     <use style="fill:#ff7f0e;stroke:#ff7f0e;stroke-linejoin:bevel;" x="151.647267" xlink:href="#mdf4c3cd789" y="127.433499"/>
     <use style="fill:#ff7f0e;stroke:#ff7f0e;stroke-linejoin:bevel;" x="155.21602" xlink:href="#mdf4c3cd789" y="74.448843"/>
     <use style="fill:#ff7f0e;stroke:#ff7f0e;stroke-linejoin:bevel;" x="158.784773" xlink:href="#mdf4c3cd789" y="103.440388"/>
     <use style="fill:#ff7f0e;stroke:#ff7f0e;stroke-linejoin:bevel;" x="162.353526" xlink:href="#mdf4c3cd789" y="85.554794"/>
     <use style="fill:#ff7f0e;stroke:#ff7f0e;stroke-linejoin:bevel;" x="165.922279" xlink:href="#mdf4c3cd789" y="92.467167"/>
     <use style="fill:#ff7f0e;stroke:#ff7f0e;stroke-linejoin:bevel;" x="169.491032" xlink:href="#mdf4c3cd789" y="111.244682"/>
     <use style="fill:#ff7f0e;stroke:#ff7f0e;stroke-linejoin:bevel;" x="173.059784" xlink:href="#mdf4c3cd789" y="112.256799"/>
     <use style="fill:#ff7f0e;stroke:#ff7f0e;stroke-linejoin:bevel;" x="176.628537" xlink:href="#mdf4c3cd789" y="86.978639"/>
     <use style="fill:#ff7f0e;stroke:#ff7f0e;stroke-linejoin:bevel;" x="180.19729" xlink:href="#mdf4c3cd789" y="89.242049"/>
     <use style="fill:#ff7f0e;stroke:#ff7f0e;stroke-linejoin:bevel;" x="183.766043" xlink:href="#mdf4c3cd789" y="97.523204"/>
     <use style="fill:#ff7f0e;stroke:#ff7f0e;stroke-linejoin:bevel;" x="187.334796" xlink:href="#mdf4c3cd789" y="85.915431"/>
     <use style="fill:#ff7f0e;stroke:#ff7f0e;stroke-linejoin:bevel;" x="190.903549" xlink:href="#mdf4c3cd789" y="88.028934"/>
     <use style="fill:#ff7f0e;stroke:#ff7f0e;stroke-linejoin:bevel;" x="194.472302" xlink:href="#mdf4c3cd789" y="92.318735"/>
     <use style="fill:#ff7f0e;stroke:#ff7f0e;stroke-linejoin:bevel;" x="198.041054" xlink:href="#mdf4c3cd789" y="77.988637"/>
     <use style="fill:#ff7f0e;stroke:#ff7f0e;stroke-linejoin:bevel;" x="201.609807" xlink:href="#mdf4c3cd789" y="126.307798"/>
     <use style="fill:#ff7f0e;stroke:#ff7f0e;stroke-linejoin:bevel;" x="205.17856" xlink:href="#mdf4c3cd789" y="108.176767"/>
     <use style="fill:#ff7f0e;stroke:#ff7f0e;stroke-linejoin:bevel;" x="208.747313" xlink:href="#mdf4c3cd789" y="89.359285"/>
     <use style="fill:#ff7f0e;stroke:#ff7f0e;stroke-linejoin:bevel;" x="212.316066" xlink:href="#mdf4c3cd789" y="97.353051"/>
     <use style="fill:#ff7f0e;stroke:#ff7f0e;stroke-linejoin:bevel;" x="215.884819" xlink:href="#mdf4c3cd789" y="94.192636"/>
     <use style="fill:#ff7f0e;stroke:#ff7f0e;stroke-linejoin:bevel;" x="219.453572" xlink:href="#mdf4c3cd789" y="91.113708"/>
     <use style="fill:#ff7f0e;stroke:#ff7f0e;stroke-linejoin:bevel;" x="223.022324" xlink:href="#mdf4c3cd789" y="98.008046"/>
     <use style="fill:#ff7f0e;stroke:#ff7f0e;stroke-linejoin:bevel;" x="226.591077" xlink:href="#mdf4c3cd789" y="81.698697"/>
     <use style="fill:#ff7f0e;stroke:#ff7f0e;stroke-linejoin:bevel;" x="230.15983" xlink:href="#mdf4c3cd789" y="83.924273"/>
     <use style="fill:#ff7f0e;stroke:#ff7f0e;stroke-linejoin:bevel;" x="233.728583" xlink:href="#mdf4c3cd789" y="99.950617"/>
     <use style="fill:#ff7f0e;stroke:#ff7f0e;stroke-linejoin:bevel;" x="237.297336" xlink:href="#mdf4c3cd789" y="92.65256"/>
     <use style="fill:#ff7f0e;stroke:#ff7f0e;stroke-linejoin:bevel;" x="240.866089" xlink:href="#mdf4c3cd789" y="92.855133"/>
     <use style="fill:#ff7f0e;stroke:#ff7f0e;stroke-linejoin:bevel;" x="244.434842" xlink:href="#mdf4c3cd789" y="84.586529"/>
     <use style="fill:#ff7f0e;stroke:#ff7f0e;stroke-linejoin:bevel;" x="248.003594" xlink:href="#mdf4c3cd789" y="78.782718"/>
     <use style="fill:#ff7f0e;stroke:#ff7f0e;stroke-linejoin:bevel;" x="251.572347" xlink:href="#mdf4c3cd789" y="88.447853"/>
     <use style="fill:#ff7f0e;stroke:#ff7f0e;stroke-linejoin:bevel;" x="255.1411" xlink:href="#mdf4c3cd789" y="97.593898"/>
     <use style="fill:#ff7f0e;stroke:#ff7f0e;stroke-linejoin:bevel;" x="258.709853" xlink:href="#mdf4c3cd789" y="85.384855"/>
     <use style="fill:#ff7f0e;stroke:#ff7f0e;stroke-linejoin:bevel;" x="262.278606" xlink:href="#mdf4c3cd789" y="110.236956"/>
     <use style="fill:#ff7f0e;stroke:#ff7f0e;stroke-linejoin:bevel;" x="265.847359" xlink:href="#mdf4c3cd789" y="88.63758"/>
     <use style="fill:#ff7f0e;stroke:#ff7f0e;stroke-linejoin:bevel;" x="269.416112" xlink:href="#mdf4c3cd789" y="107.205655"/>
     <use style="fill:#ff7f0e;stroke:#ff7f0e;stroke-linejoin:bevel;" x="272.984864" xlink:href="#mdf4c3cd789" y="89.37489"/>
     <use style="fill:#ff7f0e;stroke:#ff7f0e;stroke-linejoin:bevel;" x="276.553617" xlink:href="#mdf4c3cd789" y="85.004333"/>
     <use style="fill:#ff7f0e;stroke:#ff7f0e;stroke-linejoin:bevel;" x="280.12237" xlink:href="#mdf4c3cd789" y="166.934515"/>
     <use style="fill:#ff7f0e;stroke:#ff7f0e;stroke-linejoin:bevel;" x="283.691123" xlink:href="#mdf4c3cd789" y="79.912021"/>
     <use style="fill:#ff7f0e;stroke:#ff7f0e;stroke-linejoin:bevel;" x="287.259876" xlink:href="#mdf4c3cd789" y="83.696482"/>
     <use style="fill:#ff7f0e;stroke:#ff7f0e;stroke-linejoin:bevel;" x="290.828629" xlink:href="#mdf4c3cd789" y="96.124927"/>
     <use style="fill:#ff7f0e;stroke:#ff7f0e;stroke-linejoin:bevel;" x="294.397382" xlink:href="#mdf4c3cd789" y="90.639842"/>
     <use style="fill:#ff7f0e;stroke:#ff7f0e;stroke-linejoin:bevel;" x="297.966134" xlink:href="#mdf4c3cd789" y="89.032343"/>
     <use style="fill:#ff7f0e;stroke:#ff7f0e;stroke-linejoin:bevel;" x="301.534887" xlink:href="#mdf4c3cd789" y="85.060158"/>
     <use style="fill:#ff7f0e;stroke:#ff7f0e;stroke-linejoin:bevel;" x="305.10364" xlink:href="#mdf4c3cd789" y="68.182808"/>
     <use style="fill:#ff7f0e;stroke:#ff7f0e;stroke-linejoin:bevel;" x="308.672393" xlink:href="#mdf4c3cd789" y="81.698697"/>
     <use style="fill:#ff7f0e;stroke:#ff7f0e;stroke-linejoin:bevel;" x="312.241146" xlink:href="#mdf4c3cd789" y="125.890483"/>
     <use style="fill:#ff7f0e;stroke:#ff7f0e;stroke-linejoin:bevel;" x="315.809899" xlink:href="#mdf4c3cd789" y="97.411933"/>
     <use style="fill:#ff7f0e;stroke:#ff7f0e;stroke-linejoin:bevel;" x="319.378651" xlink:href="#mdf4c3cd789" y="93.33575"/>
     <use style="fill:#ff7f0e;stroke:#ff7f0e;stroke-linejoin:bevel;" x="322.947404" xlink:href="#mdf4c3cd789" y="83.649261"/>
     <use style="fill:#ff7f0e;stroke:#ff7f0e;stroke-linejoin:bevel;" x="326.516157" xlink:href="#mdf4c3cd789" y="110.707125"/>
     <use style="fill:#ff7f0e;stroke:#ff7f0e;stroke-linejoin:bevel;" x="330.08491" xlink:href="#mdf4c3cd789" y="71.11086"/>
     <use style="fill:#ff7f0e;stroke:#ff7f0e;stroke-linejoin:bevel;" x="333.653663" xlink:href="#mdf4c3cd789" y="72.418609"/>
     <use style="fill:#ff7f0e;stroke:#ff7f0e;stroke-linejoin:bevel;" x="337.222416" xlink:href="#mdf4c3cd789" y="86.920998"/>
     <use style="fill:#ff7f0e;stroke:#ff7f0e;stroke-linejoin:bevel;" x="340.791169" xlink:href="#mdf4c3cd789" y="128.816262"/>
     <use style="fill:#ff7f0e;stroke:#ff7f0e;stroke-linejoin:bevel;" x="344.359921" xlink:href="#mdf4c3cd789" y="94.192636"/>
     <use style="fill:#ff7f0e;stroke:#ff7f0e;stroke-linejoin:bevel;" x="347.928674" xlink:href="#mdf4c3cd789" y="94.192636"/>
     <use style="fill:#ff7f0e;stroke:#ff7f0e;stroke-linejoin:bevel;" x="351.497427" xlink:href="#mdf4c3cd789" y="93.626748"/>
     <use style="fill:#ff7f0e;stroke:#ff7f0e;stroke-linejoin:bevel;" x="355.06618" xlink:href="#mdf4c3cd789" y="79.841985"/>
     <use style="fill:#ff7f0e;stroke:#ff7f0e;stroke-linejoin:bevel;" x="358.634933" xlink:href="#mdf4c3cd789" y="79.204955"/>
     <use style="fill:#ff7f0e;stroke:#ff7f0e;stroke-linejoin:bevel;" x="362.203686" xlink:href="#mdf4c3cd789" y="79.17339"/>
     <use style="fill:#ff7f0e;stroke:#ff7f0e;stroke-linejoin:bevel;" x="365.772439" xlink:href="#mdf4c3cd789" y="113.633111"/>
     <use style="fill:#ff7f0e;stroke:#ff7f0e;stroke-linejoin:bevel;" x="369.341191" xlink:href="#mdf4c3cd789" y="79.841985"/>
     <use style="fill:#ff7f0e;stroke:#ff7f0e;stroke-linejoin:bevel;" x="372.909944" xlink:href="#mdf4c3cd789" y="92.65256"/>
     <use style="fill:#ff7f0e;stroke:#ff7f0e;stroke-linejoin:bevel;" x="376.478697" xlink:href="#mdf4c3cd789" y="92.67368"/>
     <use style="fill:#ff7f0e;stroke:#ff7f0e;stroke-linejoin:bevel;" x="380.04745" xlink:href="#mdf4c3cd789" y="83.924273"/>
     <use style="fill:#ff7f0e;stroke:#ff7f0e;stroke-linejoin:bevel;" x="383.616203" xlink:href="#mdf4c3cd789" y="88.041344"/>
     <use style="fill:#ff7f0e;stroke:#ff7f0e;stroke-linejoin:bevel;" x="387.184956" xlink:href="#mdf4c3cd789" y="92.855133"/>
     <use style="fill:#ff7f0e;stroke:#ff7f0e;stroke-linejoin:bevel;" x="390.753709" xlink:href="#mdf4c3cd789" y="84.056479"/>
     <use style="fill:#ff7f0e;stroke:#ff7f0e;stroke-linejoin:bevel;" x="394.322461" xlink:href="#mdf4c3cd789" y="92.556107"/>
     <use style="fill:#ff7f0e;stroke:#ff7f0e;stroke-linejoin:bevel;" x="397.891214" xlink:href="#mdf4c3cd789" y="84.119573"/>
     <use style="fill:#ff7f0e;stroke:#ff7f0e;stroke-linejoin:bevel;" x="401.459967" xlink:href="#mdf4c3cd789" y="86.32435"/>
     <use style="fill:#ff7f0e;stroke:#ff7f0e;stroke-linejoin:bevel;" x="405.02872" xlink:href="#mdf4c3cd789" y="66.782334"/>
     <use style="fill:#ff7f0e;stroke:#ff7f0e;stroke-linejoin:bevel;" x="408.597473" xlink:href="#mdf4c3cd789" y="159.471756"/>
     <use style="fill:#ff7f0e;stroke:#ff7f0e;stroke-linejoin:bevel;" x="412.166226" xlink:href="#mdf4c3cd789" y="90.143384"/>
     <use style="fill:#ff7f0e;stroke:#ff7f0e;stroke-linejoin:bevel;" x="415.734979" xlink:href="#mdf4c3cd789" y="82.18961"/>
     <use style="fill:#ff7f0e;stroke:#ff7f0e;stroke-linejoin:bevel;" x="419.303731" xlink:href="#mdf4c3cd789" y="81.284543"/>
     <use style="fill:#ff7f0e;stroke:#ff7f0e;stroke-linejoin:bevel;" x="422.872484" xlink:href="#mdf4c3cd789" y="88.041344"/>
     <use style="fill:#ff7f0e;stroke:#ff7f0e;stroke-linejoin:bevel;" x="426.441237" xlink:href="#mdf4c3cd789" y="48.816423"/>
     <use style="fill:#ff7f0e;stroke:#ff7f0e;stroke-linejoin:bevel;" x="430.00999" xlink:href="#mdf4c3cd789" y="81.187913"/>
     <use style="fill:#ff7f0e;stroke:#ff7f0e;stroke-linejoin:bevel;" x="433.578743" xlink:href="#mdf4c3cd789" y="80.379906"/>
     <use style="fill:#ff7f0e;stroke:#ff7f0e;stroke-linejoin:bevel;" x="437.147496" xlink:href="#mdf4c3cd789" y="106.677548"/>
     <use style="fill:#ff7f0e;stroke:#ff7f0e;stroke-linejoin:bevel;" x="440.716249" xlink:href="#mdf4c3cd789" y="91.92816"/>
     <use style="fill:#ff7f0e;stroke:#ff7f0e;stroke-linejoin:bevel;" x="444.285001" xlink:href="#mdf4c3cd789" y="90.796081"/>
     <use style="fill:#ff7f0e;stroke:#ff7f0e;stroke-linejoin:bevel;" x="447.853754" xlink:href="#mdf4c3cd789" y="112.820049"/>
     <use style="fill:#ff7f0e;stroke:#ff7f0e;stroke-linejoin:bevel;" x="451.422507" xlink:href="#mdf4c3cd789" y="90.209134"/>
     <use style="fill:#ff7f0e;stroke:#ff7f0e;stroke-linejoin:bevel;" x="454.99126" xlink:href="#mdf4c3cd789" y="116.16891"/>
     <use style="fill:#ff7f0e;stroke:#ff7f0e;stroke-linejoin:bevel;" x="458.560013" xlink:href="#mdf4c3cd789" y="74.513162"/>
     <use style="fill:#ff7f0e;stroke:#ff7f0e;stroke-linejoin:bevel;" x="462.128766" xlink:href="#mdf4c3cd789" y="87.528408"/>
     <use style="fill:#ff7f0e;stroke:#ff7f0e;stroke-linejoin:bevel;" x="465.697519" xlink:href="#mdf4c3cd789" y="85.384855"/>
     <use style="fill:#ff7f0e;stroke:#ff7f0e;stroke-linejoin:bevel;" x="469.266271" xlink:href="#mdf4c3cd789" y="81.698697"/>
     <use style="fill:#ff7f0e;stroke:#ff7f0e;stroke-linejoin:bevel;" x="472.835024" xlink:href="#mdf4c3cd789" y="74.815612"/>
     <use style="fill:#ff7f0e;stroke:#ff7f0e;stroke-linejoin:bevel;" x="476.403777" xlink:href="#mdf4c3cd789" y="99.846888"/>
     <use style="fill:#ff7f0e;stroke:#ff7f0e;stroke-linejoin:bevel;" x="479.97253" xlink:href="#mdf4c3cd789" y="122.341085"/>
     <use style="fill:#ff7f0e;stroke:#ff7f0e;stroke-linejoin:bevel;" x="483.541283" xlink:href="#mdf4c3cd789" y="90.639842"/>
     <use style="fill:#ff7f0e;stroke:#ff7f0e;stroke-linejoin:bevel;" x="487.110036" xlink:href="#mdf4c3cd789" y="95.679253"/>
     <use style="fill:#ff7f0e;stroke:#ff7f0e;stroke-linejoin:bevel;" x="490.678789" xlink:href="#mdf4c3cd789" y="92.65256"/>
     <use style="fill:#ff7f0e;stroke:#ff7f0e;stroke-linejoin:bevel;" x="494.247541" xlink:href="#mdf4c3cd789" y="98.623891"/>
     <use style="fill:#ff7f0e;stroke:#ff7f0e;stroke-linejoin:bevel;" x="497.816294" xlink:href="#mdf4c3cd789" y="86.792046"/>
     <use style="fill:#ff7f0e;stroke:#ff7f0e;stroke-linejoin:bevel;" x="501.385047" xlink:href="#mdf4c3cd789" y="80.703134"/>
     <use style="fill:#ff7f0e;stroke:#ff7f0e;stroke-linejoin:bevel;" x="504.9538" xlink:href="#mdf4c3cd789" y="127.395215"/>
     <use style="fill:#ff7f0e;stroke:#ff7f0e;stroke-linejoin:bevel;" x="508.522553" xlink:href="#mdf4c3cd789" y="62.380669"/>
     <use style="fill:#ff7f0e;stroke:#ff7f0e;stroke-linejoin:bevel;" x="512.091306" xlink:href="#mdf4c3cd789" y="79.204955"/>
     <use style="fill:#ff7f0e;stroke:#ff7f0e;stroke-linejoin:bevel;" x="515.660059" xlink:href="#mdf4c3cd789" y="156.606157"/>
     <use style="fill:#ff7f0e;stroke:#ff7f0e;stroke-linejoin:bevel;" x="519.228811" xlink:href="#mdf4c3cd789" y="82.606873"/>
     <use style="fill:#ff7f0e;stroke:#ff7f0e;stroke-linejoin:bevel;" x="522.797564" xlink:href="#mdf4c3cd789" y="94.192636"/>
     <use style="fill:#ff7f0e;stroke:#ff7f0e;stroke-linejoin:bevel;" x="526.366317" xlink:href="#mdf4c3cd789" y="90.476818"/>
     <use style="fill:#ff7f0e;stroke:#ff7f0e;stroke-linejoin:bevel;" x="529.93507" xlink:href="#mdf4c3cd789" y="85.503184"/>
     <use style="fill:#ff7f0e;stroke:#ff7f0e;stroke-linejoin:bevel;" x="533.503823" xlink:href="#mdf4c3cd789" y="92.171248"/>
     <use style="fill:#ff7f0e;stroke:#ff7f0e;stroke-linejoin:bevel;" x="537.072576" xlink:href="#mdf4c3cd789" y="63.873464"/>
     <use style="fill:#ff7f0e;stroke:#ff7f0e;stroke-linejoin:bevel;" x="540.641329" xlink:href="#mdf4c3cd789" y="88.241081"/>
     <use style="fill:#ff7f0e;stroke:#ff7f0e;stroke-linejoin:bevel;" x="544.210081" xlink:href="#mdf4c3cd789" y="87.101245"/>
     <use style="fill:#ff7f0e;stroke:#ff7f0e;stroke-linejoin:bevel;" x="547.778834" xlink:href="#mdf4c3cd789" y="93.78095"/>
     <use style="fill:#ff7f0e;stroke:#ff7f0e;stroke-linejoin:bevel;" x="551.347587" xlink:href="#mdf4c3cd789" y="79.841985"/>
     <use style="fill:#ff7f0e;stroke:#ff7f0e;stroke-linejoin:bevel;" x="554.91634" xlink:href="#mdf4c3cd789" y="88.564987"/>
     <use style="fill:#ff7f0e;stroke:#ff7f0e;stroke-linejoin:bevel;" x="558.485093" xlink:href="#mdf4c3cd789" y="121.777174"/>
     <use style="fill:#ff7f0e;stroke:#ff7f0e;stroke-linejoin:bevel;" x="562.053846" xlink:href="#mdf4c3cd789" y="81.698697"/>
     <use style="fill:#ff7f0e;stroke:#ff7f0e;stroke-linejoin:bevel;" x="565.622599" xlink:href="#mdf4c3cd789" y="87.528408"/>
     <use style="fill:#ff7f0e;stroke:#ff7f0e;stroke-linejoin:bevel;" x="569.191351" xlink:href="#mdf4c3cd789" y="92.65256"/>
     <use style="fill:#ff7f0e;stroke:#ff7f0e;stroke-linejoin:bevel;" x="572.760104" xlink:href="#mdf4c3cd789" y="95.595714"/>
     <use style="fill:#ff7f0e;stroke:#ff7f0e;stroke-linejoin:bevel;" x="576.328857" xlink:href="#mdf4c3cd789" y="77.988637"/>
     <use style="fill:#ff7f0e;stroke:#ff7f0e;stroke-linejoin:bevel;" x="579.89761" xlink:href="#mdf4c3cd789" y="82.70175"/>
     <use style="fill:#ff7f0e;stroke:#ff7f0e;stroke-linejoin:bevel;" x="583.466363" xlink:href="#mdf4c3cd789" y="88.564987"/>
     <use style="fill:#ff7f0e;stroke:#ff7f0e;stroke-linejoin:bevel;" x="587.035116" xlink:href="#mdf4c3cd789" y="89.778911"/>
     <use style="fill:#ff7f0e;stroke:#ff7f0e;stroke-linejoin:bevel;" x="590.603868" xlink:href="#mdf4c3cd789" y="73.93025"/>
     <use style="fill:#ff7f0e;stroke:#ff7f0e;stroke-linejoin:bevel;" x="594.172621" xlink:href="#mdf4c3cd789" y="87.21998"/>
     <use style="fill:#ff7f0e;stroke:#ff7f0e;stroke-linejoin:bevel;" x="597.741374" xlink:href="#mdf4c3cd789" y="93.082296"/>
     <use style="fill:#ff7f0e;stroke:#ff7f0e;stroke-linejoin:bevel;" x="601.310127" xlink:href="#mdf4c3cd789" y="84.447304"/>
     <use style="fill:#ff7f0e;stroke:#ff7f0e;stroke-linejoin:bevel;" x="604.87888" xlink:href="#mdf4c3cd789" y="76.752023"/>
     <use style="fill:#ff7f0e;stroke:#ff7f0e;stroke-linejoin:bevel;" x="608.447633" xlink:href="#mdf4c3cd789" y="81.698697"/>
     <use style="fill:#ff7f0e;stroke:#ff7f0e;stroke-linejoin:bevel;" x="612.016386" xlink:href="#mdf4c3cd789" y="76.46347"/>
     <use style="fill:#ff7f0e;stroke:#ff7f0e;stroke-linejoin:bevel;" x="615.585138" xlink:href="#mdf4c3cd789" y="82.778347"/>
     <use style="fill:#ff7f0e;stroke:#ff7f0e;stroke-linejoin:bevel;" x="619.153891" xlink:href="#mdf4c3cd789" y="81.114117"/>
     <use style="fill:#ff7f0e;stroke:#ff7f0e;stroke-linejoin:bevel;" x="622.722644" xlink:href="#mdf4c3cd789" y="90.476818"/>
     <use style="fill:#ff7f0e;stroke:#ff7f0e;stroke-linejoin:bevel;" x="626.291397" xlink:href="#mdf4c3cd789" y="90.385602"/>
     <use style="fill:#ff7f0e;stroke:#ff7f0e;stroke-linejoin:bevel;" x="629.86015" xlink:href="#mdf4c3cd789" y="86.792046"/>
     <use style="fill:#ff7f0e;stroke:#ff7f0e;stroke-linejoin:bevel;" x="633.428903" xlink:href="#mdf4c3cd789" y="81.649643"/>
     <use style="fill:#ff7f0e;stroke:#ff7f0e;stroke-linejoin:bevel;" x="636.997656" xlink:href="#mdf4c3cd789" y="149.408924"/>
     <use style="fill:#ff7f0e;stroke:#ff7f0e;stroke-linejoin:bevel;" x="640.566408" xlink:href="#mdf4c3cd789" y="81.698697"/>
     <use style="fill:#ff7f0e;stroke:#ff7f0e;stroke-linejoin:bevel;" x="644.135161" xlink:href="#mdf4c3cd789" y="92.556107"/>
     <use style="fill:#ff7f0e;stroke:#ff7f0e;stroke-linejoin:bevel;" x="647.703914" xlink:href="#mdf4c3cd789" y="92.787878"/>
     <use style="fill:#ff7f0e;stroke:#ff7f0e;stroke-linejoin:bevel;" x="651.272667" xlink:href="#mdf4c3cd789" y="89.631627"/>
     <use style="fill:#ff7f0e;stroke:#ff7f0e;stroke-linejoin:bevel;" x="654.84142" xlink:href="#mdf4c3cd789" y="68.724011"/>
     <use style="fill:#ff7f0e;stroke:#ff7f0e;stroke-linejoin:bevel;" x="658.410173" xlink:href="#mdf4c3cd789" y="83.649261"/>
     <use style="fill:#ff7f0e;stroke:#ff7f0e;stroke-linejoin:bevel;" x="661.978926" xlink:href="#mdf4c3cd789" y="85.670083"/>
     <use style="fill:#ff7f0e;stroke:#ff7f0e;stroke-linejoin:bevel;" x="665.547678" xlink:href="#mdf4c3cd789" y="143.456551"/>
     <use style="fill:#ff7f0e;stroke:#ff7f0e;stroke-linejoin:bevel;" x="669.116431" xlink:href="#mdf4c3cd789" y="71.699422"/>
     <use style="fill:#ff7f0e;stroke:#ff7f0e;stroke-linejoin:bevel;" x="672.685184" xlink:href="#mdf4c3cd789" y="86.456907"/>
     <use style="fill:#ff7f0e;stroke:#ff7f0e;stroke-linejoin:bevel;" x="676.253937" xlink:href="#mdf4c3cd789" y="87.64255"/>
     <use style="fill:#ff7f0e;stroke:#ff7f0e;stroke-linejoin:bevel;" x="679.82269" xlink:href="#mdf4c3cd789" y="102.86326"/>
     <use style="fill:#ff7f0e;stroke:#ff7f0e;stroke-linejoin:bevel;" x="683.391443" xlink:href="#mdf4c3cd789" y="121.758821"/>
     <use style="fill:#ff7f0e;stroke:#ff7f0e;stroke-linejoin:bevel;" x="686.960196" xlink:href="#mdf4c3cd789" y="97.781791"/>
     <use style="fill:#ff7f0e;stroke:#ff7f0e;stroke-linejoin:bevel;" x="690.528948" xlink:href="#mdf4c3cd789" y="89.205754"/>
     <use style="fill:#ff7f0e;stroke:#ff7f0e;stroke-linejoin:bevel;" x="694.097701" xlink:href="#mdf4c3cd789" y="93.159358"/>
     <use style="fill:#ff7f0e;stroke:#ff7f0e;stroke-linejoin:bevel;" x="697.666454" xlink:href="#mdf4c3cd789" y="85.060158"/>
     <use style="fill:#ff7f0e;stroke:#ff7f0e;stroke-linejoin:bevel;" x="701.235207" xlink:href="#mdf4c3cd789" y="88.802826"/>
     <use style="fill:#ff7f0e;stroke:#ff7f0e;stroke-linejoin:bevel;" x="704.80396" xlink:href="#mdf4c3cd789" y="95.375526"/>
     <use style="fill:#ff7f0e;stroke:#ff7f0e;stroke-linejoin:bevel;" x="708.372713" xlink:href="#mdf4c3cd789" y="82.143235"/>
     <use style="fill:#ff7f0e;stroke:#ff7f0e;stroke-linejoin:bevel;" x="711.941466" xlink:href="#mdf4c3cd789" y="118.808403"/>
     <use style="fill:#ff7f0e;stroke:#ff7f0e;stroke-linejoin:bevel;" x="715.510218" xlink:href="#mdf4c3cd789" y="57.620591"/>
     <use style="fill:#ff7f0e;stroke:#ff7f0e;stroke-linejoin:bevel;" x="719.078971" xlink:href="#mdf4c3cd789" y="93.626748"/>
     <use style="fill:#ff7f0e;stroke:#ff7f0e;stroke-linejoin:bevel;" x="722.647724" xlink:href="#mdf4c3cd789" y="96.762347"/>
     <use style="fill:#ff7f0e;stroke:#ff7f0e;stroke-linejoin:bevel;" x="726.216477" xlink:href="#mdf4c3cd789" y="93.576129"/>
     <use style="fill:#ff7f0e;stroke:#ff7f0e;stroke-linejoin:bevel;" x="729.78523" xlink:href="#mdf4c3cd789" y="69.118057"/>
     <use style="fill:#ff7f0e;stroke:#ff7f0e;stroke-linejoin:bevel;" x="733.353983" xlink:href="#mdf4c3cd789" y="89.187947"/>
     <use style="fill:#ff7f0e;stroke:#ff7f0e;stroke-linejoin:bevel;" x="736.922736" xlink:href="#mdf4c3cd789" y="97.593898"/>
     <use style="fill:#ff7f0e;stroke:#ff7f0e;stroke-linejoin:bevel;" x="740.491488" xlink:href="#mdf4c3cd789" y="79.841985"/>
     <use style="fill:#ff7f0e;stroke:#ff7f0e;stroke-linejoin:bevel;" x="744.060241" xlink:href="#mdf4c3cd789" y="84.172605"/>
     <use style="fill:#ff7f0e;stroke:#ff7f0e;stroke-linejoin:bevel;" x="747.628994" xlink:href="#mdf4c3cd789" y="98.069816"/>
     <use style="fill:#ff7f0e;stroke:#ff7f0e;stroke-linejoin:bevel;" x="751.197747" xlink:href="#mdf4c3cd789" y="90.143384"/>
     <use style="fill:#ff7f0e;stroke:#ff7f0e;stroke-linejoin:bevel;" x="754.7665" xlink:href="#mdf4c3cd789" y="69.191559"/>
     <use style="fill:#ff7f0e;stroke:#ff7f0e;stroke-linejoin:bevel;" x="758.335253" xlink:href="#mdf4c3cd789" y="93.082296"/>
     <use style="fill:#ff7f0e;stroke:#ff7f0e;stroke-linejoin:bevel;" x="761.904006" xlink:href="#mdf4c3cd789" y="92.772137"/>
     <use style="fill:#ff7f0e;stroke:#ff7f0e;stroke-linejoin:bevel;" x="765.472758" xlink:href="#mdf4c3cd789" y="100.695006"/>
     <use style="fill:#ff7f0e;stroke:#ff7f0e;stroke-linejoin:bevel;" x="769.041511" xlink:href="#mdf4c3cd789" y="87.508782"/>
     <use style="fill:#ff7f0e;stroke:#ff7f0e;stroke-linejoin:bevel;" x="772.610264" xlink:href="#mdf4c3cd789" y="102.044893"/>
     <use style="fill:#ff7f0e;stroke:#ff7f0e;stroke-linejoin:bevel;" x="776.179017" xlink:href="#mdf4c3cd789" y="85.407262"/>
     <use style="fill:#ff7f0e;stroke:#ff7f0e;stroke-linejoin:bevel;" x="779.74777" xlink:href="#mdf4c3cd789" y="102.044893"/>
     <use style="fill:#ff7f0e;stroke:#ff7f0e;stroke-linejoin:bevel;" x="783.316523" xlink:href="#mdf4c3cd789" y="73.052197"/>
     <use style="fill:#ff7f0e;stroke:#ff7f0e;stroke-linejoin:bevel;" x="786.885276" xlink:href="#mdf4c3cd789" y="70.592463"/>
     <use style="fill:#ff7f0e;stroke:#ff7f0e;stroke-linejoin:bevel;" x="790.454028" xlink:href="#mdf4c3cd789" y="93.850832"/>
     <use style="fill:#ff7f0e;stroke:#ff7f0e;stroke-linejoin:bevel;" x="794.022781" xlink:href="#mdf4c3cd789" y="84.179358"/>
     <use style="fill:#ff7f0e;stroke:#ff7f0e;stroke-linejoin:bevel;" x="797.591534" xlink:href="#mdf4c3cd789" y="110.236956"/>
    </g>
   </g>
   <g id="patch_3">
    <path d="M 51.900625 442.08 
L 51.900625 7.2 
" style="fill:none;stroke:#262626;stroke-linecap:square;stroke-linejoin:miter;stroke-width:1.25;"/>
   </g>
   <g id="patch_4">
    <path d="M 833.100625 442.08 
L 833.100625 7.2 
" style="fill:none;stroke:#262626;stroke-linecap:square;stroke-linejoin:miter;stroke-width:1.25;"/>
   </g>
   <g id="patch_5">
    <path d="M 51.900625 442.08 
L 833.100625 442.08 
" style="fill:none;stroke:#262626;stroke-linecap:square;stroke-linejoin:miter;stroke-width:1.25;"/>
   </g>
   <g id="patch_6">
    <path d="M 51.900625 7.2 
L 833.100625 7.2 
" style="fill:none;stroke:#262626;stroke-linecap:square;stroke-linejoin:miter;stroke-width:1.25;"/>
   </g>
   <g id="legend_1">
    <g id="line2d_31">
     <path d="M 377.281563 390.540937 
L 413.281563 390.540937 
" style="fill:none;stroke:#1f77b4;stroke-linecap:round;stroke-width:1.5;"/>
    </g>
    <g id="line2d_32">
     <g>
      <use style="fill:#1f77b4;stroke:#1f77b4;" x="395.281563" xlink:href="#m7192f4bbe4" y="390.540937"/>
     </g>
    </g>
    <g id="text_17">
     <!-- Data -->
     <g style="fill:#262626;" transform="translate(427.681562 396.840937)scale(0.18 -0.18)">
      <defs>
       <path d="M 7.71875 0 
L 7.71875 71.578125 
L 32.375 71.578125 
Q 40.71875 71.578125 45.125 70.5625 
Q 51.265625 69.140625 55.609375 65.4375 
Q 61.28125 60.640625 64.078125 53.1875 
Q 66.890625 45.75 66.890625 36.1875 
Q 66.890625 28.03125 64.984375 21.734375 
Q 63.09375 15.4375 60.109375 11.296875 
Q 57.125 7.171875 53.578125 4.796875 
Q 50.046875 2.4375 45.046875 1.21875 
Q 40.046875 0 33.546875 0 
z
M 17.1875 8.453125 
L 32.46875 8.453125 
Q 39.546875 8.453125 43.578125 9.765625 
Q 47.609375 11.078125 50 13.484375 
Q 53.375 16.84375 55.25 22.53125 
Q 57.125 28.21875 57.125 36.328125 
Q 57.125 47.5625 53.4375 53.59375 
Q 49.75 59.625 44.484375 61.671875 
Q 40.671875 63.140625 32.234375 63.140625 
L 17.1875 63.140625 
z
" id="ArialMT-68"/>
       <path d="M 40.4375 6.390625 
Q 35.546875 2.25 31.03125 0.53125 
Q 26.515625 -1.171875 21.34375 -1.171875 
Q 12.796875 -1.171875 8.203125 3 
Q 3.609375 7.171875 3.609375 13.671875 
Q 3.609375 17.484375 5.34375 20.625 
Q 7.078125 23.78125 9.890625 25.6875 
Q 12.703125 27.59375 16.21875 28.5625 
Q 18.796875 29.25 24.03125 29.890625 
Q 34.671875 31.15625 39.703125 32.90625 
Q 39.75 34.71875 39.75 35.203125 
Q 39.75 40.578125 37.25 42.78125 
Q 33.890625 45.75 27.25 45.75 
Q 21.046875 45.75 18.09375 43.578125 
Q 15.140625 41.40625 13.71875 35.890625 
L 5.125 37.0625 
Q 6.296875 42.578125 8.984375 45.96875 
Q 11.671875 49.359375 16.75 51.1875 
Q 21.828125 53.03125 28.515625 53.03125 
Q 35.15625 53.03125 39.296875 51.46875 
Q 43.453125 49.90625 45.40625 47.53125 
Q 47.359375 45.171875 48.140625 41.546875 
Q 48.578125 39.3125 48.578125 33.453125 
L 48.578125 21.734375 
Q 48.578125 9.46875 49.140625 6.21875 
Q 49.703125 2.984375 51.375 0 
L 42.1875 0 
Q 40.828125 2.734375 40.4375 6.390625 
z
M 39.703125 26.03125 
Q 34.90625 24.078125 25.34375 22.703125 
Q 19.921875 21.921875 17.671875 20.9375 
Q 15.4375 19.96875 14.203125 18.09375 
Q 12.984375 16.21875 12.984375 13.921875 
Q 12.984375 10.40625 15.640625 8.0625 
Q 18.3125 5.71875 23.4375 5.71875 
Q 28.515625 5.71875 32.46875 7.9375 
Q 36.421875 10.15625 38.28125 14.015625 
Q 39.703125 17 39.703125 22.796875 
z
" id="ArialMT-97"/>
       <path d="M 25.78125 7.859375 
L 27.046875 0.09375 
Q 23.34375 -0.6875 20.40625 -0.6875 
Q 15.625 -0.6875 12.984375 0.828125 
Q 10.359375 2.34375 9.28125 4.8125 
Q 8.203125 7.28125 8.203125 15.1875 
L 8.203125 45.015625 
L 1.765625 45.015625 
L 1.765625 51.859375 
L 8.203125 51.859375 
L 8.203125 64.703125 
L 16.9375 69.96875 
L 16.9375 51.859375 
L 25.78125 51.859375 
L 25.78125 45.015625 
L 16.9375 45.015625 
L 16.9375 14.703125 
Q 16.9375 10.9375 17.40625 9.859375 
Q 17.875 8.796875 18.921875 8.15625 
Q 19.96875 7.515625 21.921875 7.515625 
Q 23.390625 7.515625 25.78125 7.859375 
z
" id="ArialMT-116"/>
      </defs>
      <use xlink:href="#ArialMT-68"/>
      <use x="72.216797" xlink:href="#ArialMT-97"/>
      <use x="127.832031" xlink:href="#ArialMT-116"/>
      <use x="155.615234" xlink:href="#ArialMT-97"/>
     </g>
    </g>
    <g id="line2d_33">
     <path d="M 377.281563 416.0025 
L 413.281563 416.0025 
" style="fill:none;stroke:#ff7f0e;stroke-linecap:round;stroke-width:1.5;"/>
    </g>
    <g id="line2d_34">
     <g>
      <use style="fill:#ff7f0e;stroke:#ff7f0e;stroke-linejoin:bevel;" x="395.281563" xlink:href="#mdf4c3cd789" y="416.0025"/>
     </g>
    </g>
    <g id="text_18">
     <!-- Prediction -->
     <g style="fill:#262626;" transform="translate(427.681562 422.3025)scale(0.18 -0.18)">
      <defs>
       <path d="M 7.71875 0 
L 7.71875 71.578125 
L 34.71875 71.578125 
Q 41.84375 71.578125 45.609375 70.90625 
Q 50.875 70.015625 54.4375 67.546875 
Q 58.015625 65.09375 60.1875 60.640625 
Q 62.359375 56.203125 62.359375 50.875 
Q 62.359375 41.75 56.546875 35.421875 
Q 50.734375 29.109375 35.546875 29.109375 
L 17.1875 29.109375 
L 17.1875 0 
z
M 17.1875 37.546875 
L 35.6875 37.546875 
Q 44.875 37.546875 48.734375 40.96875 
Q 52.59375 44.390625 52.59375 50.59375 
Q 52.59375 55.078125 50.3125 58.265625 
Q 48.046875 61.46875 44.34375 62.5 
Q 41.9375 63.140625 35.5 63.140625 
L 17.1875 63.140625 
z
" id="ArialMT-80"/>
       <path d="M 6.5 0 
L 6.5 51.859375 
L 14.40625 51.859375 
L 14.40625 44 
Q 17.4375 49.515625 20 51.265625 
Q 22.5625 53.03125 25.640625 53.03125 
Q 30.078125 53.03125 34.671875 50.203125 
L 31.640625 42.046875 
Q 28.421875 43.953125 25.203125 43.953125 
Q 22.3125 43.953125 20.015625 42.21875 
Q 17.71875 40.484375 16.75 37.40625 
Q 15.28125 32.71875 15.28125 27.15625 
L 15.28125 0 
z
" id="ArialMT-114"/>
       <path d="M 42.09375 16.703125 
L 51.171875 15.578125 
Q 49.03125 7.625 43.21875 3.21875 
Q 37.40625 -1.171875 28.375 -1.171875 
Q 17 -1.171875 10.328125 5.828125 
Q 3.65625 12.84375 3.65625 25.484375 
Q 3.65625 38.578125 10.390625 45.796875 
Q 17.140625 53.03125 27.875 53.03125 
Q 38.28125 53.03125 44.875 45.953125 
Q 51.46875 38.875 51.46875 26.03125 
Q 51.46875 25.25 51.421875 23.6875 
L 12.75 23.6875 
Q 13.234375 15.140625 17.578125 10.59375 
Q 21.921875 6.0625 28.421875 6.0625 
Q 33.25 6.0625 36.671875 8.59375 
Q 40.09375 11.140625 42.09375 16.703125 
z
M 13.234375 30.90625 
L 42.1875 30.90625 
Q 41.609375 37.453125 38.875 40.71875 
Q 34.671875 45.796875 27.984375 45.796875 
Q 21.921875 45.796875 17.796875 41.75 
Q 13.671875 37.703125 13.234375 30.90625 
z
" id="ArialMT-101"/>
       <path d="M 40.234375 0 
L 40.234375 6.546875 
Q 35.296875 -1.171875 25.734375 -1.171875 
Q 19.53125 -1.171875 14.328125 2.25 
Q 9.125 5.671875 6.265625 11.796875 
Q 3.421875 17.921875 3.421875 25.875 
Q 3.421875 33.640625 6 39.96875 
Q 8.59375 46.296875 13.765625 49.65625 
Q 18.953125 53.03125 25.34375 53.03125 
Q 30.03125 53.03125 33.6875 51.046875 
Q 37.359375 49.078125 39.65625 45.90625 
L 39.65625 71.578125 
L 48.390625 71.578125 
L 48.390625 0 
z
M 12.453125 25.875 
Q 12.453125 15.921875 16.640625 10.984375 
Q 20.84375 6.0625 26.5625 6.0625 
Q 32.328125 6.0625 36.34375 10.765625 
Q 40.375 15.484375 40.375 25.140625 
Q 40.375 35.796875 36.265625 40.765625 
Q 32.171875 45.75 26.171875 45.75 
Q 20.3125 45.75 16.375 40.96875 
Q 12.453125 36.1875 12.453125 25.875 
z
" id="ArialMT-100"/>
       <path d="M 6.640625 61.46875 
L 6.640625 71.578125 
L 15.4375 71.578125 
L 15.4375 61.46875 
z
M 6.640625 0 
L 6.640625 51.859375 
L 15.4375 51.859375 
L 15.4375 0 
z
" id="ArialMT-105"/>
       <path d="M 40.4375 19 
L 49.078125 17.875 
Q 47.65625 8.9375 41.8125 3.875 
Q 35.984375 -1.171875 27.484375 -1.171875 
Q 16.84375 -1.171875 10.375 5.78125 
Q 3.90625 12.75 3.90625 25.734375 
Q 3.90625 34.125 6.6875 40.421875 
Q 9.46875 46.734375 15.15625 49.875 
Q 20.84375 53.03125 27.546875 53.03125 
Q 35.984375 53.03125 41.359375 48.75 
Q 46.734375 44.484375 48.25 36.625 
L 39.703125 35.296875 
Q 38.484375 40.53125 35.375 43.15625 
Q 32.28125 45.796875 27.875 45.796875 
Q 21.234375 45.796875 17.078125 41.03125 
Q 12.9375 36.28125 12.9375 25.984375 
Q 12.9375 15.53125 16.9375 10.796875 
Q 20.953125 6.0625 27.390625 6.0625 
Q 32.5625 6.0625 36.03125 9.234375 
Q 39.5 12.40625 40.4375 19 
z
" id="ArialMT-99"/>
       <path d="M 3.328125 25.921875 
Q 3.328125 40.328125 11.328125 47.265625 
Q 18.015625 53.03125 27.640625 53.03125 
Q 38.328125 53.03125 45.109375 46.015625 
Q 51.90625 39.015625 51.90625 26.65625 
Q 51.90625 16.65625 48.90625 10.90625 
Q 45.90625 5.171875 40.15625 2 
Q 34.421875 -1.171875 27.640625 -1.171875 
Q 16.75 -1.171875 10.03125 5.8125 
Q 3.328125 12.796875 3.328125 25.921875 
z
M 12.359375 25.921875 
Q 12.359375 15.96875 16.703125 11.015625 
Q 21.046875 6.0625 27.640625 6.0625 
Q 34.1875 6.0625 38.53125 11.03125 
Q 42.875 16.015625 42.875 26.21875 
Q 42.875 35.84375 38.5 40.796875 
Q 34.125 45.75 27.640625 45.75 
Q 21.046875 45.75 16.703125 40.8125 
Q 12.359375 35.890625 12.359375 25.921875 
z
" id="ArialMT-111"/>
       <path d="M 6.59375 0 
L 6.59375 51.859375 
L 14.5 51.859375 
L 14.5 44.484375 
Q 20.21875 53.03125 31 53.03125 
Q 35.6875 53.03125 39.625 51.34375 
Q 43.5625 49.65625 45.515625 46.921875 
Q 47.46875 44.1875 48.25 40.4375 
Q 48.734375 37.984375 48.734375 31.890625 
L 48.734375 0 
L 39.9375 0 
L 39.9375 31.546875 
Q 39.9375 36.921875 38.90625 39.578125 
Q 37.890625 42.234375 35.28125 43.8125 
Q 32.671875 45.40625 29.15625 45.40625 
Q 23.53125 45.40625 19.453125 41.84375 
Q 15.375 38.28125 15.375 28.328125 
L 15.375 0 
z
" id="ArialMT-110"/>
      </defs>
      <use xlink:href="#ArialMT-80"/>
      <use x="66.699219" xlink:href="#ArialMT-114"/>
      <use x="100" xlink:href="#ArialMT-101"/>
      <use x="155.615234" xlink:href="#ArialMT-100"/>
      <use x="211.230469" xlink:href="#ArialMT-105"/>
      <use x="233.447266" xlink:href="#ArialMT-99"/>
      <use x="283.447266" xlink:href="#ArialMT-116"/>
      <use x="311.230469" xlink:href="#ArialMT-105"/>
      <use x="333.447266" xlink:href="#ArialMT-111"/>
      <use x="389.0625" xlink:href="#ArialMT-110"/>
     </g>
    </g>
   </g>
  </g>
 </g>
 <defs>
  <clipPath id="p49905c307b">
   <rect height="434.88" width="781.2" x="51.900625" y="7.2"/>
  </clipPath>
 </defs>
</svg>
