<?xml version="1.0" encoding="utf-8" standalone="no"?>
<!DOCTYPE svg PUBLIC "-//W3C//DTD SVG 1.1//EN"
  "http://www.w3.org/Graphics/SVG/1.1/DTD/svg11.dtd">
<!-- Created with matplotlib (https://matplotlib.org/) -->
<svg height="568.944375pt" version="1.1" viewBox="0 0 712.116328 568.944375" width="712.116328pt" xmlns="http://www.w3.org/2000/svg" xmlns:xlink="http://www.w3.org/1999/xlink">
 <metadata>
  <rdf:RDF xmlns:cc="http://creativecommons.org/ns#" xmlns:dc="http://purl.org/dc/elements/1.1/" xmlns:rdf="http://www.w3.org/1999/02/22-rdf-syntax-ns#">
   <cc:Work>
    <dc:type rdf:resource="http://purl.org/dc/dcmitype/StillImage"/>
    <dc:date>2021-03-08T21:56:37.946638</dc:date>
    <dc:format>image/svg+xml</dc:format>
    <dc:creator>
     <cc:Agent>
      <dc:title>Matplotlib v3.3.3, https://matplotlib.org/</dc:title>
     </cc:Agent>
    </dc:creator>
   </cc:Work>
  </rdf:RDF>
 </metadata>
 <defs>
  <style type="text/css">*{stroke-linecap:butt;stroke-linejoin:round;}</style>
 </defs>
 <g id="figure_1">
  <g id="patch_1">
   <path d="M 0 568.944375 
L 712.116328 568.944375 
L 712.116328 0 
L 0 0 
z
" style="fill:#ffffff;"/>
  </g>
  <g id="axes_1">
   <g id="patch_2">
    <path d="M 63.089688 533.984062 
L 356.823275 533.984062 
L 356.823275 304.934062 
L 63.089688 304.934062 
z
" style="fill:#ffffff;"/>
   </g>
   <g id="matplotlib.axis_1">
    <g id="xtick_1">
     <g id="line2d_1"/>
     <g id="text_1">
      <!-- 0 -->
      <g style="fill:#262626;" transform="translate(73.660745 544.641875)scale(0.1 -0.1)">
       <defs>
        <path d="M 4.15625 35.296875 
Q 4.15625 48 6.765625 55.734375 
Q 9.375 63.484375 14.515625 67.671875 
Q 19.671875 71.875 27.484375 71.875 
Q 33.25 71.875 37.59375 69.546875 
Q 41.9375 67.234375 44.765625 62.859375 
Q 47.609375 58.5 49.21875 52.21875 
Q 50.828125 45.953125 50.828125 35.296875 
Q 50.828125 22.703125 48.234375 14.96875 
Q 45.65625 7.234375 40.5 3 
Q 35.359375 -1.21875 27.484375 -1.21875 
Q 17.140625 -1.21875 11.234375 6.203125 
Q 4.15625 15.140625 4.15625 35.296875 
z
M 13.1875 35.296875 
Q 13.1875 17.671875 17.3125 11.828125 
Q 21.4375 6 27.484375 6 
Q 33.546875 6 37.671875 11.859375 
Q 41.796875 17.71875 41.796875 35.296875 
Q 41.796875 52.984375 37.671875 58.78125 
Q 33.546875 64.59375 27.390625 64.59375 
Q 21.34375 64.59375 17.71875 59.46875 
Q 13.1875 52.9375 13.1875 35.296875 
z
" id="ArialMT-48"/>
       </defs>
       <use xlink:href="#ArialMT-48"/>
      </g>
     </g>
    </g>
    <g id="xtick_2">
     <g id="line2d_2"/>
     <g id="text_2">
      <!-- 20 -->
      <g style="fill:#262626;" transform="translate(124.825839 544.641875)scale(0.1 -0.1)">
       <defs>
        <path d="M 50.34375 8.453125 
L 50.34375 0 
L 3.03125 0 
Q 2.9375 3.171875 4.046875 6.109375 
Q 5.859375 10.9375 9.828125 15.625 
Q 13.8125 20.3125 21.34375 26.46875 
Q 33.015625 36.03125 37.109375 41.625 
Q 41.21875 47.21875 41.21875 52.203125 
Q 41.21875 57.421875 37.46875 61 
Q 33.734375 64.59375 27.734375 64.59375 
Q 21.390625 64.59375 17.578125 60.78125 
Q 13.765625 56.984375 13.71875 50.25 
L 4.6875 51.171875 
Q 5.609375 61.28125 11.65625 66.578125 
Q 17.71875 71.875 27.9375 71.875 
Q 38.234375 71.875 44.234375 66.15625 
Q 50.25 60.453125 50.25 52 
Q 50.25 47.703125 48.484375 43.546875 
Q 46.734375 39.40625 42.65625 34.8125 
Q 38.578125 30.21875 29.109375 22.21875 
Q 21.1875 15.578125 18.9375 13.203125 
Q 16.703125 10.84375 15.234375 8.453125 
z
" id="ArialMT-50"/>
       </defs>
       <use xlink:href="#ArialMT-50"/>
       <use x="55.615234" xlink:href="#ArialMT-48"/>
      </g>
     </g>
    </g>
    <g id="xtick_3">
     <g id="line2d_3"/>
     <g id="text_3">
      <!-- 40 -->
      <g style="fill:#262626;" transform="translate(178.771401 544.641875)scale(0.1 -0.1)">
       <defs>
        <path d="M 32.328125 0 
L 32.328125 17.140625 
L 1.265625 17.140625 
L 1.265625 25.203125 
L 33.9375 71.578125 
L 41.109375 71.578125 
L 41.109375 25.203125 
L 50.78125 25.203125 
L 50.78125 17.140625 
L 41.109375 17.140625 
L 41.109375 0 
z
M 32.328125 25.203125 
L 32.328125 57.46875 
L 9.90625 25.203125 
z
" id="ArialMT-52"/>
       </defs>
       <use xlink:href="#ArialMT-52"/>
       <use x="55.615234" xlink:href="#ArialMT-48"/>
      </g>
     </g>
    </g>
    <g id="xtick_4">
     <g id="line2d_4"/>
     <g id="text_4">
      <!-- 60 -->
      <g style="fill:#262626;" transform="translate(232.716964 544.641875)scale(0.1 -0.1)">
       <defs>
        <path d="M 49.75 54.046875 
L 41.015625 53.375 
Q 39.84375 58.546875 37.703125 60.890625 
Q 34.125 64.65625 28.90625 64.65625 
Q 24.703125 64.65625 21.53125 62.3125 
Q 17.390625 59.28125 14.984375 53.46875 
Q 12.59375 47.65625 12.5 36.921875 
Q 15.671875 41.75 20.265625 44.09375 
Q 24.859375 46.4375 29.890625 46.4375 
Q 38.671875 46.4375 44.84375 39.96875 
Q 51.03125 33.5 51.03125 23.25 
Q 51.03125 16.5 48.125 10.71875 
Q 45.21875 4.9375 40.140625 1.859375 
Q 35.0625 -1.21875 28.609375 -1.21875 
Q 17.625 -1.21875 10.6875 6.859375 
Q 3.765625 14.9375 3.765625 33.5 
Q 3.765625 54.25 11.421875 63.671875 
Q 18.109375 71.875 29.4375 71.875 
Q 37.890625 71.875 43.28125 67.140625 
Q 48.6875 62.40625 49.75 54.046875 
z
M 13.875 23.1875 
Q 13.875 18.65625 15.796875 14.5 
Q 17.71875 10.359375 21.1875 8.171875 
Q 24.65625 6 28.46875 6 
Q 34.03125 6 38.03125 10.484375 
Q 42.046875 14.984375 42.046875 22.703125 
Q 42.046875 30.125 38.078125 34.390625 
Q 34.125 38.671875 28.125 38.671875 
Q 22.171875 38.671875 18.015625 34.390625 
Q 13.875 30.125 13.875 23.1875 
z
" id="ArialMT-54"/>
       </defs>
       <use xlink:href="#ArialMT-54"/>
       <use x="55.615234" xlink:href="#ArialMT-48"/>
      </g>
     </g>
    </g>
    <g id="xtick_5">
     <g id="line2d_5"/>
     <g id="text_5">
      <!-- 80 -->
      <g style="fill:#262626;" transform="translate(286.662526 544.641875)scale(0.1 -0.1)">
       <defs>
        <path d="M 17.671875 38.8125 
Q 12.203125 40.828125 9.5625 44.53125 
Q 6.9375 48.25 6.9375 53.421875 
Q 6.9375 61.234375 12.546875 66.546875 
Q 18.171875 71.875 27.484375 71.875 
Q 36.859375 71.875 42.578125 66.421875 
Q 48.296875 60.984375 48.296875 53.171875 
Q 48.296875 48.1875 45.671875 44.5 
Q 43.0625 40.828125 37.75 38.8125 
Q 44.34375 36.671875 47.78125 31.875 
Q 51.21875 27.09375 51.21875 20.453125 
Q 51.21875 11.28125 44.71875 5.03125 
Q 38.234375 -1.21875 27.640625 -1.21875 
Q 17.046875 -1.21875 10.546875 5.046875 
Q 4.046875 11.328125 4.046875 20.703125 
Q 4.046875 27.6875 7.59375 32.390625 
Q 11.140625 37.109375 17.671875 38.8125 
z
M 15.921875 53.71875 
Q 15.921875 48.640625 19.1875 45.40625 
Q 22.46875 42.1875 27.6875 42.1875 
Q 32.765625 42.1875 36.015625 45.375 
Q 39.265625 48.578125 39.265625 53.21875 
Q 39.265625 58.0625 35.90625 61.359375 
Q 32.5625 64.65625 27.59375 64.65625 
Q 22.5625 64.65625 19.234375 61.421875 
Q 15.921875 58.203125 15.921875 53.71875 
z
M 13.09375 20.65625 
Q 13.09375 16.890625 14.875 13.375 
Q 16.65625 9.859375 20.171875 7.921875 
Q 23.6875 6 27.734375 6 
Q 34.03125 6 38.125 10.046875 
Q 42.234375 14.109375 42.234375 20.359375 
Q 42.234375 26.703125 38.015625 30.859375 
Q 33.796875 35.015625 27.4375 35.015625 
Q 21.234375 35.015625 17.15625 30.90625 
Q 13.09375 26.8125 13.09375 20.65625 
z
" id="ArialMT-56"/>
       </defs>
       <use xlink:href="#ArialMT-56"/>
       <use x="55.615234" xlink:href="#ArialMT-48"/>
      </g>
     </g>
    </g>
    <g id="xtick_6">
     <g id="line2d_6"/>
     <g id="text_6">
      <!-- 100 -->
      <g style="fill:#262626;" transform="translate(337.82762 544.641875)scale(0.1 -0.1)">
       <defs>
        <path d="M 37.25 0 
L 28.46875 0 
L 28.46875 56 
Q 25.296875 52.984375 20.140625 49.953125 
Q 14.984375 46.921875 10.890625 45.40625 
L 10.890625 53.90625 
Q 18.265625 57.375 23.78125 62.296875 
Q 29.296875 67.234375 31.59375 71.875 
L 37.25 71.875 
z
" id="ArialMT-49"/>
       </defs>
       <use xlink:href="#ArialMT-49"/>
       <use x="55.615234" xlink:href="#ArialMT-48"/>
       <use x="111.230469" xlink:href="#ArialMT-48"/>
      </g>
     </g>
    </g>
    <g id="text_7">
     <!-- Lag -->
     <g style="fill:#262626;" transform="translate(199.946794 559.21875)scale(0.12 -0.12)">
      <defs>
       <path d="M 7.328125 0 
L 7.328125 71.578125 
L 16.796875 71.578125 
L 16.796875 8.453125 
L 52.046875 8.453125 
L 52.046875 0 
z
" id="ArialMT-76"/>
       <path d="M 40.4375 6.390625 
Q 35.546875 2.25 31.03125 0.53125 
Q 26.515625 -1.171875 21.34375 -1.171875 
Q 12.796875 -1.171875 8.203125 3 
Q 3.609375 7.171875 3.609375 13.671875 
Q 3.609375 17.484375 5.34375 20.625 
Q 7.078125 23.78125 9.890625 25.6875 
Q 12.703125 27.59375 16.21875 28.5625 
Q 18.796875 29.25 24.03125 29.890625 
Q 34.671875 31.15625 39.703125 32.90625 
Q 39.75 34.71875 39.75 35.203125 
Q 39.75 40.578125 37.25 42.78125 
Q 33.890625 45.75 27.25 45.75 
Q 21.046875 45.75 18.09375 43.578125 
Q 15.140625 41.40625 13.71875 35.890625 
L 5.125 37.0625 
Q 6.296875 42.578125 8.984375 45.96875 
Q 11.671875 49.359375 16.75 51.1875 
Q 21.828125 53.03125 28.515625 53.03125 
Q 35.15625 53.03125 39.296875 51.46875 
Q 43.453125 49.90625 45.40625 47.53125 
Q 47.359375 45.171875 48.140625 41.546875 
Q 48.578125 39.3125 48.578125 33.453125 
L 48.578125 21.734375 
Q 48.578125 9.46875 49.140625 6.21875 
Q 49.703125 2.984375 51.375 0 
L 42.1875 0 
Q 40.828125 2.734375 40.4375 6.390625 
z
M 39.703125 26.03125 
Q 34.90625 24.078125 25.34375 22.703125 
Q 19.921875 21.921875 17.671875 20.9375 
Q 15.4375 19.96875 14.203125 18.09375 
Q 12.984375 16.21875 12.984375 13.921875 
Q 12.984375 10.40625 15.640625 8.0625 
Q 18.3125 5.71875 23.4375 5.71875 
Q 28.515625 5.71875 32.46875 7.9375 
Q 36.421875 10.15625 38.28125 14.015625 
Q 39.703125 17 39.703125 22.796875 
z
" id="ArialMT-97"/>
       <path d="M 4.984375 -4.296875 
L 13.53125 -5.5625 
Q 14.0625 -9.515625 16.5 -11.328125 
Q 19.78125 -13.765625 25.4375 -13.765625 
Q 31.546875 -13.765625 34.859375 -11.328125 
Q 38.1875 -8.890625 39.359375 -4.5 
Q 40.046875 -1.8125 39.984375 6.78125 
Q 34.234375 0 25.640625 0 
Q 14.9375 0 9.078125 7.71875 
Q 3.21875 15.4375 3.21875 26.21875 
Q 3.21875 33.640625 5.90625 39.90625 
Q 8.59375 46.1875 13.6875 49.609375 
Q 18.796875 53.03125 25.6875 53.03125 
Q 34.859375 53.03125 40.828125 45.609375 
L 40.828125 51.859375 
L 48.921875 51.859375 
L 48.921875 7.03125 
Q 48.921875 -5.078125 46.453125 -10.125 
Q 44 -15.1875 38.640625 -18.109375 
Q 33.296875 -21.046875 25.484375 -21.046875 
Q 16.21875 -21.046875 10.5 -16.875 
Q 4.78125 -12.703125 4.984375 -4.296875 
z
M 12.25 26.859375 
Q 12.25 16.65625 16.296875 11.96875 
Q 20.359375 7.28125 26.46875 7.28125 
Q 32.515625 7.28125 36.609375 11.9375 
Q 40.71875 16.609375 40.71875 26.5625 
Q 40.71875 36.078125 36.5 40.90625 
Q 32.28125 45.75 26.3125 45.75 
Q 20.453125 45.75 16.34375 40.984375 
Q 12.25 36.234375 12.25 26.859375 
z
" id="ArialMT-103"/>
      </defs>
      <use xlink:href="#ArialMT-76"/>
      <use x="55.615234" xlink:href="#ArialMT-97"/>
      <use x="111.230469" xlink:href="#ArialMT-103"/>
     </g>
    </g>
   </g>
   <g id="matplotlib.axis_2">
    <g id="ytick_1">
     <g id="line2d_7"/>
     <g id="text_8">
      <!-- −1.00 -->
      <g style="fill:#262626;" transform="translate(34.288125 537.562969)scale(0.1 -0.1)">
       <defs>
        <path d="M 52.828125 31.203125 
L 5.5625 31.203125 
L 5.5625 39.40625 
L 52.828125 39.40625 
z
" id="ArialMT-8722"/>
        <path d="M 9.078125 0 
L 9.078125 10.015625 
L 19.09375 10.015625 
L 19.09375 0 
z
" id="ArialMT-46"/>
       </defs>
       <use xlink:href="#ArialMT-8722"/>
       <use x="58.398438" xlink:href="#ArialMT-49"/>
       <use x="114.013672" xlink:href="#ArialMT-46"/>
       <use x="141.796875" xlink:href="#ArialMT-48"/>
       <use x="197.412109" xlink:href="#ArialMT-48"/>
      </g>
     </g>
    </g>
    <g id="ytick_2">
     <g id="line2d_8"/>
     <g id="text_9">
      <!-- −0.75 -->
      <g style="fill:#262626;" transform="translate(34.288125 508.931719)scale(0.1 -0.1)">
       <defs>
        <path d="M 4.734375 62.203125 
L 4.734375 70.65625 
L 51.078125 70.65625 
L 51.078125 63.8125 
Q 44.234375 56.546875 37.515625 44.484375 
Q 30.8125 32.421875 27.15625 19.671875 
Q 24.515625 10.6875 23.78125 0 
L 14.75 0 
Q 14.890625 8.453125 18.0625 20.40625 
Q 21.234375 32.375 27.171875 43.484375 
Q 33.109375 54.59375 39.796875 62.203125 
z
" id="ArialMT-55"/>
        <path d="M 4.15625 18.75 
L 13.375 19.53125 
Q 14.40625 12.796875 18.140625 9.390625 
Q 21.875 6 27.15625 6 
Q 33.5 6 37.890625 10.78125 
Q 42.28125 15.578125 42.28125 23.484375 
Q 42.28125 31 38.0625 35.34375 
Q 33.84375 39.703125 27 39.703125 
Q 22.75 39.703125 19.328125 37.765625 
Q 15.921875 35.84375 13.96875 32.765625 
L 5.71875 33.84375 
L 12.640625 70.609375 
L 48.25 70.609375 
L 48.25 62.203125 
L 19.671875 62.203125 
L 15.828125 42.96875 
Q 22.265625 47.46875 29.34375 47.46875 
Q 38.71875 47.46875 45.15625 40.96875 
Q 51.609375 34.46875 51.609375 24.265625 
Q 51.609375 14.546875 45.953125 7.46875 
Q 39.0625 -1.21875 27.15625 -1.21875 
Q 17.390625 -1.21875 11.203125 4.25 
Q 5.03125 9.71875 4.15625 18.75 
z
" id="ArialMT-53"/>
       </defs>
       <use xlink:href="#ArialMT-8722"/>
       <use x="58.398438" xlink:href="#ArialMT-48"/>
       <use x="114.013672" xlink:href="#ArialMT-46"/>
       <use x="141.796875" xlink:href="#ArialMT-55"/>
       <use x="197.412109" xlink:href="#ArialMT-53"/>
      </g>
     </g>
    </g>
    <g id="ytick_3">
     <g id="line2d_9"/>
     <g id="text_10">
      <!-- −0.50 -->
      <g style="fill:#262626;" transform="translate(34.288125 480.300469)scale(0.1 -0.1)">
       <use xlink:href="#ArialMT-8722"/>
       <use x="58.398438" xlink:href="#ArialMT-48"/>
       <use x="114.013672" xlink:href="#ArialMT-46"/>
       <use x="141.796875" xlink:href="#ArialMT-53"/>
       <use x="197.412109" xlink:href="#ArialMT-48"/>
      </g>
     </g>
    </g>
    <g id="ytick_4">
     <g id="line2d_10"/>
     <g id="text_11">
      <!-- −0.25 -->
      <g style="fill:#262626;" transform="translate(34.288125 451.669219)scale(0.1 -0.1)">
       <use xlink:href="#ArialMT-8722"/>
       <use x="58.398438" xlink:href="#ArialMT-48"/>
       <use x="114.013672" xlink:href="#ArialMT-46"/>
       <use x="141.796875" xlink:href="#ArialMT-50"/>
       <use x="197.412109" xlink:href="#ArialMT-53"/>
      </g>
     </g>
    </g>
    <g id="ytick_5">
     <g id="line2d_11"/>
     <g id="text_12">
      <!-- 0.00 -->
      <g style="fill:#262626;" transform="translate(40.12875 423.037969)scale(0.1 -0.1)">
       <use xlink:href="#ArialMT-48"/>
       <use x="55.615234" xlink:href="#ArialMT-46"/>
       <use x="83.398438" xlink:href="#ArialMT-48"/>
       <use x="139.013672" xlink:href="#ArialMT-48"/>
      </g>
     </g>
    </g>
    <g id="ytick_6">
     <g id="line2d_12"/>
     <g id="text_13">
      <!-- 0.25 -->
      <g style="fill:#262626;" transform="translate(40.12875 394.406719)scale(0.1 -0.1)">
       <use xlink:href="#ArialMT-48"/>
       <use x="55.615234" xlink:href="#ArialMT-46"/>
       <use x="83.398438" xlink:href="#ArialMT-50"/>
       <use x="139.013672" xlink:href="#ArialMT-53"/>
      </g>
     </g>
    </g>
    <g id="ytick_7">
     <g id="line2d_13"/>
     <g id="text_14">
      <!-- 0.50 -->
      <g style="fill:#262626;" transform="translate(40.12875 365.775469)scale(0.1 -0.1)">
       <use xlink:href="#ArialMT-48"/>
       <use x="55.615234" xlink:href="#ArialMT-46"/>
       <use x="83.398438" xlink:href="#ArialMT-53"/>
       <use x="139.013672" xlink:href="#ArialMT-48"/>
      </g>
     </g>
    </g>
    <g id="ytick_8">
     <g id="line2d_14"/>
     <g id="text_15">
      <!-- 0.75 -->
      <g style="fill:#262626;" transform="translate(40.12875 337.144219)scale(0.1 -0.1)">
       <use xlink:href="#ArialMT-48"/>
       <use x="55.615234" xlink:href="#ArialMT-46"/>
       <use x="83.398438" xlink:href="#ArialMT-55"/>
       <use x="139.013672" xlink:href="#ArialMT-53"/>
      </g>
     </g>
    </g>
    <g id="ytick_9">
     <g id="line2d_15"/>
     <g id="text_16">
      <!-- 1.00 -->
      <g style="fill:#262626;" transform="translate(40.12875 308.512969)scale(0.1 -0.1)">
       <use xlink:href="#ArialMT-49"/>
       <use x="55.615234" xlink:href="#ArialMT-46"/>
       <use x="83.398438" xlink:href="#ArialMT-48"/>
       <use x="139.013672" xlink:href="#ArialMT-48"/>
      </g>
     </g>
    </g>
    <g id="text_17">
     <!-- Cross Correlation: ee, ex -->
     <g style="fill:#262626;" transform="translate(27.903125 485.815312)rotate(-90)scale(0.12 -0.12)">
      <defs>
       <path d="M 58.796875 25.09375 
L 68.265625 22.703125 
Q 65.28125 11.03125 57.546875 4.90625 
Q 49.8125 -1.21875 38.625 -1.21875 
Q 27.046875 -1.21875 19.796875 3.484375 
Q 12.546875 8.203125 8.765625 17.140625 
Q 4.984375 26.078125 4.984375 36.328125 
Q 4.984375 47.515625 9.25 55.828125 
Q 13.53125 64.15625 21.40625 68.46875 
Q 29.296875 72.796875 38.765625 72.796875 
Q 49.515625 72.796875 56.828125 67.328125 
Q 64.15625 61.859375 67.046875 51.953125 
L 57.71875 49.75 
Q 55.21875 57.5625 50.484375 61.125 
Q 45.75 64.703125 38.578125 64.703125 
Q 30.328125 64.703125 24.78125 60.734375 
Q 19.234375 56.78125 16.984375 50.109375 
Q 14.75 43.453125 14.75 36.375 
Q 14.75 27.25 17.40625 20.4375 
Q 20.0625 13.625 25.671875 10.25 
Q 31.296875 6.890625 37.84375 6.890625 
Q 45.796875 6.890625 51.3125 11.46875 
Q 56.84375 16.0625 58.796875 25.09375 
z
" id="ArialMT-67"/>
       <path d="M 6.5 0 
L 6.5 51.859375 
L 14.40625 51.859375 
L 14.40625 44 
Q 17.4375 49.515625 20 51.265625 
Q 22.5625 53.03125 25.640625 53.03125 
Q 30.078125 53.03125 34.671875 50.203125 
L 31.640625 42.046875 
Q 28.421875 43.953125 25.203125 43.953125 
Q 22.3125 43.953125 20.015625 42.21875 
Q 17.71875 40.484375 16.75 37.40625 
Q 15.28125 32.71875 15.28125 27.15625 
L 15.28125 0 
z
" id="ArialMT-114"/>
       <path d="M 3.328125 25.921875 
Q 3.328125 40.328125 11.328125 47.265625 
Q 18.015625 53.03125 27.640625 53.03125 
Q 38.328125 53.03125 45.109375 46.015625 
Q 51.90625 39.015625 51.90625 26.65625 
Q 51.90625 16.65625 48.90625 10.90625 
Q 45.90625 5.171875 40.15625 2 
Q 34.421875 -1.171875 27.640625 -1.171875 
Q 16.75 -1.171875 10.03125 5.8125 
Q 3.328125 12.796875 3.328125 25.921875 
z
M 12.359375 25.921875 
Q 12.359375 15.96875 16.703125 11.015625 
Q 21.046875 6.0625 27.640625 6.0625 
Q 34.1875 6.0625 38.53125 11.03125 
Q 42.875 16.015625 42.875 26.21875 
Q 42.875 35.84375 38.5 40.796875 
Q 34.125 45.75 27.640625 45.75 
Q 21.046875 45.75 16.703125 40.8125 
Q 12.359375 35.890625 12.359375 25.921875 
z
" id="ArialMT-111"/>
       <path d="M 3.078125 15.484375 
L 11.765625 16.84375 
Q 12.5 11.625 15.84375 8.84375 
Q 19.1875 6.0625 25.203125 6.0625 
Q 31.25 6.0625 34.171875 8.515625 
Q 37.109375 10.984375 37.109375 14.3125 
Q 37.109375 17.28125 34.515625 19 
Q 32.71875 20.171875 25.53125 21.96875 
Q 15.875 24.421875 12.140625 26.203125 
Q 8.40625 27.984375 6.46875 31.125 
Q 4.546875 34.28125 4.546875 38.09375 
Q 4.546875 41.546875 6.125 44.5 
Q 7.71875 47.46875 10.453125 49.421875 
Q 12.5 50.921875 16.03125 51.96875 
Q 19.578125 53.03125 23.640625 53.03125 
Q 29.734375 53.03125 34.34375 51.265625 
Q 38.96875 49.515625 41.15625 46.5 
Q 43.359375 43.5 44.1875 38.484375 
L 35.59375 37.3125 
Q 35.015625 41.3125 32.203125 43.546875 
Q 29.390625 45.796875 24.265625 45.796875 
Q 18.21875 45.796875 15.625 43.796875 
Q 13.03125 41.796875 13.03125 39.109375 
Q 13.03125 37.40625 14.109375 36.03125 
Q 15.1875 34.625 17.484375 33.6875 
Q 18.796875 33.203125 25.25 31.453125 
Q 34.578125 28.953125 38.25 27.359375 
Q 41.9375 25.78125 44.03125 22.75 
Q 46.140625 19.734375 46.140625 15.234375 
Q 46.140625 10.84375 43.578125 6.953125 
Q 41.015625 3.078125 36.171875 0.953125 
Q 31.34375 -1.171875 25.25 -1.171875 
Q 15.140625 -1.171875 9.84375 3.03125 
Q 4.546875 7.234375 3.078125 15.484375 
z
" id="ArialMT-115"/>
       <path id="ArialMT-32"/>
       <path d="M 42.09375 16.703125 
L 51.171875 15.578125 
Q 49.03125 7.625 43.21875 3.21875 
Q 37.40625 -1.171875 28.375 -1.171875 
Q 17 -1.171875 10.328125 5.828125 
Q 3.65625 12.84375 3.65625 25.484375 
Q 3.65625 38.578125 10.390625 45.796875 
Q 17.140625 53.03125 27.875 53.03125 
Q 38.28125 53.03125 44.875 45.953125 
Q 51.46875 38.875 51.46875 26.03125 
Q 51.46875 25.25 51.421875 23.6875 
L 12.75 23.6875 
Q 13.234375 15.140625 17.578125 10.59375 
Q 21.921875 6.0625 28.421875 6.0625 
Q 33.25 6.0625 36.671875 8.59375 
Q 40.09375 11.140625 42.09375 16.703125 
z
M 13.234375 30.90625 
L 42.1875 30.90625 
Q 41.609375 37.453125 38.875 40.71875 
Q 34.671875 45.796875 27.984375 45.796875 
Q 21.921875 45.796875 17.796875 41.75 
Q 13.671875 37.703125 13.234375 30.90625 
z
" id="ArialMT-101"/>
       <path d="M 6.390625 0 
L 6.390625 71.578125 
L 15.1875 71.578125 
L 15.1875 0 
z
" id="ArialMT-108"/>
       <path d="M 25.78125 7.859375 
L 27.046875 0.09375 
Q 23.34375 -0.6875 20.40625 -0.6875 
Q 15.625 -0.6875 12.984375 0.828125 
Q 10.359375 2.34375 9.28125 4.8125 
Q 8.203125 7.28125 8.203125 15.1875 
L 8.203125 45.015625 
L 1.765625 45.015625 
L 1.765625 51.859375 
L 8.203125 51.859375 
L 8.203125 64.703125 
L 16.9375 69.96875 
L 16.9375 51.859375 
L 25.78125 51.859375 
L 25.78125 45.015625 
L 16.9375 45.015625 
L 16.9375 14.703125 
Q 16.9375 10.9375 17.40625 9.859375 
Q 17.875 8.796875 18.921875 8.15625 
Q 19.96875 7.515625 21.921875 7.515625 
Q 23.390625 7.515625 25.78125 7.859375 
z
" id="ArialMT-116"/>
       <path d="M 6.640625 61.46875 
L 6.640625 71.578125 
L 15.4375 71.578125 
L 15.4375 61.46875 
z
M 6.640625 0 
L 6.640625 51.859375 
L 15.4375 51.859375 
L 15.4375 0 
z
" id="ArialMT-105"/>
       <path d="M 6.59375 0 
L 6.59375 51.859375 
L 14.5 51.859375 
L 14.5 44.484375 
Q 20.21875 53.03125 31 53.03125 
Q 35.6875 53.03125 39.625 51.34375 
Q 43.5625 49.65625 45.515625 46.921875 
Q 47.46875 44.1875 48.25 40.4375 
Q 48.734375 37.984375 48.734375 31.890625 
L 48.734375 0 
L 39.9375 0 
L 39.9375 31.546875 
Q 39.9375 36.921875 38.90625 39.578125 
Q 37.890625 42.234375 35.28125 43.8125 
Q 32.671875 45.40625 29.15625 45.40625 
Q 23.53125 45.40625 19.453125 41.84375 
Q 15.375 38.28125 15.375 28.328125 
L 15.375 0 
z
" id="ArialMT-110"/>
       <path d="M 9.03125 41.84375 
L 9.03125 51.859375 
L 19.046875 51.859375 
L 19.046875 41.84375 
z
M 9.03125 0 
L 9.03125 10.015625 
L 19.046875 10.015625 
L 19.046875 0 
z
" id="ArialMT-58"/>
       <path d="M 8.890625 0 
L 8.890625 10.015625 
L 18.890625 10.015625 
L 18.890625 0 
Q 18.890625 -5.515625 16.9375 -8.90625 
Q 14.984375 -12.3125 10.75 -14.15625 
L 8.296875 -10.40625 
Q 11.078125 -9.1875 12.390625 -6.8125 
Q 13.71875 -4.4375 13.875 0 
z
" id="ArialMT-44"/>
       <path d="M 0.734375 0 
L 19.671875 26.953125 
L 2.15625 51.859375 
L 13.140625 51.859375 
L 21.09375 39.703125 
Q 23.34375 36.234375 24.703125 33.890625 
Q 26.859375 37.109375 28.65625 39.59375 
L 37.40625 51.859375 
L 47.90625 51.859375 
L 29.984375 27.4375 
L 49.265625 0 
L 38.484375 0 
L 27.828125 16.109375 
L 25 20.453125 
L 11.375 0 
z
" id="ArialMT-120"/>
      </defs>
      <use xlink:href="#ArialMT-67"/>
      <use x="72.216797" xlink:href="#ArialMT-114"/>
      <use x="105.517578" xlink:href="#ArialMT-111"/>
      <use x="161.132812" xlink:href="#ArialMT-115"/>
      <use x="211.132812" xlink:href="#ArialMT-115"/>
      <use x="261.132812" xlink:href="#ArialMT-32"/>
      <use x="288.916016" xlink:href="#ArialMT-67"/>
      <use x="361.132812" xlink:href="#ArialMT-111"/>
      <use x="416.748047" xlink:href="#ArialMT-114"/>
      <use x="450.048828" xlink:href="#ArialMT-114"/>
      <use x="483.349609" xlink:href="#ArialMT-101"/>
      <use x="538.964844" xlink:href="#ArialMT-108"/>
      <use x="561.181641" xlink:href="#ArialMT-97"/>
      <use x="616.796875" xlink:href="#ArialMT-116"/>
      <use x="644.580078" xlink:href="#ArialMT-105"/>
      <use x="666.796875" xlink:href="#ArialMT-111"/>
      <use x="722.412109" xlink:href="#ArialMT-110"/>
      <use x="778.027344" xlink:href="#ArialMT-58"/>
      <use x="805.810547" xlink:href="#ArialMT-32"/>
      <use x="833.59375" xlink:href="#ArialMT-101"/>
      <use x="889.208984" xlink:href="#ArialMT-101"/>
      <use x="944.824219" xlink:href="#ArialMT-44"/>
      <use x="972.607422" xlink:href="#ArialMT-32"/>
      <use x="1000.390625" xlink:href="#ArialMT-101"/>
      <use x="1056.005859" xlink:href="#ArialMT-120"/>
     </g>
    </g>
   </g>
   <g id="patch_3">
    <path clip-path="url(#p40d97e8b21)" d="M 63.089688 403.546877 
L 63.089688 435.371248 
L 356.823275 435.371248 
L 356.823275 403.546877 
z
" style="fill:#ccd9ff;opacity:0.5;"/>
   </g>
   <g id="line2d_16">
    <path clip-path="url(#p40d97e8b21)" d="M 76.441214 304.934062 
L 79.138492 418.281813 
L 81.83577 414.689686 
L 84.533049 424.19059 
L 87.230327 409.163999 
L 89.927605 421.435225 
L 92.624883 450.832299 
L 95.322161 425.785331 
L 98.019439 442.474816 
L 100.716717 414.829004 
L 103.413995 422.86343 
L 106.111273 425.772151 
L 108.808552 412.089508 
L 111.50583 421.064326 
L 114.203108 404.380079 
L 116.900386 411.561849 
L 119.597664 428.651042 
L 122.294942 432.669447 
L 124.99222 417.756047 
L 127.689498 404.309428 
L 130.386777 421.008464 
L 133.084055 429.175901 
L 135.781333 411.027444 
L 138.478611 422.798696 
L 141.175889 407.245535 
L 143.873167 414.545653 
L 146.570445 418.656549 
L 149.267723 430.070264 
L 151.965002 411.991696 
L 154.66228 413.701205 
L 157.359558 429.897433 
L 160.056836 421.505262 
L 162.754114 418.274912 
L 165.451392 403.061926 
L 168.14867 417.825491 
L 170.845948 433.902452 
L 173.543226 422.325164 
L 176.240505 416.091392 
L 178.937783 421.598759 
L 181.635061 441.587363 
L 184.332339 426.709211 
L 187.029617 411.338138 
L 189.726895 428.117429 
L 192.424173 409.271498 
L 195.121451 406.147464 
L 197.81873 403.150104 
L 200.516008 422.647224 
L 203.213286 412.31488 
L 205.910564 415.331772 
L 208.607842 426.614308 
L 211.30512 422.16165 
L 214.002398 423.981421 
L 216.699676 417.62569 
L 219.396954 426.769705 
L 222.094233 428.521667 
L 224.791511 416.535802 
L 227.488789 408.513392 
L 230.186067 418.60297 
L 232.883345 422.837997 
L 235.580623 410.498292 
L 238.277901 421.790313 
L 240.975179 423.246761 
L 243.672458 424.758768 
L 246.369736 421.473005 
L 249.067014 422.721622 
L 251.764292 419.259528 
L 254.46157 416.922886 
L 257.158848 422.04163 
L 259.856126 423.200963 
L 262.553404 408.060779 
L 265.250683 420.66496 
L 267.947961 415.929856 
L 270.645239 430.16044 
L 273.342517 417.808468 
L 276.039795 421.652959 
L 278.737073 423.943073 
L 281.434351 418.46558 
L 284.131629 420.481227 
L 286.828907 411.178813 
L 289.526186 419.213633 
L 292.223464 417.793503 
L 294.920742 413.425941 
L 297.61802 420.558904 
L 300.315298 419.4265 
L 303.012576 418.782221 
L 305.709854 416.436783 
L 308.407132 423.063412 
L 311.104411 426.275229 
L 313.801689 417.806246 
L 316.498967 422.645073 
L 319.196245 420.877304 
L 321.893523 419.52944 
L 324.590801 417.990889 
L 327.288079 418.519587 
L 329.985357 420.361706 
L 332.682635 417.614849 
L 335.379914 419.028603 
L 338.077192 420.118885 
L 340.77447 419.459062 
L 343.471748 419.459062 
" style="fill:none;stroke:#1f77b4;stroke-linecap:round;stroke-width:1.5;"/>
   </g>
   <g id="patch_4">
    <path d="M 63.089688 533.984062 
L 63.089688 304.934062 
" style="fill:none;stroke:#262626;stroke-linecap:square;stroke-linejoin:miter;stroke-width:1.25;"/>
   </g>
   <g id="patch_5">
    <path d="M 63.089688 533.984062 
L 356.823275 533.984062 
" style="fill:none;stroke:#262626;stroke-linecap:square;stroke-linejoin:miter;stroke-width:1.25;"/>
   </g>
  </g>
  <g id="axes_2">
   <g id="patch_6">
    <path d="M 410.623275 533.984062 
L 704.356862 533.984062 
L 704.356862 304.934062 
L 410.623275 304.934062 
z
" style="fill:#ffffff;"/>
   </g>
   <g id="matplotlib.axis_3">
    <g id="xtick_7">
     <g id="line2d_17"/>
     <g id="text_18">
      <!-- 0 -->
      <g style="fill:#262626;" transform="translate(421.194333 544.641875)scale(0.1 -0.1)">
       <use xlink:href="#ArialMT-48"/>
      </g>
     </g>
    </g>
    <g id="xtick_8">
     <g id="line2d_18"/>
     <g id="text_19">
      <!-- 10 -->
      <g style="fill:#262626;" transform="translate(472.909891 544.641875)scale(0.1 -0.1)">
       <use xlink:href="#ArialMT-49"/>
       <use x="55.615234" xlink:href="#ArialMT-48"/>
      </g>
     </g>
    </g>
    <g id="xtick_9">
     <g id="line2d_19"/>
     <g id="text_20">
      <!-- 20 -->
      <g style="fill:#262626;" transform="translate(527.405918 544.641875)scale(0.1 -0.1)">
       <use xlink:href="#ArialMT-50"/>
       <use x="55.615234" xlink:href="#ArialMT-48"/>
      </g>
     </g>
    </g>
    <g id="xtick_10">
     <g id="line2d_20"/>
     <g id="text_21">
      <!-- 30 -->
      <g style="fill:#262626;" transform="translate(581.901946 544.641875)scale(0.1 -0.1)">
       <defs>
        <path d="M 4.203125 18.890625 
L 12.984375 20.0625 
Q 14.5 12.59375 18.140625 9.296875 
Q 21.78125 6 27 6 
Q 33.203125 6 37.46875 10.296875 
Q 41.75 14.59375 41.75 20.953125 
Q 41.75 27 37.796875 30.921875 
Q 33.84375 34.859375 27.734375 34.859375 
Q 25.25 34.859375 21.53125 33.890625 
L 22.515625 41.609375 
Q 23.390625 41.5 23.921875 41.5 
Q 29.546875 41.5 34.03125 44.421875 
Q 38.53125 47.359375 38.53125 53.46875 
Q 38.53125 58.296875 35.25 61.46875 
Q 31.984375 64.65625 26.8125 64.65625 
Q 21.6875 64.65625 18.265625 61.421875 
Q 14.84375 58.203125 13.875 51.765625 
L 5.078125 53.328125 
Q 6.6875 62.15625 12.390625 67.015625 
Q 18.109375 71.875 26.609375 71.875 
Q 32.46875 71.875 37.390625 69.359375 
Q 42.328125 66.84375 44.9375 62.5 
Q 47.5625 58.15625 47.5625 53.265625 
Q 47.5625 48.640625 45.0625 44.828125 
Q 42.578125 41.015625 37.703125 38.765625 
Q 44.046875 37.3125 47.5625 32.6875 
Q 51.078125 28.078125 51.078125 21.140625 
Q 51.078125 11.765625 44.234375 5.25 
Q 37.40625 -1.265625 26.953125 -1.265625 
Q 17.53125 -1.265625 11.296875 4.34375 
Q 5.078125 9.96875 4.203125 18.890625 
z
" id="ArialMT-51"/>
       </defs>
       <use xlink:href="#ArialMT-51"/>
       <use x="55.615234" xlink:href="#ArialMT-48"/>
      </g>
     </g>
    </g>
    <g id="xtick_11">
     <g id="line2d_21"/>
     <g id="text_22">
      <!-- 40 -->
      <g style="fill:#262626;" transform="translate(636.397973 544.641875)scale(0.1 -0.1)">
       <use xlink:href="#ArialMT-52"/>
       <use x="55.615234" xlink:href="#ArialMT-48"/>
      </g>
     </g>
    </g>
    <g id="xtick_12">
     <g id="line2d_22"/>
     <g id="text_23">
      <!-- 50 -->
      <g style="fill:#262626;" transform="translate(690.894 544.641875)scale(0.1 -0.1)">
       <use xlink:href="#ArialMT-53"/>
       <use x="55.615234" xlink:href="#ArialMT-48"/>
      </g>
     </g>
    </g>
    <g id="text_24">
     <!-- Lag -->
     <g style="fill:#262626;" transform="translate(547.480381 559.21875)scale(0.12 -0.12)">
      <use xlink:href="#ArialMT-76"/>
      <use x="55.615234" xlink:href="#ArialMT-97"/>
      <use x="111.230469" xlink:href="#ArialMT-103"/>
     </g>
    </g>
   </g>
   <g id="matplotlib.axis_4">
    <g id="ytick_10">
     <g id="line2d_23"/>
     <g id="text_25">
      <!-- −1.00 -->
      <g style="fill:#262626;" transform="translate(381.821712 537.562969)scale(0.1 -0.1)">
       <use xlink:href="#ArialMT-8722"/>
       <use x="58.398438" xlink:href="#ArialMT-49"/>
       <use x="114.013672" xlink:href="#ArialMT-46"/>
       <use x="141.796875" xlink:href="#ArialMT-48"/>
       <use x="197.412109" xlink:href="#ArialMT-48"/>
      </g>
     </g>
    </g>
    <g id="ytick_11">
     <g id="line2d_24"/>
     <g id="text_26">
      <!-- −0.75 -->
      <g style="fill:#262626;" transform="translate(381.821712 508.931719)scale(0.1 -0.1)">
       <use xlink:href="#ArialMT-8722"/>
       <use x="58.398438" xlink:href="#ArialMT-48"/>
       <use x="114.013672" xlink:href="#ArialMT-46"/>
       <use x="141.796875" xlink:href="#ArialMT-55"/>
       <use x="197.412109" xlink:href="#ArialMT-53"/>
      </g>
     </g>
    </g>
    <g id="ytick_12">
     <g id="line2d_25"/>
     <g id="text_27">
      <!-- −0.50 -->
      <g style="fill:#262626;" transform="translate(381.821712 480.300469)scale(0.1 -0.1)">
       <use xlink:href="#ArialMT-8722"/>
       <use x="58.398438" xlink:href="#ArialMT-48"/>
       <use x="114.013672" xlink:href="#ArialMT-46"/>
       <use x="141.796875" xlink:href="#ArialMT-53"/>
       <use x="197.412109" xlink:href="#ArialMT-48"/>
      </g>
     </g>
    </g>
    <g id="ytick_13">
     <g id="line2d_26"/>
     <g id="text_28">
      <!-- −0.25 -->
      <g style="fill:#262626;" transform="translate(381.821712 451.669219)scale(0.1 -0.1)">
       <use xlink:href="#ArialMT-8722"/>
       <use x="58.398438" xlink:href="#ArialMT-48"/>
       <use x="114.013672" xlink:href="#ArialMT-46"/>
       <use x="141.796875" xlink:href="#ArialMT-50"/>
       <use x="197.412109" xlink:href="#ArialMT-53"/>
      </g>
     </g>
    </g>
    <g id="ytick_14">
     <g id="line2d_27"/>
     <g id="text_29">
      <!-- 0.00 -->
      <g style="fill:#262626;" transform="translate(387.662337 423.037969)scale(0.1 -0.1)">
       <use xlink:href="#ArialMT-48"/>
       <use x="55.615234" xlink:href="#ArialMT-46"/>
       <use x="83.398438" xlink:href="#ArialMT-48"/>
       <use x="139.013672" xlink:href="#ArialMT-48"/>
      </g>
     </g>
    </g>
    <g id="ytick_15">
     <g id="line2d_28"/>
     <g id="text_30">
      <!-- 0.25 -->
      <g style="fill:#262626;" transform="translate(387.662337 394.406719)scale(0.1 -0.1)">
       <use xlink:href="#ArialMT-48"/>
       <use x="55.615234" xlink:href="#ArialMT-46"/>
       <use x="83.398438" xlink:href="#ArialMT-50"/>
       <use x="139.013672" xlink:href="#ArialMT-53"/>
      </g>
     </g>
    </g>
    <g id="ytick_16">
     <g id="line2d_29"/>
     <g id="text_31">
      <!-- 0.50 -->
      <g style="fill:#262626;" transform="translate(387.662337 365.775469)scale(0.1 -0.1)">
       <use xlink:href="#ArialMT-48"/>
       <use x="55.615234" xlink:href="#ArialMT-46"/>
       <use x="83.398438" xlink:href="#ArialMT-53"/>
       <use x="139.013672" xlink:href="#ArialMT-48"/>
      </g>
     </g>
    </g>
    <g id="ytick_17">
     <g id="line2d_30"/>
     <g id="text_32">
      <!-- 0.75 -->
      <g style="fill:#262626;" transform="translate(387.662337 337.144219)scale(0.1 -0.1)">
       <use xlink:href="#ArialMT-48"/>
       <use x="55.615234" xlink:href="#ArialMT-46"/>
       <use x="83.398438" xlink:href="#ArialMT-55"/>
       <use x="139.013672" xlink:href="#ArialMT-53"/>
      </g>
     </g>
    </g>
    <g id="ytick_18">
     <g id="line2d_31"/>
     <g id="text_33">
      <!-- 1.00 -->
      <g style="fill:#262626;" transform="translate(387.662337 308.512969)scale(0.1 -0.1)">
       <use xlink:href="#ArialMT-49"/>
       <use x="55.615234" xlink:href="#ArialMT-46"/>
       <use x="83.398438" xlink:href="#ArialMT-48"/>
       <use x="139.013672" xlink:href="#ArialMT-48"/>
      </g>
     </g>
    </g>
    <g id="text_34">
     <!-- Cross Correlation: ee, ex -->
     <g style="fill:#262626;" transform="translate(375.436712 485.815312)rotate(-90)scale(0.12 -0.12)">
      <use xlink:href="#ArialMT-67"/>
      <use x="72.216797" xlink:href="#ArialMT-114"/>
      <use x="105.517578" xlink:href="#ArialMT-111"/>
      <use x="161.132812" xlink:href="#ArialMT-115"/>
      <use x="211.132812" xlink:href="#ArialMT-115"/>
      <use x="261.132812" xlink:href="#ArialMT-32"/>
      <use x="288.916016" xlink:href="#ArialMT-67"/>
      <use x="361.132812" xlink:href="#ArialMT-111"/>
      <use x="416.748047" xlink:href="#ArialMT-114"/>
      <use x="450.048828" xlink:href="#ArialMT-114"/>
      <use x="483.349609" xlink:href="#ArialMT-101"/>
      <use x="538.964844" xlink:href="#ArialMT-108"/>
      <use x="561.181641" xlink:href="#ArialMT-97"/>
      <use x="616.796875" xlink:href="#ArialMT-116"/>
      <use x="644.580078" xlink:href="#ArialMT-105"/>
      <use x="666.796875" xlink:href="#ArialMT-111"/>
      <use x="722.412109" xlink:href="#ArialMT-110"/>
      <use x="778.027344" xlink:href="#ArialMT-58"/>
      <use x="805.810547" xlink:href="#ArialMT-32"/>
      <use x="833.59375" xlink:href="#ArialMT-101"/>
      <use x="889.208984" xlink:href="#ArialMT-101"/>
      <use x="944.824219" xlink:href="#ArialMT-44"/>
      <use x="972.607422" xlink:href="#ArialMT-32"/>
      <use x="1000.390625" xlink:href="#ArialMT-101"/>
      <use x="1056.005859" xlink:href="#ArialMT-120"/>
     </g>
    </g>
   </g>
   <g id="patch_7">
    <path clip-path="url(#pcf3c9bef53)" d="M 410.623275 403.546877 
L 410.623275 435.371248 
L 704.356862 435.371248 
L 704.356862 403.546877 
z
" style="fill:#ccd9ff;opacity:0.5;"/>
   </g>
   <g id="line2d_32">
    <path clip-path="url(#pcf3c9bef53)" d="M 423.974801 426.454608 
L 429.424404 424.367376 
L 434.874007 407.643932 
L 440.32361 412.836863 
L 445.773212 402.524024 
L 451.222815 403.331132 
L 456.672418 418.019006 
L 462.12202 431.969688 
L 467.571623 407.036193 
L 473.021226 398.679733 
L 478.470829 416.280778 
L 483.920431 419.107315 
L 489.370034 419.003516 
L 494.819637 400.122541 
L 500.26924 433.119583 
L 505.718842 433.396353 
L 511.168445 412.25334 
L 516.618048 387.070242 
L 522.06765 407.216824 
L 527.517253 419.021477 
L 532.966856 417.922462 
L 538.416459 424.594442 
L 543.866061 416.975924 
L 549.315664 411.740402 
L 554.765267 421.83206 
L 560.21487 419.349728 
L 565.664472 410.539379 
L 571.114075 408.176674 
L 576.563678 414.570394 
L 582.013281 437.497264 
L 587.462883 409.494299 
L 592.912486 433.017683 
L 598.362089 436.917617 
L 603.811691 449.296993 
L 609.261294 414.838423 
L 614.710897 402.849402 
L 620.1605 413.018367 
L 625.610102 404.411595 
L 631.059705 382.920439 
L 636.509308 418.268193 
L 641.958911 433.450939 
L 647.408513 425.46299 
L 652.858116 433.338648 
L 658.307719 457.461614 
L 663.757321 453.071512 
L 669.206924 430.01312 
L 674.656527 431.30879 
L 680.10613 418.452618 
L 685.555732 431.372112 
L 691.005335 383.020194 
" style="fill:none;stroke:#1f77b4;stroke-linecap:round;stroke-width:1.5;"/>
   </g>
   <g id="patch_8">
    <path d="M 410.623275 533.984062 
L 410.623275 304.934062 
" style="fill:none;stroke:#262626;stroke-linecap:square;stroke-linejoin:miter;stroke-width:1.25;"/>
   </g>
   <g id="patch_9">
    <path d="M 410.623275 533.984062 
L 704.356862 533.984062 
" style="fill:none;stroke:#262626;stroke-linecap:square;stroke-linejoin:miter;stroke-width:1.25;"/>
   </g>
  </g>
  <g id="axes_3">
   <g id="patch_10">
    <path d="M 63.089688 255.134062 
L 704.356862 255.134062 
L 704.356862 26.084062 
L 63.089688 26.084062 
z
" style="fill:#ffffff;"/>
   </g>
   <g id="matplotlib.axis_5">
    <g id="xtick_13">
     <g id="line2d_33"/>
     <g id="text_35">
      <!-- 0 -->
      <g style="fill:#262626;" transform="translate(88.345539 268.655)scale(0.14 -0.14)">
       <use xlink:href="#ArialMT-48"/>
      </g>
     </g>
    </g>
    <g id="xtick_14">
     <g id="line2d_34"/>
     <g id="text_36">
      <!-- 20 -->
      <g style="fill:#262626;" transform="translate(204.652916 268.655)scale(0.14 -0.14)">
       <use xlink:href="#ArialMT-50"/>
       <use x="55.615234" xlink:href="#ArialMT-48"/>
      </g>
     </g>
    </g>
    <g id="xtick_15">
     <g id="line2d_35"/>
     <g id="text_37">
      <!-- 40 -->
      <g style="fill:#262626;" transform="translate(324.852948 268.655)scale(0.14 -0.14)">
       <use xlink:href="#ArialMT-52"/>
       <use x="55.615234" xlink:href="#ArialMT-48"/>
      </g>
     </g>
    </g>
    <g id="xtick_16">
     <g id="line2d_36"/>
     <g id="text_38">
      <!-- 60 -->
      <g style="fill:#262626;" transform="translate(445.052981 268.655)scale(0.14 -0.14)">
       <use xlink:href="#ArialMT-54"/>
       <use x="55.615234" xlink:href="#ArialMT-48"/>
      </g>
     </g>
    </g>
    <g id="xtick_17">
     <g id="line2d_37"/>
     <g id="text_39">
      <!-- 80 -->
      <g style="fill:#262626;" transform="translate(565.253014 268.655)scale(0.14 -0.14)">
       <use xlink:href="#ArialMT-56"/>
       <use x="55.615234" xlink:href="#ArialMT-48"/>
      </g>
     </g>
    </g>
    <g id="xtick_18">
     <g id="line2d_38"/>
     <g id="text_40">
      <!-- 100 -->
      <g style="fill:#262626;" transform="translate(681.56039 268.655)scale(0.14 -0.14)">
       <use xlink:href="#ArialMT-49"/>
       <use x="55.615234" xlink:href="#ArialMT-48"/>
       <use x="111.230469" xlink:href="#ArialMT-48"/>
      </g>
     </g>
    </g>
    <g id="text_41">
     <!-- Samples -->
     <g style="fill:#262626;" transform="translate(356.489993 285.629062)scale(0.14 -0.14)">
      <defs>
       <path d="M 4.5 23 
L 13.421875 23.78125 
Q 14.0625 18.40625 16.375 14.96875 
Q 18.703125 11.53125 23.578125 9.40625 
Q 28.46875 7.28125 34.578125 7.28125 
Q 39.984375 7.28125 44.140625 8.890625 
Q 48.296875 10.5 50.3125 13.296875 
Q 52.34375 16.109375 52.34375 19.4375 
Q 52.34375 22.796875 50.390625 25.3125 
Q 48.4375 27.828125 43.953125 29.546875 
Q 41.0625 30.671875 31.203125 33.03125 
Q 21.34375 35.40625 17.390625 37.5 
Q 12.25 40.1875 9.734375 44.15625 
Q 7.234375 48.140625 7.234375 53.078125 
Q 7.234375 58.5 10.296875 63.203125 
Q 13.375 67.921875 19.28125 70.359375 
Q 25.203125 72.796875 32.421875 72.796875 
Q 40.375 72.796875 46.453125 70.234375 
Q 52.546875 67.671875 55.8125 62.6875 
Q 59.078125 57.71875 59.328125 51.421875 
L 50.25 50.734375 
Q 49.515625 57.515625 45.28125 60.984375 
Q 41.0625 64.453125 32.8125 64.453125 
Q 24.21875 64.453125 20.28125 61.296875 
Q 16.359375 58.15625 16.359375 53.71875 
Q 16.359375 49.859375 19.140625 47.359375 
Q 21.875 44.875 33.421875 42.265625 
Q 44.96875 39.65625 49.265625 37.703125 
Q 55.515625 34.8125 58.484375 30.390625 
Q 61.46875 25.984375 61.46875 20.21875 
Q 61.46875 14.5 58.203125 9.4375 
Q 54.9375 4.390625 48.796875 1.578125 
Q 42.671875 -1.21875 35.015625 -1.21875 
Q 25.296875 -1.21875 18.71875 1.609375 
Q 12.15625 4.4375 8.421875 10.125 
Q 4.6875 15.828125 4.5 23 
z
" id="ArialMT-83"/>
       <path d="M 6.59375 0 
L 6.59375 51.859375 
L 14.453125 51.859375 
L 14.453125 44.578125 
Q 16.890625 48.390625 20.9375 50.703125 
Q 25 53.03125 30.171875 53.03125 
Q 35.9375 53.03125 39.625 50.640625 
Q 43.3125 48.25 44.828125 43.953125 
Q 50.984375 53.03125 60.84375 53.03125 
Q 68.5625 53.03125 72.703125 48.75 
Q 76.859375 44.484375 76.859375 35.59375 
L 76.859375 0 
L 68.109375 0 
L 68.109375 32.671875 
Q 68.109375 37.9375 67.25 40.25 
Q 66.40625 42.578125 64.15625 43.984375 
Q 61.921875 45.40625 58.890625 45.40625 
Q 53.421875 45.40625 49.796875 41.765625 
Q 46.1875 38.140625 46.1875 30.125 
L 46.1875 0 
L 37.40625 0 
L 37.40625 33.6875 
Q 37.40625 39.546875 35.25 42.46875 
Q 33.109375 45.40625 28.21875 45.40625 
Q 24.515625 45.40625 21.359375 43.453125 
Q 18.21875 41.5 16.796875 37.734375 
Q 15.375 33.984375 15.375 26.90625 
L 15.375 0 
z
" id="ArialMT-109"/>
       <path d="M 6.59375 -19.875 
L 6.59375 51.859375 
L 14.59375 51.859375 
L 14.59375 45.125 
Q 17.4375 49.078125 21 51.046875 
Q 24.5625 53.03125 29.640625 53.03125 
Q 36.28125 53.03125 41.359375 49.609375 
Q 46.4375 46.1875 49.015625 39.953125 
Q 51.609375 33.734375 51.609375 26.3125 
Q 51.609375 18.359375 48.75 11.984375 
Q 45.90625 5.609375 40.453125 2.21875 
Q 35.015625 -1.171875 29 -1.171875 
Q 24.609375 -1.171875 21.109375 0.6875 
Q 17.625 2.546875 15.375 5.375 
L 15.375 -19.875 
z
M 14.546875 25.640625 
Q 14.546875 15.625 18.59375 10.84375 
Q 22.65625 6.0625 28.421875 6.0625 
Q 34.28125 6.0625 38.453125 11.015625 
Q 42.625 15.96875 42.625 26.375 
Q 42.625 36.28125 38.546875 41.203125 
Q 34.46875 46.140625 28.8125 46.140625 
Q 23.1875 46.140625 18.859375 40.890625 
Q 14.546875 35.640625 14.546875 25.640625 
z
" id="ArialMT-112"/>
      </defs>
      <use xlink:href="#ArialMT-83"/>
      <use x="66.699219" xlink:href="#ArialMT-97"/>
      <use x="122.314453" xlink:href="#ArialMT-109"/>
      <use x="205.615234" xlink:href="#ArialMT-112"/>
      <use x="261.230469" xlink:href="#ArialMT-108"/>
      <use x="283.447266" xlink:href="#ArialMT-101"/>
      <use x="339.0625" xlink:href="#ArialMT-115"/>
     </g>
    </g>
   </g>
   <g id="matplotlib.axis_6">
    <g id="ytick_19">
     <g id="line2d_39"/>
     <g id="text_42">
      <!-- −0.75 -->
      <g style="fill:#262626;" transform="translate(24.1675 257.180777)scale(0.14 -0.14)">
       <use xlink:href="#ArialMT-8722"/>
       <use x="58.398438" xlink:href="#ArialMT-48"/>
       <use x="114.013672" xlink:href="#ArialMT-46"/>
       <use x="141.796875" xlink:href="#ArialMT-55"/>
       <use x="197.412109" xlink:href="#ArialMT-53"/>
      </g>
     </g>
    </g>
    <g id="ytick_20">
     <g id="line2d_40"/>
     <g id="text_43">
      <!-- −0.50 -->
      <g style="fill:#262626;" transform="translate(24.1675 223.681909)scale(0.14 -0.14)">
       <use xlink:href="#ArialMT-8722"/>
       <use x="58.398438" xlink:href="#ArialMT-48"/>
       <use x="114.013672" xlink:href="#ArialMT-46"/>
       <use x="141.796875" xlink:href="#ArialMT-53"/>
       <use x="197.412109" xlink:href="#ArialMT-48"/>
      </g>
     </g>
    </g>
    <g id="ytick_21">
     <g id="line2d_41"/>
     <g id="text_44">
      <!-- −0.25 -->
      <g style="fill:#262626;" transform="translate(24.1675 190.183042)scale(0.14 -0.14)">
       <use xlink:href="#ArialMT-8722"/>
       <use x="58.398438" xlink:href="#ArialMT-48"/>
       <use x="114.013672" xlink:href="#ArialMT-46"/>
       <use x="141.796875" xlink:href="#ArialMT-50"/>
       <use x="197.412109" xlink:href="#ArialMT-53"/>
      </g>
     </g>
    </g>
    <g id="ytick_22">
     <g id="line2d_42"/>
     <g id="text_45">
      <!-- 0.00 -->
      <g style="fill:#262626;" transform="translate(32.344375 156.684175)scale(0.14 -0.14)">
       <use xlink:href="#ArialMT-48"/>
       <use x="55.615234" xlink:href="#ArialMT-46"/>
       <use x="83.398438" xlink:href="#ArialMT-48"/>
       <use x="139.013672" xlink:href="#ArialMT-48"/>
      </g>
     </g>
    </g>
    <g id="ytick_23">
     <g id="line2d_43"/>
     <g id="text_46">
      <!-- 0.25 -->
      <g style="fill:#262626;" transform="translate(32.344375 123.185307)scale(0.14 -0.14)">
       <use xlink:href="#ArialMT-48"/>
       <use x="55.615234" xlink:href="#ArialMT-46"/>
       <use x="83.398438" xlink:href="#ArialMT-50"/>
       <use x="139.013672" xlink:href="#ArialMT-53"/>
      </g>
     </g>
    </g>
    <g id="ytick_24">
     <g id="line2d_44"/>
     <g id="text_47">
      <!-- 0.50 -->
      <g style="fill:#262626;" transform="translate(32.344375 89.68644)scale(0.14 -0.14)">
       <use xlink:href="#ArialMT-48"/>
       <use x="55.615234" xlink:href="#ArialMT-46"/>
       <use x="83.398438" xlink:href="#ArialMT-53"/>
       <use x="139.013672" xlink:href="#ArialMT-48"/>
      </g>
     </g>
    </g>
    <g id="ytick_25">
     <g id="line2d_45"/>
     <g id="text_48">
      <!-- 0.75 -->
      <g style="fill:#262626;" transform="translate(32.344375 56.187573)scale(0.14 -0.14)">
       <use xlink:href="#ArialMT-48"/>
       <use x="55.615234" xlink:href="#ArialMT-46"/>
       <use x="83.398438" xlink:href="#ArialMT-55"/>
       <use x="139.013672" xlink:href="#ArialMT-53"/>
      </g>
     </g>
    </g>
    <g id="text_49">
     <!-- y, yhat -->
     <g style="fill:#262626;" transform="translate(17.220938 160.712187)rotate(-90)scale(0.14 -0.14)">
      <defs>
       <path d="M 6.203125 -19.96875 
L 5.21875 -11.71875 
Q 8.109375 -12.5 10.25 -12.5 
Q 13.1875 -12.5 14.9375 -11.515625 
Q 16.703125 -10.546875 17.828125 -8.796875 
Q 18.65625 -7.46875 20.515625 -2.25 
Q 20.75 -1.515625 21.296875 -0.09375 
L 1.609375 51.859375 
L 11.078125 51.859375 
L 21.875 21.828125 
Q 23.96875 16.109375 25.640625 9.8125 
Q 27.15625 15.875 29.25 21.625 
L 40.328125 51.859375 
L 49.125 51.859375 
L 29.390625 -0.875 
Q 26.21875 -9.421875 24.46875 -12.640625 
Q 22.125 -17 19.09375 -19.015625 
Q 16.0625 -21.046875 11.859375 -21.046875 
Q 9.328125 -21.046875 6.203125 -19.96875 
z
" id="ArialMT-121"/>
       <path d="M 6.59375 0 
L 6.59375 71.578125 
L 15.375 71.578125 
L 15.375 45.90625 
Q 21.53125 53.03125 30.90625 53.03125 
Q 36.671875 53.03125 40.921875 50.75 
Q 45.171875 48.484375 47 44.484375 
Q 48.828125 40.484375 48.828125 32.859375 
L 48.828125 0 
L 40.046875 0 
L 40.046875 32.859375 
Q 40.046875 39.453125 37.1875 42.453125 
Q 34.328125 45.453125 29.109375 45.453125 
Q 25.203125 45.453125 21.75 43.421875 
Q 18.3125 41.40625 16.84375 37.9375 
Q 15.375 34.46875 15.375 28.375 
L 15.375 0 
z
" id="ArialMT-104"/>
      </defs>
      <use xlink:href="#ArialMT-121"/>
      <use x="42.625" xlink:href="#ArialMT-44"/>
      <use x="70.408203" xlink:href="#ArialMT-32"/>
      <use x="98.191406" xlink:href="#ArialMT-121"/>
      <use x="148.191406" xlink:href="#ArialMT-104"/>
      <use x="203.806641" xlink:href="#ArialMT-97"/>
      <use x="259.421875" xlink:href="#ArialMT-116"/>
     </g>
    </g>
   </g>
   <g id="line2d_46">
    <path clip-path="url(#p197a7c6bca)" d="M 92.238195 154.855359 
L 98.248197 145.910595 
L 104.258199 136.833433 
L 110.2682 141.138507 
L 116.278202 215.29633 
L 122.288204 36.495426 
L 128.298205 200.864582 
L 134.308207 172.85503 
L 140.318208 176.226116 
L 146.32821 141.242989 
L 152.338212 119.878372 
L 158.348213 191.52604 
L 164.358215 220.721589 
L 170.368217 201.166249 
L 176.378218 152.538333 
L 182.38822 228.276705 
L 188.398222 217.065436 
L 194.408223 45.663374 
L 200.418225 90.971906 
L 206.428226 130.195792 
L 212.438228 139.278785 
L 218.44823 125.910847 
L 224.458231 83.955047 
L 230.468233 73.696364 
L 236.478235 68.38123 
L 242.488236 110.909641 
L 248.498238 231.060875 
L 254.50824 53.617152 
L 260.518241 188.847086 
L 266.528243 244.582635 
L 272.538244 166.120766 
L 278.548246 231.38566 
L 284.558248 169.032924 
L 290.568249 67.230581 
L 296.578251 113.148509 
L 302.588253 192.438346 
L 308.598254 86.040465 
L 314.608256 156.058748 
L 320.618258 138.275337 
L 326.628259 100.078093 
L 332.638261 188.313421 
L 338.648262 203.158346 
L 344.658264 178.933183 
L 350.668266 105.359086 
L 356.678267 206.923023 
L 362.688269 203.807661 
L 368.698271 121.936335 
L 374.708272 80.485285 
L 380.718274 197.091321 
L 386.728275 113.172032 
L 392.738277 96.77767 
L 398.748279 100.295562 
L 404.75828 119.415988 
L 410.768282 155.812885 
L 416.778284 90.536066 
L 422.788285 144.865457 
L 428.798287 155.935882 
L 434.808289 127.245253 
L 440.81829 135.649294 
L 446.828292 124.947758 
L 452.838293 112.849682 
L 458.848295 92.267293 
L 464.858297 201.642329 
L 470.868298 115.225221 
L 476.8783 190.429571 
L 482.888302 184.438628 
L 488.898303 221.117897 
L 494.908305 88.32756 
L 500.918307 49.240166 
L 506.928308 213.206447 
L 512.93831 153.478022 
L 518.948311 103.722771 
L 524.958313 106.042832 
L 530.968315 115.846484 
L 536.978316 212.16338 
L 542.988318 203.308535 
L 548.99832 201.953305 
L 555.008321 185.344009 
L 561.018323 221.188585 
L 567.028324 113.222954 
L 573.038326 137.201723 
L 579.048328 122.28248 
L 585.058329 69.100051 
L 591.068331 157.773343 
L 597.078333 93.27398 
L 603.088334 177.980424 
L 609.098336 241.958501 
L 615.108338 80.085406 
L 621.118339 206.359661 
L 627.128341 200.854592 
L 633.138342 136.18685 
L 639.148344 165.20432 
L 645.158346 190.587633 
L 651.168347 170.483265 
L 657.178349 199.941839 
L 663.188351 96.506619 
L 669.198352 154.113963 
L 675.208354 82.655162 
" style="fill:none;stroke:#1f77b4;stroke-linecap:round;stroke-width:1.5;"/>
    <defs>
     <path d="M 0 3 
C 0.795609 3 1.55874 2.683901 2.12132 2.12132 
C 2.683901 1.55874 3 0.795609 3 0 
C 3 -0.795609 2.683901 -1.55874 2.12132 -2.12132 
C 1.55874 -2.683901 0.795609 -3 0 -3 
C -0.795609 -3 -1.55874 -2.683901 -2.12132 -2.12132 
C -2.683901 -1.55874 -3 -0.795609 -3 0 
C -3 0.795609 -2.683901 1.55874 -2.12132 2.12132 
C -1.55874 2.683901 -0.795609 3 0 3 
z
" id="m0394356a2e" style="stroke:#1f77b4;"/>
    </defs>
    <g clip-path="url(#p197a7c6bca)">
     <use style="fill:#1f77b4;stroke:#1f77b4;" x="92.238195" xlink:href="#m0394356a2e" y="154.855359"/>
     <use style="fill:#1f77b4;stroke:#1f77b4;" x="98.248197" xlink:href="#m0394356a2e" y="145.910595"/>
     <use style="fill:#1f77b4;stroke:#1f77b4;" x="104.258199" xlink:href="#m0394356a2e" y="136.833433"/>
     <use style="fill:#1f77b4;stroke:#1f77b4;" x="110.2682" xlink:href="#m0394356a2e" y="141.138507"/>
     <use style="fill:#1f77b4;stroke:#1f77b4;" x="116.278202" xlink:href="#m0394356a2e" y="215.29633"/>
     <use style="fill:#1f77b4;stroke:#1f77b4;" x="122.288204" xlink:href="#m0394356a2e" y="36.495426"/>
     <use style="fill:#1f77b4;stroke:#1f77b4;" x="128.298205" xlink:href="#m0394356a2e" y="200.864582"/>
     <use style="fill:#1f77b4;stroke:#1f77b4;" x="134.308207" xlink:href="#m0394356a2e" y="172.85503"/>
     <use style="fill:#1f77b4;stroke:#1f77b4;" x="140.318208" xlink:href="#m0394356a2e" y="176.226116"/>
     <use style="fill:#1f77b4;stroke:#1f77b4;" x="146.32821" xlink:href="#m0394356a2e" y="141.242989"/>
     <use style="fill:#1f77b4;stroke:#1f77b4;" x="152.338212" xlink:href="#m0394356a2e" y="119.878372"/>
     <use style="fill:#1f77b4;stroke:#1f77b4;" x="158.348213" xlink:href="#m0394356a2e" y="191.52604"/>
     <use style="fill:#1f77b4;stroke:#1f77b4;" x="164.358215" xlink:href="#m0394356a2e" y="220.721589"/>
     <use style="fill:#1f77b4;stroke:#1f77b4;" x="170.368217" xlink:href="#m0394356a2e" y="201.166249"/>
     <use style="fill:#1f77b4;stroke:#1f77b4;" x="176.378218" xlink:href="#m0394356a2e" y="152.538333"/>
     <use style="fill:#1f77b4;stroke:#1f77b4;" x="182.38822" xlink:href="#m0394356a2e" y="228.276705"/>
     <use style="fill:#1f77b4;stroke:#1f77b4;" x="188.398222" xlink:href="#m0394356a2e" y="217.065436"/>
     <use style="fill:#1f77b4;stroke:#1f77b4;" x="194.408223" xlink:href="#m0394356a2e" y="45.663374"/>
     <use style="fill:#1f77b4;stroke:#1f77b4;" x="200.418225" xlink:href="#m0394356a2e" y="90.971906"/>
     <use style="fill:#1f77b4;stroke:#1f77b4;" x="206.428226" xlink:href="#m0394356a2e" y="130.195792"/>
     <use style="fill:#1f77b4;stroke:#1f77b4;" x="212.438228" xlink:href="#m0394356a2e" y="139.278785"/>
     <use style="fill:#1f77b4;stroke:#1f77b4;" x="218.44823" xlink:href="#m0394356a2e" y="125.910847"/>
     <use style="fill:#1f77b4;stroke:#1f77b4;" x="224.458231" xlink:href="#m0394356a2e" y="83.955047"/>
     <use style="fill:#1f77b4;stroke:#1f77b4;" x="230.468233" xlink:href="#m0394356a2e" y="73.696364"/>
     <use style="fill:#1f77b4;stroke:#1f77b4;" x="236.478235" xlink:href="#m0394356a2e" y="68.38123"/>
     <use style="fill:#1f77b4;stroke:#1f77b4;" x="242.488236" xlink:href="#m0394356a2e" y="110.909641"/>
     <use style="fill:#1f77b4;stroke:#1f77b4;" x="248.498238" xlink:href="#m0394356a2e" y="231.060875"/>
     <use style="fill:#1f77b4;stroke:#1f77b4;" x="254.50824" xlink:href="#m0394356a2e" y="53.617152"/>
     <use style="fill:#1f77b4;stroke:#1f77b4;" x="260.518241" xlink:href="#m0394356a2e" y="188.847086"/>
     <use style="fill:#1f77b4;stroke:#1f77b4;" x="266.528243" xlink:href="#m0394356a2e" y="244.582635"/>
     <use style="fill:#1f77b4;stroke:#1f77b4;" x="272.538244" xlink:href="#m0394356a2e" y="166.120766"/>
     <use style="fill:#1f77b4;stroke:#1f77b4;" x="278.548246" xlink:href="#m0394356a2e" y="231.38566"/>
     <use style="fill:#1f77b4;stroke:#1f77b4;" x="284.558248" xlink:href="#m0394356a2e" y="169.032924"/>
     <use style="fill:#1f77b4;stroke:#1f77b4;" x="290.568249" xlink:href="#m0394356a2e" y="67.230581"/>
     <use style="fill:#1f77b4;stroke:#1f77b4;" x="296.578251" xlink:href="#m0394356a2e" y="113.148509"/>
     <use style="fill:#1f77b4;stroke:#1f77b4;" x="302.588253" xlink:href="#m0394356a2e" y="192.438346"/>
     <use style="fill:#1f77b4;stroke:#1f77b4;" x="308.598254" xlink:href="#m0394356a2e" y="86.040465"/>
     <use style="fill:#1f77b4;stroke:#1f77b4;" x="314.608256" xlink:href="#m0394356a2e" y="156.058748"/>
     <use style="fill:#1f77b4;stroke:#1f77b4;" x="320.618258" xlink:href="#m0394356a2e" y="138.275337"/>
     <use style="fill:#1f77b4;stroke:#1f77b4;" x="326.628259" xlink:href="#m0394356a2e" y="100.078093"/>
     <use style="fill:#1f77b4;stroke:#1f77b4;" x="332.638261" xlink:href="#m0394356a2e" y="188.313421"/>
     <use style="fill:#1f77b4;stroke:#1f77b4;" x="338.648262" xlink:href="#m0394356a2e" y="203.158346"/>
     <use style="fill:#1f77b4;stroke:#1f77b4;" x="344.658264" xlink:href="#m0394356a2e" y="178.933183"/>
     <use style="fill:#1f77b4;stroke:#1f77b4;" x="350.668266" xlink:href="#m0394356a2e" y="105.359086"/>
     <use style="fill:#1f77b4;stroke:#1f77b4;" x="356.678267" xlink:href="#m0394356a2e" y="206.923023"/>
     <use style="fill:#1f77b4;stroke:#1f77b4;" x="362.688269" xlink:href="#m0394356a2e" y="203.807661"/>
     <use style="fill:#1f77b4;stroke:#1f77b4;" x="368.698271" xlink:href="#m0394356a2e" y="121.936335"/>
     <use style="fill:#1f77b4;stroke:#1f77b4;" x="374.708272" xlink:href="#m0394356a2e" y="80.485285"/>
     <use style="fill:#1f77b4;stroke:#1f77b4;" x="380.718274" xlink:href="#m0394356a2e" y="197.091321"/>
     <use style="fill:#1f77b4;stroke:#1f77b4;" x="386.728275" xlink:href="#m0394356a2e" y="113.172032"/>
     <use style="fill:#1f77b4;stroke:#1f77b4;" x="392.738277" xlink:href="#m0394356a2e" y="96.77767"/>
     <use style="fill:#1f77b4;stroke:#1f77b4;" x="398.748279" xlink:href="#m0394356a2e" y="100.295562"/>
     <use style="fill:#1f77b4;stroke:#1f77b4;" x="404.75828" xlink:href="#m0394356a2e" y="119.415988"/>
     <use style="fill:#1f77b4;stroke:#1f77b4;" x="410.768282" xlink:href="#m0394356a2e" y="155.812885"/>
     <use style="fill:#1f77b4;stroke:#1f77b4;" x="416.778284" xlink:href="#m0394356a2e" y="90.536066"/>
     <use style="fill:#1f77b4;stroke:#1f77b4;" x="422.788285" xlink:href="#m0394356a2e" y="144.865457"/>
     <use style="fill:#1f77b4;stroke:#1f77b4;" x="428.798287" xlink:href="#m0394356a2e" y="155.935882"/>
     <use style="fill:#1f77b4;stroke:#1f77b4;" x="434.808289" xlink:href="#m0394356a2e" y="127.245253"/>
     <use style="fill:#1f77b4;stroke:#1f77b4;" x="440.81829" xlink:href="#m0394356a2e" y="135.649294"/>
     <use style="fill:#1f77b4;stroke:#1f77b4;" x="446.828292" xlink:href="#m0394356a2e" y="124.947758"/>
     <use style="fill:#1f77b4;stroke:#1f77b4;" x="452.838293" xlink:href="#m0394356a2e" y="112.849682"/>
     <use style="fill:#1f77b4;stroke:#1f77b4;" x="458.848295" xlink:href="#m0394356a2e" y="92.267293"/>
     <use style="fill:#1f77b4;stroke:#1f77b4;" x="464.858297" xlink:href="#m0394356a2e" y="201.642329"/>
     <use style="fill:#1f77b4;stroke:#1f77b4;" x="470.868298" xlink:href="#m0394356a2e" y="115.225221"/>
     <use style="fill:#1f77b4;stroke:#1f77b4;" x="476.8783" xlink:href="#m0394356a2e" y="190.429571"/>
     <use style="fill:#1f77b4;stroke:#1f77b4;" x="482.888302" xlink:href="#m0394356a2e" y="184.438628"/>
     <use style="fill:#1f77b4;stroke:#1f77b4;" x="488.898303" xlink:href="#m0394356a2e" y="221.117897"/>
     <use style="fill:#1f77b4;stroke:#1f77b4;" x="494.908305" xlink:href="#m0394356a2e" y="88.32756"/>
     <use style="fill:#1f77b4;stroke:#1f77b4;" x="500.918307" xlink:href="#m0394356a2e" y="49.240166"/>
     <use style="fill:#1f77b4;stroke:#1f77b4;" x="506.928308" xlink:href="#m0394356a2e" y="213.206447"/>
     <use style="fill:#1f77b4;stroke:#1f77b4;" x="512.93831" xlink:href="#m0394356a2e" y="153.478022"/>
     <use style="fill:#1f77b4;stroke:#1f77b4;" x="518.948311" xlink:href="#m0394356a2e" y="103.722771"/>
     <use style="fill:#1f77b4;stroke:#1f77b4;" x="524.958313" xlink:href="#m0394356a2e" y="106.042832"/>
     <use style="fill:#1f77b4;stroke:#1f77b4;" x="530.968315" xlink:href="#m0394356a2e" y="115.846484"/>
     <use style="fill:#1f77b4;stroke:#1f77b4;" x="536.978316" xlink:href="#m0394356a2e" y="212.16338"/>
     <use style="fill:#1f77b4;stroke:#1f77b4;" x="542.988318" xlink:href="#m0394356a2e" y="203.308535"/>
     <use style="fill:#1f77b4;stroke:#1f77b4;" x="548.99832" xlink:href="#m0394356a2e" y="201.953305"/>
     <use style="fill:#1f77b4;stroke:#1f77b4;" x="555.008321" xlink:href="#m0394356a2e" y="185.344009"/>
     <use style="fill:#1f77b4;stroke:#1f77b4;" x="561.018323" xlink:href="#m0394356a2e" y="221.188585"/>
     <use style="fill:#1f77b4;stroke:#1f77b4;" x="567.028324" xlink:href="#m0394356a2e" y="113.222954"/>
     <use style="fill:#1f77b4;stroke:#1f77b4;" x="573.038326" xlink:href="#m0394356a2e" y="137.201723"/>
     <use style="fill:#1f77b4;stroke:#1f77b4;" x="579.048328" xlink:href="#m0394356a2e" y="122.28248"/>
     <use style="fill:#1f77b4;stroke:#1f77b4;" x="585.058329" xlink:href="#m0394356a2e" y="69.100051"/>
     <use style="fill:#1f77b4;stroke:#1f77b4;" x="591.068331" xlink:href="#m0394356a2e" y="157.773343"/>
     <use style="fill:#1f77b4;stroke:#1f77b4;" x="597.078333" xlink:href="#m0394356a2e" y="93.27398"/>
     <use style="fill:#1f77b4;stroke:#1f77b4;" x="603.088334" xlink:href="#m0394356a2e" y="177.980424"/>
     <use style="fill:#1f77b4;stroke:#1f77b4;" x="609.098336" xlink:href="#m0394356a2e" y="241.958501"/>
     <use style="fill:#1f77b4;stroke:#1f77b4;" x="615.108338" xlink:href="#m0394356a2e" y="80.085406"/>
     <use style="fill:#1f77b4;stroke:#1f77b4;" x="621.118339" xlink:href="#m0394356a2e" y="206.359661"/>
     <use style="fill:#1f77b4;stroke:#1f77b4;" x="627.128341" xlink:href="#m0394356a2e" y="200.854592"/>
     <use style="fill:#1f77b4;stroke:#1f77b4;" x="633.138342" xlink:href="#m0394356a2e" y="136.18685"/>
     <use style="fill:#1f77b4;stroke:#1f77b4;" x="639.148344" xlink:href="#m0394356a2e" y="165.20432"/>
     <use style="fill:#1f77b4;stroke:#1f77b4;" x="645.158346" xlink:href="#m0394356a2e" y="190.587633"/>
     <use style="fill:#1f77b4;stroke:#1f77b4;" x="651.168347" xlink:href="#m0394356a2e" y="170.483265"/>
     <use style="fill:#1f77b4;stroke:#1f77b4;" x="657.178349" xlink:href="#m0394356a2e" y="199.941839"/>
     <use style="fill:#1f77b4;stroke:#1f77b4;" x="663.188351" xlink:href="#m0394356a2e" y="96.506619"/>
     <use style="fill:#1f77b4;stroke:#1f77b4;" x="669.198352" xlink:href="#m0394356a2e" y="154.113963"/>
     <use style="fill:#1f77b4;stroke:#1f77b4;" x="675.208354" xlink:href="#m0394356a2e" y="82.655162"/>
    </g>
   </g>
   <g id="line2d_47">
    <path clip-path="url(#p197a7c6bca)" d="M 92.238195 154.910921 
L 98.248197 145.821071 
L 104.258199 136.792053 
L 110.2682 141.188228 
L 116.278202 215.175527 
L 122.288204 36.539672 
L 128.298205 200.802701 
L 134.308207 173.058408 
L 140.318208 176.141174 
L 146.32821 141.388088 
L 152.338212 120.096957 
L 158.348213 191.488269 
L 164.358215 220.724296 
L 170.368217 200.934238 
L 176.378218 152.781405 
L 182.38822 228.181019 
L 188.398222 217.284508 
L 194.408223 45.571173 
L 200.418225 90.940495 
L 206.428226 129.993719 
L 212.438228 139.242675 
L 218.44823 125.961878 
L 224.458231 84.036505 
L 230.468233 73.687336 
L 236.478235 68.147118 
L 242.488236 110.971531 
L 248.498238 231.103766 
L 254.50824 53.378999 
L 260.518241 188.688314 
L 266.528243 244.722699 
L 272.538244 166.357278 
L 278.548246 231.352727 
L 284.558248 169.213215 
L 290.568249 67.229296 
L 296.578251 113.308059 
L 302.588253 192.684256 
L 308.598254 85.9962 
L 314.608256 155.816996 
L 320.618258 138.23143 
L 326.628259 100.052234 
L 332.638261 188.41857 
L 338.648262 203.030767 
L 344.658264 179.027788 
L 350.668266 105.477798 
L 356.678267 207.094523 
L 362.688269 203.745536 
L 368.698271 121.792645 
L 374.708272 80.569629 
L 380.718274 197.059802 
L 386.728275 113.090233 
L 392.738277 96.832862 
L 398.748279 100.341869 
L 404.75828 119.381429 
L 410.768282 155.930764 
L 416.778284 90.820568 
L 422.788285 144.897715 
L 428.798287 155.896829 
L 434.808289 127.277761 
L 440.81829 135.736003 
L 446.828292 125.22003 
L 452.838293 112.830384 
L 458.848295 92.253116 
L 464.858297 201.666498 
L 470.868298 115.324592 
L 476.8783 190.390134 
L 482.888302 184.314093 
L 488.898303 221.208983 
L 494.908305 88.20811 
L 500.918307 49.19245 
L 506.928308 212.985336 
L 512.93831 153.377365 
L 518.948311 103.663768 
L 524.958313 105.909755 
L 530.968315 116.04023 
L 536.978316 212.170794 
L 542.988318 203.346367 
L 548.99832 202.149495 
L 555.008321 185.380505 
L 561.018323 221.312172 
L 567.028324 113.218398 
L 573.038326 137.148569 
L 579.048328 122.266861 
L 585.058329 68.900642 
L 591.068331 157.666578 
L 597.078333 93.131139 
L 603.088334 178.132684 
L 609.098336 241.829045 
L 615.108338 80.191544 
L 621.118339 206.509002 
L 627.128341 200.814685 
L 633.138342 136.321323 
L 639.148344 165.353727 
L 645.158346 190.59055 
L 651.168347 170.464185 
L 657.178349 199.88107 
L 663.188351 96.588921 
L 669.198352 153.957786 
L 675.208354 82.492284 
" style="fill:none;stroke:#ff7f0e;stroke-linecap:round;stroke-width:1.5;"/>
    <defs>
     <path d="M 0 -3 
L -0.673542 -0.927051 
L -2.85317 -0.927051 
L -1.089814 0.354102 
L -1.763356 2.427051 
L -0 1.145898 
L 1.763356 2.427051 
L 1.089814 0.354102 
L 2.85317 -0.927051 
L 0.673542 -0.927051 
z
" id="m3f0be8b588" style="stroke:#ff7f0e;stroke-linejoin:bevel;"/>
    </defs>
    <g clip-path="url(#p197a7c6bca)">
     <use style="fill:#ff7f0e;stroke:#ff7f0e;stroke-linejoin:bevel;" x="92.238195" xlink:href="#m3f0be8b588" y="154.910921"/>
     <use style="fill:#ff7f0e;stroke:#ff7f0e;stroke-linejoin:bevel;" x="98.248197" xlink:href="#m3f0be8b588" y="145.821071"/>
     <use style="fill:#ff7f0e;stroke:#ff7f0e;stroke-linejoin:bevel;" x="104.258199" xlink:href="#m3f0be8b588" y="136.792053"/>
     <use style="fill:#ff7f0e;stroke:#ff7f0e;stroke-linejoin:bevel;" x="110.2682" xlink:href="#m3f0be8b588" y="141.188228"/>
     <use style="fill:#ff7f0e;stroke:#ff7f0e;stroke-linejoin:bevel;" x="116.278202" xlink:href="#m3f0be8b588" y="215.175527"/>
     <use style="fill:#ff7f0e;stroke:#ff7f0e;stroke-linejoin:bevel;" x="122.288204" xlink:href="#m3f0be8b588" y="36.539672"/>
     <use style="fill:#ff7f0e;stroke:#ff7f0e;stroke-linejoin:bevel;" x="128.298205" xlink:href="#m3f0be8b588" y="200.802701"/>
     <use style="fill:#ff7f0e;stroke:#ff7f0e;stroke-linejoin:bevel;" x="134.308207" xlink:href="#m3f0be8b588" y="173.058408"/>
     <use style="fill:#ff7f0e;stroke:#ff7f0e;stroke-linejoin:bevel;" x="140.318208" xlink:href="#m3f0be8b588" y="176.141174"/>
     <use style="fill:#ff7f0e;stroke:#ff7f0e;stroke-linejoin:bevel;" x="146.32821" xlink:href="#m3f0be8b588" y="141.388088"/>
     <use style="fill:#ff7f0e;stroke:#ff7f0e;stroke-linejoin:bevel;" x="152.338212" xlink:href="#m3f0be8b588" y="120.096957"/>
     <use style="fill:#ff7f0e;stroke:#ff7f0e;stroke-linejoin:bevel;" x="158.348213" xlink:href="#m3f0be8b588" y="191.488269"/>
     <use style="fill:#ff7f0e;stroke:#ff7f0e;stroke-linejoin:bevel;" x="164.358215" xlink:href="#m3f0be8b588" y="220.724296"/>
     <use style="fill:#ff7f0e;stroke:#ff7f0e;stroke-linejoin:bevel;" x="170.368217" xlink:href="#m3f0be8b588" y="200.934238"/>
     <use style="fill:#ff7f0e;stroke:#ff7f0e;stroke-linejoin:bevel;" x="176.378218" xlink:href="#m3f0be8b588" y="152.781405"/>
     <use style="fill:#ff7f0e;stroke:#ff7f0e;stroke-linejoin:bevel;" x="182.38822" xlink:href="#m3f0be8b588" y="228.181019"/>
     <use style="fill:#ff7f0e;stroke:#ff7f0e;stroke-linejoin:bevel;" x="188.398222" xlink:href="#m3f0be8b588" y="217.284508"/>
     <use style="fill:#ff7f0e;stroke:#ff7f0e;stroke-linejoin:bevel;" x="194.408223" xlink:href="#m3f0be8b588" y="45.571173"/>
     <use style="fill:#ff7f0e;stroke:#ff7f0e;stroke-linejoin:bevel;" x="200.418225" xlink:href="#m3f0be8b588" y="90.940495"/>
     <use style="fill:#ff7f0e;stroke:#ff7f0e;stroke-linejoin:bevel;" x="206.428226" xlink:href="#m3f0be8b588" y="129.993719"/>
     <use style="fill:#ff7f0e;stroke:#ff7f0e;stroke-linejoin:bevel;" x="212.438228" xlink:href="#m3f0be8b588" y="139.242675"/>
     <use style="fill:#ff7f0e;stroke:#ff7f0e;stroke-linejoin:bevel;" x="218.44823" xlink:href="#m3f0be8b588" y="125.961878"/>
     <use style="fill:#ff7f0e;stroke:#ff7f0e;stroke-linejoin:bevel;" x="224.458231" xlink:href="#m3f0be8b588" y="84.036505"/>
     <use style="fill:#ff7f0e;stroke:#ff7f0e;stroke-linejoin:bevel;" x="230.468233" xlink:href="#m3f0be8b588" y="73.687336"/>
     <use style="fill:#ff7f0e;stroke:#ff7f0e;stroke-linejoin:bevel;" x="236.478235" xlink:href="#m3f0be8b588" y="68.147118"/>
     <use style="fill:#ff7f0e;stroke:#ff7f0e;stroke-linejoin:bevel;" x="242.488236" xlink:href="#m3f0be8b588" y="110.971531"/>
     <use style="fill:#ff7f0e;stroke:#ff7f0e;stroke-linejoin:bevel;" x="248.498238" xlink:href="#m3f0be8b588" y="231.103766"/>
     <use style="fill:#ff7f0e;stroke:#ff7f0e;stroke-linejoin:bevel;" x="254.50824" xlink:href="#m3f0be8b588" y="53.378999"/>
     <use style="fill:#ff7f0e;stroke:#ff7f0e;stroke-linejoin:bevel;" x="260.518241" xlink:href="#m3f0be8b588" y="188.688314"/>
     <use style="fill:#ff7f0e;stroke:#ff7f0e;stroke-linejoin:bevel;" x="266.528243" xlink:href="#m3f0be8b588" y="244.722699"/>
     <use style="fill:#ff7f0e;stroke:#ff7f0e;stroke-linejoin:bevel;" x="272.538244" xlink:href="#m3f0be8b588" y="166.357278"/>
     <use style="fill:#ff7f0e;stroke:#ff7f0e;stroke-linejoin:bevel;" x="278.548246" xlink:href="#m3f0be8b588" y="231.352727"/>
     <use style="fill:#ff7f0e;stroke:#ff7f0e;stroke-linejoin:bevel;" x="284.558248" xlink:href="#m3f0be8b588" y="169.213215"/>
     <use style="fill:#ff7f0e;stroke:#ff7f0e;stroke-linejoin:bevel;" x="290.568249" xlink:href="#m3f0be8b588" y="67.229296"/>
     <use style="fill:#ff7f0e;stroke:#ff7f0e;stroke-linejoin:bevel;" x="296.578251" xlink:href="#m3f0be8b588" y="113.308059"/>
     <use style="fill:#ff7f0e;stroke:#ff7f0e;stroke-linejoin:bevel;" x="302.588253" xlink:href="#m3f0be8b588" y="192.684256"/>
     <use style="fill:#ff7f0e;stroke:#ff7f0e;stroke-linejoin:bevel;" x="308.598254" xlink:href="#m3f0be8b588" y="85.9962"/>
     <use style="fill:#ff7f0e;stroke:#ff7f0e;stroke-linejoin:bevel;" x="314.608256" xlink:href="#m3f0be8b588" y="155.816996"/>
     <use style="fill:#ff7f0e;stroke:#ff7f0e;stroke-linejoin:bevel;" x="320.618258" xlink:href="#m3f0be8b588" y="138.23143"/>
     <use style="fill:#ff7f0e;stroke:#ff7f0e;stroke-linejoin:bevel;" x="326.628259" xlink:href="#m3f0be8b588" y="100.052234"/>
     <use style="fill:#ff7f0e;stroke:#ff7f0e;stroke-linejoin:bevel;" x="332.638261" xlink:href="#m3f0be8b588" y="188.41857"/>
     <use style="fill:#ff7f0e;stroke:#ff7f0e;stroke-linejoin:bevel;" x="338.648262" xlink:href="#m3f0be8b588" y="203.030767"/>
     <use style="fill:#ff7f0e;stroke:#ff7f0e;stroke-linejoin:bevel;" x="344.658264" xlink:href="#m3f0be8b588" y="179.027788"/>
     <use style="fill:#ff7f0e;stroke:#ff7f0e;stroke-linejoin:bevel;" x="350.668266" xlink:href="#m3f0be8b588" y="105.477798"/>
     <use style="fill:#ff7f0e;stroke:#ff7f0e;stroke-linejoin:bevel;" x="356.678267" xlink:href="#m3f0be8b588" y="207.094523"/>
     <use style="fill:#ff7f0e;stroke:#ff7f0e;stroke-linejoin:bevel;" x="362.688269" xlink:href="#m3f0be8b588" y="203.745536"/>
     <use style="fill:#ff7f0e;stroke:#ff7f0e;stroke-linejoin:bevel;" x="368.698271" xlink:href="#m3f0be8b588" y="121.792645"/>
     <use style="fill:#ff7f0e;stroke:#ff7f0e;stroke-linejoin:bevel;" x="374.708272" xlink:href="#m3f0be8b588" y="80.569629"/>
     <use style="fill:#ff7f0e;stroke:#ff7f0e;stroke-linejoin:bevel;" x="380.718274" xlink:href="#m3f0be8b588" y="197.059802"/>
     <use style="fill:#ff7f0e;stroke:#ff7f0e;stroke-linejoin:bevel;" x="386.728275" xlink:href="#m3f0be8b588" y="113.090233"/>
     <use style="fill:#ff7f0e;stroke:#ff7f0e;stroke-linejoin:bevel;" x="392.738277" xlink:href="#m3f0be8b588" y="96.832862"/>
     <use style="fill:#ff7f0e;stroke:#ff7f0e;stroke-linejoin:bevel;" x="398.748279" xlink:href="#m3f0be8b588" y="100.341869"/>
     <use style="fill:#ff7f0e;stroke:#ff7f0e;stroke-linejoin:bevel;" x="404.75828" xlink:href="#m3f0be8b588" y="119.381429"/>
     <use style="fill:#ff7f0e;stroke:#ff7f0e;stroke-linejoin:bevel;" x="410.768282" xlink:href="#m3f0be8b588" y="155.930764"/>
     <use style="fill:#ff7f0e;stroke:#ff7f0e;stroke-linejoin:bevel;" x="416.778284" xlink:href="#m3f0be8b588" y="90.820568"/>
     <use style="fill:#ff7f0e;stroke:#ff7f0e;stroke-linejoin:bevel;" x="422.788285" xlink:href="#m3f0be8b588" y="144.897715"/>
     <use style="fill:#ff7f0e;stroke:#ff7f0e;stroke-linejoin:bevel;" x="428.798287" xlink:href="#m3f0be8b588" y="155.896829"/>
     <use style="fill:#ff7f0e;stroke:#ff7f0e;stroke-linejoin:bevel;" x="434.808289" xlink:href="#m3f0be8b588" y="127.277761"/>
     <use style="fill:#ff7f0e;stroke:#ff7f0e;stroke-linejoin:bevel;" x="440.81829" xlink:href="#m3f0be8b588" y="135.736003"/>
     <use style="fill:#ff7f0e;stroke:#ff7f0e;stroke-linejoin:bevel;" x="446.828292" xlink:href="#m3f0be8b588" y="125.22003"/>
     <use style="fill:#ff7f0e;stroke:#ff7f0e;stroke-linejoin:bevel;" x="452.838293" xlink:href="#m3f0be8b588" y="112.830384"/>
     <use style="fill:#ff7f0e;stroke:#ff7f0e;stroke-linejoin:bevel;" x="458.848295" xlink:href="#m3f0be8b588" y="92.253116"/>
     <use style="fill:#ff7f0e;stroke:#ff7f0e;stroke-linejoin:bevel;" x="464.858297" xlink:href="#m3f0be8b588" y="201.666498"/>
     <use style="fill:#ff7f0e;stroke:#ff7f0e;stroke-linejoin:bevel;" x="470.868298" xlink:href="#m3f0be8b588" y="115.324592"/>
     <use style="fill:#ff7f0e;stroke:#ff7f0e;stroke-linejoin:bevel;" x="476.8783" xlink:href="#m3f0be8b588" y="190.390134"/>
     <use style="fill:#ff7f0e;stroke:#ff7f0e;stroke-linejoin:bevel;" x="482.888302" xlink:href="#m3f0be8b588" y="184.314093"/>
     <use style="fill:#ff7f0e;stroke:#ff7f0e;stroke-linejoin:bevel;" x="488.898303" xlink:href="#m3f0be8b588" y="221.208983"/>
     <use style="fill:#ff7f0e;stroke:#ff7f0e;stroke-linejoin:bevel;" x="494.908305" xlink:href="#m3f0be8b588" y="88.20811"/>
     <use style="fill:#ff7f0e;stroke:#ff7f0e;stroke-linejoin:bevel;" x="500.918307" xlink:href="#m3f0be8b588" y="49.19245"/>
     <use style="fill:#ff7f0e;stroke:#ff7f0e;stroke-linejoin:bevel;" x="506.928308" xlink:href="#m3f0be8b588" y="212.985336"/>
     <use style="fill:#ff7f0e;stroke:#ff7f0e;stroke-linejoin:bevel;" x="512.93831" xlink:href="#m3f0be8b588" y="153.377365"/>
     <use style="fill:#ff7f0e;stroke:#ff7f0e;stroke-linejoin:bevel;" x="518.948311" xlink:href="#m3f0be8b588" y="103.663768"/>
     <use style="fill:#ff7f0e;stroke:#ff7f0e;stroke-linejoin:bevel;" x="524.958313" xlink:href="#m3f0be8b588" y="105.909755"/>
     <use style="fill:#ff7f0e;stroke:#ff7f0e;stroke-linejoin:bevel;" x="530.968315" xlink:href="#m3f0be8b588" y="116.04023"/>
     <use style="fill:#ff7f0e;stroke:#ff7f0e;stroke-linejoin:bevel;" x="536.978316" xlink:href="#m3f0be8b588" y="212.170794"/>
     <use style="fill:#ff7f0e;stroke:#ff7f0e;stroke-linejoin:bevel;" x="542.988318" xlink:href="#m3f0be8b588" y="203.346367"/>
     <use style="fill:#ff7f0e;stroke:#ff7f0e;stroke-linejoin:bevel;" x="548.99832" xlink:href="#m3f0be8b588" y="202.149495"/>
     <use style="fill:#ff7f0e;stroke:#ff7f0e;stroke-linejoin:bevel;" x="555.008321" xlink:href="#m3f0be8b588" y="185.380505"/>
     <use style="fill:#ff7f0e;stroke:#ff7f0e;stroke-linejoin:bevel;" x="561.018323" xlink:href="#m3f0be8b588" y="221.312172"/>
     <use style="fill:#ff7f0e;stroke:#ff7f0e;stroke-linejoin:bevel;" x="567.028324" xlink:href="#m3f0be8b588" y="113.218398"/>
     <use style="fill:#ff7f0e;stroke:#ff7f0e;stroke-linejoin:bevel;" x="573.038326" xlink:href="#m3f0be8b588" y="137.148569"/>
     <use style="fill:#ff7f0e;stroke:#ff7f0e;stroke-linejoin:bevel;" x="579.048328" xlink:href="#m3f0be8b588" y="122.266861"/>
     <use style="fill:#ff7f0e;stroke:#ff7f0e;stroke-linejoin:bevel;" x="585.058329" xlink:href="#m3f0be8b588" y="68.900642"/>
     <use style="fill:#ff7f0e;stroke:#ff7f0e;stroke-linejoin:bevel;" x="591.068331" xlink:href="#m3f0be8b588" y="157.666578"/>
     <use style="fill:#ff7f0e;stroke:#ff7f0e;stroke-linejoin:bevel;" x="597.078333" xlink:href="#m3f0be8b588" y="93.131139"/>
     <use style="fill:#ff7f0e;stroke:#ff7f0e;stroke-linejoin:bevel;" x="603.088334" xlink:href="#m3f0be8b588" y="178.132684"/>
     <use style="fill:#ff7f0e;stroke:#ff7f0e;stroke-linejoin:bevel;" x="609.098336" xlink:href="#m3f0be8b588" y="241.829045"/>
     <use style="fill:#ff7f0e;stroke:#ff7f0e;stroke-linejoin:bevel;" x="615.108338" xlink:href="#m3f0be8b588" y="80.191544"/>
     <use style="fill:#ff7f0e;stroke:#ff7f0e;stroke-linejoin:bevel;" x="621.118339" xlink:href="#m3f0be8b588" y="206.509002"/>
     <use style="fill:#ff7f0e;stroke:#ff7f0e;stroke-linejoin:bevel;" x="627.128341" xlink:href="#m3f0be8b588" y="200.814685"/>
     <use style="fill:#ff7f0e;stroke:#ff7f0e;stroke-linejoin:bevel;" x="633.138342" xlink:href="#m3f0be8b588" y="136.321323"/>
     <use style="fill:#ff7f0e;stroke:#ff7f0e;stroke-linejoin:bevel;" x="639.148344" xlink:href="#m3f0be8b588" y="165.353727"/>
     <use style="fill:#ff7f0e;stroke:#ff7f0e;stroke-linejoin:bevel;" x="645.158346" xlink:href="#m3f0be8b588" y="190.59055"/>
     <use style="fill:#ff7f0e;stroke:#ff7f0e;stroke-linejoin:bevel;" x="651.168347" xlink:href="#m3f0be8b588" y="170.464185"/>
     <use style="fill:#ff7f0e;stroke:#ff7f0e;stroke-linejoin:bevel;" x="657.178349" xlink:href="#m3f0be8b588" y="199.88107"/>
     <use style="fill:#ff7f0e;stroke:#ff7f0e;stroke-linejoin:bevel;" x="663.188351" xlink:href="#m3f0be8b588" y="96.588921"/>
     <use style="fill:#ff7f0e;stroke:#ff7f0e;stroke-linejoin:bevel;" x="669.198352" xlink:href="#m3f0be8b588" y="153.957786"/>
     <use style="fill:#ff7f0e;stroke:#ff7f0e;stroke-linejoin:bevel;" x="675.208354" xlink:href="#m3f0be8b588" y="82.492284"/>
    </g>
   </g>
   <g id="patch_11">
    <path d="M 63.089688 255.134062 
L 63.089688 26.084062 
" style="fill:none;stroke:#262626;stroke-linecap:square;stroke-linejoin:miter;stroke-width:1.25;"/>
   </g>
   <g id="patch_12">
    <path d="M 63.089688 255.134062 
L 704.356862 255.134062 
" style="fill:none;stroke:#262626;stroke-linecap:square;stroke-linejoin:miter;stroke-width:1.25;"/>
   </g>
   <g id="text_50">
    <!-- Free run simulation -->
    <g style="fill:#262626;" transform="translate(306.697337 20.084062)scale(0.18 -0.18)">
     <defs>
      <path d="M 8.203125 0 
L 8.203125 71.578125 
L 56.5 71.578125 
L 56.5 63.140625 
L 17.671875 63.140625 
L 17.671875 40.96875 
L 51.265625 40.96875 
L 51.265625 32.515625 
L 17.671875 32.515625 
L 17.671875 0 
z
" id="ArialMT-70"/>
      <path d="M 40.578125 0 
L 40.578125 7.625 
Q 34.515625 -1.171875 24.125 -1.171875 
Q 19.53125 -1.171875 15.546875 0.578125 
Q 11.578125 2.34375 9.640625 5 
Q 7.71875 7.671875 6.9375 11.53125 
Q 6.390625 14.109375 6.390625 19.734375 
L 6.390625 51.859375 
L 15.1875 51.859375 
L 15.1875 23.09375 
Q 15.1875 16.21875 15.71875 13.8125 
Q 16.546875 10.359375 19.234375 8.375 
Q 21.921875 6.390625 25.875 6.390625 
Q 29.828125 6.390625 33.296875 8.421875 
Q 36.765625 10.453125 38.203125 13.9375 
Q 39.65625 17.4375 39.65625 24.078125 
L 39.65625 51.859375 
L 48.4375 51.859375 
L 48.4375 0 
z
" id="ArialMT-117"/>
     </defs>
     <use xlink:href="#ArialMT-70"/>
     <use x="61.083984" xlink:href="#ArialMT-114"/>
     <use x="94.384766" xlink:href="#ArialMT-101"/>
     <use x="150" xlink:href="#ArialMT-101"/>
     <use x="205.615234" xlink:href="#ArialMT-32"/>
     <use x="233.398438" xlink:href="#ArialMT-114"/>
     <use x="266.699219" xlink:href="#ArialMT-117"/>
     <use x="322.314453" xlink:href="#ArialMT-110"/>
     <use x="377.929688" xlink:href="#ArialMT-32"/>
     <use x="405.712891" xlink:href="#ArialMT-115"/>
     <use x="455.712891" xlink:href="#ArialMT-105"/>
     <use x="477.929688" xlink:href="#ArialMT-109"/>
     <use x="561.230469" xlink:href="#ArialMT-117"/>
     <use x="616.845703" xlink:href="#ArialMT-108"/>
     <use x="639.0625" xlink:href="#ArialMT-97"/>
     <use x="694.677734" xlink:href="#ArialMT-116"/>
     <use x="722.460938" xlink:href="#ArialMT-105"/>
     <use x="744.677734" xlink:href="#ArialMT-111"/>
     <use x="800.292969" xlink:href="#ArialMT-110"/>
    </g>
   </g>
   <g id="legend_1">
    <g id="line2d_48">
     <path d="M 640.122487 38.741875 
L 660.122487 38.741875 
" style="fill:none;stroke:#1f77b4;stroke-linecap:round;stroke-width:1.5;"/>
    </g>
    <g id="line2d_49">
     <g>
      <use style="fill:#1f77b4;stroke:#1f77b4;" x="650.122487" xlink:href="#m0394356a2e" y="38.741875"/>
     </g>
    </g>
    <g id="text_51">
     <!-- Data -->
     <g style="fill:#262626;" transform="translate(668.122487 42.241875)scale(0.1 -0.1)">
      <defs>
       <path d="M 7.71875 0 
L 7.71875 71.578125 
L 32.375 71.578125 
Q 40.71875 71.578125 45.125 70.5625 
Q 51.265625 69.140625 55.609375 65.4375 
Q 61.28125 60.640625 64.078125 53.1875 
Q 66.890625 45.75 66.890625 36.1875 
Q 66.890625 28.03125 64.984375 21.734375 
Q 63.09375 15.4375 60.109375 11.296875 
Q 57.125 7.171875 53.578125 4.796875 
Q 50.046875 2.4375 45.046875 1.21875 
Q 40.046875 0 33.546875 0 
z
M 17.1875 8.453125 
L 32.46875 8.453125 
Q 39.546875 8.453125 43.578125 9.765625 
Q 47.609375 11.078125 50 13.484375 
Q 53.375 16.84375 55.25 22.53125 
Q 57.125 28.21875 57.125 36.328125 
Q 57.125 47.5625 53.4375 53.59375 
Q 49.75 59.625 44.484375 61.671875 
Q 40.671875 63.140625 32.234375 63.140625 
L 17.1875 63.140625 
z
" id="ArialMT-68"/>
      </defs>
      <use xlink:href="#ArialMT-68"/>
      <use x="72.216797" xlink:href="#ArialMT-97"/>
      <use x="127.832031" xlink:href="#ArialMT-116"/>
      <use x="155.615234" xlink:href="#ArialMT-97"/>
     </g>
    </g>
    <g id="line2d_50">
     <path d="M 640.122487 52.887187 
L 660.122487 52.887187 
" style="fill:none;stroke:#ff7f0e;stroke-linecap:round;stroke-width:1.5;"/>
    </g>
    <g id="line2d_51">
     <g>
      <use style="fill:#ff7f0e;stroke:#ff7f0e;stroke-linejoin:bevel;" x="650.122487" xlink:href="#m3f0be8b588" y="52.887187"/>
     </g>
    </g>
    <g id="text_52">
     <!-- Model -->
     <g style="fill:#262626;" transform="translate(668.122487 56.387187)scale(0.1 -0.1)">
      <defs>
       <path d="M 7.421875 0 
L 7.421875 71.578125 
L 21.6875 71.578125 
L 38.625 20.90625 
Q 40.96875 13.8125 42.046875 10.296875 
Q 43.265625 14.203125 45.84375 21.78125 
L 62.984375 71.578125 
L 75.734375 71.578125 
L 75.734375 0 
L 66.609375 0 
L 66.609375 59.90625 
L 45.796875 0 
L 37.25 0 
L 16.546875 60.9375 
L 16.546875 0 
z
" id="ArialMT-77"/>
       <path d="M 40.234375 0 
L 40.234375 6.546875 
Q 35.296875 -1.171875 25.734375 -1.171875 
Q 19.53125 -1.171875 14.328125 2.25 
Q 9.125 5.671875 6.265625 11.796875 
Q 3.421875 17.921875 3.421875 25.875 
Q 3.421875 33.640625 6 39.96875 
Q 8.59375 46.296875 13.765625 49.65625 
Q 18.953125 53.03125 25.34375 53.03125 
Q 30.03125 53.03125 33.6875 51.046875 
Q 37.359375 49.078125 39.65625 45.90625 
L 39.65625 71.578125 
L 48.390625 71.578125 
L 48.390625 0 
z
M 12.453125 25.875 
Q 12.453125 15.921875 16.640625 10.984375 
Q 20.84375 6.0625 26.5625 6.0625 
Q 32.328125 6.0625 36.34375 10.765625 
Q 40.375 15.484375 40.375 25.140625 
Q 40.375 35.796875 36.265625 40.765625 
Q 32.171875 45.75 26.171875 45.75 
Q 20.3125 45.75 16.375 40.96875 
Q 12.453125 36.1875 12.453125 25.875 
z
" id="ArialMT-100"/>
      </defs>
      <use xlink:href="#ArialMT-77"/>
      <use x="83.300781" xlink:href="#ArialMT-111"/>
      <use x="138.916016" xlink:href="#ArialMT-100"/>
      <use x="194.53125" xlink:href="#ArialMT-101"/>
      <use x="250.146484" xlink:href="#ArialMT-108"/>
     </g>
    </g>
   </g>
  </g>
 </g>
 <defs>
  <clipPath id="p40d97e8b21">
   <rect height="229.05" width="293.733587" x="63.089688" y="304.934062"/>
  </clipPath>
  <clipPath id="pcf3c9bef53">
   <rect height="229.05" width="293.733587" x="410.623275" y="304.934062"/>
  </clipPath>
  <clipPath id="p197a7c6bca">
   <rect height="229.05" width="641.267174" x="63.089688" y="26.084062"/>
  </clipPath>
 </defs>
</svg>
