<?xml version="1.0" encoding="utf-8" standalone="no"?>
<!DOCTYPE svg PUBLIC "-//W3C//DTD SVG 1.1//EN"
  "http://www.w3.org/Graphics/SVG/1.1/DTD/svg11.dtd">
<!-- Created with matplotlib (https://matplotlib.org/) -->
<svg height="465.958125pt" version="1.1" viewBox="0 0 721.645312 465.958125" width="721.645312pt" xmlns="http://www.w3.org/2000/svg" xmlns:xlink="http://www.w3.org/1999/xlink">
 <metadata>
  <rdf:RDF xmlns:cc="http://creativecommons.org/ns#" xmlns:dc="http://purl.org/dc/elements/1.1/" xmlns:rdf="http://www.w3.org/1999/02/22-rdf-syntax-ns#">
   <cc:Work>
    <dc:type rdf:resource="http://purl.org/dc/dcmitype/StillImage"/>
    <dc:date>2021-03-08T23:42:32.923280</dc:date>
    <dc:format>image/svg+xml</dc:format>
    <dc:creator>
     <cc:Agent>
      <dc:title>Matplotlib v3.3.3, https://matplotlib.org/</dc:title>
     </cc:Agent>
    </dc:creator>
   </cc:Work>
  </rdf:RDF>
 </metadata>
 <defs>
  <style type="text/css">*{stroke-linecap:butt;stroke-linejoin:round;}</style>
 </defs>
 <g id="figure_1">
  <g id="patch_1">
   <path d="M 0 465.958125 
L 721.645312 465.958125 
L 721.645312 0 
L 0 0 
z
" style="fill:none;"/>
  </g>
  <g id="axes_1">
   <g id="patch_2">
    <path d="M 44.845313 442.08 
L 714.445312 442.08 
L 714.445312 7.2 
L 44.845313 7.2 
z
" style="fill:#ffffff;"/>
   </g>
   <g id="matplotlib.axis_1">
    <g id="xtick_1">
     <g id="line2d_1">
      <defs>
       <path d="M 0 0 
L 0 3.5 
" id="m50af6679fb" style="stroke:#000000;stroke-width:0.8;"/>
      </defs>
      <g>
       <use style="stroke:#000000;stroke-width:0.8;" x="75.281676" xlink:href="#m50af6679fb" y="442.08"/>
      </g>
     </g>
     <g id="text_1">
      <!-- 0 -->
      <g transform="translate(72.100426 456.678437)scale(0.1 -0.1)">
       <defs>
        <path d="M 31.78125 66.40625 
Q 24.171875 66.40625 20.328125 58.90625 
Q 16.5 51.421875 16.5 36.375 
Q 16.5 21.390625 20.328125 13.890625 
Q 24.171875 6.390625 31.78125 6.390625 
Q 39.453125 6.390625 43.28125 13.890625 
Q 47.125 21.390625 47.125 36.375 
Q 47.125 51.421875 43.28125 58.90625 
Q 39.453125 66.40625 31.78125 66.40625 
z
M 31.78125 74.21875 
Q 44.046875 74.21875 50.515625 64.515625 
Q 56.984375 54.828125 56.984375 36.375 
Q 56.984375 17.96875 50.515625 8.265625 
Q 44.046875 -1.421875 31.78125 -1.421875 
Q 19.53125 -1.421875 13.0625 8.265625 
Q 6.59375 17.96875 6.59375 36.375 
Q 6.59375 54.828125 13.0625 64.515625 
Q 19.53125 74.21875 31.78125 74.21875 
z
" id="DejaVuSans-48"/>
       </defs>
       <use xlink:href="#DejaVuSans-48"/>
      </g>
     </g>
    </g>
    <g id="xtick_2">
     <g id="line2d_2">
      <g>
       <use style="stroke:#000000;stroke-width:0.8;" x="151.41065" xlink:href="#m50af6679fb" y="442.08"/>
      </g>
     </g>
     <g id="text_2">
      <!-- 250 -->
      <g transform="translate(141.8669 456.678437)scale(0.1 -0.1)">
       <defs>
        <path d="M 19.1875 8.296875 
L 53.609375 8.296875 
L 53.609375 0 
L 7.328125 0 
L 7.328125 8.296875 
Q 12.9375 14.109375 22.625 23.890625 
Q 32.328125 33.6875 34.8125 36.53125 
Q 39.546875 41.84375 41.421875 45.53125 
Q 43.3125 49.21875 43.3125 52.78125 
Q 43.3125 58.59375 39.234375 62.25 
Q 35.15625 65.921875 28.609375 65.921875 
Q 23.96875 65.921875 18.8125 64.3125 
Q 13.671875 62.703125 7.8125 59.421875 
L 7.8125 69.390625 
Q 13.765625 71.78125 18.9375 73 
Q 24.125 74.21875 28.421875 74.21875 
Q 39.75 74.21875 46.484375 68.546875 
Q 53.21875 62.890625 53.21875 53.421875 
Q 53.21875 48.921875 51.53125 44.890625 
Q 49.859375 40.875 45.40625 35.40625 
Q 44.1875 33.984375 37.640625 27.21875 
Q 31.109375 20.453125 19.1875 8.296875 
z
" id="DejaVuSans-50"/>
        <path d="M 10.796875 72.90625 
L 49.515625 72.90625 
L 49.515625 64.59375 
L 19.828125 64.59375 
L 19.828125 46.734375 
Q 21.96875 47.46875 24.109375 47.828125 
Q 26.265625 48.1875 28.421875 48.1875 
Q 40.625 48.1875 47.75 41.5 
Q 54.890625 34.8125 54.890625 23.390625 
Q 54.890625 11.625 47.5625 5.09375 
Q 40.234375 -1.421875 26.90625 -1.421875 
Q 22.3125 -1.421875 17.546875 -0.640625 
Q 12.796875 0.140625 7.71875 1.703125 
L 7.71875 11.625 
Q 12.109375 9.234375 16.796875 8.0625 
Q 21.484375 6.890625 26.703125 6.890625 
Q 35.15625 6.890625 40.078125 11.328125 
Q 45.015625 15.765625 45.015625 23.390625 
Q 45.015625 31 40.078125 35.4375 
Q 35.15625 39.890625 26.703125 39.890625 
Q 22.75 39.890625 18.8125 39.015625 
Q 14.890625 38.140625 10.796875 36.28125 
z
" id="DejaVuSans-53"/>
       </defs>
       <use xlink:href="#DejaVuSans-50"/>
       <use x="63.623047" xlink:href="#DejaVuSans-53"/>
       <use x="127.246094" xlink:href="#DejaVuSans-48"/>
      </g>
     </g>
    </g>
    <g id="xtick_3">
     <g id="line2d_3">
      <g>
       <use style="stroke:#000000;stroke-width:0.8;" x="227.539623" xlink:href="#m50af6679fb" y="442.08"/>
      </g>
     </g>
     <g id="text_3">
      <!-- 500 -->
      <g transform="translate(217.995873 456.678437)scale(0.1 -0.1)">
       <use xlink:href="#DejaVuSans-53"/>
       <use x="63.623047" xlink:href="#DejaVuSans-48"/>
       <use x="127.246094" xlink:href="#DejaVuSans-48"/>
      </g>
     </g>
    </g>
    <g id="xtick_4">
     <g id="line2d_4">
      <g>
       <use style="stroke:#000000;stroke-width:0.8;" x="303.668597" xlink:href="#m50af6679fb" y="442.08"/>
      </g>
     </g>
     <g id="text_4">
      <!-- 750 -->
      <g transform="translate(294.124847 456.678437)scale(0.1 -0.1)">
       <defs>
        <path d="M 8.203125 72.90625 
L 55.078125 72.90625 
L 55.078125 68.703125 
L 28.609375 0 
L 18.3125 0 
L 43.21875 64.59375 
L 8.203125 64.59375 
z
" id="DejaVuSans-55"/>
       </defs>
       <use xlink:href="#DejaVuSans-55"/>
       <use x="63.623047" xlink:href="#DejaVuSans-53"/>
       <use x="127.246094" xlink:href="#DejaVuSans-48"/>
      </g>
     </g>
    </g>
    <g id="xtick_5">
     <g id="line2d_5">
      <g>
       <use style="stroke:#000000;stroke-width:0.8;" x="379.79757" xlink:href="#m50af6679fb" y="442.08"/>
      </g>
     </g>
     <g id="text_5">
      <!-- 1000 -->
      <g transform="translate(367.07257 456.678437)scale(0.1 -0.1)">
       <defs>
        <path d="M 12.40625 8.296875 
L 28.515625 8.296875 
L 28.515625 63.921875 
L 10.984375 60.40625 
L 10.984375 69.390625 
L 28.421875 72.90625 
L 38.28125 72.90625 
L 38.28125 8.296875 
L 54.390625 8.296875 
L 54.390625 0 
L 12.40625 0 
z
" id="DejaVuSans-49"/>
       </defs>
       <use xlink:href="#DejaVuSans-49"/>
       <use x="63.623047" xlink:href="#DejaVuSans-48"/>
       <use x="127.246094" xlink:href="#DejaVuSans-48"/>
       <use x="190.869141" xlink:href="#DejaVuSans-48"/>
      </g>
     </g>
    </g>
    <g id="xtick_6">
     <g id="line2d_6">
      <g>
       <use style="stroke:#000000;stroke-width:0.8;" x="455.926544" xlink:href="#m50af6679fb" y="442.08"/>
      </g>
     </g>
     <g id="text_6">
      <!-- 1250 -->
      <g transform="translate(443.201544 456.678437)scale(0.1 -0.1)">
       <use xlink:href="#DejaVuSans-49"/>
       <use x="63.623047" xlink:href="#DejaVuSans-50"/>
       <use x="127.246094" xlink:href="#DejaVuSans-53"/>
       <use x="190.869141" xlink:href="#DejaVuSans-48"/>
      </g>
     </g>
    </g>
    <g id="xtick_7">
     <g id="line2d_7">
      <g>
       <use style="stroke:#000000;stroke-width:0.8;" x="532.055518" xlink:href="#m50af6679fb" y="442.08"/>
      </g>
     </g>
     <g id="text_7">
      <!-- 1500 -->
      <g transform="translate(519.330518 456.678437)scale(0.1 -0.1)">
       <use xlink:href="#DejaVuSans-49"/>
       <use x="63.623047" xlink:href="#DejaVuSans-53"/>
       <use x="127.246094" xlink:href="#DejaVuSans-48"/>
       <use x="190.869141" xlink:href="#DejaVuSans-48"/>
      </g>
     </g>
    </g>
    <g id="xtick_8">
     <g id="line2d_8">
      <g>
       <use style="stroke:#000000;stroke-width:0.8;" x="608.184491" xlink:href="#m50af6679fb" y="442.08"/>
      </g>
     </g>
     <g id="text_8">
      <!-- 1750 -->
      <g transform="translate(595.459491 456.678437)scale(0.1 -0.1)">
       <use xlink:href="#DejaVuSans-49"/>
       <use x="63.623047" xlink:href="#DejaVuSans-55"/>
       <use x="127.246094" xlink:href="#DejaVuSans-53"/>
       <use x="190.869141" xlink:href="#DejaVuSans-48"/>
      </g>
     </g>
    </g>
    <g id="xtick_9">
     <g id="line2d_9">
      <g>
       <use style="stroke:#000000;stroke-width:0.8;" x="684.313465" xlink:href="#m50af6679fb" y="442.08"/>
      </g>
     </g>
     <g id="text_9">
      <!-- 2000 -->
      <g transform="translate(671.588465 456.678437)scale(0.1 -0.1)">
       <use xlink:href="#DejaVuSans-50"/>
       <use x="63.623047" xlink:href="#DejaVuSans-48"/>
       <use x="127.246094" xlink:href="#DejaVuSans-48"/>
       <use x="190.869141" xlink:href="#DejaVuSans-48"/>
      </g>
     </g>
    </g>
   </g>
   <g id="matplotlib.axis_2">
    <g id="ytick_1">
     <g id="line2d_10">
      <defs>
       <path d="M 0 0 
L -3.5 0 
" id="me1587b9c51" style="stroke:#000000;stroke-width:0.8;"/>
      </defs>
      <g>
       <use style="stroke:#000000;stroke-width:0.8;" x="44.845313" xlink:href="#me1587b9c51" y="396.368856"/>
      </g>
     </g>
     <g id="text_10">
      <!-- −0.75 -->
      <g transform="translate(7.2 400.168075)scale(0.1 -0.1)">
       <defs>
        <path d="M 10.59375 35.5 
L 73.1875 35.5 
L 73.1875 27.203125 
L 10.59375 27.203125 
z
" id="DejaVuSans-8722"/>
        <path d="M 10.6875 12.40625 
L 21 12.40625 
L 21 0 
L 10.6875 0 
z
" id="DejaVuSans-46"/>
       </defs>
       <use xlink:href="#DejaVuSans-8722"/>
       <use x="83.789062" xlink:href="#DejaVuSans-48"/>
       <use x="147.412109" xlink:href="#DejaVuSans-46"/>
       <use x="179.199219" xlink:href="#DejaVuSans-55"/>
       <use x="242.822266" xlink:href="#DejaVuSans-53"/>
      </g>
     </g>
    </g>
    <g id="ytick_2">
     <g id="line2d_11">
      <g>
       <use style="stroke:#000000;stroke-width:0.8;" x="44.845313" xlink:href="#me1587b9c51" y="342.955632"/>
      </g>
     </g>
     <g id="text_11">
      <!-- −0.50 -->
      <g transform="translate(7.2 346.754851)scale(0.1 -0.1)">
       <use xlink:href="#DejaVuSans-8722"/>
       <use x="83.789062" xlink:href="#DejaVuSans-48"/>
       <use x="147.412109" xlink:href="#DejaVuSans-46"/>
       <use x="179.199219" xlink:href="#DejaVuSans-53"/>
       <use x="242.822266" xlink:href="#DejaVuSans-48"/>
      </g>
     </g>
    </g>
    <g id="ytick_3">
     <g id="line2d_12">
      <g>
       <use style="stroke:#000000;stroke-width:0.8;" x="44.845313" xlink:href="#me1587b9c51" y="289.542408"/>
      </g>
     </g>
     <g id="text_12">
      <!-- −0.25 -->
      <g transform="translate(7.2 293.341627)scale(0.1 -0.1)">
       <use xlink:href="#DejaVuSans-8722"/>
       <use x="83.789062" xlink:href="#DejaVuSans-48"/>
       <use x="147.412109" xlink:href="#DejaVuSans-46"/>
       <use x="179.199219" xlink:href="#DejaVuSans-50"/>
       <use x="242.822266" xlink:href="#DejaVuSans-53"/>
      </g>
     </g>
    </g>
    <g id="ytick_4">
     <g id="line2d_13">
      <g>
       <use style="stroke:#000000;stroke-width:0.8;" x="44.845313" xlink:href="#me1587b9c51" y="236.129184"/>
      </g>
     </g>
     <g id="text_13">
      <!-- 0.00 -->
      <g transform="translate(15.579688 239.928403)scale(0.1 -0.1)">
       <use xlink:href="#DejaVuSans-48"/>
       <use x="63.623047" xlink:href="#DejaVuSans-46"/>
       <use x="95.410156" xlink:href="#DejaVuSans-48"/>
       <use x="159.033203" xlink:href="#DejaVuSans-48"/>
      </g>
     </g>
    </g>
    <g id="ytick_5">
     <g id="line2d_14">
      <g>
       <use style="stroke:#000000;stroke-width:0.8;" x="44.845313" xlink:href="#me1587b9c51" y="182.715961"/>
      </g>
     </g>
     <g id="text_14">
      <!-- 0.25 -->
      <g transform="translate(15.579688 186.515179)scale(0.1 -0.1)">
       <use xlink:href="#DejaVuSans-48"/>
       <use x="63.623047" xlink:href="#DejaVuSans-46"/>
       <use x="95.410156" xlink:href="#DejaVuSans-50"/>
       <use x="159.033203" xlink:href="#DejaVuSans-53"/>
      </g>
     </g>
    </g>
    <g id="ytick_6">
     <g id="line2d_15">
      <g>
       <use style="stroke:#000000;stroke-width:0.8;" x="44.845313" xlink:href="#me1587b9c51" y="129.302737"/>
      </g>
     </g>
     <g id="text_15">
      <!-- 0.50 -->
      <g transform="translate(15.579688 133.101955)scale(0.1 -0.1)">
       <use xlink:href="#DejaVuSans-48"/>
       <use x="63.623047" xlink:href="#DejaVuSans-46"/>
       <use x="95.410156" xlink:href="#DejaVuSans-53"/>
       <use x="159.033203" xlink:href="#DejaVuSans-48"/>
      </g>
     </g>
    </g>
    <g id="ytick_7">
     <g id="line2d_16">
      <g>
       <use style="stroke:#000000;stroke-width:0.8;" x="44.845313" xlink:href="#me1587b9c51" y="75.889513"/>
      </g>
     </g>
     <g id="text_16">
      <!-- 0.75 -->
      <g transform="translate(15.579688 79.688732)scale(0.1 -0.1)">
       <use xlink:href="#DejaVuSans-48"/>
       <use x="63.623047" xlink:href="#DejaVuSans-46"/>
       <use x="95.410156" xlink:href="#DejaVuSans-55"/>
       <use x="159.033203" xlink:href="#DejaVuSans-53"/>
      </g>
     </g>
    </g>
    <g id="ytick_8">
     <g id="line2d_17">
      <g>
       <use style="stroke:#000000;stroke-width:0.8;" x="44.845313" xlink:href="#me1587b9c51" y="22.476289"/>
      </g>
     </g>
     <g id="text_17">
      <!-- 1.00 -->
      <g transform="translate(15.579688 26.275508)scale(0.1 -0.1)">
       <use xlink:href="#DejaVuSans-49"/>
       <use x="63.623047" xlink:href="#DejaVuSans-46"/>
       <use x="95.410156" xlink:href="#DejaVuSans-48"/>
       <use x="159.033203" xlink:href="#DejaVuSans-48"/>
      </g>
     </g>
    </g>
   </g>
   <g id="line2d_18">
    <path clip-path="url(#p5f783086dd)" d="M 75.281676 271.140484 
L 75.586192 273.614585 
L 75.890708 277.374876 
L 76.195224 275.565236 
L 76.49974 271.136211 
L 76.804256 263.126364 
L 77.413287 256.607387 
L 77.717803 248.57062 
L 78.022319 234.482839 
L 78.326835 213.420018 
L 78.631351 217.260429 
L 78.935867 242.56676 
L 79.240383 242.859037 
L 79.849415 176.218776 
L 80.15393 179.581673 
L 80.458446 197.791309 
L 80.762962 197.654571 
L 81.371994 155.926024 
L 81.67651 157.771985 
L 81.981026 157.598926 
L 82.285542 151.913623 
L 82.590058 155.601272 
L 82.894573 156.917373 
L 83.199089 154.896217 
L 83.808121 138.40435 
L 84.417153 148.552863 
L 84.721669 146.388559 
L 85.026185 147.40982 
L 85.939732 177.064841 
L 86.244248 179.919244 
L 86.548764 176.774274 
L 86.85328 178.218567 
L 87.462312 204.08125 
L 87.766828 218.556875 
L 88.071344 227.564054 
L 88.37586 216.92884 
L 88.984891 191.247121 
L 89.289407 191.614604 
L 89.593923 203.918874 
L 89.898439 205.73065 
L 90.507471 181.882714 
L 90.811987 188.589279 
L 91.116503 216.610283 
L 91.421019 232.509691 
L 91.725534 232.357143 
L 92.03005 221.794357 
L 92.334566 207.091619 
L 92.639082 205.388806 
L 92.943598 215.236922 
L 93.55263 250.330051 
L 93.857146 255.41029 
L 94.466177 250.788764 
L 95.075209 255.073359 
L 95.379725 256.090134 
L 95.684241 257.524385 
L 96.293273 229.18867 
L 96.597789 247.465821 
L 97.206821 367.570582 
L 97.511336 338.323637 
L 97.815852 285.168934 
L 98.120368 278.86831 
L 98.424884 327.10686 
L 98.7294 357.721184 
L 99.033916 344.583667 
L 99.338432 320.475075 
L 99.642948 308.510512 
L 99.947464 327.777731 
L 100.556495 335.379501 
L 100.861011 335.979865 
L 101.774559 292.264346 
L 102.079075 300.906606 
L 102.383591 313.77492 
L 102.992623 284.357053 
L 103.297138 282.171383 
L 103.601654 283.120002 
L 103.90617 293.259969 
L 104.210686 285.551372 
L 104.515202 281.658617 
L 104.819718 273.986341 
L 105.124234 249.475013 
L 105.42875 260.54971 
L 106.037781 328.010612 
L 106.342297 332.055062 
L 106.646813 305.13907 
L 106.951329 301.180082 
L 107.255845 300.43657 
L 107.864877 275.597284 
L 108.169393 272.30062 
L 108.473909 270.762319 
L 109.08294 242.166588 
L 109.387456 263.56008 
L 109.691972 276.746736 
L 109.996488 260.04549 
L 110.60552 192.351706 
L 110.910036 194.533102 
L 111.214552 198.0306 
L 111.823583 184.115387 
L 112.432615 141.211749 
L 113.955195 66.281542 
L 114.259711 64.051006 
L 115.173258 83.598109 
L 115.477774 86.138442 
L 115.78229 84.04678 
L 116.086806 88.653137 
L 116.391322 95.641723 
L 117.30487 107.377677 
L 117.913901 138.791062 
L 118.522933 168.595641 
L 119.131965 194.699751 
L 120.654544 284.442514 
L 121.568092 324.525933 
L 121.872608 331.159856 
L 122.177124 335.073977 
L 122.786156 354.155317 
L 123.395187 376.080377 
L 123.699703 383.79752 
L 124.004219 388.237227 
L 124.308735 386.216071 
L 124.613251 380.357708 
L 125.222283 358.054482 
L 125.831315 329.674968 
L 126.440346 304.369919 
L 127.049378 267.32678 
L 127.65841 228.488743 
L 127.962926 215.067923 
L 128.267442 212.229972 
L 128.571958 205.143105 
L 128.876474 173.977557 
L 129.180989 163.11758 
L 130.094537 229.06582 
L 130.703569 165.245563 
L 131.312601 218.080856 
L 131.617117 224.383617 
L 132.226148 194.114343 
L 132.83518 221.143143 
L 133.139696 223.937937 
L 133.444212 229.01262 
L 133.748728 227.959952 
L 134.053244 224.60197 
L 134.35776 219.075197 
L 135.271307 193.701992 
L 135.575823 189.027267 
L 135.880339 189.384067 
L 136.184855 189.471665 
L 137.402919 159.109452 
L 137.707434 165.429305 
L 138.620982 230.470801 
L 138.925498 232.649847 
L 139.230014 238.460351 
L 140.143562 310.025311 
L 140.448078 308.965593 
L 140.752593 315.73198 
L 141.361625 382.613883 
L 141.666141 373.129831 
L 141.970657 352.772983 
L 142.275173 356.866572 
L 142.579689 383.105284 
L 142.884205 383.079646 
L 143.493236 333.53354 
L 143.797752 331.721763 
L 144.102268 346.010869 
L 144.406784 339.889713 
L 145.015816 265.617557 
L 145.929364 164.046971 
L 146.23388 150.838949 
L 146.842911 189.734458 
L 147.147427 174.507416 
L 147.451943 143.826861 
L 147.756459 129.751408 
L 148.060975 139.08163 
L 148.365491 155.966618 
L 148.670007 150.618886 
L 148.974523 126.835046 
L 149.279038 123.384551 
L 149.88807 145.040409 
L 150.192586 162.03436 
L 150.801618 172.279017 
L 151.106134 175.06505 
L 151.41065 171.189387 
L 152.019682 203.211683 
L 152.628713 240.183462 
L 153.237745 262.000414 
L 153.542261 262.455494 
L 153.846777 258.314901 
L 154.151293 259.321206 
L 154.455809 262.831523 
L 155.369356 232.433844 
L 155.978388 248.899218 
L 156.282904 251.966846 
L 156.58742 253.33102 
L 156.891936 250.089265 
L 157.196452 237.144057 
L 157.500968 235.086003 
L 158.109999 257.573526 
L 158.719031 233.10621 
L 159.023547 233.264526 
L 159.328063 232.423375 
L 159.632579 229.11731 
L 159.937095 219.333717 
L 160.241611 217.498438 
L 160.546127 226.455622 
L 160.850642 226.078525 
L 161.155158 225.132256 
L 161.459674 225.757405 
L 161.76419 221.377307 
L 162.068706 215.178382 
L 162.373222 215.886 
L 162.982254 231.343146 
L 163.28677 223.488625 
L 163.591285 210.527158 
L 163.895801 210.841228 
L 164.200317 223.010897 
L 164.504833 219.303592 
L 164.809349 211.255714 
L 165.113865 230.403287 
L 165.418381 264.889001 
L 165.722897 282.370081 
L 166.331929 259.635276 
L 166.636444 269.777379 
L 166.94096 287.574665 
L 167.245476 291.046525 
L 167.549992 283.181962 
L 167.854508 262.594369 
L 168.159024 250.545627 
L 168.46354 251.377592 
L 168.768056 248.851787 
L 169.072572 251.306018 
L 169.986119 227.653788 
L 170.290635 227.680067 
L 170.899667 238.763097 
L 171.204183 241.561523 
L 171.813215 253.059895 
L 172.117731 254.285835 
L 172.422246 256.910133 
L 172.726762 256.011937 
L 173.335794 248.536863 
L 173.64031 265.865394 
L 173.944826 305.96377 
L 174.249342 318.78508 
L 174.858374 265.529959 
L 175.162889 267.538297 
L 175.467405 303.449075 
L 175.771921 312.668198 
L 176.685469 222.432538 
L 176.989985 257.988012 
L 177.294501 279.195199 
L 177.599017 260.838142 
L 178.208048 187.84363 
L 178.512564 178.695013 
L 178.81708 177.692981 
L 179.121596 173.41565 
L 179.426112 172.28329 
L 179.730628 170.292045 
L 180.644176 152.501168 
L 181.253207 138.13942 
L 181.862239 124.367355 
L 182.166755 130.272721 
L 183.080303 161.139155 
L 183.384819 161.023782 
L 184.298366 193.53748 
L 184.602882 193.024713 
L 184.907398 190.458741 
L 185.211914 208.076559 
L 185.820946 261.395776 
L 186.125462 266.241424 
L 186.429978 255.788883 
L 186.734493 256.670628 
L 187.648041 318.543652 
L 187.952557 322.464183 
L 188.257073 328.935729 
L 189.170621 370.392937 
L 189.475137 371.546663 
L 189.779652 373.486631 
L 190.084168 376.66365 
L 190.6932 386.53655 
L 190.997716 388.923053 
L 191.302232 389.68793 
L 191.606748 383.383033 
L 192.21578 350.766782 
L 192.824811 319.402537 
L 193.738359 272.420265 
L 194.956423 198.013508 
L 195.86997 136.598983 
L 196.174486 125.563811 
L 196.479002 126.473972 
L 196.783518 134.154794 
L 197.088034 137.771937 
L 197.697066 121.068554 
L 198.001582 129.546301 
L 198.306097 145.734781 
L 198.610613 152.125139 
L 198.915129 152.82592 
L 199.219645 148.963076 
L 199.524161 155.099187 
L 200.437709 201.241803 
L 200.742225 209.418299 
L 201.04674 213.366605 
L 201.655772 217.636031 
L 201.960288 219.265561 
L 202.264804 224.935482 
L 203.178352 248.979338 
L 203.482868 248.408244 
L 204.091899 233.196798 
L 204.700931 230.351369 
L 205.005447 223.39889 
L 205.614479 250.042261 
L 205.918995 252.303136 
L 206.223511 252.481322 
L 206.528027 249.20581 
L 207.137058 268.275399 
L 207.441574 262.278162 
L 207.74609 262.496088 
L 208.659638 283.803692 
L 208.964154 282.908486 
L 209.26867 280.272009 
L 209.877701 271.834856 
L 210.182217 270.411928 
L 210.791249 277.062943 
L 211.095765 278.490144 
L 211.400281 277.688946 
L 211.704797 269.719693 
L 212.618344 238.835526 
L 212.92286 232.196476 
L 213.836408 194.469006 
L 214.140924 190.42883 
L 214.44544 191.477866 
L 215.054472 188.042327 
L 215.663503 158.788973 
L 215.968019 161.83139 
L 216.272535 166.046762 
L 216.577051 172.035452 
L 216.881567 170.084801 
L 217.186083 162.50226 
L 217.490599 165.508356 
L 217.795115 166.080946 
L 218.099631 169.151138 
L 218.708662 186.433521 
L 219.013178 190.930914 
L 219.317694 193.133676 
L 219.62221 198.945035 
L 220.535758 230.290478 
L 221.14479 236.547132 
L 221.753821 232.371457 
L 222.058337 242.303753 
L 222.362853 243.464529 
L 222.971885 209.862697 
L 223.276401 209.852015 
L 223.580917 230.691718 
L 223.885433 242.31059 
L 224.189948 223.253606 
L 224.494464 214.157121 
L 224.79898 219.417682 
L 225.408012 245.741428 
L 225.712528 240.535562 
L 226.017044 238.396896 
L 226.626076 236.3216 
L 226.930592 238.637256 
L 227.235107 242.145436 
L 228.757687 268.386499 
L 229.062203 269.567999 
L 229.366719 267.119537 
L 229.671235 266.102549 
L 229.97575 266.408073 
L 230.280266 274.524746 
L 230.584782 287.027714 
L 230.889298 290.608536 
L 231.193814 285.038605 
L 231.49833 275.052469 
L 231.802846 272.480088 
L 232.107362 274.462787 
L 232.716393 265.47441 
L 233.020909 270.984518 
L 233.325425 285.609059 
L 233.629941 294.306868 
L 234.238973 286.299157 
L 234.848005 289.501814 
L 235.152521 288.533967 
L 235.457037 283.61995 
L 235.761552 281.782535 
L 236.066068 284.049392 
L 236.370584 287.4422 
L 236.6751 293.415935 
L 236.979616 295.571693 
L 237.284132 294.236362 
L 237.588648 292.091287 
L 237.893164 291.832767 
L 238.19768 294.285503 
L 238.806711 303.036725 
L 239.111227 306.418851 
L 239.415743 306.570544 
L 239.720259 305.801394 
L 240.329291 293.415935 
L 240.633807 293.866743 
L 240.938323 279.671645 
L 241.242839 247.711094 
L 241.547354 232.587033 
L 241.85187 249.83865 
L 242.156386 260.276235 
L 242.460902 241.263905 
L 242.765418 211.336902 
L 243.069934 194.836489 
L 243.37445 208.102198 
L 243.678966 210.174631 
L 244.592513 167.473963 
L 245.201545 152.142231 
L 245.506061 146.901326 
L 245.810577 146.510341 
L 246.724125 126.053076 
L 247.028641 128.537859 
L 247.333156 132.195597 
L 247.637672 132.037494 
L 247.942188 130.138119 
L 248.246704 130.127437 
L 248.55122 137.096794 
L 249.160252 158.6736 
L 249.464768 159.346607 
L 249.769284 155.150464 
L 250.073799 163.837591 
L 250.682831 197.400324 
L 251.291863 213.007668 
L 252.509927 279.139649 
L 252.814443 282.639283 
L 253.118958 291.110621 
L 253.72799 322.20139 
L 254.032506 328.796855 
L 254.337022 328.805401 
L 254.641538 328.549018 
L 254.946054 327.527757 
L 255.25057 323.120097 
L 256.773149 283.220419 
L 257.077665 273.268467 
L 257.686697 242.928047 
L 258.600245 194.877083 
L 259.209276 174.663383 
L 259.818308 161.816434 
L 260.122824 159.831599 
L 260.42734 159.56026 
L 260.731856 160.786627 
L 261.036372 162.728732 
L 261.340888 168.074328 
L 261.949919 192.452123 
L 262.558951 215.229231 
L 263.167983 234.431499 
L 263.777015 262.681966 
L 264.081531 272.202339 
L 264.690562 283.218283 
L 265.299594 299.91312 
L 265.60411 302.263302 
L 265.908626 299.778519 
L 266.213142 296.148556 
L 266.822174 291.597749 
L 267.431205 277.590665 
L 268.649269 244.998984 
L 269.562817 226.828874 
L 270.171848 219.06601 
L 270.476364 218.904702 
L 270.78088 219.67022 
L 271.085396 219.505066 
L 271.389912 219.013237 
L 271.694428 219.123696 
L 272.30346 222.246447 
L 272.607976 222.016556 
L 272.912492 222.094326 
L 273.217007 224.077452 
L 273.826039 229.96188 
L 274.130555 229.204694 
L 274.435071 226.770333 
L 274.739587 225.273694 
L 275.044103 223.072215 
L 275.653135 215.218548 
L 275.95765 210.896777 
L 276.262166 208.275256 
L 276.566682 206.845919 
L 276.871198 204.80126 
L 277.175714 201.436227 
L 277.784746 191.960721 
L 278.089262 189.884015 
L 278.393778 190.142535 
L 279.002809 194.727526 
L 279.916357 204.880312 
L 280.829905 216.547897 
L 281.438937 227.778988 
L 282.961516 265.089834 
L 283.875064 286.557677 
L 284.788611 300.218644 
L 285.093127 302.996131 
L 285.397643 303.085865 
L 285.702159 299.684511 
L 286.920223 280.20364 
L 287.529254 261.758986 
L 289.965382 181.869895 
L 290.574413 170.937276 
L 290.878929 168.087147 
L 291.183445 167.194078 
L 291.487961 168.217475 
L 292.096993 177.633158 
L 292.706025 194.56515 
L 295.142152 275.580192 
L 295.751184 289.149287 
L 296.360215 297.154861 
L 296.664731 299.406763 
L 296.969247 298.667524 
L 297.273763 295.667837 
L 297.882795 283.801555 
L 298.796343 260.015578 
L 300.927954 194.1528 
L 301.23247 188.755928 
L 301.536986 185.715647 
L 301.841502 184.130343 
L 302.146017 184.450822 
L 302.450533 186.232687 
L 302.755049 189.057179 
L 303.364081 198.265618 
L 303.668597 204.608973 
L 304.582145 233.761697 
L 307.018272 314.973513 
L 307.627303 326.203109 
L 307.931819 330.341565 
L 308.236335 332.766526 
L 308.540851 333.789923 
L 308.845367 333.749329 
L 309.454399 330.877834 
L 309.758915 328.739169 
L 310.063431 325.453187 
L 310.672462 314.507749 
L 311.890526 278.620472 
L 313.10859 235.189646 
L 314.326653 196.868328 
L 315.240201 177.29986 
L 315.849233 171.215025 
L 316.153749 169.911743 
L 316.458264 169.172504 
L 316.76278 169.847647 
L 317.371812 172.458485 
L 318.28536 181.993814 
L 319.198907 190.375417 
L 319.503423 192.460669 
L 319.807939 193.674218 
L 320.112455 193.804546 
L 320.416971 192.009862 
L 321.026003 185.322526 
L 321.939551 170.550565 
L 322.853098 156.139677 
L 323.157614 152.528943 
L 323.46213 150.578292 
L 323.766646 149.894603 
L 324.071162 150.262086 
L 324.375678 152.135822 
L 324.680194 155.607681 
L 325.289225 167.132118 
L 325.898257 182.720234 
L 326.811805 214.417777 
L 328.029868 256.72981 
L 328.6389 271.943819 
L 329.247932 280.701452 
L 329.552448 281.902181 
L 329.856964 281.515469 
L 330.16148 278.921723 
L 330.770511 267.544706 
L 332.902123 215.410622 
L 333.511155 208.001781 
L 333.81567 206.578852 
L 334.120186 207.459102 
L 334.424702 209.913974 
L 334.729218 215.304437 
L 335.33825 232.353297 
L 336.251798 272.738608 
L 338.687925 397.678548 
L 339.296957 414.45671 
L 339.601472 419.131436 
L 339.905988 421.466662 
L 340.210504 420.238158 
L 340.51502 415.941598 
L 340.819536 409.055565 
L 341.428568 387.309973 
L 342.0376 354.817641 
L 342.951147 289.068099 
L 345.082758 120.425459 
L 345.996306 70.877216 
L 346.605338 52.195407 
L 346.909854 48.206507 
L 347.21437 47.33053 
L 347.518886 49.206403 
L 347.823402 54.940846 
L 348.432433 74.314891 
L 349.041465 104.046828 
L 351.782108 272.326258 
L 352.39114 290.209005 
L 353.000172 298.327815 
L 353.304688 308.260539 
L 353.913719 275.657107 
L 354.218235 278.389727 
L 354.522751 269.691918 
L 354.827267 265.62824 
L 355.436299 223.958875 
L 355.740815 226.300083 
L 356.958878 193.817365 
L 357.872426 187.318044 
L 358.481458 195.321481 
L 358.785974 199.571037 
L 359.395006 214.024656 
L 359.699521 220.957479 
L 360.613069 248.071954 
L 360.917585 257.420336 
L 361.222101 261.64575 
L 361.526617 269.843611 
L 361.831133 273.390249 
L 362.135649 271.394731 
L 362.440164 273.187279 
L 362.74468 272.25148 
L 363.049196 272.257889 
L 363.353712 269.638505 
L 363.658228 262.128605 
L 363.962744 259.915161 
L 364.26726 260.733452 
L 364.571776 260.991972 
L 364.876292 260.440747 
L 365.180808 256.526199 
L 365.485323 255.559847 
L 365.789839 259.026365 
L 366.398871 273.601766 
L 366.703387 276.650593 
L 367.312419 288.516874 
L 368.225966 310.986749 
L 369.139514 326.429581 
L 369.748546 332.112748 
L 370.053062 333.247245 
L 370.357578 332.375541 
L 370.662094 330.322337 
L 371.271125 313.909521 
L 372.184673 283.378522 
L 373.098221 249.695289 
L 374.011768 224.14753 
L 374.6208 214.011837 
L 375.229832 205.281979 
L 375.534348 202.427577 
L 375.838864 202.669004 
L 376.14338 204.43805 
L 376.447896 204.976456 
L 376.752412 203.282188 
L 377.056927 200.508974 
L 377.665959 197.754988 
L 377.970475 194.806578 
L 378.579507 183.331281 
L 379.493055 163.111171 
L 381.015634 120.493828 
L 381.624666 110.144482 
L 381.929182 109.798364 
L 382.233698 110.78544 
L 382.538213 114.310713 
L 382.842729 121.023687 
L 383.451761 144.835302 
L 384.365309 195.40267 
L 387.105952 383.900073 
L 387.410468 386.389129 
L 387.714984 372.352134 
L 388.0195 371.865006 
L 388.324015 378.968964 
L 388.628531 393.7687 
L 388.933047 379.460366 
L 389.237563 351.251774 
L 389.542079 340.904564 
L 390.151111 332.384087 
L 390.455627 317.223278 
L 391.369174 241.645489 
L 391.978206 214.828632 
L 392.282722 203.782136 
L 392.587238 174.624925 
L 392.891754 127.894764 
L 393.19627 114.859801 
L 393.500786 150.894498 
L 393.805302 172.680684 
L 394.109817 144.602421 
L 394.414333 94.082057 
L 394.718849 74.453765 
L 395.327881 137.872354 
L 395.632397 131.674284 
L 396.241429 101.959439 
L 396.545945 104.001961 
L 397.459492 157.357498 
L 398.37304 190.828361 
L 399.286588 234.882563 
L 399.895619 275.413542 
L 400.504651 352.599924 
L 400.809167 341.964283 
L 401.113683 289.553091 
L 401.418199 261.451326 
L 401.722715 294.584617 
L 402.027231 342.874444 
L 402.331747 341.833955 
L 402.940778 254.974865 
L 403.245294 265.668834 
L 403.54981 316.212699 
L 403.854326 337.757457 
L 404.158842 312.73443 
L 404.767874 217.309783 
L 405.07239 219.866353 
L 405.376906 234.852801 
L 405.681421 233.346569 
L 405.985937 219.829819 
L 406.290453 198.836072 
L 406.594969 191.191571 
L 406.899485 188.377762 
L 407.204001 177.440871 
L 407.508517 173.445561 
L 407.813033 177.428051 
L 408.422065 165.839518 
L 409.031096 209.089274 
L 409.335612 239.379059 
L 409.640128 238.852191 
L 409.944644 224.268458 
L 410.24916 220.835269 
L 410.553676 223.563617 
L 410.858192 236.999628 
L 411.162708 231.452109 
L 411.467223 206.006263 
L 411.771739 205.371714 
L 412.380771 252.560374 
L 412.685287 242.774003 
L 412.989803 211.967178 
L 413.294319 209.71955 
L 413.598835 243.593576 
L 413.903351 262.643509 
L 414.512382 234.697347 
L 414.816898 241.459183 
L 415.121414 273.8026 
L 415.42593 287.826776 
L 415.730446 285.512915 
L 416.034962 281.019794 
L 416.339478 286.67305 
L 416.94851 310.080861 
L 417.253025 320.173824 
L 417.557541 348.386689 
L 418.166573 422.312727 
L 418.471089 409.395273 
L 418.775605 381.210183 
L 419.080121 370.890748 
L 419.384637 380.697416 
L 419.689153 376.225661 
L 420.298184 311.693941 
L 420.6027 311.911867 
L 420.907216 320.252876 
L 421.211732 308.046886 
L 421.820764 248.135836 
L 423.038827 170.428783 
L 423.952375 157.786941 
L 424.256891 137.01347 
L 424.561407 102.489298 
L 424.865923 99.970331 
L 425.474955 140.882724 
L 426.083986 100.869809 
L 426.388502 125.042498 
L 426.997534 210.110535 
L 427.30205 208.882031 
L 427.606566 206.053266 
L 428.215598 221.912507 
L 428.520114 228.419092 
L 428.824629 241.203013 
L 429.433661 281.079617 
L 429.738177 287.775499 
L 430.042693 284.064348 
L 430.347209 270.881964 
L 430.651725 265.946583 
L 430.956241 271.5742 
L 431.565272 295.00124 
L 432.174304 298.814944 
L 432.47882 296.432714 
L 432.783336 287.320418 
L 433.087852 274.723444 
L 433.392368 268.228395 
L 433.696884 269.845748 
L 434.0014 260.733452 
L 434.305916 244.840668 
L 434.610431 241.476489 
L 435.219463 256.401639 
L 435.523979 253.097284 
L 436.437527 218.46244 
L 436.742043 213.503343 
L 437.046559 216.520549 
L 437.351074 214.176349 
L 437.960106 205.108921 
L 438.264622 203.406107 
L 438.569138 198.23998 
L 438.873654 187.031749 
L 439.17817 186.463432 
L 439.787202 203.696675 
L 440.091718 204.782032 
L 440.396233 204.732891 
L 440.700749 212.159466 
L 441.309781 240.595598 
L 441.614297 247.911287 
L 441.918813 249.892918 
L 442.223329 250.765903 
L 442.527845 253.239363 
L 443.136876 267.68999 
L 443.441392 270.097858 
L 443.745908 273.603902 
L 444.050424 273.291969 
L 444.35494 267.986968 
L 444.659456 258.990044 
L 444.963972 254.095897 
L 445.268488 252.576825 
L 445.573004 245.200032 
L 448.313647 107.597739 
L 448.618163 103.284087 
L 448.922678 102.320512 
L 449.227194 106.042346 
L 449.53171 112.907013 
L 450.140742 119.617851 
L 450.445258 122.730774 
L 450.749774 131.349531 
L 451.967837 196.594853 
L 452.881385 242.025577 
L 453.185901 253.554715 
L 453.794933 292.924534 
L 454.099449 283.850695 
L 454.403965 262.724697 
L 454.70848 263.681862 
L 455.012996 297.663355 
L 455.317512 309.950533 
L 456.23106 246.107416 
L 456.535576 261.748303 
L 456.840092 266.561903 
L 457.753639 230.388758 
L 458.058155 226.412464 
L 458.667187 234.095615 
L 458.971703 237.921882 
L 459.276219 232.625277 
L 459.580735 218.298355 
L 459.885251 210.559206 
L 460.494282 236.443489 
L 460.798798 239.49379 
L 461.40783 205.978488 
L 461.712346 218.126578 
L 462.321378 247.71729 
L 462.625894 240.463988 
L 462.93041 220.648537 
L 463.234925 227.799072 
L 463.843957 232.777398 
L 464.148473 232.218909 
L 464.452989 223.279031 
L 465.366537 250.999426 
L 465.671053 253.662609 
L 465.975569 248.338806 
L 466.280084 254.647336 
L 467.193632 312.2238 
L 468.411696 349.115245 
L 469.020727 398.892097 
L 469.325243 387.944522 
L 469.629759 357.701955 
L 469.934275 354.415974 
L 470.238791 389.745616 
L 470.543307 408.271459 
L 470.847823 380.855519 
L 471.152339 341.641667 
L 471.456855 327.108997 
L 471.761371 344.011078 
L 472.065886 353.07637 
L 472.370402 338.050162 
L 473.588466 236.895963 
L 474.197498 213.851597 
L 474.806529 180.265362 
L 475.415561 132.964747 
L 475.720077 141.24807 
L 476.024593 162.023678 
L 476.329109 160.043115 
L 476.938141 112.667722 
L 477.242657 124.929262 
L 477.547173 168.360623 
L 477.851688 186.954834 
L 478.156204 155.611954 
L 478.46072 145.019044 
L 478.765236 147.862764 
L 479.374268 177.477192 
L 479.678784 176.094857 
L 480.287816 228.875882 
L 480.592331 236.750103 
L 480.896847 241.469439 
L 481.201363 233.009211 
L 481.505879 238.284729 
L 482.419427 302.635058 
L 482.723943 308.566062 
L 483.028459 308.378048 
L 483.332975 307.138861 
L 483.63749 300.090452 
L 483.942006 300.158821 
L 484.551038 320.472938 
L 485.16007 293.39457 
L 485.464586 298.979457 
L 485.769102 312.134066 
L 486.073618 312.948083 
L 486.378133 293.14246 
L 486.682649 265.019329 
L 487.291681 247.252809 
L 487.900713 233.243802 
L 488.509745 197.141804 
L 489.118777 175.37912 
L 490.032324 150.635978 
L 490.641356 169.550669 
L 490.945872 164.734933 
L 491.250388 151.511955 
L 491.554904 143.762765 
L 491.85942 150.50565 
L 492.468451 180.03248 
L 492.772967 182.508717 
L 493.077483 181.780161 
L 493.381999 185.217836 
L 494.295547 224.684012 
L 494.904578 230.814355 
L 495.209094 237.683872 
L 495.818126 256.567007 
L 496.122642 258.368314 
L 496.427158 252.315741 
L 497.03619 234.008274 
L 497.340706 230.884433 
L 497.645222 229.826424 
L 497.949737 225.855258 
L 498.254253 218.353905 
L 498.863285 196.242325 
L 499.167801 191.42018 
L 499.472317 189.238783 
L 500.081349 186.247643 
L 500.385865 186.574532 
L 500.69038 187.181306 
L 500.994896 185.741286 
L 501.299412 182.280109 
L 501.603928 181.008874 
L 501.908444 188.585006 
L 502.821992 223.13802 
L 503.431024 245.572001 
L 504.040055 270.345696 
L 504.649087 286.230788 
L 505.562635 309.123696 
L 505.867151 313.253607 
L 506.171667 312.32849 
L 506.476182 305.903947 
L 507.085214 288.157938 
L 507.694246 279.013594 
L 507.998762 273.516305 
L 510.130373 192.69996 
L 511.652953 157.381 
L 511.957469 155.624773 
L 512.261984 155.411121 
L 512.5665 157.551923 
L 513.175532 168.49736 
L 514.393596 194.483962 
L 515.002628 204.673069 
L 515.611659 221.24356 
L 516.220691 238.89834 
L 517.134239 255.569889 
L 517.743271 269.726102 
L 518.047786 273.847467 
L 518.352302 273.982068 
L 518.961334 309.450585 
L 519.26585 292.732246 
L 519.570366 265.401768 
L 519.874882 254.326215 
L 520.483914 301.788992 
L 521.092945 254.530254 
L 521.397461 250.892386 
L 522.006493 284.76513 
L 522.311009 282.186339 
L 523.224557 251.647649 
L 523.529073 252.960119 
L 523.833588 258.344813 
L 524.138104 259.757058 
L 524.44262 257.485073 
L 524.747136 256.676397 
L 525.051652 256.645845 
L 525.660684 255.795934 
L 526.269716 230.841703 
L 526.574232 241.109433 
L 527.183263 295.904992 
L 527.487779 296.560906 
L 527.792295 279.678054 
L 528.096811 280.639492 
L 528.705843 314.255639 
L 529.010359 303.78451 
L 529.314875 286.307704 
L 529.61939 277.676127 
L 529.923906 284.820679 
L 530.228422 298.968774 
L 530.532938 307.649491 
L 530.837454 304.675443 
L 531.446486 278.695251 
L 531.751002 280.667267 
L 532.055518 288.978365 
L 532.360033 286.638866 
L 532.664549 271.638296 
L 532.969065 266.256379 
L 533.273581 268.15789 
L 533.578097 270.963153 
L 533.882613 265.820527 
L 534.491645 232.061661 
L 534.796161 222.62974 
L 535.100677 220.27849 
L 535.405192 224.959411 
L 535.709708 225.696941 
L 536.014224 223.148489 
L 536.31874 219.358287 
L 536.623256 218.1817 
L 536.927772 216.458162 
L 537.84132 180.256816 
L 538.145835 180.139307 
L 538.450351 184.867445 
L 538.754867 184.425184 
L 539.363899 170.542019 
L 539.668415 162.147596 
L 539.972931 158.688556 
L 540.277447 160.833631 
L 542.409058 191.926537 
L 543.01809 186.747591 
L 543.322606 189.213145 
L 543.627122 196.874738 
L 544.236153 216.722024 
L 545.454217 237.236184 
L 546.063249 244.313372 
L 546.367765 245.565806 
L 547.281312 254.691348 
L 547.585828 254.095043 
L 548.19486 249.741865 
L 548.499376 249.652558 
L 548.803892 249.793569 
L 549.412924 245.371809 
L 549.717439 245.389115 
L 550.630987 251.990775 
L 551.240019 247.416467 
L 551.544535 247.064794 
L 551.849051 247.902527 
L 552.153567 248.200573 
L 552.458083 248.150578 
L 552.762598 249.022068 
L 553.067114 251.491255 
L 553.980662 260.818913 
L 554.589694 265.032148 
L 554.89421 266.081184 
L 555.198726 267.935691 
L 555.503241 271.037931 
L 555.807757 272.928759 
L 556.112273 272.25148 
L 556.416789 269.766696 
L 557.330337 257.945282 
L 557.634853 252.495637 
L 557.939369 249.374168 
L 558.243885 248.034565 
L 558.5484 247.682892 
L 558.852916 245.718354 
L 560.375496 216.40774 
L 560.984528 207.879999 
L 561.898075 199.036905 
L 562.202591 194.396364 
L 562.811623 182.77792 
L 563.116139 178.049781 
L 563.420655 175.270157 
L 564.029687 171.618829 
L 564.638718 163.854683 
L 566.161298 135.259379 
L 566.465814 133.877045 
L 566.77033 134.257347 
L 567.379361 138.538951 
L 567.988393 146.862868 
L 568.292909 153.20195 
L 568.901941 171.665833 
L 569.815488 208.072286 
L 571.9471 299.975079 
L 572.556132 319.09915 
L 573.165163 331.04021 
L 573.469679 333.999303 
L 573.774195 333.860428 
L 574.078711 331.901231 
L 574.687743 323.073094 
L 575.296775 311.465332 
L 577.12387 265.630376 
L 578.646449 238.347542 
L 578.950965 234.003488 
L 579.559997 229.060692 
L 580.169029 225.935805 
L 580.473545 226.052032 
L 581.082577 233.299138 
L 583.518704 269.768833 
L 584.432251 288.228443 
L 585.954831 317.85569 
L 586.563863 327.254281 
L 586.868379 330.805192 
L 587.172894 332.984452 
L 587.47741 332.416135 
L 587.781926 330.394979 
L 588.086442 333.781377 
L 588.390958 332.700293 
L 588.695474 317.022444 
L 588.99999 293.70864 
L 589.304506 280.87451 
L 589.609022 290.924743 
L 589.913538 286.636729 
L 590.522569 244.86652 
L 590.827085 232.711165 
L 591.131601 236.245307 
L 591.436117 229.235246 
L 591.740633 213.078174 
L 592.045149 203.993652 
L 592.654181 181.354992 
L 592.958696 175.496629 
L 593.263212 172.199965 
L 593.567728 172.377297 
L 594.17676 170.57834 
L 594.481276 171.014191 
L 594.785792 171.939309 
L 595.090308 170.791992 
L 595.69934 173.505384 
L 596.003855 176.092721 
L 596.612887 187.976095 
L 596.917403 188.958898 
L 597.526435 174.178391 
L 597.830951 175.037275 
L 598.135467 176.464477 
L 598.439983 172.150825 
L 599.049014 156.943012 
L 599.35353 158.906482 
L 599.658046 162.553537 
L 599.962562 160.874225 
L 600.571594 147.480325 
L 600.87611 147.689705 
L 602.398689 194.347224 
L 603.312237 233.812119 
L 604.5303 299.028597 
L 604.834816 318.357774 
L 605.139332 350.025407 
L 605.443848 355.274858 
L 606.05288 320.955794 
L 606.357396 323.28461 
L 606.661912 348.98919 
L 606.966428 343.91707 
L 607.270943 310.298787 
L 607.575459 291.84986 
L 607.879975 285.79921 
L 608.184491 287.784045 
L 608.489007 274.819587 
L 609.098039 218.08812 
L 609.707071 180.348686 
L 610.316102 156.761407 
L 610.925134 96.575386 
L 611.22965 119.872098 
L 611.534166 157.786941 
L 611.838682 148.762242 
L 612.143198 96.400191 
L 612.447714 80.878308 
L 613.361261 165.010545 
L 613.665777 153.306639 
L 614.579325 180.4021 
L 615.188357 231.443563 
L 615.492873 244.149287 
L 615.797389 241.904009 
L 616.101904 240.639611 
L 617.015452 295.663564 
L 617.319968 298.960228 
L 617.624484 300.618174 
L 617.929 311.941778 
L 618.233516 332.206755 
L 618.538032 334.888099 
L 619.147063 308.655796 
L 619.451579 314.954284 
L 620.060611 347.250055 
L 620.365127 336.3153 
L 620.669643 318.996597 
L 620.974159 326.269341 
L 621.583191 362.338223 
L 621.887706 360.483716 
L 622.192222 337.6079 
L 622.496738 329.856573 
L 622.801254 329.482681 
L 623.10577 329.897167 
L 623.410286 324.179816 
L 624.019318 289.512497 
L 624.323834 281.430008 
L 624.932865 250.174726 
L 625.541897 214.63143 
L 625.846413 204.042793 
L 626.455445 133.729625 
L 627.064477 174.998818 
L 627.368993 152.170006 
L 627.673508 105.751778 
L 627.978024 82.271325 
L 628.28254 110.07184 
L 628.587056 125.288199 
L 629.196088 78.645635 
L 629.500604 79.297276 
L 629.80512 96.955688 
L 630.109636 104.027599 
L 630.414151 106.845681 
L 631.023183 132.129364 
L 631.632215 158.150151 
L 632.850279 210.70449 
L 633.763826 275.169978 
L 634.068342 299.584094 
L 634.372858 300.353245 
L 634.98189 272.958671 
L 635.286406 293.680865 
L 635.590922 340.519989 
L 635.895438 362.942861 
L 636.504469 320.560536 
L 636.808985 334.45652 
L 637.418017 401.364061 
L 637.722533 391.339467 
L 638.027049 363.323163 
L 638.331565 354.048491 
L 638.636081 359.906853 
L 638.940597 369.927174 
L 639.245112 363.729103 
L 639.549628 346.448857 
L 640.15866 328.352457 
L 640.767692 294.518384 
L 641.376724 249.840145 
L 641.68124 232.908581 
L 641.985755 198.383127 
L 642.290271 145.730508 
L 642.594787 136.866049 
L 643.203819 219.050627 
L 643.812851 107.764388 
L 644.117367 139.575168 
L 644.421883 159.026127 
L 644.726398 142.17746 
L 645.030914 151.326077 
L 645.33543 110.200031 
L 645.944462 155.667504 
L 646.248978 130.541923 
L 646.553494 154.530871 
L 646.85801 162.478758 
L 647.467042 219.627917 
L 647.771557 218.226354 
L 648.076073 222.750667 
L 648.380589 232.393036 
L 648.685105 238.197302 
L 649.903169 335.061158 
L 650.207685 338.028796 
L 650.5122 325.305767 
L 651.121232 282.361535 
L 651.730264 297.109994 
L 652.03478 306.036412 
L 652.643812 296.28743 
L 652.948328 316.629322 
L 653.252844 328.149487 
L 653.557359 327.10686 
L 654.166391 317.28951 
L 654.470907 324.754542 
L 655.079939 286.190194 
L 655.384455 293.70223 
L 655.688971 296.14001 
L 655.993487 302.577372 
L 656.602518 261.504739 
L 656.907034 271.591292 
L 657.21155 269.014638 
L 657.820582 232.832734 
L 658.125098 207.253996 
L 658.429614 197.757124 
L 658.73413 198.703607 
L 659.038646 189.373385 
L 659.343161 170.193764 
L 660.256709 44.811563 
L 660.561225 47.420264 
L 660.865741 56.669298 
L 661.170257 50.063151 
L 661.474773 40.549187 
L 661.779289 26.967273 
L 662.083804 37.130741 
L 662.692836 80.136932 
L 662.997352 81.237245 
L 663.301868 70.834485 
L 663.606384 66.873361 
L 663.9109 77.600872 
L 664.824448 145.463442 
L 666.042511 212.343208 
L 666.347027 242.951549 
L 666.956059 340.210193 
L 667.260575 338.729578 
L 667.565091 324.624214 
L 667.869606 326.320618 
L 668.174122 368.132489 
L 668.478638 392.704709 
L 668.783154 366.128425 
L 669.08767 325.46387 
L 669.392186 303.84647 
L 669.696702 314.706446 
L 670.305734 382.836082 
L 670.61025 372.903359 
L 671.219281 326.070644 
L 671.523797 314.39024 
L 671.828313 331.98242 
L 672.132829 331.905504 
L 672.437345 326.156105 
L 673.350893 292.548505 
L 673.959924 258.48155 
L 674.26444 245.850819 
L 674.568956 228.39324 
L 674.873472 203.335602 
L 675.177988 194.731799 
L 675.482504 212.097507 
L 675.78702 236.364309 
L 676.091536 248.03606 
L 676.700567 211.347585 
L 677.005083 211.082656 
L 677.309599 213.86228 
L 677.614115 218.89231 
L 677.918631 210.458789 
L 678.527663 162.384751 
L 678.832179 161.589962 
L 679.136695 169.146865 
L 679.44121 169.800643 
L 680.050242 162.476622 
L 680.354758 177.197306 
L 680.659274 185.914344 
L 680.96379 181.427634 
L 681.268306 192.206422 
L 681.877338 219.969975 
L 682.486369 234.443976 
L 682.790885 247.275883 
L 683.095401 253.448529 
L 683.399917 270.200412 
L 683.704433 297.073673 
L 684.008949 297.727451 
L 684.008949 297.727451 
" style="fill:none;stroke:#1f77b4;stroke-linecap:square;stroke-width:1.5;"/>
   </g>
   <g id="patch_3">
    <path d="M 44.845313 442.08 
L 44.845313 7.2 
" style="fill:none;stroke:#000000;stroke-linecap:square;stroke-linejoin:miter;stroke-width:0.8;"/>
   </g>
   <g id="patch_4">
    <path d="M 714.445312 442.08 
L 714.445312 7.2 
" style="fill:none;stroke:#000000;stroke-linecap:square;stroke-linejoin:miter;stroke-width:0.8;"/>
   </g>
   <g id="patch_5">
    <path d="M 44.845312 442.08 
L 714.445313 442.08 
" style="fill:none;stroke:#000000;stroke-linecap:square;stroke-linejoin:miter;stroke-width:0.8;"/>
   </g>
   <g id="patch_6">
    <path d="M 44.845312 7.2 
L 714.445313 7.2 
" style="fill:none;stroke:#000000;stroke-linecap:square;stroke-linejoin:miter;stroke-width:0.8;"/>
   </g>
  </g>
 </g>
 <defs>
  <clipPath id="p5f783086dd">
   <rect height="434.88" width="669.6" x="44.845313" y="7.2"/>
  </clipPath>
 </defs>
</svg>
