<?xml version="1.0" encoding="utf-8" standalone="no"?>
<!DOCTYPE svg PUBLIC "-//W3C//DTD SVG 1.1//EN"
  "http://www.w3.org/Graphics/SVG/1.1/DTD/svg11.dtd">
<!-- Created with matplotlib (https://matplotlib.org/) -->
<svg height="568.944375pt" version="1.1" viewBox="0 0 711.946643 568.944375" width="711.946643pt" xmlns="http://www.w3.org/2000/svg" xmlns:xlink="http://www.w3.org/1999/xlink">
 <metadata>
  <rdf:RDF xmlns:cc="http://creativecommons.org/ns#" xmlns:dc="http://purl.org/dc/elements/1.1/" xmlns:rdf="http://www.w3.org/1999/02/22-rdf-syntax-ns#">
   <cc:Work>
    <dc:type rdf:resource="http://purl.org/dc/dcmitype/StillImage"/>
    <dc:date>2021-01-07T15:37:24.825472</dc:date>
    <dc:format>image/svg+xml</dc:format>
    <dc:creator>
     <cc:Agent>
      <dc:title>Matplotlib v3.3.2, https://matplotlib.org/</dc:title>
     </cc:Agent>
    </dc:creator>
   </cc:Work>
  </rdf:RDF>
 </metadata>
 <defs>
  <style type="text/css">*{stroke-linecap:butt;stroke-linejoin:round;}</style>
 </defs>
 <g id="figure_1">
  <g id="patch_1">
   <path d="M 0 568.944375 
L 711.946643 568.944375 
L 711.946643 0 
L 0 0 
z
" style="fill:#ffffff;"/>
  </g>
  <g id="axes_1">
   <g id="patch_2">
    <path d="M 55.304375 533.984062 
L 352.912962 533.984062 
L 352.912962 304.934062 
L 55.304375 304.934062 
z
" style="fill:#ffffff;"/>
   </g>
   <g id="matplotlib.axis_1">
    <g id="xtick_1">
     <g id="line2d_1"/>
     <g id="text_1">
      <!-- 0 -->
      <g style="fill:#262626;" transform="translate(66.051569 544.641875)scale(0.1 -0.1)">
       <defs>
        <path d="M 4.15625 35.296875 
Q 4.15625 48 6.765625 55.734375 
Q 9.375 63.484375 14.515625 67.671875 
Q 19.671875 71.875 27.484375 71.875 
Q 33.25 71.875 37.59375 69.546875 
Q 41.9375 67.234375 44.765625 62.859375 
Q 47.609375 58.5 49.21875 52.21875 
Q 50.828125 45.953125 50.828125 35.296875 
Q 50.828125 22.703125 48.234375 14.96875 
Q 45.65625 7.234375 40.5 3 
Q 35.359375 -1.21875 27.484375 -1.21875 
Q 17.140625 -1.21875 11.234375 6.203125 
Q 4.15625 15.140625 4.15625 35.296875 
z
M 13.1875 35.296875 
Q 13.1875 17.671875 17.3125 11.828125 
Q 21.4375 6 27.484375 6 
Q 33.546875 6 37.671875 11.859375 
Q 41.796875 17.71875 41.796875 35.296875 
Q 41.796875 52.984375 37.671875 58.78125 
Q 33.546875 64.59375 27.390625 64.59375 
Q 21.34375 64.59375 17.71875 59.46875 
Q 13.1875 52.9375 13.1875 35.296875 
z
" id="ArialMT-48"/>
       </defs>
       <use xlink:href="#ArialMT-48"/>
      </g>
     </g>
    </g>
    <g id="xtick_2">
     <g id="line2d_2"/>
     <g id="text_2">
      <!-- 25 -->
      <g style="fill:#262626;" transform="translate(97.260204 544.641875)scale(0.1 -0.1)">
       <defs>
        <path d="M 50.34375 8.453125 
L 50.34375 0 
L 3.03125 0 
Q 2.9375 3.171875 4.046875 6.109375 
Q 5.859375 10.9375 9.828125 15.625 
Q 13.8125 20.3125 21.34375 26.46875 
Q 33.015625 36.03125 37.109375 41.625 
Q 41.21875 47.21875 41.21875 52.203125 
Q 41.21875 57.421875 37.46875 61 
Q 33.734375 64.59375 27.734375 64.59375 
Q 21.390625 64.59375 17.578125 60.78125 
Q 13.765625 56.984375 13.71875 50.25 
L 4.6875 51.171875 
Q 5.609375 61.28125 11.65625 66.578125 
Q 17.71875 71.875 27.9375 71.875 
Q 38.234375 71.875 44.234375 66.15625 
Q 50.25 60.453125 50.25 52 
Q 50.25 47.703125 48.484375 43.546875 
Q 46.734375 39.40625 42.65625 34.8125 
Q 38.578125 30.21875 29.109375 22.21875 
Q 21.1875 15.578125 18.9375 13.203125 
Q 16.703125 10.84375 15.234375 8.453125 
z
" id="ArialMT-50"/>
        <path d="M 4.15625 18.75 
L 13.375 19.53125 
Q 14.40625 12.796875 18.140625 9.390625 
Q 21.875 6 27.15625 6 
Q 33.5 6 37.890625 10.78125 
Q 42.28125 15.578125 42.28125 23.484375 
Q 42.28125 31 38.0625 35.34375 
Q 33.84375 39.703125 27 39.703125 
Q 22.75 39.703125 19.328125 37.765625 
Q 15.921875 35.84375 13.96875 32.765625 
L 5.71875 33.84375 
L 12.640625 70.609375 
L 48.25 70.609375 
L 48.25 62.203125 
L 19.671875 62.203125 
L 15.828125 42.96875 
Q 22.265625 47.46875 29.34375 47.46875 
Q 38.71875 47.46875 45.15625 40.96875 
Q 51.609375 34.46875 51.609375 24.265625 
Q 51.609375 14.546875 45.953125 7.46875 
Q 39.0625 -1.21875 27.15625 -1.21875 
Q 17.390625 -1.21875 11.203125 4.25 
Q 5.03125 9.71875 4.15625 18.75 
z
" id="ArialMT-53"/>
       </defs>
       <use xlink:href="#ArialMT-50"/>
       <use x="55.615234" xlink:href="#ArialMT-53"/>
      </g>
     </g>
    </g>
    <g id="xtick_3">
     <g id="line2d_3"/>
     <g id="text_3">
      <!-- 50 -->
      <g style="fill:#262626;" transform="translate(131.249307 544.641875)scale(0.1 -0.1)">
       <use xlink:href="#ArialMT-53"/>
       <use x="55.615234" xlink:href="#ArialMT-48"/>
      </g>
     </g>
    </g>
    <g id="xtick_4">
     <g id="line2d_4"/>
     <g id="text_4">
      <!-- 75 -->
      <g style="fill:#262626;" transform="translate(165.23841 544.641875)scale(0.1 -0.1)">
       <defs>
        <path d="M 4.734375 62.203125 
L 4.734375 70.65625 
L 51.078125 70.65625 
L 51.078125 63.8125 
Q 44.234375 56.546875 37.515625 44.484375 
Q 30.8125 32.421875 27.15625 19.671875 
Q 24.515625 10.6875 23.78125 0 
L 14.75 0 
Q 14.890625 8.453125 18.0625 20.40625 
Q 21.234375 32.375 27.171875 43.484375 
Q 33.109375 54.59375 39.796875 62.203125 
z
" id="ArialMT-55"/>
       </defs>
       <use xlink:href="#ArialMT-55"/>
       <use x="55.615234" xlink:href="#ArialMT-53"/>
      </g>
     </g>
    </g>
    <g id="xtick_5">
     <g id="line2d_5"/>
     <g id="text_5">
      <!-- 100 -->
      <g style="fill:#262626;" transform="translate(196.447044 544.641875)scale(0.1 -0.1)">
       <defs>
        <path d="M 37.25 0 
L 28.46875 0 
L 28.46875 56 
Q 25.296875 52.984375 20.140625 49.953125 
Q 14.984375 46.921875 10.890625 45.40625 
L 10.890625 53.90625 
Q 18.265625 57.375 23.78125 62.296875 
Q 29.296875 67.234375 31.59375 71.875 
L 37.25 71.875 
z
" id="ArialMT-49"/>
       </defs>
       <use xlink:href="#ArialMT-49"/>
       <use x="55.615234" xlink:href="#ArialMT-48"/>
       <use x="111.230469" xlink:href="#ArialMT-48"/>
      </g>
     </g>
    </g>
    <g id="xtick_6">
     <g id="line2d_6"/>
     <g id="text_6">
      <!-- 125 -->
      <g style="fill:#262626;" transform="translate(230.436148 544.641875)scale(0.1 -0.1)">
       <use xlink:href="#ArialMT-49"/>
       <use x="55.615234" xlink:href="#ArialMT-50"/>
       <use x="111.230469" xlink:href="#ArialMT-53"/>
      </g>
     </g>
    </g>
    <g id="xtick_7">
     <g id="line2d_7"/>
     <g id="text_7">
      <!-- 150 -->
      <g style="fill:#262626;" transform="translate(264.425251 544.641875)scale(0.1 -0.1)">
       <use xlink:href="#ArialMT-49"/>
       <use x="55.615234" xlink:href="#ArialMT-53"/>
       <use x="111.230469" xlink:href="#ArialMT-48"/>
      </g>
     </g>
    </g>
    <g id="xtick_8">
     <g id="line2d_8"/>
     <g id="text_8">
      <!-- 175 -->
      <g style="fill:#262626;" transform="translate(298.414354 544.641875)scale(0.1 -0.1)">
       <use xlink:href="#ArialMT-49"/>
       <use x="55.615234" xlink:href="#ArialMT-55"/>
       <use x="111.230469" xlink:href="#ArialMT-53"/>
      </g>
     </g>
    </g>
    <g id="xtick_9">
     <g id="line2d_9"/>
     <g id="text_9">
      <!-- 200 -->
      <g style="fill:#262626;" transform="translate(332.403457 544.641875)scale(0.1 -0.1)">
       <use xlink:href="#ArialMT-50"/>
       <use x="55.615234" xlink:href="#ArialMT-48"/>
       <use x="111.230469" xlink:href="#ArialMT-48"/>
      </g>
     </g>
    </g>
    <g id="text_10">
     <!-- Lag -->
     <g style="fill:#262626;" transform="translate(194.098981 559.21875)scale(0.12 -0.12)">
      <defs>
       <path d="M 7.328125 0 
L 7.328125 71.578125 
L 16.796875 71.578125 
L 16.796875 8.453125 
L 52.046875 8.453125 
L 52.046875 0 
z
" id="ArialMT-76"/>
       <path d="M 40.4375 6.390625 
Q 35.546875 2.25 31.03125 0.53125 
Q 26.515625 -1.171875 21.34375 -1.171875 
Q 12.796875 -1.171875 8.203125 3 
Q 3.609375 7.171875 3.609375 13.671875 
Q 3.609375 17.484375 5.34375 20.625 
Q 7.078125 23.78125 9.890625 25.6875 
Q 12.703125 27.59375 16.21875 28.5625 
Q 18.796875 29.25 24.03125 29.890625 
Q 34.671875 31.15625 39.703125 32.90625 
Q 39.75 34.71875 39.75 35.203125 
Q 39.75 40.578125 37.25 42.78125 
Q 33.890625 45.75 27.25 45.75 
Q 21.046875 45.75 18.09375 43.578125 
Q 15.140625 41.40625 13.71875 35.890625 
L 5.125 37.0625 
Q 6.296875 42.578125 8.984375 45.96875 
Q 11.671875 49.359375 16.75 51.1875 
Q 21.828125 53.03125 28.515625 53.03125 
Q 35.15625 53.03125 39.296875 51.46875 
Q 43.453125 49.90625 45.40625 47.53125 
Q 47.359375 45.171875 48.140625 41.546875 
Q 48.578125 39.3125 48.578125 33.453125 
L 48.578125 21.734375 
Q 48.578125 9.46875 49.140625 6.21875 
Q 49.703125 2.984375 51.375 0 
L 42.1875 0 
Q 40.828125 2.734375 40.4375 6.390625 
z
M 39.703125 26.03125 
Q 34.90625 24.078125 25.34375 22.703125 
Q 19.921875 21.921875 17.671875 20.9375 
Q 15.4375 19.96875 14.203125 18.09375 
Q 12.984375 16.21875 12.984375 13.921875 
Q 12.984375 10.40625 15.640625 8.0625 
Q 18.3125 5.71875 23.4375 5.71875 
Q 28.515625 5.71875 32.46875 7.9375 
Q 36.421875 10.15625 38.28125 14.015625 
Q 39.703125 17 39.703125 22.796875 
z
" id="ArialMT-97"/>
       <path d="M 4.984375 -4.296875 
L 13.53125 -5.5625 
Q 14.0625 -9.515625 16.5 -11.328125 
Q 19.78125 -13.765625 25.4375 -13.765625 
Q 31.546875 -13.765625 34.859375 -11.328125 
Q 38.1875 -8.890625 39.359375 -4.5 
Q 40.046875 -1.8125 39.984375 6.78125 
Q 34.234375 0 25.640625 0 
Q 14.9375 0 9.078125 7.71875 
Q 3.21875 15.4375 3.21875 26.21875 
Q 3.21875 33.640625 5.90625 39.90625 
Q 8.59375 46.1875 13.6875 49.609375 
Q 18.796875 53.03125 25.6875 53.03125 
Q 34.859375 53.03125 40.828125 45.609375 
L 40.828125 51.859375 
L 48.921875 51.859375 
L 48.921875 7.03125 
Q 48.921875 -5.078125 46.453125 -10.125 
Q 44 -15.1875 38.640625 -18.109375 
Q 33.296875 -21.046875 25.484375 -21.046875 
Q 16.21875 -21.046875 10.5 -16.875 
Q 4.78125 -12.703125 4.984375 -4.296875 
z
M 12.25 26.859375 
Q 12.25 16.65625 16.296875 11.96875 
Q 20.359375 7.28125 26.46875 7.28125 
Q 32.515625 7.28125 36.609375 11.9375 
Q 40.71875 16.609375 40.71875 26.5625 
Q 40.71875 36.078125 36.5 40.90625 
Q 32.28125 45.75 26.3125 45.75 
Q 20.453125 45.75 16.34375 40.984375 
Q 12.25 36.234375 12.25 26.859375 
z
" id="ArialMT-103"/>
      </defs>
      <use xlink:href="#ArialMT-76"/>
      <use x="55.615234" xlink:href="#ArialMT-97"/>
      <use x="111.230469" xlink:href="#ArialMT-103"/>
     </g>
    </g>
   </g>
   <g id="matplotlib.axis_2">
    <g id="ytick_1">
     <g id="line2d_10"/>
     <g id="text_11">
      <!-- −1.00 -->
      <g style="fill:#262626;" transform="translate(26.502813 537.562969)scale(0.1 -0.1)">
       <defs>
        <path d="M 52.828125 31.203125 
L 5.5625 31.203125 
L 5.5625 39.40625 
L 52.828125 39.40625 
z
" id="ArialMT-8722"/>
        <path d="M 9.078125 0 
L 9.078125 10.015625 
L 19.09375 10.015625 
L 19.09375 0 
z
" id="ArialMT-46"/>
       </defs>
       <use xlink:href="#ArialMT-8722"/>
       <use x="58.398438" xlink:href="#ArialMT-49"/>
       <use x="114.013672" xlink:href="#ArialMT-46"/>
       <use x="141.796875" xlink:href="#ArialMT-48"/>
       <use x="197.412109" xlink:href="#ArialMT-48"/>
      </g>
     </g>
    </g>
    <g id="ytick_2">
     <g id="line2d_11"/>
     <g id="text_12">
      <!-- −0.75 -->
      <g style="fill:#262626;" transform="translate(26.502813 508.931719)scale(0.1 -0.1)">
       <use xlink:href="#ArialMT-8722"/>
       <use x="58.398438" xlink:href="#ArialMT-48"/>
       <use x="114.013672" xlink:href="#ArialMT-46"/>
       <use x="141.796875" xlink:href="#ArialMT-55"/>
       <use x="197.412109" xlink:href="#ArialMT-53"/>
      </g>
     </g>
    </g>
    <g id="ytick_3">
     <g id="line2d_12"/>
     <g id="text_13">
      <!-- −0.50 -->
      <g style="fill:#262626;" transform="translate(26.502813 480.300469)scale(0.1 -0.1)">
       <use xlink:href="#ArialMT-8722"/>
       <use x="58.398438" xlink:href="#ArialMT-48"/>
       <use x="114.013672" xlink:href="#ArialMT-46"/>
       <use x="141.796875" xlink:href="#ArialMT-53"/>
       <use x="197.412109" xlink:href="#ArialMT-48"/>
      </g>
     </g>
    </g>
    <g id="ytick_4">
     <g id="line2d_13"/>
     <g id="text_14">
      <!-- −0.25 -->
      <g style="fill:#262626;" transform="translate(26.502813 451.669219)scale(0.1 -0.1)">
       <use xlink:href="#ArialMT-8722"/>
       <use x="58.398438" xlink:href="#ArialMT-48"/>
       <use x="114.013672" xlink:href="#ArialMT-46"/>
       <use x="141.796875" xlink:href="#ArialMT-50"/>
       <use x="197.412109" xlink:href="#ArialMT-53"/>
      </g>
     </g>
    </g>
    <g id="ytick_5">
     <g id="line2d_14"/>
     <g id="text_15">
      <!-- 0.00 -->
      <g style="fill:#262626;" transform="translate(32.343438 423.037969)scale(0.1 -0.1)">
       <use xlink:href="#ArialMT-48"/>
       <use x="55.615234" xlink:href="#ArialMT-46"/>
       <use x="83.398438" xlink:href="#ArialMT-48"/>
       <use x="139.013672" xlink:href="#ArialMT-48"/>
      </g>
     </g>
    </g>
    <g id="ytick_6">
     <g id="line2d_15"/>
     <g id="text_16">
      <!-- 0.25 -->
      <g style="fill:#262626;" transform="translate(32.343438 394.406719)scale(0.1 -0.1)">
       <use xlink:href="#ArialMT-48"/>
       <use x="55.615234" xlink:href="#ArialMT-46"/>
       <use x="83.398438" xlink:href="#ArialMT-50"/>
       <use x="139.013672" xlink:href="#ArialMT-53"/>
      </g>
     </g>
    </g>
    <g id="ytick_7">
     <g id="line2d_16"/>
     <g id="text_17">
      <!-- 0.50 -->
      <g style="fill:#262626;" transform="translate(32.343438 365.775469)scale(0.1 -0.1)">
       <use xlink:href="#ArialMT-48"/>
       <use x="55.615234" xlink:href="#ArialMT-46"/>
       <use x="83.398438" xlink:href="#ArialMT-53"/>
       <use x="139.013672" xlink:href="#ArialMT-48"/>
      </g>
     </g>
    </g>
    <g id="ytick_8">
     <g id="line2d_17"/>
     <g id="text_18">
      <!-- 0.75 -->
      <g style="fill:#262626;" transform="translate(32.343438 337.144219)scale(0.1 -0.1)">
       <use xlink:href="#ArialMT-48"/>
       <use x="55.615234" xlink:href="#ArialMT-46"/>
       <use x="83.398438" xlink:href="#ArialMT-55"/>
       <use x="139.013672" xlink:href="#ArialMT-53"/>
      </g>
     </g>
    </g>
    <g id="ytick_9">
     <g id="line2d_18"/>
     <g id="text_19">
      <!-- 1.00 -->
      <g style="fill:#262626;" transform="translate(32.343438 308.512969)scale(0.1 -0.1)">
       <use xlink:href="#ArialMT-49"/>
       <use x="55.615234" xlink:href="#ArialMT-46"/>
       <use x="83.398438" xlink:href="#ArialMT-48"/>
       <use x="139.013672" xlink:href="#ArialMT-48"/>
      </g>
     </g>
    </g>
    <g id="text_20">
     <!-- Cross Correlation: ee, ex -->
     <g style="fill:#262626;" transform="translate(20.117812 485.815312)rotate(-90)scale(0.12 -0.12)">
      <defs>
       <path d="M 58.796875 25.09375 
L 68.265625 22.703125 
Q 65.28125 11.03125 57.546875 4.90625 
Q 49.8125 -1.21875 38.625 -1.21875 
Q 27.046875 -1.21875 19.796875 3.484375 
Q 12.546875 8.203125 8.765625 17.140625 
Q 4.984375 26.078125 4.984375 36.328125 
Q 4.984375 47.515625 9.25 55.828125 
Q 13.53125 64.15625 21.40625 68.46875 
Q 29.296875 72.796875 38.765625 72.796875 
Q 49.515625 72.796875 56.828125 67.328125 
Q 64.15625 61.859375 67.046875 51.953125 
L 57.71875 49.75 
Q 55.21875 57.5625 50.484375 61.125 
Q 45.75 64.703125 38.578125 64.703125 
Q 30.328125 64.703125 24.78125 60.734375 
Q 19.234375 56.78125 16.984375 50.109375 
Q 14.75 43.453125 14.75 36.375 
Q 14.75 27.25 17.40625 20.4375 
Q 20.0625 13.625 25.671875 10.25 
Q 31.296875 6.890625 37.84375 6.890625 
Q 45.796875 6.890625 51.3125 11.46875 
Q 56.84375 16.0625 58.796875 25.09375 
z
" id="ArialMT-67"/>
       <path d="M 6.5 0 
L 6.5 51.859375 
L 14.40625 51.859375 
L 14.40625 44 
Q 17.4375 49.515625 20 51.265625 
Q 22.5625 53.03125 25.640625 53.03125 
Q 30.078125 53.03125 34.671875 50.203125 
L 31.640625 42.046875 
Q 28.421875 43.953125 25.203125 43.953125 
Q 22.3125 43.953125 20.015625 42.21875 
Q 17.71875 40.484375 16.75 37.40625 
Q 15.28125 32.71875 15.28125 27.15625 
L 15.28125 0 
z
" id="ArialMT-114"/>
       <path d="M 3.328125 25.921875 
Q 3.328125 40.328125 11.328125 47.265625 
Q 18.015625 53.03125 27.640625 53.03125 
Q 38.328125 53.03125 45.109375 46.015625 
Q 51.90625 39.015625 51.90625 26.65625 
Q 51.90625 16.65625 48.90625 10.90625 
Q 45.90625 5.171875 40.15625 2 
Q 34.421875 -1.171875 27.640625 -1.171875 
Q 16.75 -1.171875 10.03125 5.8125 
Q 3.328125 12.796875 3.328125 25.921875 
z
M 12.359375 25.921875 
Q 12.359375 15.96875 16.703125 11.015625 
Q 21.046875 6.0625 27.640625 6.0625 
Q 34.1875 6.0625 38.53125 11.03125 
Q 42.875 16.015625 42.875 26.21875 
Q 42.875 35.84375 38.5 40.796875 
Q 34.125 45.75 27.640625 45.75 
Q 21.046875 45.75 16.703125 40.8125 
Q 12.359375 35.890625 12.359375 25.921875 
z
" id="ArialMT-111"/>
       <path d="M 3.078125 15.484375 
L 11.765625 16.84375 
Q 12.5 11.625 15.84375 8.84375 
Q 19.1875 6.0625 25.203125 6.0625 
Q 31.25 6.0625 34.171875 8.515625 
Q 37.109375 10.984375 37.109375 14.3125 
Q 37.109375 17.28125 34.515625 19 
Q 32.71875 20.171875 25.53125 21.96875 
Q 15.875 24.421875 12.140625 26.203125 
Q 8.40625 27.984375 6.46875 31.125 
Q 4.546875 34.28125 4.546875 38.09375 
Q 4.546875 41.546875 6.125 44.5 
Q 7.71875 47.46875 10.453125 49.421875 
Q 12.5 50.921875 16.03125 51.96875 
Q 19.578125 53.03125 23.640625 53.03125 
Q 29.734375 53.03125 34.34375 51.265625 
Q 38.96875 49.515625 41.15625 46.5 
Q 43.359375 43.5 44.1875 38.484375 
L 35.59375 37.3125 
Q 35.015625 41.3125 32.203125 43.546875 
Q 29.390625 45.796875 24.265625 45.796875 
Q 18.21875 45.796875 15.625 43.796875 
Q 13.03125 41.796875 13.03125 39.109375 
Q 13.03125 37.40625 14.109375 36.03125 
Q 15.1875 34.625 17.484375 33.6875 
Q 18.796875 33.203125 25.25 31.453125 
Q 34.578125 28.953125 38.25 27.359375 
Q 41.9375 25.78125 44.03125 22.75 
Q 46.140625 19.734375 46.140625 15.234375 
Q 46.140625 10.84375 43.578125 6.953125 
Q 41.015625 3.078125 36.171875 0.953125 
Q 31.34375 -1.171875 25.25 -1.171875 
Q 15.140625 -1.171875 9.84375 3.03125 
Q 4.546875 7.234375 3.078125 15.484375 
z
" id="ArialMT-115"/>
       <path id="ArialMT-32"/>
       <path d="M 42.09375 16.703125 
L 51.171875 15.578125 
Q 49.03125 7.625 43.21875 3.21875 
Q 37.40625 -1.171875 28.375 -1.171875 
Q 17 -1.171875 10.328125 5.828125 
Q 3.65625 12.84375 3.65625 25.484375 
Q 3.65625 38.578125 10.390625 45.796875 
Q 17.140625 53.03125 27.875 53.03125 
Q 38.28125 53.03125 44.875 45.953125 
Q 51.46875 38.875 51.46875 26.03125 
Q 51.46875 25.25 51.421875 23.6875 
L 12.75 23.6875 
Q 13.234375 15.140625 17.578125 10.59375 
Q 21.921875 6.0625 28.421875 6.0625 
Q 33.25 6.0625 36.671875 8.59375 
Q 40.09375 11.140625 42.09375 16.703125 
z
M 13.234375 30.90625 
L 42.1875 30.90625 
Q 41.609375 37.453125 38.875 40.71875 
Q 34.671875 45.796875 27.984375 45.796875 
Q 21.921875 45.796875 17.796875 41.75 
Q 13.671875 37.703125 13.234375 30.90625 
z
" id="ArialMT-101"/>
       <path d="M 6.390625 0 
L 6.390625 71.578125 
L 15.1875 71.578125 
L 15.1875 0 
z
" id="ArialMT-108"/>
       <path d="M 25.78125 7.859375 
L 27.046875 0.09375 
Q 23.34375 -0.6875 20.40625 -0.6875 
Q 15.625 -0.6875 12.984375 0.828125 
Q 10.359375 2.34375 9.28125 4.8125 
Q 8.203125 7.28125 8.203125 15.1875 
L 8.203125 45.015625 
L 1.765625 45.015625 
L 1.765625 51.859375 
L 8.203125 51.859375 
L 8.203125 64.703125 
L 16.9375 69.96875 
L 16.9375 51.859375 
L 25.78125 51.859375 
L 25.78125 45.015625 
L 16.9375 45.015625 
L 16.9375 14.703125 
Q 16.9375 10.9375 17.40625 9.859375 
Q 17.875 8.796875 18.921875 8.15625 
Q 19.96875 7.515625 21.921875 7.515625 
Q 23.390625 7.515625 25.78125 7.859375 
z
" id="ArialMT-116"/>
       <path d="M 6.640625 61.46875 
L 6.640625 71.578125 
L 15.4375 71.578125 
L 15.4375 61.46875 
z
M 6.640625 0 
L 6.640625 51.859375 
L 15.4375 51.859375 
L 15.4375 0 
z
" id="ArialMT-105"/>
       <path d="M 6.59375 0 
L 6.59375 51.859375 
L 14.5 51.859375 
L 14.5 44.484375 
Q 20.21875 53.03125 31 53.03125 
Q 35.6875 53.03125 39.625 51.34375 
Q 43.5625 49.65625 45.515625 46.921875 
Q 47.46875 44.1875 48.25 40.4375 
Q 48.734375 37.984375 48.734375 31.890625 
L 48.734375 0 
L 39.9375 0 
L 39.9375 31.546875 
Q 39.9375 36.921875 38.90625 39.578125 
Q 37.890625 42.234375 35.28125 43.8125 
Q 32.671875 45.40625 29.15625 45.40625 
Q 23.53125 45.40625 19.453125 41.84375 
Q 15.375 38.28125 15.375 28.328125 
L 15.375 0 
z
" id="ArialMT-110"/>
       <path d="M 9.03125 41.84375 
L 9.03125 51.859375 
L 19.046875 51.859375 
L 19.046875 41.84375 
z
M 9.03125 0 
L 9.03125 10.015625 
L 19.046875 10.015625 
L 19.046875 0 
z
" id="ArialMT-58"/>
       <path d="M 8.890625 0 
L 8.890625 10.015625 
L 18.890625 10.015625 
L 18.890625 0 
Q 18.890625 -5.515625 16.9375 -8.90625 
Q 14.984375 -12.3125 10.75 -14.15625 
L 8.296875 -10.40625 
Q 11.078125 -9.1875 12.390625 -6.8125 
Q 13.71875 -4.4375 13.875 0 
z
" id="ArialMT-44"/>
       <path d="M 0.734375 0 
L 19.671875 26.953125 
L 2.15625 51.859375 
L 13.140625 51.859375 
L 21.09375 39.703125 
Q 23.34375 36.234375 24.703125 33.890625 
Q 26.859375 37.109375 28.65625 39.59375 
L 37.40625 51.859375 
L 47.90625 51.859375 
L 29.984375 27.4375 
L 49.265625 0 
L 38.484375 0 
L 27.828125 16.109375 
L 25 20.453125 
L 11.375 0 
z
" id="ArialMT-120"/>
      </defs>
      <use xlink:href="#ArialMT-67"/>
      <use x="72.216797" xlink:href="#ArialMT-114"/>
      <use x="105.517578" xlink:href="#ArialMT-111"/>
      <use x="161.132812" xlink:href="#ArialMT-115"/>
      <use x="211.132812" xlink:href="#ArialMT-115"/>
      <use x="261.132812" xlink:href="#ArialMT-32"/>
      <use x="288.916016" xlink:href="#ArialMT-67"/>
      <use x="361.132812" xlink:href="#ArialMT-111"/>
      <use x="416.748047" xlink:href="#ArialMT-114"/>
      <use x="450.048828" xlink:href="#ArialMT-114"/>
      <use x="483.349609" xlink:href="#ArialMT-101"/>
      <use x="538.964844" xlink:href="#ArialMT-108"/>
      <use x="561.181641" xlink:href="#ArialMT-97"/>
      <use x="616.796875" xlink:href="#ArialMT-116"/>
      <use x="644.580078" xlink:href="#ArialMT-105"/>
      <use x="666.796875" xlink:href="#ArialMT-111"/>
      <use x="722.412109" xlink:href="#ArialMT-110"/>
      <use x="778.027344" xlink:href="#ArialMT-58"/>
      <use x="805.810547" xlink:href="#ArialMT-32"/>
      <use x="833.59375" xlink:href="#ArialMT-101"/>
      <use x="889.208984" xlink:href="#ArialMT-101"/>
      <use x="944.824219" xlink:href="#ArialMT-44"/>
      <use x="972.607422" xlink:href="#ArialMT-32"/>
      <use x="1000.390625" xlink:href="#ArialMT-101"/>
      <use x="1056.005859" xlink:href="#ArialMT-120"/>
     </g>
    </g>
   </g>
   <g id="patch_3">
    <path clip-path="url(#p9d36af410e)" d="M 55.304375 408.221557 
L 55.304375 430.696568 
L 352.912962 430.696568 
L 352.912962 408.221557 
z
" style="fill:#ccd9ff;opacity:0.5;"/>
   </g>
   <g id="line2d_19">
    <path clip-path="url(#p9d36af410e)" d="M 68.832038 304.934062 
L 70.191602 360.597894 
L 71.551166 377.801038 
L 72.91073 382.738851 
L 74.270295 383.558631 
L 75.629859 386.00345 
L 76.989423 393.333859 
L 78.348987 392.417201 
L 79.708551 397.961289 
L 81.068115 391.927073 
L 82.427679 396.027149 
L 83.787243 390.629878 
L 85.146808 384.727504 
L 86.506372 384.966627 
L 87.865936 383.225049 
L 89.2255 387.464973 
L 90.585064 386.193847 
L 91.944628 395.847944 
L 93.304192 393.334986 
L 94.663756 394.418352 
L 96.023321 395.733592 
L 97.382885 394.437422 
L 98.742449 396.955721 
L 100.102013 395.286613 
L 101.461577 396.174258 
L 102.821141 391.938484 
L 104.180705 398.432466 
L 105.540269 400.068275 
L 106.899834 400.610482 
L 108.259398 403.698224 
L 109.618962 409.986873 
L 110.978526 408.656833 
L 112.33809 404.949108 
L 113.697654 403.109735 
L 115.057218 403.304086 
L 116.416782 407.106334 
L 117.776347 403.543997 
L 119.135911 401.245885 
L 120.495475 397.713147 
L 121.855039 395.495306 
L 123.214603 400.301509 
L 124.574167 403.614955 
L 125.933731 411.501523 
L 127.293295 407.072184 
L 128.65286 415.524829 
L 130.012424 405.875412 
L 131.371988 407.127961 
L 132.731552 400.983135 
L 134.091116 396.459861 
L 135.45068 398.148732 
L 136.810244 398.297238 
L 138.169808 396.865152 
L 139.529373 397.359231 
L 140.888937 401.998257 
L 142.248501 403.368979 
L 143.608065 410.702266 
L 144.967629 410.535356 
L 146.327193 411.85014 
L 147.686757 415.323245 
L 149.046321 408.345222 
L 150.405886 405.963234 
L 151.76545 401.166008 
L 153.125014 397.859144 
L 154.484578 390.592491 
L 155.844142 391.262807 
L 157.203706 396.645237 
L 158.56327 402.681733 
L 159.922834 399.940175 
L 161.282399 400.744508 
L 162.641963 406.669413 
L 164.001527 405.900619 
L 165.361091 410.076227 
L 166.720655 402.059904 
L 168.080219 402.815702 
L 169.439783 409.279183 
L 170.799347 405.931575 
L 172.158912 399.46532 
L 173.518476 402.891487 
L 174.87804 408.053887 
L 176.237604 401.803704 
L 177.597168 404.675071 
L 178.956732 410.223237 
L 180.316296 406.769589 
L 181.675861 410.449614 
L 183.035425 407.091661 
L 184.394989 410.897462 
L 185.754553 402.410579 
L 187.114117 407.852936 
L 188.473681 403.91247 
L 189.833245 409.170154 
L 191.192809 410.614838 
L 193.911938 405.619852 
L 195.271502 405.197845 
L 196.631066 405.540482 
L 197.99063 405.54693 
L 199.350194 410.566931 
L 200.709758 407.996789 
L 202.069322 407.352931 
L 203.428887 404.065861 
L 204.788451 402.925688 
L 206.148015 400.972924 
L 207.507579 401.04248 
L 208.867143 412.261522 
L 210.226707 414.52052 
L 211.586271 418.933368 
L 212.945835 417.799073 
L 214.3054 415.978799 
L 215.664964 414.819337 
L 217.024528 414.667732 
L 218.384092 411.658769 
L 219.743656 408.242785 
L 221.10322 403.084733 
L 222.462784 400.753119 
L 223.822348 402.365268 
L 225.181913 398.441041 
L 226.541477 400.531666 
L 227.901041 401.742674 
L 229.260605 405.772622 
L 230.620169 407.810098 
L 231.979733 406.107297 
L 233.339297 411.047856 
L 234.698861 411.219941 
L 236.058426 411.812274 
L 237.41799 410.374513 
L 238.777554 405.050064 
L 240.137118 401.674694 
L 241.496682 400.912459 
L 242.856246 406.468214 
L 244.21581 406.492331 
L 245.575374 404.780352 
L 246.934939 399.206605 
L 248.294503 400.620865 
L 249.654067 405.580968 
L 251.013631 410.108485 
L 252.373195 401.584683 
L 253.732759 400.41537 
L 255.092323 403.477681 
L 256.451887 407.712416 
L 257.811452 402.313109 
L 259.171016 398.771543 
L 260.53058 401.790262 
L 261.890144 403.841137 
L 263.249708 406.42903 
L 264.609272 407.102349 
L 265.968836 408.806319 
L 267.3284 408.829325 
L 268.687965 407.055316 
L 270.047529 407.004006 
L 271.407093 404.943965 
L 272.766657 408.463279 
L 274.126221 402.837397 
L 275.485785 401.319586 
L 276.845349 402.871006 
L 278.204913 405.70615 
L 279.564478 408.929085 
L 280.924042 406.952329 
L 282.283606 409.074215 
L 283.64317 404.525988 
L 285.002734 407.698103 
L 286.362298 409.317924 
L 287.721862 410.519739 
L 289.081426 410.187883 
L 290.440991 406.410253 
L 291.800555 403.142671 
L 293.160119 403.101027 
L 294.519683 411.46696 
L 295.879247 412.990912 
L 297.238811 408.243105 
L 298.598375 413.564262 
L 299.957939 412.418259 
L 301.317504 413.326029 
L 302.677068 413.647571 
L 304.036632 415.942495 
L 305.396196 413.678003 
L 306.75576 415.304299 
L 308.115324 415.145459 
L 309.474888 411.115383 
L 310.834452 413.777161 
L 312.194017 414.51173 
L 313.553581 414.946468 
L 314.913145 416.817323 
L 316.272709 415.808044 
L 317.632273 416.746208 
L 318.991837 418.297274 
L 320.351401 419.304435 
L 321.710965 418.902837 
L 323.07053 420.016598 
L 324.430094 417.99452 
L 325.789658 418.013065 
L 327.149222 418.833445 
L 328.508786 418.709075 
L 329.86835 419.446381 
L 331.227914 419.255478 
L 332.587478 419.249488 
L 333.947043 418.891046 
L 335.306607 419.023941 
L 336.666171 419.588507 
L 338.025735 419.459062 
L 339.385299 419.459063 
L 339.385299 419.459063 
" style="fill:none;stroke:#1f77b4;stroke-linecap:round;stroke-width:1.5;"/>
   </g>
   <g id="patch_4">
    <path d="M 55.304375 533.984062 
L 55.304375 304.934062 
" style="fill:none;stroke:#262626;stroke-linecap:square;stroke-linejoin:miter;stroke-width:1.25;"/>
   </g>
   <g id="patch_5">
    <path d="M 55.304375 533.984062 
L 352.912962 533.984062 
" style="fill:none;stroke:#262626;stroke-linecap:square;stroke-linejoin:miter;stroke-width:1.25;"/>
   </g>
  </g>
  <g id="axes_2">
   <g id="patch_6">
    <path d="M 406.712962 533.984062 
L 704.321549 533.984062 
L 704.321549 304.934062 
L 406.712962 304.934062 
z
" style="fill:#ffffff;"/>
   </g>
   <g id="matplotlib.axis_3">
    <g id="xtick_10">
     <g id="line2d_20"/>
     <g id="text_21">
      <!-- 0 -->
      <g style="fill:#262626;" transform="translate(417.460156 544.641875)scale(0.1 -0.1)">
       <use xlink:href="#ArialMT-48"/>
      </g>
     </g>
    </g>
    <g id="xtick_11">
     <g id="line2d_21"/>
     <g id="text_22">
      <!-- 20 -->
      <g style="fill:#262626;" transform="translate(469.336912 544.641875)scale(0.1 -0.1)">
       <use xlink:href="#ArialMT-50"/>
       <use x="55.615234" xlink:href="#ArialMT-48"/>
      </g>
     </g>
    </g>
    <g id="xtick_12">
     <g id="line2d_22"/>
     <g id="text_23">
      <!-- 40 -->
      <g style="fill:#262626;" transform="translate(523.994137 544.641875)scale(0.1 -0.1)">
       <defs>
        <path d="M 32.328125 0 
L 32.328125 17.140625 
L 1.265625 17.140625 
L 1.265625 25.203125 
L 33.9375 71.578125 
L 41.109375 71.578125 
L 41.109375 25.203125 
L 50.78125 25.203125 
L 50.78125 17.140625 
L 41.109375 17.140625 
L 41.109375 0 
z
M 32.328125 25.203125 
L 32.328125 57.46875 
L 9.90625 25.203125 
z
" id="ArialMT-52"/>
       </defs>
       <use xlink:href="#ArialMT-52"/>
       <use x="55.615234" xlink:href="#ArialMT-48"/>
      </g>
     </g>
    </g>
    <g id="xtick_13">
     <g id="line2d_23"/>
     <g id="text_24">
      <!-- 60 -->
      <g style="fill:#262626;" transform="translate(578.651361 544.641875)scale(0.1 -0.1)">
       <defs>
        <path d="M 49.75 54.046875 
L 41.015625 53.375 
Q 39.84375 58.546875 37.703125 60.890625 
Q 34.125 64.65625 28.90625 64.65625 
Q 24.703125 64.65625 21.53125 62.3125 
Q 17.390625 59.28125 14.984375 53.46875 
Q 12.59375 47.65625 12.5 36.921875 
Q 15.671875 41.75 20.265625 44.09375 
Q 24.859375 46.4375 29.890625 46.4375 
Q 38.671875 46.4375 44.84375 39.96875 
Q 51.03125 33.5 51.03125 23.25 
Q 51.03125 16.5 48.125 10.71875 
Q 45.21875 4.9375 40.140625 1.859375 
Q 35.0625 -1.21875 28.609375 -1.21875 
Q 17.625 -1.21875 10.6875 6.859375 
Q 3.765625 14.9375 3.765625 33.5 
Q 3.765625 54.25 11.421875 63.671875 
Q 18.109375 71.875 29.4375 71.875 
Q 37.890625 71.875 43.28125 67.140625 
Q 48.6875 62.40625 49.75 54.046875 
z
M 13.875 23.1875 
Q 13.875 18.65625 15.796875 14.5 
Q 17.71875 10.359375 21.1875 8.171875 
Q 24.65625 6 28.46875 6 
Q 34.03125 6 38.03125 10.484375 
Q 42.046875 14.984375 42.046875 22.703125 
Q 42.046875 30.125 38.078125 34.390625 
Q 34.125 38.671875 28.125 38.671875 
Q 22.171875 38.671875 18.015625 34.390625 
Q 13.875 30.125 13.875 23.1875 
z
" id="ArialMT-54"/>
       </defs>
       <use xlink:href="#ArialMT-54"/>
       <use x="55.615234" xlink:href="#ArialMT-48"/>
      </g>
     </g>
    </g>
    <g id="xtick_14">
     <g id="line2d_24"/>
     <g id="text_25">
      <!-- 80 -->
      <g style="fill:#262626;" transform="translate(633.308586 544.641875)scale(0.1 -0.1)">
       <defs>
        <path d="M 17.671875 38.8125 
Q 12.203125 40.828125 9.5625 44.53125 
Q 6.9375 48.25 6.9375 53.421875 
Q 6.9375 61.234375 12.546875 66.546875 
Q 18.171875 71.875 27.484375 71.875 
Q 36.859375 71.875 42.578125 66.421875 
Q 48.296875 60.984375 48.296875 53.171875 
Q 48.296875 48.1875 45.671875 44.5 
Q 43.0625 40.828125 37.75 38.8125 
Q 44.34375 36.671875 47.78125 31.875 
Q 51.21875 27.09375 51.21875 20.453125 
Q 51.21875 11.28125 44.71875 5.03125 
Q 38.234375 -1.21875 27.640625 -1.21875 
Q 17.046875 -1.21875 10.546875 5.046875 
Q 4.046875 11.328125 4.046875 20.703125 
Q 4.046875 27.6875 7.59375 32.390625 
Q 11.140625 37.109375 17.671875 38.8125 
z
M 15.921875 53.71875 
Q 15.921875 48.640625 19.1875 45.40625 
Q 22.46875 42.1875 27.6875 42.1875 
Q 32.765625 42.1875 36.015625 45.375 
Q 39.265625 48.578125 39.265625 53.21875 
Q 39.265625 58.0625 35.90625 61.359375 
Q 32.5625 64.65625 27.59375 64.65625 
Q 22.5625 64.65625 19.234375 61.421875 
Q 15.921875 58.203125 15.921875 53.71875 
z
M 13.09375 20.65625 
Q 13.09375 16.890625 14.875 13.375 
Q 16.65625 9.859375 20.171875 7.921875 
Q 23.6875 6 27.734375 6 
Q 34.03125 6 38.125 10.046875 
Q 42.234375 14.109375 42.234375 20.359375 
Q 42.234375 26.703125 38.015625 30.859375 
Q 33.796875 35.015625 27.4375 35.015625 
Q 21.234375 35.015625 17.15625 30.90625 
Q 13.09375 26.8125 13.09375 20.65625 
z
" id="ArialMT-56"/>
       </defs>
       <use xlink:href="#ArialMT-56"/>
       <use x="55.615234" xlink:href="#ArialMT-48"/>
      </g>
     </g>
    </g>
    <g id="xtick_15">
     <g id="line2d_25"/>
     <g id="text_26">
      <!-- 100 -->
      <g style="fill:#262626;" transform="translate(685.185341 544.641875)scale(0.1 -0.1)">
       <use xlink:href="#ArialMT-49"/>
       <use x="55.615234" xlink:href="#ArialMT-48"/>
       <use x="111.230469" xlink:href="#ArialMT-48"/>
      </g>
     </g>
    </g>
    <g id="text_27">
     <!-- Lag -->
     <g style="fill:#262626;" transform="translate(545.507568 559.21875)scale(0.12 -0.12)">
      <use xlink:href="#ArialMT-76"/>
      <use x="55.615234" xlink:href="#ArialMT-97"/>
      <use x="111.230469" xlink:href="#ArialMT-103"/>
     </g>
    </g>
   </g>
   <g id="matplotlib.axis_4">
    <g id="ytick_10">
     <g id="line2d_26"/>
     <g id="text_28">
      <!-- −1.00 -->
      <g style="fill:#262626;" transform="translate(377.9114 537.562969)scale(0.1 -0.1)">
       <use xlink:href="#ArialMT-8722"/>
       <use x="58.398438" xlink:href="#ArialMT-49"/>
       <use x="114.013672" xlink:href="#ArialMT-46"/>
       <use x="141.796875" xlink:href="#ArialMT-48"/>
       <use x="197.412109" xlink:href="#ArialMT-48"/>
      </g>
     </g>
    </g>
    <g id="ytick_11">
     <g id="line2d_27"/>
     <g id="text_29">
      <!-- −0.75 -->
      <g style="fill:#262626;" transform="translate(377.9114 508.931719)scale(0.1 -0.1)">
       <use xlink:href="#ArialMT-8722"/>
       <use x="58.398438" xlink:href="#ArialMT-48"/>
       <use x="114.013672" xlink:href="#ArialMT-46"/>
       <use x="141.796875" xlink:href="#ArialMT-55"/>
       <use x="197.412109" xlink:href="#ArialMT-53"/>
      </g>
     </g>
    </g>
    <g id="ytick_12">
     <g id="line2d_28"/>
     <g id="text_30">
      <!-- −0.50 -->
      <g style="fill:#262626;" transform="translate(377.9114 480.300469)scale(0.1 -0.1)">
       <use xlink:href="#ArialMT-8722"/>
       <use x="58.398438" xlink:href="#ArialMT-48"/>
       <use x="114.013672" xlink:href="#ArialMT-46"/>
       <use x="141.796875" xlink:href="#ArialMT-53"/>
       <use x="197.412109" xlink:href="#ArialMT-48"/>
      </g>
     </g>
    </g>
    <g id="ytick_13">
     <g id="line2d_29"/>
     <g id="text_31">
      <!-- −0.25 -->
      <g style="fill:#262626;" transform="translate(377.9114 451.669219)scale(0.1 -0.1)">
       <use xlink:href="#ArialMT-8722"/>
       <use x="58.398438" xlink:href="#ArialMT-48"/>
       <use x="114.013672" xlink:href="#ArialMT-46"/>
       <use x="141.796875" xlink:href="#ArialMT-50"/>
       <use x="197.412109" xlink:href="#ArialMT-53"/>
      </g>
     </g>
    </g>
    <g id="ytick_14">
     <g id="line2d_30"/>
     <g id="text_32">
      <!-- 0.00 -->
      <g style="fill:#262626;" transform="translate(383.752025 423.037969)scale(0.1 -0.1)">
       <use xlink:href="#ArialMT-48"/>
       <use x="55.615234" xlink:href="#ArialMT-46"/>
       <use x="83.398438" xlink:href="#ArialMT-48"/>
       <use x="139.013672" xlink:href="#ArialMT-48"/>
      </g>
     </g>
    </g>
    <g id="ytick_15">
     <g id="line2d_31"/>
     <g id="text_33">
      <!-- 0.25 -->
      <g style="fill:#262626;" transform="translate(383.752025 394.406719)scale(0.1 -0.1)">
       <use xlink:href="#ArialMT-48"/>
       <use x="55.615234" xlink:href="#ArialMT-46"/>
       <use x="83.398438" xlink:href="#ArialMT-50"/>
       <use x="139.013672" xlink:href="#ArialMT-53"/>
      </g>
     </g>
    </g>
    <g id="ytick_16">
     <g id="line2d_32"/>
     <g id="text_34">
      <!-- 0.50 -->
      <g style="fill:#262626;" transform="translate(383.752025 365.775469)scale(0.1 -0.1)">
       <use xlink:href="#ArialMT-48"/>
       <use x="55.615234" xlink:href="#ArialMT-46"/>
       <use x="83.398438" xlink:href="#ArialMT-53"/>
       <use x="139.013672" xlink:href="#ArialMT-48"/>
      </g>
     </g>
    </g>
    <g id="ytick_17">
     <g id="line2d_33"/>
     <g id="text_35">
      <!-- 0.75 -->
      <g style="fill:#262626;" transform="translate(383.752025 337.144219)scale(0.1 -0.1)">
       <use xlink:href="#ArialMT-48"/>
       <use x="55.615234" xlink:href="#ArialMT-46"/>
       <use x="83.398438" xlink:href="#ArialMT-55"/>
       <use x="139.013672" xlink:href="#ArialMT-53"/>
      </g>
     </g>
    </g>
    <g id="ytick_18">
     <g id="line2d_34"/>
     <g id="text_36">
      <!-- 1.00 -->
      <g style="fill:#262626;" transform="translate(383.752025 308.512969)scale(0.1 -0.1)">
       <use xlink:href="#ArialMT-49"/>
       <use x="55.615234" xlink:href="#ArialMT-46"/>
       <use x="83.398438" xlink:href="#ArialMT-48"/>
       <use x="139.013672" xlink:href="#ArialMT-48"/>
      </g>
     </g>
    </g>
    <g id="text_37">
     <!-- Cross Correlation: ee, ex -->
     <g style="fill:#262626;" transform="translate(371.5264 485.815312)rotate(-90)scale(0.12 -0.12)">
      <use xlink:href="#ArialMT-67"/>
      <use x="72.216797" xlink:href="#ArialMT-114"/>
      <use x="105.517578" xlink:href="#ArialMT-111"/>
      <use x="161.132812" xlink:href="#ArialMT-115"/>
      <use x="211.132812" xlink:href="#ArialMT-115"/>
      <use x="261.132812" xlink:href="#ArialMT-32"/>
      <use x="288.916016" xlink:href="#ArialMT-67"/>
      <use x="361.132812" xlink:href="#ArialMT-111"/>
      <use x="416.748047" xlink:href="#ArialMT-114"/>
      <use x="450.048828" xlink:href="#ArialMT-114"/>
      <use x="483.349609" xlink:href="#ArialMT-101"/>
      <use x="538.964844" xlink:href="#ArialMT-108"/>
      <use x="561.181641" xlink:href="#ArialMT-97"/>
      <use x="616.796875" xlink:href="#ArialMT-116"/>
      <use x="644.580078" xlink:href="#ArialMT-105"/>
      <use x="666.796875" xlink:href="#ArialMT-111"/>
      <use x="722.412109" xlink:href="#ArialMT-110"/>
      <use x="778.027344" xlink:href="#ArialMT-58"/>
      <use x="805.810547" xlink:href="#ArialMT-32"/>
      <use x="833.59375" xlink:href="#ArialMT-101"/>
      <use x="889.208984" xlink:href="#ArialMT-101"/>
      <use x="944.824219" xlink:href="#ArialMT-44"/>
      <use x="972.607422" xlink:href="#ArialMT-32"/>
      <use x="1000.390625" xlink:href="#ArialMT-101"/>
      <use x="1056.005859" xlink:href="#ArialMT-120"/>
     </g>
    </g>
   </g>
   <g id="patch_7">
    <path clip-path="url(#p7fabf0a54c)" d="M 406.712962 408.221557 
L 406.712962 430.696568 
L 704.321549 430.696568 
L 704.321549 408.221557 
z
" style="fill:#ccd9ff;opacity:0.5;"/>
   </g>
   <g id="line2d_35">
    <path clip-path="url(#p7fabf0a54c)" d="M 420.240625 413.141038 
L 422.973486 427.193375 
L 425.706348 378.853839 
L 428.439209 377.666409 
L 431.17207 395.693486 
L 433.904931 413.683278 
L 436.637793 416.431579 
L 439.370654 418.883088 
L 442.103515 415.079399 
L 444.836376 426.36221 
L 447.569237 428.890323 
L 450.302099 427.379054 
L 453.03496 426.57658 
L 455.767821 423.877442 
L 458.500682 405.729143 
L 461.233544 414.946455 
L 463.966405 416.144336 
L 466.699266 413.575956 
L 469.432127 413.848837 
L 472.164988 423.902119 
L 474.89785 421.066738 
L 477.630711 414.120059 
L 480.363572 425.586643 
L 483.096433 439.201947 
L 485.829295 428.232497 
L 488.562156 424.387825 
L 491.295017 425.503958 
L 494.027878 409.661719 
L 496.760739 425.335995 
L 499.493601 413.073889 
L 502.226462 421.570275 
L 504.959323 425.266446 
L 507.692184 412.344502 
L 510.425046 429.898688 
L 513.157907 427.075281 
L 515.890768 420.566297 
L 518.623629 421.208069 
L 521.35649 429.727564 
L 524.089352 435.438617 
L 526.822213 426.205885 
L 529.555074 419.002248 
L 532.287935 408.66694 
L 535.020797 416.650825 
L 537.753658 404.990718 
L 540.486519 421.420618 
L 543.21938 426.286608 
L 545.952241 418.516432 
L 548.685103 416.736386 
L 551.417964 407.644366 
L 554.150825 427.440217 
L 556.883686 421.388458 
L 559.616548 426.805155 
L 562.349409 417.653927 
L 565.08227 410.868358 
L 567.815131 416.985968 
L 570.547992 415.419921 
L 573.280854 425.688816 
L 576.013715 422.55885 
L 578.746576 414.735139 
L 581.479437 418.129702 
L 584.212299 429.225442 
L 586.94516 430.914226 
L 589.678021 428.142992 
L 592.410882 426.474794 
L 595.143743 416.29749 
L 597.876605 408.903578 
L 600.609466 392.65324 
L 603.342327 407.009785 
L 606.075188 437.427211 
L 608.80805 416.378879 
L 611.540911 421.355569 
L 614.273772 425.716726 
L 617.006633 417.456345 
L 619.739494 441.520863 
L 622.472356 434.838852 
L 625.205217 411.851494 
L 627.938078 429.701038 
L 630.670939 450.23548 
L 633.403801 428.518718 
L 636.136662 414.448375 
L 638.869523 403.861827 
L 641.602384 409.161793 
L 644.335245 416.29357 
L 647.068107 437.070858 
L 649.800968 427.165305 
L 652.533829 437.736984 
L 655.26669 429.690128 
L 657.999552 427.847115 
L 660.732413 420.746709 
L 663.465274 428.263993 
L 666.198135 418.026776 
L 668.930996 436.089579 
L 671.663858 439.250295 
L 674.396719 429.58475 
L 677.12958 421.005992 
L 679.862441 419.16126 
L 682.595303 411.699226 
L 685.328164 412.010144 
L 688.061025 427.501703 
L 690.793886 430.086949 
" style="fill:none;stroke:#1f77b4;stroke-linecap:round;stroke-width:1.5;"/>
   </g>
   <g id="patch_8">
    <path d="M 406.712962 533.984062 
L 406.712962 304.934062 
" style="fill:none;stroke:#262626;stroke-linecap:square;stroke-linejoin:miter;stroke-width:1.25;"/>
   </g>
   <g id="patch_9">
    <path d="M 406.712962 533.984062 
L 704.321549 533.984062 
" style="fill:none;stroke:#262626;stroke-linecap:square;stroke-linejoin:miter;stroke-width:1.25;"/>
   </g>
  </g>
  <g id="axes_3">
   <g id="patch_10">
    <path d="M 55.304375 255.134062 
L 704.321549 255.134062 
L 704.321549 26.084062 
L 55.304375 26.084062 
z
" style="fill:#ffffff;"/>
   </g>
   <g id="matplotlib.axis_5">
    <g id="xtick_16">
     <g id="line2d_36"/>
     <g id="text_38">
      <!-- 0 -->
      <g style="fill:#262626;" transform="translate(80.912499 268.655)scale(0.14 -0.14)">
       <use xlink:href="#ArialMT-48"/>
      </g>
     </g>
    </g>
    <g id="xtick_17">
     <g id="line2d_37"/>
     <g id="text_39">
      <!-- 20 -->
      <g style="fill:#262626;" transform="translate(198.672547 268.655)scale(0.14 -0.14)">
       <use xlink:href="#ArialMT-50"/>
       <use x="55.615234" xlink:href="#ArialMT-48"/>
      </g>
     </g>
    </g>
    <g id="xtick_18">
     <g id="line2d_38"/>
     <g id="text_40">
      <!-- 40 -->
      <g style="fill:#262626;" transform="translate(320.325251 268.655)scale(0.14 -0.14)">
       <use xlink:href="#ArialMT-52"/>
       <use x="55.615234" xlink:href="#ArialMT-48"/>
      </g>
     </g>
    </g>
    <g id="xtick_19">
     <g id="line2d_39"/>
     <g id="text_41">
      <!-- 60 -->
      <g style="fill:#262626;" transform="translate(441.977954 268.655)scale(0.14 -0.14)">
       <use xlink:href="#ArialMT-54"/>
       <use x="55.615234" xlink:href="#ArialMT-48"/>
      </g>
     </g>
    </g>
    <g id="xtick_20">
     <g id="line2d_40"/>
     <g id="text_42">
      <!-- 80 -->
      <g style="fill:#262626;" transform="translate(563.630658 268.655)scale(0.14 -0.14)">
       <use xlink:href="#ArialMT-56"/>
       <use x="55.615234" xlink:href="#ArialMT-48"/>
      </g>
     </g>
    </g>
    <g id="xtick_21">
     <g id="line2d_41"/>
     <g id="text_43">
      <!-- 100 -->
      <g style="fill:#262626;" transform="translate(681.390705 268.655)scale(0.14 -0.14)">
       <use xlink:href="#ArialMT-49"/>
       <use x="55.615234" xlink:href="#ArialMT-48"/>
       <use x="111.230469" xlink:href="#ArialMT-48"/>
      </g>
     </g>
    </g>
    <g id="text_44">
     <!-- Samples -->
     <g style="fill:#262626;" transform="translate(352.579681 285.629062)scale(0.14 -0.14)">
      <defs>
       <path d="M 4.5 23 
L 13.421875 23.78125 
Q 14.0625 18.40625 16.375 14.96875 
Q 18.703125 11.53125 23.578125 9.40625 
Q 28.46875 7.28125 34.578125 7.28125 
Q 39.984375 7.28125 44.140625 8.890625 
Q 48.296875 10.5 50.3125 13.296875 
Q 52.34375 16.109375 52.34375 19.4375 
Q 52.34375 22.796875 50.390625 25.3125 
Q 48.4375 27.828125 43.953125 29.546875 
Q 41.0625 30.671875 31.203125 33.03125 
Q 21.34375 35.40625 17.390625 37.5 
Q 12.25 40.1875 9.734375 44.15625 
Q 7.234375 48.140625 7.234375 53.078125 
Q 7.234375 58.5 10.296875 63.203125 
Q 13.375 67.921875 19.28125 70.359375 
Q 25.203125 72.796875 32.421875 72.796875 
Q 40.375 72.796875 46.453125 70.234375 
Q 52.546875 67.671875 55.8125 62.6875 
Q 59.078125 57.71875 59.328125 51.421875 
L 50.25 50.734375 
Q 49.515625 57.515625 45.28125 60.984375 
Q 41.0625 64.453125 32.8125 64.453125 
Q 24.21875 64.453125 20.28125 61.296875 
Q 16.359375 58.15625 16.359375 53.71875 
Q 16.359375 49.859375 19.140625 47.359375 
Q 21.875 44.875 33.421875 42.265625 
Q 44.96875 39.65625 49.265625 37.703125 
Q 55.515625 34.8125 58.484375 30.390625 
Q 61.46875 25.984375 61.46875 20.21875 
Q 61.46875 14.5 58.203125 9.4375 
Q 54.9375 4.390625 48.796875 1.578125 
Q 42.671875 -1.21875 35.015625 -1.21875 
Q 25.296875 -1.21875 18.71875 1.609375 
Q 12.15625 4.4375 8.421875 10.125 
Q 4.6875 15.828125 4.5 23 
z
" id="ArialMT-83"/>
       <path d="M 6.59375 0 
L 6.59375 51.859375 
L 14.453125 51.859375 
L 14.453125 44.578125 
Q 16.890625 48.390625 20.9375 50.703125 
Q 25 53.03125 30.171875 53.03125 
Q 35.9375 53.03125 39.625 50.640625 
Q 43.3125 48.25 44.828125 43.953125 
Q 50.984375 53.03125 60.84375 53.03125 
Q 68.5625 53.03125 72.703125 48.75 
Q 76.859375 44.484375 76.859375 35.59375 
L 76.859375 0 
L 68.109375 0 
L 68.109375 32.671875 
Q 68.109375 37.9375 67.25 40.25 
Q 66.40625 42.578125 64.15625 43.984375 
Q 61.921875 45.40625 58.890625 45.40625 
Q 53.421875 45.40625 49.796875 41.765625 
Q 46.1875 38.140625 46.1875 30.125 
L 46.1875 0 
L 37.40625 0 
L 37.40625 33.6875 
Q 37.40625 39.546875 35.25 42.46875 
Q 33.109375 45.40625 28.21875 45.40625 
Q 24.515625 45.40625 21.359375 43.453125 
Q 18.21875 41.5 16.796875 37.734375 
Q 15.375 33.984375 15.375 26.90625 
L 15.375 0 
z
" id="ArialMT-109"/>
       <path d="M 6.59375 -19.875 
L 6.59375 51.859375 
L 14.59375 51.859375 
L 14.59375 45.125 
Q 17.4375 49.078125 21 51.046875 
Q 24.5625 53.03125 29.640625 53.03125 
Q 36.28125 53.03125 41.359375 49.609375 
Q 46.4375 46.1875 49.015625 39.953125 
Q 51.609375 33.734375 51.609375 26.3125 
Q 51.609375 18.359375 48.75 11.984375 
Q 45.90625 5.609375 40.453125 2.21875 
Q 35.015625 -1.171875 29 -1.171875 
Q 24.609375 -1.171875 21.109375 0.6875 
Q 17.625 2.546875 15.375 5.375 
L 15.375 -19.875 
z
M 14.546875 25.640625 
Q 14.546875 15.625 18.59375 10.84375 
Q 22.65625 6.0625 28.421875 6.0625 
Q 34.28125 6.0625 38.453125 11.015625 
Q 42.625 15.96875 42.625 26.375 
Q 42.625 36.28125 38.546875 41.203125 
Q 34.46875 46.140625 28.8125 46.140625 
Q 23.1875 46.140625 18.859375 40.890625 
Q 14.546875 35.640625 14.546875 25.640625 
z
" id="ArialMT-112"/>
      </defs>
      <use xlink:href="#ArialMT-83"/>
      <use x="66.699219" xlink:href="#ArialMT-97"/>
      <use x="122.314453" xlink:href="#ArialMT-109"/>
      <use x="205.615234" xlink:href="#ArialMT-112"/>
      <use x="261.230469" xlink:href="#ArialMT-108"/>
      <use x="283.447266" xlink:href="#ArialMT-101"/>
      <use x="339.0625" xlink:href="#ArialMT-115"/>
     </g>
    </g>
   </g>
   <g id="matplotlib.axis_6">
    <g id="ytick_19">
     <g id="line2d_42"/>
     <g id="text_45">
      <!-- −1.0 -->
      <g style="fill:#262626;" transform="translate(24.1675 243.378618)scale(0.14 -0.14)">
       <use xlink:href="#ArialMT-8722"/>
       <use x="58.398438" xlink:href="#ArialMT-49"/>
       <use x="114.013672" xlink:href="#ArialMT-46"/>
       <use x="141.796875" xlink:href="#ArialMT-48"/>
      </g>
     </g>
    </g>
    <g id="ytick_20">
     <g id="line2d_43"/>
     <g id="text_46">
      <!-- −0.5 -->
      <g style="fill:#262626;" transform="translate(24.1675 190.209302)scale(0.14 -0.14)">
       <use xlink:href="#ArialMT-8722"/>
       <use x="58.398438" xlink:href="#ArialMT-48"/>
       <use x="114.013672" xlink:href="#ArialMT-46"/>
       <use x="141.796875" xlink:href="#ArialMT-53"/>
      </g>
     </g>
    </g>
    <g id="ytick_21">
     <g id="line2d_44"/>
     <g id="text_47">
      <!-- 0.0 -->
      <g style="fill:#262626;" transform="translate(32.344375 137.039985)scale(0.14 -0.14)">
       <use xlink:href="#ArialMT-48"/>
       <use x="55.615234" xlink:href="#ArialMT-46"/>
       <use x="83.398438" xlink:href="#ArialMT-48"/>
      </g>
     </g>
    </g>
    <g id="ytick_22">
     <g id="line2d_45"/>
     <g id="text_48">
      <!-- 0.5 -->
      <g style="fill:#262626;" transform="translate(32.344375 83.870668)scale(0.14 -0.14)">
       <use xlink:href="#ArialMT-48"/>
       <use x="55.615234" xlink:href="#ArialMT-46"/>
       <use x="83.398438" xlink:href="#ArialMT-53"/>
      </g>
     </g>
    </g>
    <g id="text_49">
     <!-- y, yhat -->
     <g style="fill:#262626;" transform="translate(17.220938 160.712187)rotate(-90)scale(0.14 -0.14)">
      <defs>
       <path d="M 6.203125 -19.96875 
L 5.21875 -11.71875 
Q 8.109375 -12.5 10.25 -12.5 
Q 13.1875 -12.5 14.9375 -11.515625 
Q 16.703125 -10.546875 17.828125 -8.796875 
Q 18.65625 -7.46875 20.515625 -2.25 
Q 20.75 -1.515625 21.296875 -0.09375 
L 1.609375 51.859375 
L 11.078125 51.859375 
L 21.875 21.828125 
Q 23.96875 16.109375 25.640625 9.8125 
Q 27.15625 15.875 29.25 21.625 
L 40.328125 51.859375 
L 49.125 51.859375 
L 29.390625 -0.875 
Q 26.21875 -9.421875 24.46875 -12.640625 
Q 22.125 -17 19.09375 -19.015625 
Q 16.0625 -21.046875 11.859375 -21.046875 
Q 9.328125 -21.046875 6.203125 -19.96875 
z
" id="ArialMT-121"/>
       <path d="M 6.59375 0 
L 6.59375 71.578125 
L 15.375 71.578125 
L 15.375 45.90625 
Q 21.53125 53.03125 30.90625 53.03125 
Q 36.671875 53.03125 40.921875 50.75 
Q 45.171875 48.484375 47 44.484375 
Q 48.828125 40.484375 48.828125 32.859375 
L 48.828125 0 
L 40.046875 0 
L 40.046875 32.859375 
Q 40.046875 39.453125 37.1875 42.453125 
Q 34.328125 45.453125 29.109375 45.453125 
Q 25.203125 45.453125 21.75 43.421875 
Q 18.3125 41.40625 16.84375 37.9375 
Q 15.375 34.46875 15.375 28.375 
L 15.375 0 
z
" id="ArialMT-104"/>
      </defs>
      <use xlink:href="#ArialMT-121"/>
      <use x="42.625" xlink:href="#ArialMT-44"/>
      <use x="70.408203" xlink:href="#ArialMT-32"/>
      <use x="98.191406" xlink:href="#ArialMT-121"/>
      <use x="148.191406" xlink:href="#ArialMT-104"/>
      <use x="203.806641" xlink:href="#ArialMT-97"/>
      <use x="259.421875" xlink:href="#ArialMT-116"/>
     </g>
    </g>
   </g>
   <g id="line2d_46">
    <path clip-path="url(#p7f38b654c9)" d="M 84.805156 165.299139 
L 90.887791 164.097216 
L 96.970426 105.276641 
L 103.053061 91.537929 
L 109.135696 215.178204 
L 115.218332 211.8535 
L 121.300967 172.707362 
L 127.383602 124.129501 
L 133.466237 179.967196 
L 139.548872 126.520143 
L 145.631508 150.140937 
L 151.714143 106.76756 
L 157.796778 156.658199 
L 163.879413 138.651518 
L 169.962048 44.947012 
L 176.044683 178.584454 
L 182.127319 234.139301 
L 188.209954 193.102688 
L 194.292589 236.966131 
L 200.375224 55.055782 
L 206.457859 154.246653 
L 212.540495 97.066976 
L 218.62313 204.517615 
L 224.705765 244.722699 
L 230.7884 61.335566 
L 236.871035 101.864125 
L 242.95367 156.982323 
L 249.036306 105.644464 
L 255.118941 41.980318 
L 261.201576 161.375359 
L 267.284211 126.642189 
L 273.366846 221.208089 
L 279.449482 176.865841 
L 285.532117 57.135265 
L 291.614752 58.856826 
L 297.697387 106.571631 
L 303.780022 46.873373 
L 309.862658 166.879182 
L 315.945293 227.659532 
L 322.027928 143.807373 
L 328.110563 198.360846 
L 334.193198 207.203678 
L 340.275833 240.185932 
L 346.358469 86.474548 
L 352.441104 165.590244 
L 358.523739 233.487933 
L 364.606374 152.359419 
L 370.689009 143.446448 
L 376.771645 74.741761 
L 382.85428 95.178821 
L 388.936915 145.767788 
L 395.01955 53.585619 
L 401.102185 144.32585 
L 407.18482 127.907825 
L 413.267456 219.908784 
L 419.350091 224.586568 
L 425.432726 166.646695 
L 431.515361 120.02797 
L 437.597996 61.432425 
L 443.680632 74.358012 
L 449.763267 144.700603 
L 455.845902 149.828424 
L 461.928537 131.560109 
L 468.011172 212.623712 
L 474.093808 74.11532 
L 480.176443 80.397902 
L 486.259078 96.232451 
L 492.341713 40.337716 
L 498.424348 107.582474 
L 504.506983 198.374833 
L 510.589619 106.062109 
L 516.672254 191.89687 
L 522.754889 73.722245 
L 528.837524 126.616403 
L 534.920159 120.431226 
L 541.002795 95.168454 
L 547.08543 140.494467 
L 553.168065 156.912455 
L 559.2507 62.169078 
L 565.333335 140.508309 
L 571.415971 173.273606 
L 577.498606 113.134578 
L 583.581241 88.683858 
L 589.663876 36.495426 
L 595.746511 130.848375 
L 601.829146 75.631983 
L 607.911782 142.67175 
L 613.994417 62.054543 
L 620.077052 61.697615 
L 626.159687 55.521759 
L 632.242322 191.74161 
L 638.324958 103.188567 
L 644.407593 172.731775 
L 650.490228 232.951374 
L 656.572863 86.955776 
L 662.655498 143.154847 
L 668.738133 122.259011 
L 674.820769 111.109278 
" style="fill:none;stroke:#1f77b4;stroke-linecap:round;stroke-width:1.5;"/>
    <defs>
     <path d="M 0 3 
C 0.795609 3 1.55874 2.683901 2.12132 2.12132 
C 2.683901 1.55874 3 0.795609 3 0 
C 3 -0.795609 2.683901 -1.55874 2.12132 -2.12132 
C 1.55874 -2.683901 0.795609 -3 0 -3 
C -0.795609 -3 -1.55874 -2.683901 -2.12132 -2.12132 
C -2.683901 -1.55874 -3 -0.795609 -3 0 
C -3 0.795609 -2.683901 1.55874 -2.12132 2.12132 
C -1.55874 2.683901 -0.795609 3 0 3 
z
" id="m03818713f4" style="stroke:#1f77b4;"/>
    </defs>
    <g clip-path="url(#p7f38b654c9)">
     <use style="fill:#1f77b4;stroke:#1f77b4;" x="84.805156" xlink:href="#m03818713f4" y="165.299139"/>
     <use style="fill:#1f77b4;stroke:#1f77b4;" x="90.887791" xlink:href="#m03818713f4" y="164.097216"/>
     <use style="fill:#1f77b4;stroke:#1f77b4;" x="96.970426" xlink:href="#m03818713f4" y="105.276641"/>
     <use style="fill:#1f77b4;stroke:#1f77b4;" x="103.053061" xlink:href="#m03818713f4" y="91.537929"/>
     <use style="fill:#1f77b4;stroke:#1f77b4;" x="109.135696" xlink:href="#m03818713f4" y="215.178204"/>
     <use style="fill:#1f77b4;stroke:#1f77b4;" x="115.218332" xlink:href="#m03818713f4" y="211.8535"/>
     <use style="fill:#1f77b4;stroke:#1f77b4;" x="121.300967" xlink:href="#m03818713f4" y="172.707362"/>
     <use style="fill:#1f77b4;stroke:#1f77b4;" x="127.383602" xlink:href="#m03818713f4" y="124.129501"/>
     <use style="fill:#1f77b4;stroke:#1f77b4;" x="133.466237" xlink:href="#m03818713f4" y="179.967196"/>
     <use style="fill:#1f77b4;stroke:#1f77b4;" x="139.548872" xlink:href="#m03818713f4" y="126.520143"/>
     <use style="fill:#1f77b4;stroke:#1f77b4;" x="145.631508" xlink:href="#m03818713f4" y="150.140937"/>
     <use style="fill:#1f77b4;stroke:#1f77b4;" x="151.714143" xlink:href="#m03818713f4" y="106.76756"/>
     <use style="fill:#1f77b4;stroke:#1f77b4;" x="157.796778" xlink:href="#m03818713f4" y="156.658199"/>
     <use style="fill:#1f77b4;stroke:#1f77b4;" x="163.879413" xlink:href="#m03818713f4" y="138.651518"/>
     <use style="fill:#1f77b4;stroke:#1f77b4;" x="169.962048" xlink:href="#m03818713f4" y="44.947012"/>
     <use style="fill:#1f77b4;stroke:#1f77b4;" x="176.044683" xlink:href="#m03818713f4" y="178.584454"/>
     <use style="fill:#1f77b4;stroke:#1f77b4;" x="182.127319" xlink:href="#m03818713f4" y="234.139301"/>
     <use style="fill:#1f77b4;stroke:#1f77b4;" x="188.209954" xlink:href="#m03818713f4" y="193.102688"/>
     <use style="fill:#1f77b4;stroke:#1f77b4;" x="194.292589" xlink:href="#m03818713f4" y="236.966131"/>
     <use style="fill:#1f77b4;stroke:#1f77b4;" x="200.375224" xlink:href="#m03818713f4" y="55.055782"/>
     <use style="fill:#1f77b4;stroke:#1f77b4;" x="206.457859" xlink:href="#m03818713f4" y="154.246653"/>
     <use style="fill:#1f77b4;stroke:#1f77b4;" x="212.540495" xlink:href="#m03818713f4" y="97.066976"/>
     <use style="fill:#1f77b4;stroke:#1f77b4;" x="218.62313" xlink:href="#m03818713f4" y="204.517615"/>
     <use style="fill:#1f77b4;stroke:#1f77b4;" x="224.705765" xlink:href="#m03818713f4" y="244.722699"/>
     <use style="fill:#1f77b4;stroke:#1f77b4;" x="230.7884" xlink:href="#m03818713f4" y="61.335566"/>
     <use style="fill:#1f77b4;stroke:#1f77b4;" x="236.871035" xlink:href="#m03818713f4" y="101.864125"/>
     <use style="fill:#1f77b4;stroke:#1f77b4;" x="242.95367" xlink:href="#m03818713f4" y="156.982323"/>
     <use style="fill:#1f77b4;stroke:#1f77b4;" x="249.036306" xlink:href="#m03818713f4" y="105.644464"/>
     <use style="fill:#1f77b4;stroke:#1f77b4;" x="255.118941" xlink:href="#m03818713f4" y="41.980318"/>
     <use style="fill:#1f77b4;stroke:#1f77b4;" x="261.201576" xlink:href="#m03818713f4" y="161.375359"/>
     <use style="fill:#1f77b4;stroke:#1f77b4;" x="267.284211" xlink:href="#m03818713f4" y="126.642189"/>
     <use style="fill:#1f77b4;stroke:#1f77b4;" x="273.366846" xlink:href="#m03818713f4" y="221.208089"/>
     <use style="fill:#1f77b4;stroke:#1f77b4;" x="279.449482" xlink:href="#m03818713f4" y="176.865841"/>
     <use style="fill:#1f77b4;stroke:#1f77b4;" x="285.532117" xlink:href="#m03818713f4" y="57.135265"/>
     <use style="fill:#1f77b4;stroke:#1f77b4;" x="291.614752" xlink:href="#m03818713f4" y="58.856826"/>
     <use style="fill:#1f77b4;stroke:#1f77b4;" x="297.697387" xlink:href="#m03818713f4" y="106.571631"/>
     <use style="fill:#1f77b4;stroke:#1f77b4;" x="303.780022" xlink:href="#m03818713f4" y="46.873373"/>
     <use style="fill:#1f77b4;stroke:#1f77b4;" x="309.862658" xlink:href="#m03818713f4" y="166.879182"/>
     <use style="fill:#1f77b4;stroke:#1f77b4;" x="315.945293" xlink:href="#m03818713f4" y="227.659532"/>
     <use style="fill:#1f77b4;stroke:#1f77b4;" x="322.027928" xlink:href="#m03818713f4" y="143.807373"/>
     <use style="fill:#1f77b4;stroke:#1f77b4;" x="328.110563" xlink:href="#m03818713f4" y="198.360846"/>
     <use style="fill:#1f77b4;stroke:#1f77b4;" x="334.193198" xlink:href="#m03818713f4" y="207.203678"/>
     <use style="fill:#1f77b4;stroke:#1f77b4;" x="340.275833" xlink:href="#m03818713f4" y="240.185932"/>
     <use style="fill:#1f77b4;stroke:#1f77b4;" x="346.358469" xlink:href="#m03818713f4" y="86.474548"/>
     <use style="fill:#1f77b4;stroke:#1f77b4;" x="352.441104" xlink:href="#m03818713f4" y="165.590244"/>
     <use style="fill:#1f77b4;stroke:#1f77b4;" x="358.523739" xlink:href="#m03818713f4" y="233.487933"/>
     <use style="fill:#1f77b4;stroke:#1f77b4;" x="364.606374" xlink:href="#m03818713f4" y="152.359419"/>
     <use style="fill:#1f77b4;stroke:#1f77b4;" x="370.689009" xlink:href="#m03818713f4" y="143.446448"/>
     <use style="fill:#1f77b4;stroke:#1f77b4;" x="376.771645" xlink:href="#m03818713f4" y="74.741761"/>
     <use style="fill:#1f77b4;stroke:#1f77b4;" x="382.85428" xlink:href="#m03818713f4" y="95.178821"/>
     <use style="fill:#1f77b4;stroke:#1f77b4;" x="388.936915" xlink:href="#m03818713f4" y="145.767788"/>
     <use style="fill:#1f77b4;stroke:#1f77b4;" x="395.01955" xlink:href="#m03818713f4" y="53.585619"/>
     <use style="fill:#1f77b4;stroke:#1f77b4;" x="401.102185" xlink:href="#m03818713f4" y="144.32585"/>
     <use style="fill:#1f77b4;stroke:#1f77b4;" x="407.18482" xlink:href="#m03818713f4" y="127.907825"/>
     <use style="fill:#1f77b4;stroke:#1f77b4;" x="413.267456" xlink:href="#m03818713f4" y="219.908784"/>
     <use style="fill:#1f77b4;stroke:#1f77b4;" x="419.350091" xlink:href="#m03818713f4" y="224.586568"/>
     <use style="fill:#1f77b4;stroke:#1f77b4;" x="425.432726" xlink:href="#m03818713f4" y="166.646695"/>
     <use style="fill:#1f77b4;stroke:#1f77b4;" x="431.515361" xlink:href="#m03818713f4" y="120.02797"/>
     <use style="fill:#1f77b4;stroke:#1f77b4;" x="437.597996" xlink:href="#m03818713f4" y="61.432425"/>
     <use style="fill:#1f77b4;stroke:#1f77b4;" x="443.680632" xlink:href="#m03818713f4" y="74.358012"/>
     <use style="fill:#1f77b4;stroke:#1f77b4;" x="449.763267" xlink:href="#m03818713f4" y="144.700603"/>
     <use style="fill:#1f77b4;stroke:#1f77b4;" x="455.845902" xlink:href="#m03818713f4" y="149.828424"/>
     <use style="fill:#1f77b4;stroke:#1f77b4;" x="461.928537" xlink:href="#m03818713f4" y="131.560109"/>
     <use style="fill:#1f77b4;stroke:#1f77b4;" x="468.011172" xlink:href="#m03818713f4" y="212.623712"/>
     <use style="fill:#1f77b4;stroke:#1f77b4;" x="474.093808" xlink:href="#m03818713f4" y="74.11532"/>
     <use style="fill:#1f77b4;stroke:#1f77b4;" x="480.176443" xlink:href="#m03818713f4" y="80.397902"/>
     <use style="fill:#1f77b4;stroke:#1f77b4;" x="486.259078" xlink:href="#m03818713f4" y="96.232451"/>
     <use style="fill:#1f77b4;stroke:#1f77b4;" x="492.341713" xlink:href="#m03818713f4" y="40.337716"/>
     <use style="fill:#1f77b4;stroke:#1f77b4;" x="498.424348" xlink:href="#m03818713f4" y="107.582474"/>
     <use style="fill:#1f77b4;stroke:#1f77b4;" x="504.506983" xlink:href="#m03818713f4" y="198.374833"/>
     <use style="fill:#1f77b4;stroke:#1f77b4;" x="510.589619" xlink:href="#m03818713f4" y="106.062109"/>
     <use style="fill:#1f77b4;stroke:#1f77b4;" x="516.672254" xlink:href="#m03818713f4" y="191.89687"/>
     <use style="fill:#1f77b4;stroke:#1f77b4;" x="522.754889" xlink:href="#m03818713f4" y="73.722245"/>
     <use style="fill:#1f77b4;stroke:#1f77b4;" x="528.837524" xlink:href="#m03818713f4" y="126.616403"/>
     <use style="fill:#1f77b4;stroke:#1f77b4;" x="534.920159" xlink:href="#m03818713f4" y="120.431226"/>
     <use style="fill:#1f77b4;stroke:#1f77b4;" x="541.002795" xlink:href="#m03818713f4" y="95.168454"/>
     <use style="fill:#1f77b4;stroke:#1f77b4;" x="547.08543" xlink:href="#m03818713f4" y="140.494467"/>
     <use style="fill:#1f77b4;stroke:#1f77b4;" x="553.168065" xlink:href="#m03818713f4" y="156.912455"/>
     <use style="fill:#1f77b4;stroke:#1f77b4;" x="559.2507" xlink:href="#m03818713f4" y="62.169078"/>
     <use style="fill:#1f77b4;stroke:#1f77b4;" x="565.333335" xlink:href="#m03818713f4" y="140.508309"/>
     <use style="fill:#1f77b4;stroke:#1f77b4;" x="571.415971" xlink:href="#m03818713f4" y="173.273606"/>
     <use style="fill:#1f77b4;stroke:#1f77b4;" x="577.498606" xlink:href="#m03818713f4" y="113.134578"/>
     <use style="fill:#1f77b4;stroke:#1f77b4;" x="583.581241" xlink:href="#m03818713f4" y="88.683858"/>
     <use style="fill:#1f77b4;stroke:#1f77b4;" x="589.663876" xlink:href="#m03818713f4" y="36.495426"/>
     <use style="fill:#1f77b4;stroke:#1f77b4;" x="595.746511" xlink:href="#m03818713f4" y="130.848375"/>
     <use style="fill:#1f77b4;stroke:#1f77b4;" x="601.829146" xlink:href="#m03818713f4" y="75.631983"/>
     <use style="fill:#1f77b4;stroke:#1f77b4;" x="607.911782" xlink:href="#m03818713f4" y="142.67175"/>
     <use style="fill:#1f77b4;stroke:#1f77b4;" x="613.994417" xlink:href="#m03818713f4" y="62.054543"/>
     <use style="fill:#1f77b4;stroke:#1f77b4;" x="620.077052" xlink:href="#m03818713f4" y="61.697615"/>
     <use style="fill:#1f77b4;stroke:#1f77b4;" x="626.159687" xlink:href="#m03818713f4" y="55.521759"/>
     <use style="fill:#1f77b4;stroke:#1f77b4;" x="632.242322" xlink:href="#m03818713f4" y="191.74161"/>
     <use style="fill:#1f77b4;stroke:#1f77b4;" x="638.324958" xlink:href="#m03818713f4" y="103.188567"/>
     <use style="fill:#1f77b4;stroke:#1f77b4;" x="644.407593" xlink:href="#m03818713f4" y="172.731775"/>
     <use style="fill:#1f77b4;stroke:#1f77b4;" x="650.490228" xlink:href="#m03818713f4" y="232.951374"/>
     <use style="fill:#1f77b4;stroke:#1f77b4;" x="656.572863" xlink:href="#m03818713f4" y="86.955776"/>
     <use style="fill:#1f77b4;stroke:#1f77b4;" x="662.655498" xlink:href="#m03818713f4" y="143.154847"/>
     <use style="fill:#1f77b4;stroke:#1f77b4;" x="668.738133" xlink:href="#m03818713f4" y="122.259011"/>
     <use style="fill:#1f77b4;stroke:#1f77b4;" x="674.820769" xlink:href="#m03818713f4" y="111.109278"/>
    </g>
   </g>
   <g id="line2d_47">
    <path clip-path="url(#p7f38b654c9)" d="M 84.805156 163.661778 
L 90.887791 163.967182 
L 96.970426 104.027512 
L 103.053061 91.227771 
L 109.135696 213.118472 
L 115.218332 210.023795 
L 121.300967 170.393693 
L 127.383602 119.525259 
L 133.466237 179.433267 
L 139.548872 126.366129 
L 145.631508 147.959915 
L 151.714143 106.77935 
L 157.796778 156.288525 
L 163.879413 136.446282 
L 169.962048 45.634764 
L 176.044683 180.656263 
L 182.127319 230.772296 
L 188.209954 191.573592 
L 194.292589 231.606032 
L 200.375224 54.292356 
L 206.457859 153.1253 
L 212.540495 96.457775 
L 218.62313 202.223519 
L 224.705765 238.160089 
L 230.7884 60.888162 
L 236.871035 102.022024 
L 242.95367 156.6352 
L 249.036306 105.454223 
L 255.118941 41.804937 
L 261.201576 162.181502 
L 267.284211 125.79148 
L 273.366846 218.718244 
L 279.449482 175.820095 
L 285.532117 57.432952 
L 291.614752 59.165324 
L 297.697387 105.248679 
L 303.780022 47.923275 
L 309.862658 168.108789 
L 315.945293 225.571512 
L 322.027928 141.285115 
L 328.110563 197.696241 
L 334.193198 204.697691 
L 340.275833 236.163798 
L 346.358469 82.188251 
L 352.441104 165.862599 
L 358.523739 230.370221 
L 364.606374 149.697297 
L 370.689009 141.224276 
L 376.771645 73.865733 
L 382.85428 95.883159 
L 388.936915 145.100327 
L 395.01955 54.584214 
L 401.102185 143.564955 
L 407.18482 127.228333 
L 413.267456 217.128059 
L 419.350091 222.53535 
L 425.432726 162.99947 
L 431.515361 118.1377 
L 437.597996 62.914693 
L 443.680632 73.904523 
L 449.763267 145.063276 
L 455.845902 149.506784 
L 461.928537 134.278143 
L 468.011172 213.558557 
L 474.093808 73.967817 
L 480.176443 80.339284 
L 486.259078 96.486275 
L 492.341713 40.437999 
L 498.424348 107.089485 
L 504.506983 196.516922 
L 510.589619 105.578703 
L 516.672254 192.202983 
L 522.754889 74.573496 
L 528.837524 126.023992 
L 534.920159 118.580036 
L 541.002795 94.272153 
L 547.08543 141.298635 
L 553.168065 157.446933 
L 559.2507 63.340556 
L 565.333335 142.011846 
L 571.415971 173.44782 
L 577.498606 113.514945 
L 583.581241 87.661635 
L 589.663876 36.635179 
L 595.746511 131.207096 
L 601.829146 75.344326 
L 607.911782 141.614815 
L 613.994417 62.480914 
L 620.077052 61.557694 
L 626.159687 56.226037 
L 632.242322 190.740008 
L 638.324958 103.308361 
L 644.407593 173.568235 
L 650.490228 230.12716 
L 656.572863 84.947008 
L 662.655498 140.39612 
L 668.738133 120.485998 
L 674.820769 112.334454 
" style="fill:none;stroke:#ff7f0e;stroke-linecap:round;stroke-width:1.5;"/>
    <defs>
     <path d="M 0 -3 
L -0.673542 -0.927051 
L -2.85317 -0.927051 
L -1.089814 0.354102 
L -1.763356 2.427051 
L -0 1.145898 
L 1.763356 2.427051 
L 1.089814 0.354102 
L 2.85317 -0.927051 
L 0.673542 -0.927051 
z
" id="mef48fc1c34" style="stroke:#ff7f0e;stroke-linejoin:bevel;"/>
    </defs>
    <g clip-path="url(#p7f38b654c9)">
     <use style="fill:#ff7f0e;stroke:#ff7f0e;stroke-linejoin:bevel;" x="84.805156" xlink:href="#mef48fc1c34" y="163.661778"/>
     <use style="fill:#ff7f0e;stroke:#ff7f0e;stroke-linejoin:bevel;" x="90.887791" xlink:href="#mef48fc1c34" y="163.967182"/>
     <use style="fill:#ff7f0e;stroke:#ff7f0e;stroke-linejoin:bevel;" x="96.970426" xlink:href="#mef48fc1c34" y="104.027512"/>
     <use style="fill:#ff7f0e;stroke:#ff7f0e;stroke-linejoin:bevel;" x="103.053061" xlink:href="#mef48fc1c34" y="91.227771"/>
     <use style="fill:#ff7f0e;stroke:#ff7f0e;stroke-linejoin:bevel;" x="109.135696" xlink:href="#mef48fc1c34" y="213.118472"/>
     <use style="fill:#ff7f0e;stroke:#ff7f0e;stroke-linejoin:bevel;" x="115.218332" xlink:href="#mef48fc1c34" y="210.023795"/>
     <use style="fill:#ff7f0e;stroke:#ff7f0e;stroke-linejoin:bevel;" x="121.300967" xlink:href="#mef48fc1c34" y="170.393693"/>
     <use style="fill:#ff7f0e;stroke:#ff7f0e;stroke-linejoin:bevel;" x="127.383602" xlink:href="#mef48fc1c34" y="119.525259"/>
     <use style="fill:#ff7f0e;stroke:#ff7f0e;stroke-linejoin:bevel;" x="133.466237" xlink:href="#mef48fc1c34" y="179.433267"/>
     <use style="fill:#ff7f0e;stroke:#ff7f0e;stroke-linejoin:bevel;" x="139.548872" xlink:href="#mef48fc1c34" y="126.366129"/>
     <use style="fill:#ff7f0e;stroke:#ff7f0e;stroke-linejoin:bevel;" x="145.631508" xlink:href="#mef48fc1c34" y="147.959915"/>
     <use style="fill:#ff7f0e;stroke:#ff7f0e;stroke-linejoin:bevel;" x="151.714143" xlink:href="#mef48fc1c34" y="106.77935"/>
     <use style="fill:#ff7f0e;stroke:#ff7f0e;stroke-linejoin:bevel;" x="157.796778" xlink:href="#mef48fc1c34" y="156.288525"/>
     <use style="fill:#ff7f0e;stroke:#ff7f0e;stroke-linejoin:bevel;" x="163.879413" xlink:href="#mef48fc1c34" y="136.446282"/>
     <use style="fill:#ff7f0e;stroke:#ff7f0e;stroke-linejoin:bevel;" x="169.962048" xlink:href="#mef48fc1c34" y="45.634764"/>
     <use style="fill:#ff7f0e;stroke:#ff7f0e;stroke-linejoin:bevel;" x="176.044683" xlink:href="#mef48fc1c34" y="180.656263"/>
     <use style="fill:#ff7f0e;stroke:#ff7f0e;stroke-linejoin:bevel;" x="182.127319" xlink:href="#mef48fc1c34" y="230.772296"/>
     <use style="fill:#ff7f0e;stroke:#ff7f0e;stroke-linejoin:bevel;" x="188.209954" xlink:href="#mef48fc1c34" y="191.573592"/>
     <use style="fill:#ff7f0e;stroke:#ff7f0e;stroke-linejoin:bevel;" x="194.292589" xlink:href="#mef48fc1c34" y="231.606032"/>
     <use style="fill:#ff7f0e;stroke:#ff7f0e;stroke-linejoin:bevel;" x="200.375224" xlink:href="#mef48fc1c34" y="54.292356"/>
     <use style="fill:#ff7f0e;stroke:#ff7f0e;stroke-linejoin:bevel;" x="206.457859" xlink:href="#mef48fc1c34" y="153.1253"/>
     <use style="fill:#ff7f0e;stroke:#ff7f0e;stroke-linejoin:bevel;" x="212.540495" xlink:href="#mef48fc1c34" y="96.457775"/>
     <use style="fill:#ff7f0e;stroke:#ff7f0e;stroke-linejoin:bevel;" x="218.62313" xlink:href="#mef48fc1c34" y="202.223519"/>
     <use style="fill:#ff7f0e;stroke:#ff7f0e;stroke-linejoin:bevel;" x="224.705765" xlink:href="#mef48fc1c34" y="238.160089"/>
     <use style="fill:#ff7f0e;stroke:#ff7f0e;stroke-linejoin:bevel;" x="230.7884" xlink:href="#mef48fc1c34" y="60.888162"/>
     <use style="fill:#ff7f0e;stroke:#ff7f0e;stroke-linejoin:bevel;" x="236.871035" xlink:href="#mef48fc1c34" y="102.022024"/>
     <use style="fill:#ff7f0e;stroke:#ff7f0e;stroke-linejoin:bevel;" x="242.95367" xlink:href="#mef48fc1c34" y="156.6352"/>
     <use style="fill:#ff7f0e;stroke:#ff7f0e;stroke-linejoin:bevel;" x="249.036306" xlink:href="#mef48fc1c34" y="105.454223"/>
     <use style="fill:#ff7f0e;stroke:#ff7f0e;stroke-linejoin:bevel;" x="255.118941" xlink:href="#mef48fc1c34" y="41.804937"/>
     <use style="fill:#ff7f0e;stroke:#ff7f0e;stroke-linejoin:bevel;" x="261.201576" xlink:href="#mef48fc1c34" y="162.181502"/>
     <use style="fill:#ff7f0e;stroke:#ff7f0e;stroke-linejoin:bevel;" x="267.284211" xlink:href="#mef48fc1c34" y="125.79148"/>
     <use style="fill:#ff7f0e;stroke:#ff7f0e;stroke-linejoin:bevel;" x="273.366846" xlink:href="#mef48fc1c34" y="218.718244"/>
     <use style="fill:#ff7f0e;stroke:#ff7f0e;stroke-linejoin:bevel;" x="279.449482" xlink:href="#mef48fc1c34" y="175.820095"/>
     <use style="fill:#ff7f0e;stroke:#ff7f0e;stroke-linejoin:bevel;" x="285.532117" xlink:href="#mef48fc1c34" y="57.432952"/>
     <use style="fill:#ff7f0e;stroke:#ff7f0e;stroke-linejoin:bevel;" x="291.614752" xlink:href="#mef48fc1c34" y="59.165324"/>
     <use style="fill:#ff7f0e;stroke:#ff7f0e;stroke-linejoin:bevel;" x="297.697387" xlink:href="#mef48fc1c34" y="105.248679"/>
     <use style="fill:#ff7f0e;stroke:#ff7f0e;stroke-linejoin:bevel;" x="303.780022" xlink:href="#mef48fc1c34" y="47.923275"/>
     <use style="fill:#ff7f0e;stroke:#ff7f0e;stroke-linejoin:bevel;" x="309.862658" xlink:href="#mef48fc1c34" y="168.108789"/>
     <use style="fill:#ff7f0e;stroke:#ff7f0e;stroke-linejoin:bevel;" x="315.945293" xlink:href="#mef48fc1c34" y="225.571512"/>
     <use style="fill:#ff7f0e;stroke:#ff7f0e;stroke-linejoin:bevel;" x="322.027928" xlink:href="#mef48fc1c34" y="141.285115"/>
     <use style="fill:#ff7f0e;stroke:#ff7f0e;stroke-linejoin:bevel;" x="328.110563" xlink:href="#mef48fc1c34" y="197.696241"/>
     <use style="fill:#ff7f0e;stroke:#ff7f0e;stroke-linejoin:bevel;" x="334.193198" xlink:href="#mef48fc1c34" y="204.697691"/>
     <use style="fill:#ff7f0e;stroke:#ff7f0e;stroke-linejoin:bevel;" x="340.275833" xlink:href="#mef48fc1c34" y="236.163798"/>
     <use style="fill:#ff7f0e;stroke:#ff7f0e;stroke-linejoin:bevel;" x="346.358469" xlink:href="#mef48fc1c34" y="82.188251"/>
     <use style="fill:#ff7f0e;stroke:#ff7f0e;stroke-linejoin:bevel;" x="352.441104" xlink:href="#mef48fc1c34" y="165.862599"/>
     <use style="fill:#ff7f0e;stroke:#ff7f0e;stroke-linejoin:bevel;" x="358.523739" xlink:href="#mef48fc1c34" y="230.370221"/>
     <use style="fill:#ff7f0e;stroke:#ff7f0e;stroke-linejoin:bevel;" x="364.606374" xlink:href="#mef48fc1c34" y="149.697297"/>
     <use style="fill:#ff7f0e;stroke:#ff7f0e;stroke-linejoin:bevel;" x="370.689009" xlink:href="#mef48fc1c34" y="141.224276"/>
     <use style="fill:#ff7f0e;stroke:#ff7f0e;stroke-linejoin:bevel;" x="376.771645" xlink:href="#mef48fc1c34" y="73.865733"/>
     <use style="fill:#ff7f0e;stroke:#ff7f0e;stroke-linejoin:bevel;" x="382.85428" xlink:href="#mef48fc1c34" y="95.883159"/>
     <use style="fill:#ff7f0e;stroke:#ff7f0e;stroke-linejoin:bevel;" x="388.936915" xlink:href="#mef48fc1c34" y="145.100327"/>
     <use style="fill:#ff7f0e;stroke:#ff7f0e;stroke-linejoin:bevel;" x="395.01955" xlink:href="#mef48fc1c34" y="54.584214"/>
     <use style="fill:#ff7f0e;stroke:#ff7f0e;stroke-linejoin:bevel;" x="401.102185" xlink:href="#mef48fc1c34" y="143.564955"/>
     <use style="fill:#ff7f0e;stroke:#ff7f0e;stroke-linejoin:bevel;" x="407.18482" xlink:href="#mef48fc1c34" y="127.228333"/>
     <use style="fill:#ff7f0e;stroke:#ff7f0e;stroke-linejoin:bevel;" x="413.267456" xlink:href="#mef48fc1c34" y="217.128059"/>
     <use style="fill:#ff7f0e;stroke:#ff7f0e;stroke-linejoin:bevel;" x="419.350091" xlink:href="#mef48fc1c34" y="222.53535"/>
     <use style="fill:#ff7f0e;stroke:#ff7f0e;stroke-linejoin:bevel;" x="425.432726" xlink:href="#mef48fc1c34" y="162.99947"/>
     <use style="fill:#ff7f0e;stroke:#ff7f0e;stroke-linejoin:bevel;" x="431.515361" xlink:href="#mef48fc1c34" y="118.1377"/>
     <use style="fill:#ff7f0e;stroke:#ff7f0e;stroke-linejoin:bevel;" x="437.597996" xlink:href="#mef48fc1c34" y="62.914693"/>
     <use style="fill:#ff7f0e;stroke:#ff7f0e;stroke-linejoin:bevel;" x="443.680632" xlink:href="#mef48fc1c34" y="73.904523"/>
     <use style="fill:#ff7f0e;stroke:#ff7f0e;stroke-linejoin:bevel;" x="449.763267" xlink:href="#mef48fc1c34" y="145.063276"/>
     <use style="fill:#ff7f0e;stroke:#ff7f0e;stroke-linejoin:bevel;" x="455.845902" xlink:href="#mef48fc1c34" y="149.506784"/>
     <use style="fill:#ff7f0e;stroke:#ff7f0e;stroke-linejoin:bevel;" x="461.928537" xlink:href="#mef48fc1c34" y="134.278143"/>
     <use style="fill:#ff7f0e;stroke:#ff7f0e;stroke-linejoin:bevel;" x="468.011172" xlink:href="#mef48fc1c34" y="213.558557"/>
     <use style="fill:#ff7f0e;stroke:#ff7f0e;stroke-linejoin:bevel;" x="474.093808" xlink:href="#mef48fc1c34" y="73.967817"/>
     <use style="fill:#ff7f0e;stroke:#ff7f0e;stroke-linejoin:bevel;" x="480.176443" xlink:href="#mef48fc1c34" y="80.339284"/>
     <use style="fill:#ff7f0e;stroke:#ff7f0e;stroke-linejoin:bevel;" x="486.259078" xlink:href="#mef48fc1c34" y="96.486275"/>
     <use style="fill:#ff7f0e;stroke:#ff7f0e;stroke-linejoin:bevel;" x="492.341713" xlink:href="#mef48fc1c34" y="40.437999"/>
     <use style="fill:#ff7f0e;stroke:#ff7f0e;stroke-linejoin:bevel;" x="498.424348" xlink:href="#mef48fc1c34" y="107.089485"/>
     <use style="fill:#ff7f0e;stroke:#ff7f0e;stroke-linejoin:bevel;" x="504.506983" xlink:href="#mef48fc1c34" y="196.516922"/>
     <use style="fill:#ff7f0e;stroke:#ff7f0e;stroke-linejoin:bevel;" x="510.589619" xlink:href="#mef48fc1c34" y="105.578703"/>
     <use style="fill:#ff7f0e;stroke:#ff7f0e;stroke-linejoin:bevel;" x="516.672254" xlink:href="#mef48fc1c34" y="192.202983"/>
     <use style="fill:#ff7f0e;stroke:#ff7f0e;stroke-linejoin:bevel;" x="522.754889" xlink:href="#mef48fc1c34" y="74.573496"/>
     <use style="fill:#ff7f0e;stroke:#ff7f0e;stroke-linejoin:bevel;" x="528.837524" xlink:href="#mef48fc1c34" y="126.023992"/>
     <use style="fill:#ff7f0e;stroke:#ff7f0e;stroke-linejoin:bevel;" x="534.920159" xlink:href="#mef48fc1c34" y="118.580036"/>
     <use style="fill:#ff7f0e;stroke:#ff7f0e;stroke-linejoin:bevel;" x="541.002795" xlink:href="#mef48fc1c34" y="94.272153"/>
     <use style="fill:#ff7f0e;stroke:#ff7f0e;stroke-linejoin:bevel;" x="547.08543" xlink:href="#mef48fc1c34" y="141.298635"/>
     <use style="fill:#ff7f0e;stroke:#ff7f0e;stroke-linejoin:bevel;" x="553.168065" xlink:href="#mef48fc1c34" y="157.446933"/>
     <use style="fill:#ff7f0e;stroke:#ff7f0e;stroke-linejoin:bevel;" x="559.2507" xlink:href="#mef48fc1c34" y="63.340556"/>
     <use style="fill:#ff7f0e;stroke:#ff7f0e;stroke-linejoin:bevel;" x="565.333335" xlink:href="#mef48fc1c34" y="142.011846"/>
     <use style="fill:#ff7f0e;stroke:#ff7f0e;stroke-linejoin:bevel;" x="571.415971" xlink:href="#mef48fc1c34" y="173.44782"/>
     <use style="fill:#ff7f0e;stroke:#ff7f0e;stroke-linejoin:bevel;" x="577.498606" xlink:href="#mef48fc1c34" y="113.514945"/>
     <use style="fill:#ff7f0e;stroke:#ff7f0e;stroke-linejoin:bevel;" x="583.581241" xlink:href="#mef48fc1c34" y="87.661635"/>
     <use style="fill:#ff7f0e;stroke:#ff7f0e;stroke-linejoin:bevel;" x="589.663876" xlink:href="#mef48fc1c34" y="36.635179"/>
     <use style="fill:#ff7f0e;stroke:#ff7f0e;stroke-linejoin:bevel;" x="595.746511" xlink:href="#mef48fc1c34" y="131.207096"/>
     <use style="fill:#ff7f0e;stroke:#ff7f0e;stroke-linejoin:bevel;" x="601.829146" xlink:href="#mef48fc1c34" y="75.344326"/>
     <use style="fill:#ff7f0e;stroke:#ff7f0e;stroke-linejoin:bevel;" x="607.911782" xlink:href="#mef48fc1c34" y="141.614815"/>
     <use style="fill:#ff7f0e;stroke:#ff7f0e;stroke-linejoin:bevel;" x="613.994417" xlink:href="#mef48fc1c34" y="62.480914"/>
     <use style="fill:#ff7f0e;stroke:#ff7f0e;stroke-linejoin:bevel;" x="620.077052" xlink:href="#mef48fc1c34" y="61.557694"/>
     <use style="fill:#ff7f0e;stroke:#ff7f0e;stroke-linejoin:bevel;" x="626.159687" xlink:href="#mef48fc1c34" y="56.226037"/>
     <use style="fill:#ff7f0e;stroke:#ff7f0e;stroke-linejoin:bevel;" x="632.242322" xlink:href="#mef48fc1c34" y="190.740008"/>
     <use style="fill:#ff7f0e;stroke:#ff7f0e;stroke-linejoin:bevel;" x="638.324958" xlink:href="#mef48fc1c34" y="103.308361"/>
     <use style="fill:#ff7f0e;stroke:#ff7f0e;stroke-linejoin:bevel;" x="644.407593" xlink:href="#mef48fc1c34" y="173.568235"/>
     <use style="fill:#ff7f0e;stroke:#ff7f0e;stroke-linejoin:bevel;" x="650.490228" xlink:href="#mef48fc1c34" y="230.12716"/>
     <use style="fill:#ff7f0e;stroke:#ff7f0e;stroke-linejoin:bevel;" x="656.572863" xlink:href="#mef48fc1c34" y="84.947008"/>
     <use style="fill:#ff7f0e;stroke:#ff7f0e;stroke-linejoin:bevel;" x="662.655498" xlink:href="#mef48fc1c34" y="140.39612"/>
     <use style="fill:#ff7f0e;stroke:#ff7f0e;stroke-linejoin:bevel;" x="668.738133" xlink:href="#mef48fc1c34" y="120.485998"/>
     <use style="fill:#ff7f0e;stroke:#ff7f0e;stroke-linejoin:bevel;" x="674.820769" xlink:href="#mef48fc1c34" y="112.334454"/>
    </g>
   </g>
   <g id="patch_11">
    <path d="M 55.304375 255.134062 
L 55.304375 26.084063 
" style="fill:none;stroke:#262626;stroke-linecap:square;stroke-linejoin:miter;stroke-width:1.25;"/>
   </g>
   <g id="patch_12">
    <path d="M 55.304375 255.134062 
L 704.321549 255.134062 
" style="fill:none;stroke:#262626;stroke-linecap:square;stroke-linejoin:miter;stroke-width:1.25;"/>
   </g>
   <g id="text_50">
    <!-- Free run simulation -->
    <g style="fill:#262626;" transform="translate(302.787025 20.084062)scale(0.18 -0.18)">
     <defs>
      <path d="M 8.203125 0 
L 8.203125 71.578125 
L 56.5 71.578125 
L 56.5 63.140625 
L 17.671875 63.140625 
L 17.671875 40.96875 
L 51.265625 40.96875 
L 51.265625 32.515625 
L 17.671875 32.515625 
L 17.671875 0 
z
" id="ArialMT-70"/>
      <path d="M 40.578125 0 
L 40.578125 7.625 
Q 34.515625 -1.171875 24.125 -1.171875 
Q 19.53125 -1.171875 15.546875 0.578125 
Q 11.578125 2.34375 9.640625 5 
Q 7.71875 7.671875 6.9375 11.53125 
Q 6.390625 14.109375 6.390625 19.734375 
L 6.390625 51.859375 
L 15.1875 51.859375 
L 15.1875 23.09375 
Q 15.1875 16.21875 15.71875 13.8125 
Q 16.546875 10.359375 19.234375 8.375 
Q 21.921875 6.390625 25.875 6.390625 
Q 29.828125 6.390625 33.296875 8.421875 
Q 36.765625 10.453125 38.203125 13.9375 
Q 39.65625 17.4375 39.65625 24.078125 
L 39.65625 51.859375 
L 48.4375 51.859375 
L 48.4375 0 
z
" id="ArialMT-117"/>
     </defs>
     <use xlink:href="#ArialMT-70"/>
     <use x="61.083984" xlink:href="#ArialMT-114"/>
     <use x="94.384766" xlink:href="#ArialMT-101"/>
     <use x="150" xlink:href="#ArialMT-101"/>
     <use x="205.615234" xlink:href="#ArialMT-32"/>
     <use x="233.398438" xlink:href="#ArialMT-114"/>
     <use x="266.699219" xlink:href="#ArialMT-117"/>
     <use x="322.314453" xlink:href="#ArialMT-110"/>
     <use x="377.929688" xlink:href="#ArialMT-32"/>
     <use x="405.712891" xlink:href="#ArialMT-115"/>
     <use x="455.712891" xlink:href="#ArialMT-105"/>
     <use x="477.929688" xlink:href="#ArialMT-109"/>
     <use x="561.230469" xlink:href="#ArialMT-117"/>
     <use x="616.845703" xlink:href="#ArialMT-108"/>
     <use x="639.0625" xlink:href="#ArialMT-97"/>
     <use x="694.677734" xlink:href="#ArialMT-116"/>
     <use x="722.460938" xlink:href="#ArialMT-105"/>
     <use x="744.677734" xlink:href="#ArialMT-111"/>
     <use x="800.292969" xlink:href="#ArialMT-110"/>
    </g>
   </g>
   <g id="legend_1">
    <g id="line2d_48">
     <path d="M 640.087174 38.741875 
L 660.087174 38.741875 
" style="fill:none;stroke:#1f77b4;stroke-linecap:round;stroke-width:1.5;"/>
    </g>
    <g id="line2d_49">
     <g>
      <use style="fill:#1f77b4;stroke:#1f77b4;" x="650.087174" xlink:href="#m03818713f4" y="38.741875"/>
     </g>
    </g>
    <g id="text_51">
     <!-- Data -->
     <g style="fill:#262626;" transform="translate(668.087174 42.241875)scale(0.1 -0.1)">
      <defs>
       <path d="M 7.71875 0 
L 7.71875 71.578125 
L 32.375 71.578125 
Q 40.71875 71.578125 45.125 70.5625 
Q 51.265625 69.140625 55.609375 65.4375 
Q 61.28125 60.640625 64.078125 53.1875 
Q 66.890625 45.75 66.890625 36.1875 
Q 66.890625 28.03125 64.984375 21.734375 
Q 63.09375 15.4375 60.109375 11.296875 
Q 57.125 7.171875 53.578125 4.796875 
Q 50.046875 2.4375 45.046875 1.21875 
Q 40.046875 0 33.546875 0 
z
M 17.1875 8.453125 
L 32.46875 8.453125 
Q 39.546875 8.453125 43.578125 9.765625 
Q 47.609375 11.078125 50 13.484375 
Q 53.375 16.84375 55.25 22.53125 
Q 57.125 28.21875 57.125 36.328125 
Q 57.125 47.5625 53.4375 53.59375 
Q 49.75 59.625 44.484375 61.671875 
Q 40.671875 63.140625 32.234375 63.140625 
L 17.1875 63.140625 
z
" id="ArialMT-68"/>
      </defs>
      <use xlink:href="#ArialMT-68"/>
      <use x="72.216797" xlink:href="#ArialMT-97"/>
      <use x="127.832031" xlink:href="#ArialMT-116"/>
      <use x="155.615234" xlink:href="#ArialMT-97"/>
     </g>
    </g>
    <g id="line2d_50">
     <path d="M 640.087174 52.887187 
L 660.087174 52.887187 
" style="fill:none;stroke:#ff7f0e;stroke-linecap:round;stroke-width:1.5;"/>
    </g>
    <g id="line2d_51">
     <g>
      <use style="fill:#ff7f0e;stroke:#ff7f0e;stroke-linejoin:bevel;" x="650.087174" xlink:href="#mef48fc1c34" y="52.887187"/>
     </g>
    </g>
    <g id="text_52">
     <!-- Model -->
     <g style="fill:#262626;" transform="translate(668.087174 56.387187)scale(0.1 -0.1)">
      <defs>
       <path d="M 7.421875 0 
L 7.421875 71.578125 
L 21.6875 71.578125 
L 38.625 20.90625 
Q 40.96875 13.8125 42.046875 10.296875 
Q 43.265625 14.203125 45.84375 21.78125 
L 62.984375 71.578125 
L 75.734375 71.578125 
L 75.734375 0 
L 66.609375 0 
L 66.609375 59.90625 
L 45.796875 0 
L 37.25 0 
L 16.546875 60.9375 
L 16.546875 0 
z
" id="ArialMT-77"/>
       <path d="M 40.234375 0 
L 40.234375 6.546875 
Q 35.296875 -1.171875 25.734375 -1.171875 
Q 19.53125 -1.171875 14.328125 2.25 
Q 9.125 5.671875 6.265625 11.796875 
Q 3.421875 17.921875 3.421875 25.875 
Q 3.421875 33.640625 6 39.96875 
Q 8.59375 46.296875 13.765625 49.65625 
Q 18.953125 53.03125 25.34375 53.03125 
Q 30.03125 53.03125 33.6875 51.046875 
Q 37.359375 49.078125 39.65625 45.90625 
L 39.65625 71.578125 
L 48.390625 71.578125 
L 48.390625 0 
z
M 12.453125 25.875 
Q 12.453125 15.921875 16.640625 10.984375 
Q 20.84375 6.0625 26.5625 6.0625 
Q 32.328125 6.0625 36.34375 10.765625 
Q 40.375 15.484375 40.375 25.140625 
Q 40.375 35.796875 36.265625 40.765625 
Q 32.171875 45.75 26.171875 45.75 
Q 20.3125 45.75 16.375 40.96875 
Q 12.453125 36.1875 12.453125 25.875 
z
" id="ArialMT-100"/>
      </defs>
      <use xlink:href="#ArialMT-77"/>
      <use x="83.300781" xlink:href="#ArialMT-111"/>
      <use x="138.916016" xlink:href="#ArialMT-100"/>
      <use x="194.53125" xlink:href="#ArialMT-101"/>
      <use x="250.146484" xlink:href="#ArialMT-108"/>
     </g>
    </g>
   </g>
  </g>
 </g>
 <defs>
  <clipPath id="p9d36af410e">
   <rect height="229.05" width="297.608587" x="55.304375" y="304.934062"/>
  </clipPath>
  <clipPath id="p7fabf0a54c">
   <rect height="229.05" width="297.608587" x="406.712962" y="304.934062"/>
  </clipPath>
  <clipPath id="p7f38b654c9">
   <rect height="229.05" width="649.017174" x="55.304375" y="26.084062"/>
  </clipPath>
 </defs>
</svg>
