<?xml version="1.0" encoding="utf-8" standalone="no"?>
<!DOCTYPE svg PUBLIC "-//W3C//DTD SVG 1.1//EN"
  "http://www.w3.org/Graphics/SVG/1.1/DTD/svg11.dtd">
<!-- Created with matplotlib (https://matplotlib.org/) -->
<svg height="568.944375pt" version="1.1" viewBox="0 0 711.946643 568.944375" width="711.946643pt" xmlns="http://www.w3.org/2000/svg" xmlns:xlink="http://www.w3.org/1999/xlink">
 <metadata>
  <rdf:RDF xmlns:cc="http://creativecommons.org/ns#" xmlns:dc="http://purl.org/dc/elements/1.1/" xmlns:rdf="http://www.w3.org/1999/02/22-rdf-syntax-ns#">
   <cc:Work>
    <dc:type rdf:resource="http://purl.org/dc/dcmitype/StillImage"/>
    <dc:date>2021-03-14T11:00:45.409271</dc:date>
    <dc:format>image/svg+xml</dc:format>
    <dc:creator>
     <cc:Agent>
      <dc:title>Matplotlib v3.3.3, https://matplotlib.org/</dc:title>
     </cc:Agent>
    </dc:creator>
   </cc:Work>
  </rdf:RDF>
 </metadata>
 <defs>
  <style type="text/css">*{stroke-linecap:butt;stroke-linejoin:round;}</style>
 </defs>
 <g id="figure_1">
  <g id="patch_1">
   <path d="M 0 568.944375 
L 711.946643 568.944375 
L 711.946643 0 
L 0 0 
z
" style="fill:#ffffff;"/>
  </g>
  <g id="axes_1">
   <g id="patch_2">
    <path d="M 55.304375 533.984062 
L 352.912962 533.984062 
L 352.912962 304.934062 
L 55.304375 304.934062 
z
" style="fill:#ffffff;"/>
   </g>
   <g id="matplotlib.axis_1">
    <g id="xtick_1">
     <g id="line2d_1"/>
     <g id="text_1">
      <!-- 0 -->
      <g style="fill:#262626;" transform="translate(66.051569 544.641875)scale(0.1 -0.1)">
       <defs>
        <path d="M 4.15625 35.296875 
Q 4.15625 48 6.765625 55.734375 
Q 9.375 63.484375 14.515625 67.671875 
Q 19.671875 71.875 27.484375 71.875 
Q 33.25 71.875 37.59375 69.546875 
Q 41.9375 67.234375 44.765625 62.859375 
Q 47.609375 58.5 49.21875 52.21875 
Q 50.828125 45.953125 50.828125 35.296875 
Q 50.828125 22.703125 48.234375 14.96875 
Q 45.65625 7.234375 40.5 3 
Q 35.359375 -1.21875 27.484375 -1.21875 
Q 17.140625 -1.21875 11.234375 6.203125 
Q 4.15625 15.140625 4.15625 35.296875 
z
M 13.1875 35.296875 
Q 13.1875 17.671875 17.3125 11.828125 
Q 21.4375 6 27.484375 6 
Q 33.546875 6 37.671875 11.859375 
Q 41.796875 17.71875 41.796875 35.296875 
Q 41.796875 52.984375 37.671875 58.78125 
Q 33.546875 64.59375 27.390625 64.59375 
Q 21.34375 64.59375 17.71875 59.46875 
Q 13.1875 52.9375 13.1875 35.296875 
z
" id="ArialMT-48"/>
       </defs>
       <use xlink:href="#ArialMT-48"/>
      </g>
     </g>
    </g>
    <g id="xtick_2">
     <g id="line2d_2"/>
     <g id="text_2">
      <!-- 20 -->
      <g style="fill:#262626;" transform="translate(117.928325 544.641875)scale(0.1 -0.1)">
       <defs>
        <path d="M 50.34375 8.453125 
L 50.34375 0 
L 3.03125 0 
Q 2.9375 3.171875 4.046875 6.109375 
Q 5.859375 10.9375 9.828125 15.625 
Q 13.8125 20.3125 21.34375 26.46875 
Q 33.015625 36.03125 37.109375 41.625 
Q 41.21875 47.21875 41.21875 52.203125 
Q 41.21875 57.421875 37.46875 61 
Q 33.734375 64.59375 27.734375 64.59375 
Q 21.390625 64.59375 17.578125 60.78125 
Q 13.765625 56.984375 13.71875 50.25 
L 4.6875 51.171875 
Q 5.609375 61.28125 11.65625 66.578125 
Q 17.71875 71.875 27.9375 71.875 
Q 38.234375 71.875 44.234375 66.15625 
Q 50.25 60.453125 50.25 52 
Q 50.25 47.703125 48.484375 43.546875 
Q 46.734375 39.40625 42.65625 34.8125 
Q 38.578125 30.21875 29.109375 22.21875 
Q 21.1875 15.578125 18.9375 13.203125 
Q 16.703125 10.84375 15.234375 8.453125 
z
" id="ArialMT-50"/>
       </defs>
       <use xlink:href="#ArialMT-50"/>
       <use x="55.615234" xlink:href="#ArialMT-48"/>
      </g>
     </g>
    </g>
    <g id="xtick_3">
     <g id="line2d_3"/>
     <g id="text_3">
      <!-- 40 -->
      <g style="fill:#262626;" transform="translate(172.585549 544.641875)scale(0.1 -0.1)">
       <defs>
        <path d="M 32.328125 0 
L 32.328125 17.140625 
L 1.265625 17.140625 
L 1.265625 25.203125 
L 33.9375 71.578125 
L 41.109375 71.578125 
L 41.109375 25.203125 
L 50.78125 25.203125 
L 50.78125 17.140625 
L 41.109375 17.140625 
L 41.109375 0 
z
M 32.328125 25.203125 
L 32.328125 57.46875 
L 9.90625 25.203125 
z
" id="ArialMT-52"/>
       </defs>
       <use xlink:href="#ArialMT-52"/>
       <use x="55.615234" xlink:href="#ArialMT-48"/>
      </g>
     </g>
    </g>
    <g id="xtick_4">
     <g id="line2d_4"/>
     <g id="text_4">
      <!-- 60 -->
      <g style="fill:#262626;" transform="translate(227.242774 544.641875)scale(0.1 -0.1)">
       <defs>
        <path d="M 49.75 54.046875 
L 41.015625 53.375 
Q 39.84375 58.546875 37.703125 60.890625 
Q 34.125 64.65625 28.90625 64.65625 
Q 24.703125 64.65625 21.53125 62.3125 
Q 17.390625 59.28125 14.984375 53.46875 
Q 12.59375 47.65625 12.5 36.921875 
Q 15.671875 41.75 20.265625 44.09375 
Q 24.859375 46.4375 29.890625 46.4375 
Q 38.671875 46.4375 44.84375 39.96875 
Q 51.03125 33.5 51.03125 23.25 
Q 51.03125 16.5 48.125 10.71875 
Q 45.21875 4.9375 40.140625 1.859375 
Q 35.0625 -1.21875 28.609375 -1.21875 
Q 17.625 -1.21875 10.6875 6.859375 
Q 3.765625 14.9375 3.765625 33.5 
Q 3.765625 54.25 11.421875 63.671875 
Q 18.109375 71.875 29.4375 71.875 
Q 37.890625 71.875 43.28125 67.140625 
Q 48.6875 62.40625 49.75 54.046875 
z
M 13.875 23.1875 
Q 13.875 18.65625 15.796875 14.5 
Q 17.71875 10.359375 21.1875 8.171875 
Q 24.65625 6 28.46875 6 
Q 34.03125 6 38.03125 10.484375 
Q 42.046875 14.984375 42.046875 22.703125 
Q 42.046875 30.125 38.078125 34.390625 
Q 34.125 38.671875 28.125 38.671875 
Q 22.171875 38.671875 18.015625 34.390625 
Q 13.875 30.125 13.875 23.1875 
z
" id="ArialMT-54"/>
       </defs>
       <use xlink:href="#ArialMT-54"/>
       <use x="55.615234" xlink:href="#ArialMT-48"/>
      </g>
     </g>
    </g>
    <g id="xtick_5">
     <g id="line2d_5"/>
     <g id="text_5">
      <!-- 80 -->
      <g style="fill:#262626;" transform="translate(281.899998 544.641875)scale(0.1 -0.1)">
       <defs>
        <path d="M 17.671875 38.8125 
Q 12.203125 40.828125 9.5625 44.53125 
Q 6.9375 48.25 6.9375 53.421875 
Q 6.9375 61.234375 12.546875 66.546875 
Q 18.171875 71.875 27.484375 71.875 
Q 36.859375 71.875 42.578125 66.421875 
Q 48.296875 60.984375 48.296875 53.171875 
Q 48.296875 48.1875 45.671875 44.5 
Q 43.0625 40.828125 37.75 38.8125 
Q 44.34375 36.671875 47.78125 31.875 
Q 51.21875 27.09375 51.21875 20.453125 
Q 51.21875 11.28125 44.71875 5.03125 
Q 38.234375 -1.21875 27.640625 -1.21875 
Q 17.046875 -1.21875 10.546875 5.046875 
Q 4.046875 11.328125 4.046875 20.703125 
Q 4.046875 27.6875 7.59375 32.390625 
Q 11.140625 37.109375 17.671875 38.8125 
z
M 15.921875 53.71875 
Q 15.921875 48.640625 19.1875 45.40625 
Q 22.46875 42.1875 27.6875 42.1875 
Q 32.765625 42.1875 36.015625 45.375 
Q 39.265625 48.578125 39.265625 53.21875 
Q 39.265625 58.0625 35.90625 61.359375 
Q 32.5625 64.65625 27.59375 64.65625 
Q 22.5625 64.65625 19.234375 61.421875 
Q 15.921875 58.203125 15.921875 53.71875 
z
M 13.09375 20.65625 
Q 13.09375 16.890625 14.875 13.375 
Q 16.65625 9.859375 20.171875 7.921875 
Q 23.6875 6 27.734375 6 
Q 34.03125 6 38.125 10.046875 
Q 42.234375 14.109375 42.234375 20.359375 
Q 42.234375 26.703125 38.015625 30.859375 
Q 33.796875 35.015625 27.4375 35.015625 
Q 21.234375 35.015625 17.15625 30.90625 
Q 13.09375 26.8125 13.09375 20.65625 
z
" id="ArialMT-56"/>
       </defs>
       <use xlink:href="#ArialMT-56"/>
       <use x="55.615234" xlink:href="#ArialMT-48"/>
      </g>
     </g>
    </g>
    <g id="xtick_6">
     <g id="line2d_6"/>
     <g id="text_6">
      <!-- 100 -->
      <g style="fill:#262626;" transform="translate(333.776754 544.641875)scale(0.1 -0.1)">
       <defs>
        <path d="M 37.25 0 
L 28.46875 0 
L 28.46875 56 
Q 25.296875 52.984375 20.140625 49.953125 
Q 14.984375 46.921875 10.890625 45.40625 
L 10.890625 53.90625 
Q 18.265625 57.375 23.78125 62.296875 
Q 29.296875 67.234375 31.59375 71.875 
L 37.25 71.875 
z
" id="ArialMT-49"/>
       </defs>
       <use xlink:href="#ArialMT-49"/>
       <use x="55.615234" xlink:href="#ArialMT-48"/>
       <use x="111.230469" xlink:href="#ArialMT-48"/>
      </g>
     </g>
    </g>
    <g id="text_7">
     <!-- Lag -->
     <g style="fill:#262626;" transform="translate(194.098981 559.21875)scale(0.12 -0.12)">
      <defs>
       <path d="M 7.328125 0 
L 7.328125 71.578125 
L 16.796875 71.578125 
L 16.796875 8.453125 
L 52.046875 8.453125 
L 52.046875 0 
z
" id="ArialMT-76"/>
       <path d="M 40.4375 6.390625 
Q 35.546875 2.25 31.03125 0.53125 
Q 26.515625 -1.171875 21.34375 -1.171875 
Q 12.796875 -1.171875 8.203125 3 
Q 3.609375 7.171875 3.609375 13.671875 
Q 3.609375 17.484375 5.34375 20.625 
Q 7.078125 23.78125 9.890625 25.6875 
Q 12.703125 27.59375 16.21875 28.5625 
Q 18.796875 29.25 24.03125 29.890625 
Q 34.671875 31.15625 39.703125 32.90625 
Q 39.75 34.71875 39.75 35.203125 
Q 39.75 40.578125 37.25 42.78125 
Q 33.890625 45.75 27.25 45.75 
Q 21.046875 45.75 18.09375 43.578125 
Q 15.140625 41.40625 13.71875 35.890625 
L 5.125 37.0625 
Q 6.296875 42.578125 8.984375 45.96875 
Q 11.671875 49.359375 16.75 51.1875 
Q 21.828125 53.03125 28.515625 53.03125 
Q 35.15625 53.03125 39.296875 51.46875 
Q 43.453125 49.90625 45.40625 47.53125 
Q 47.359375 45.171875 48.140625 41.546875 
Q 48.578125 39.3125 48.578125 33.453125 
L 48.578125 21.734375 
Q 48.578125 9.46875 49.140625 6.21875 
Q 49.703125 2.984375 51.375 0 
L 42.1875 0 
Q 40.828125 2.734375 40.4375 6.390625 
z
M 39.703125 26.03125 
Q 34.90625 24.078125 25.34375 22.703125 
Q 19.921875 21.921875 17.671875 20.9375 
Q 15.4375 19.96875 14.203125 18.09375 
Q 12.984375 16.21875 12.984375 13.921875 
Q 12.984375 10.40625 15.640625 8.0625 
Q 18.3125 5.71875 23.4375 5.71875 
Q 28.515625 5.71875 32.46875 7.9375 
Q 36.421875 10.15625 38.28125 14.015625 
Q 39.703125 17 39.703125 22.796875 
z
" id="ArialMT-97"/>
       <path d="M 4.984375 -4.296875 
L 13.53125 -5.5625 
Q 14.0625 -9.515625 16.5 -11.328125 
Q 19.78125 -13.765625 25.4375 -13.765625 
Q 31.546875 -13.765625 34.859375 -11.328125 
Q 38.1875 -8.890625 39.359375 -4.5 
Q 40.046875 -1.8125 39.984375 6.78125 
Q 34.234375 0 25.640625 0 
Q 14.9375 0 9.078125 7.71875 
Q 3.21875 15.4375 3.21875 26.21875 
Q 3.21875 33.640625 5.90625 39.90625 
Q 8.59375 46.1875 13.6875 49.609375 
Q 18.796875 53.03125 25.6875 53.03125 
Q 34.859375 53.03125 40.828125 45.609375 
L 40.828125 51.859375 
L 48.921875 51.859375 
L 48.921875 7.03125 
Q 48.921875 -5.078125 46.453125 -10.125 
Q 44 -15.1875 38.640625 -18.109375 
Q 33.296875 -21.046875 25.484375 -21.046875 
Q 16.21875 -21.046875 10.5 -16.875 
Q 4.78125 -12.703125 4.984375 -4.296875 
z
M 12.25 26.859375 
Q 12.25 16.65625 16.296875 11.96875 
Q 20.359375 7.28125 26.46875 7.28125 
Q 32.515625 7.28125 36.609375 11.9375 
Q 40.71875 16.609375 40.71875 26.5625 
Q 40.71875 36.078125 36.5 40.90625 
Q 32.28125 45.75 26.3125 45.75 
Q 20.453125 45.75 16.34375 40.984375 
Q 12.25 36.234375 12.25 26.859375 
z
" id="ArialMT-103"/>
      </defs>
      <use xlink:href="#ArialMT-76"/>
      <use x="55.615234" xlink:href="#ArialMT-97"/>
      <use x="111.230469" xlink:href="#ArialMT-103"/>
     </g>
    </g>
   </g>
   <g id="matplotlib.axis_2">
    <g id="ytick_1">
     <g id="line2d_7"/>
     <g id="text_8">
      <!-- −1.00 -->
      <g style="fill:#262626;" transform="translate(26.502813 537.562969)scale(0.1 -0.1)">
       <defs>
        <path d="M 52.828125 31.203125 
L 5.5625 31.203125 
L 5.5625 39.40625 
L 52.828125 39.40625 
z
" id="ArialMT-8722"/>
        <path d="M 9.078125 0 
L 9.078125 10.015625 
L 19.09375 10.015625 
L 19.09375 0 
z
" id="ArialMT-46"/>
       </defs>
       <use xlink:href="#ArialMT-8722"/>
       <use x="58.398438" xlink:href="#ArialMT-49"/>
       <use x="114.013672" xlink:href="#ArialMT-46"/>
       <use x="141.796875" xlink:href="#ArialMT-48"/>
       <use x="197.412109" xlink:href="#ArialMT-48"/>
      </g>
     </g>
    </g>
    <g id="ytick_2">
     <g id="line2d_8"/>
     <g id="text_9">
      <!-- −0.75 -->
      <g style="fill:#262626;" transform="translate(26.502813 508.931719)scale(0.1 -0.1)">
       <defs>
        <path d="M 4.734375 62.203125 
L 4.734375 70.65625 
L 51.078125 70.65625 
L 51.078125 63.8125 
Q 44.234375 56.546875 37.515625 44.484375 
Q 30.8125 32.421875 27.15625 19.671875 
Q 24.515625 10.6875 23.78125 0 
L 14.75 0 
Q 14.890625 8.453125 18.0625 20.40625 
Q 21.234375 32.375 27.171875 43.484375 
Q 33.109375 54.59375 39.796875 62.203125 
z
" id="ArialMT-55"/>
        <path d="M 4.15625 18.75 
L 13.375 19.53125 
Q 14.40625 12.796875 18.140625 9.390625 
Q 21.875 6 27.15625 6 
Q 33.5 6 37.890625 10.78125 
Q 42.28125 15.578125 42.28125 23.484375 
Q 42.28125 31 38.0625 35.34375 
Q 33.84375 39.703125 27 39.703125 
Q 22.75 39.703125 19.328125 37.765625 
Q 15.921875 35.84375 13.96875 32.765625 
L 5.71875 33.84375 
L 12.640625 70.609375 
L 48.25 70.609375 
L 48.25 62.203125 
L 19.671875 62.203125 
L 15.828125 42.96875 
Q 22.265625 47.46875 29.34375 47.46875 
Q 38.71875 47.46875 45.15625 40.96875 
Q 51.609375 34.46875 51.609375 24.265625 
Q 51.609375 14.546875 45.953125 7.46875 
Q 39.0625 -1.21875 27.15625 -1.21875 
Q 17.390625 -1.21875 11.203125 4.25 
Q 5.03125 9.71875 4.15625 18.75 
z
" id="ArialMT-53"/>
       </defs>
       <use xlink:href="#ArialMT-8722"/>
       <use x="58.398438" xlink:href="#ArialMT-48"/>
       <use x="114.013672" xlink:href="#ArialMT-46"/>
       <use x="141.796875" xlink:href="#ArialMT-55"/>
       <use x="197.412109" xlink:href="#ArialMT-53"/>
      </g>
     </g>
    </g>
    <g id="ytick_3">
     <g id="line2d_9"/>
     <g id="text_10">
      <!-- −0.50 -->
      <g style="fill:#262626;" transform="translate(26.502813 480.300469)scale(0.1 -0.1)">
       <use xlink:href="#ArialMT-8722"/>
       <use x="58.398438" xlink:href="#ArialMT-48"/>
       <use x="114.013672" xlink:href="#ArialMT-46"/>
       <use x="141.796875" xlink:href="#ArialMT-53"/>
       <use x="197.412109" xlink:href="#ArialMT-48"/>
      </g>
     </g>
    </g>
    <g id="ytick_4">
     <g id="line2d_10"/>
     <g id="text_11">
      <!-- −0.25 -->
      <g style="fill:#262626;" transform="translate(26.502813 451.669219)scale(0.1 -0.1)">
       <use xlink:href="#ArialMT-8722"/>
       <use x="58.398438" xlink:href="#ArialMT-48"/>
       <use x="114.013672" xlink:href="#ArialMT-46"/>
       <use x="141.796875" xlink:href="#ArialMT-50"/>
       <use x="197.412109" xlink:href="#ArialMT-53"/>
      </g>
     </g>
    </g>
    <g id="ytick_5">
     <g id="line2d_11"/>
     <g id="text_12">
      <!-- 0.00 -->
      <g style="fill:#262626;" transform="translate(32.343438 423.037969)scale(0.1 -0.1)">
       <use xlink:href="#ArialMT-48"/>
       <use x="55.615234" xlink:href="#ArialMT-46"/>
       <use x="83.398438" xlink:href="#ArialMT-48"/>
       <use x="139.013672" xlink:href="#ArialMT-48"/>
      </g>
     </g>
    </g>
    <g id="ytick_6">
     <g id="line2d_12"/>
     <g id="text_13">
      <!-- 0.25 -->
      <g style="fill:#262626;" transform="translate(32.343438 394.406719)scale(0.1 -0.1)">
       <use xlink:href="#ArialMT-48"/>
       <use x="55.615234" xlink:href="#ArialMT-46"/>
       <use x="83.398438" xlink:href="#ArialMT-50"/>
       <use x="139.013672" xlink:href="#ArialMT-53"/>
      </g>
     </g>
    </g>
    <g id="ytick_7">
     <g id="line2d_13"/>
     <g id="text_14">
      <!-- 0.50 -->
      <g style="fill:#262626;" transform="translate(32.343438 365.775469)scale(0.1 -0.1)">
       <use xlink:href="#ArialMT-48"/>
       <use x="55.615234" xlink:href="#ArialMT-46"/>
       <use x="83.398438" xlink:href="#ArialMT-53"/>
       <use x="139.013672" xlink:href="#ArialMT-48"/>
      </g>
     </g>
    </g>
    <g id="ytick_8">
     <g id="line2d_14"/>
     <g id="text_15">
      <!-- 0.75 -->
      <g style="fill:#262626;" transform="translate(32.343438 337.144219)scale(0.1 -0.1)">
       <use xlink:href="#ArialMT-48"/>
       <use x="55.615234" xlink:href="#ArialMT-46"/>
       <use x="83.398438" xlink:href="#ArialMT-55"/>
       <use x="139.013672" xlink:href="#ArialMT-53"/>
      </g>
     </g>
    </g>
    <g id="ytick_9">
     <g id="line2d_15"/>
     <g id="text_16">
      <!-- 1.00 -->
      <g style="fill:#262626;" transform="translate(32.343438 308.512969)scale(0.1 -0.1)">
       <use xlink:href="#ArialMT-49"/>
       <use x="55.615234" xlink:href="#ArialMT-46"/>
       <use x="83.398438" xlink:href="#ArialMT-48"/>
       <use x="139.013672" xlink:href="#ArialMT-48"/>
      </g>
     </g>
    </g>
    <g id="text_17">
     <!-- Cross Correlation: ee, ex -->
     <g style="fill:#262626;" transform="translate(20.117812 485.815312)rotate(-90)scale(0.12 -0.12)">
      <defs>
       <path d="M 58.796875 25.09375 
L 68.265625 22.703125 
Q 65.28125 11.03125 57.546875 4.90625 
Q 49.8125 -1.21875 38.625 -1.21875 
Q 27.046875 -1.21875 19.796875 3.484375 
Q 12.546875 8.203125 8.765625 17.140625 
Q 4.984375 26.078125 4.984375 36.328125 
Q 4.984375 47.515625 9.25 55.828125 
Q 13.53125 64.15625 21.40625 68.46875 
Q 29.296875 72.796875 38.765625 72.796875 
Q 49.515625 72.796875 56.828125 67.328125 
Q 64.15625 61.859375 67.046875 51.953125 
L 57.71875 49.75 
Q 55.21875 57.5625 50.484375 61.125 
Q 45.75 64.703125 38.578125 64.703125 
Q 30.328125 64.703125 24.78125 60.734375 
Q 19.234375 56.78125 16.984375 50.109375 
Q 14.75 43.453125 14.75 36.375 
Q 14.75 27.25 17.40625 20.4375 
Q 20.0625 13.625 25.671875 10.25 
Q 31.296875 6.890625 37.84375 6.890625 
Q 45.796875 6.890625 51.3125 11.46875 
Q 56.84375 16.0625 58.796875 25.09375 
z
" id="ArialMT-67"/>
       <path d="M 6.5 0 
L 6.5 51.859375 
L 14.40625 51.859375 
L 14.40625 44 
Q 17.4375 49.515625 20 51.265625 
Q 22.5625 53.03125 25.640625 53.03125 
Q 30.078125 53.03125 34.671875 50.203125 
L 31.640625 42.046875 
Q 28.421875 43.953125 25.203125 43.953125 
Q 22.3125 43.953125 20.015625 42.21875 
Q 17.71875 40.484375 16.75 37.40625 
Q 15.28125 32.71875 15.28125 27.15625 
L 15.28125 0 
z
" id="ArialMT-114"/>
       <path d="M 3.328125 25.921875 
Q 3.328125 40.328125 11.328125 47.265625 
Q 18.015625 53.03125 27.640625 53.03125 
Q 38.328125 53.03125 45.109375 46.015625 
Q 51.90625 39.015625 51.90625 26.65625 
Q 51.90625 16.65625 48.90625 10.90625 
Q 45.90625 5.171875 40.15625 2 
Q 34.421875 -1.171875 27.640625 -1.171875 
Q 16.75 -1.171875 10.03125 5.8125 
Q 3.328125 12.796875 3.328125 25.921875 
z
M 12.359375 25.921875 
Q 12.359375 15.96875 16.703125 11.015625 
Q 21.046875 6.0625 27.640625 6.0625 
Q 34.1875 6.0625 38.53125 11.03125 
Q 42.875 16.015625 42.875 26.21875 
Q 42.875 35.84375 38.5 40.796875 
Q 34.125 45.75 27.640625 45.75 
Q 21.046875 45.75 16.703125 40.8125 
Q 12.359375 35.890625 12.359375 25.921875 
z
" id="ArialMT-111"/>
       <path d="M 3.078125 15.484375 
L 11.765625 16.84375 
Q 12.5 11.625 15.84375 8.84375 
Q 19.1875 6.0625 25.203125 6.0625 
Q 31.25 6.0625 34.171875 8.515625 
Q 37.109375 10.984375 37.109375 14.3125 
Q 37.109375 17.28125 34.515625 19 
Q 32.71875 20.171875 25.53125 21.96875 
Q 15.875 24.421875 12.140625 26.203125 
Q 8.40625 27.984375 6.46875 31.125 
Q 4.546875 34.28125 4.546875 38.09375 
Q 4.546875 41.546875 6.125 44.5 
Q 7.71875 47.46875 10.453125 49.421875 
Q 12.5 50.921875 16.03125 51.96875 
Q 19.578125 53.03125 23.640625 53.03125 
Q 29.734375 53.03125 34.34375 51.265625 
Q 38.96875 49.515625 41.15625 46.5 
Q 43.359375 43.5 44.1875 38.484375 
L 35.59375 37.3125 
Q 35.015625 41.3125 32.203125 43.546875 
Q 29.390625 45.796875 24.265625 45.796875 
Q 18.21875 45.796875 15.625 43.796875 
Q 13.03125 41.796875 13.03125 39.109375 
Q 13.03125 37.40625 14.109375 36.03125 
Q 15.1875 34.625 17.484375 33.6875 
Q 18.796875 33.203125 25.25 31.453125 
Q 34.578125 28.953125 38.25 27.359375 
Q 41.9375 25.78125 44.03125 22.75 
Q 46.140625 19.734375 46.140625 15.234375 
Q 46.140625 10.84375 43.578125 6.953125 
Q 41.015625 3.078125 36.171875 0.953125 
Q 31.34375 -1.171875 25.25 -1.171875 
Q 15.140625 -1.171875 9.84375 3.03125 
Q 4.546875 7.234375 3.078125 15.484375 
z
" id="ArialMT-115"/>
       <path id="ArialMT-32"/>
       <path d="M 42.09375 16.703125 
L 51.171875 15.578125 
Q 49.03125 7.625 43.21875 3.21875 
Q 37.40625 -1.171875 28.375 -1.171875 
Q 17 -1.171875 10.328125 5.828125 
Q 3.65625 12.84375 3.65625 25.484375 
Q 3.65625 38.578125 10.390625 45.796875 
Q 17.140625 53.03125 27.875 53.03125 
Q 38.28125 53.03125 44.875 45.953125 
Q 51.46875 38.875 51.46875 26.03125 
Q 51.46875 25.25 51.421875 23.6875 
L 12.75 23.6875 
Q 13.234375 15.140625 17.578125 10.59375 
Q 21.921875 6.0625 28.421875 6.0625 
Q 33.25 6.0625 36.671875 8.59375 
Q 40.09375 11.140625 42.09375 16.703125 
z
M 13.234375 30.90625 
L 42.1875 30.90625 
Q 41.609375 37.453125 38.875 40.71875 
Q 34.671875 45.796875 27.984375 45.796875 
Q 21.921875 45.796875 17.796875 41.75 
Q 13.671875 37.703125 13.234375 30.90625 
z
" id="ArialMT-101"/>
       <path d="M 6.390625 0 
L 6.390625 71.578125 
L 15.1875 71.578125 
L 15.1875 0 
z
" id="ArialMT-108"/>
       <path d="M 25.78125 7.859375 
L 27.046875 0.09375 
Q 23.34375 -0.6875 20.40625 -0.6875 
Q 15.625 -0.6875 12.984375 0.828125 
Q 10.359375 2.34375 9.28125 4.8125 
Q 8.203125 7.28125 8.203125 15.1875 
L 8.203125 45.015625 
L 1.765625 45.015625 
L 1.765625 51.859375 
L 8.203125 51.859375 
L 8.203125 64.703125 
L 16.9375 69.96875 
L 16.9375 51.859375 
L 25.78125 51.859375 
L 25.78125 45.015625 
L 16.9375 45.015625 
L 16.9375 14.703125 
Q 16.9375 10.9375 17.40625 9.859375 
Q 17.875 8.796875 18.921875 8.15625 
Q 19.96875 7.515625 21.921875 7.515625 
Q 23.390625 7.515625 25.78125 7.859375 
z
" id="ArialMT-116"/>
       <path d="M 6.640625 61.46875 
L 6.640625 71.578125 
L 15.4375 71.578125 
L 15.4375 61.46875 
z
M 6.640625 0 
L 6.640625 51.859375 
L 15.4375 51.859375 
L 15.4375 0 
z
" id="ArialMT-105"/>
       <path d="M 6.59375 0 
L 6.59375 51.859375 
L 14.5 51.859375 
L 14.5 44.484375 
Q 20.21875 53.03125 31 53.03125 
Q 35.6875 53.03125 39.625 51.34375 
Q 43.5625 49.65625 45.515625 46.921875 
Q 47.46875 44.1875 48.25 40.4375 
Q 48.734375 37.984375 48.734375 31.890625 
L 48.734375 0 
L 39.9375 0 
L 39.9375 31.546875 
Q 39.9375 36.921875 38.90625 39.578125 
Q 37.890625 42.234375 35.28125 43.8125 
Q 32.671875 45.40625 29.15625 45.40625 
Q 23.53125 45.40625 19.453125 41.84375 
Q 15.375 38.28125 15.375 28.328125 
L 15.375 0 
z
" id="ArialMT-110"/>
       <path d="M 9.03125 41.84375 
L 9.03125 51.859375 
L 19.046875 51.859375 
L 19.046875 41.84375 
z
M 9.03125 0 
L 9.03125 10.015625 
L 19.046875 10.015625 
L 19.046875 0 
z
" id="ArialMT-58"/>
       <path d="M 8.890625 0 
L 8.890625 10.015625 
L 18.890625 10.015625 
L 18.890625 0 
Q 18.890625 -5.515625 16.9375 -8.90625 
Q 14.984375 -12.3125 10.75 -14.15625 
L 8.296875 -10.40625 
Q 11.078125 -9.1875 12.390625 -6.8125 
Q 13.71875 -4.4375 13.875 0 
z
" id="ArialMT-44"/>
       <path d="M 0.734375 0 
L 19.671875 26.953125 
L 2.15625 51.859375 
L 13.140625 51.859375 
L 21.09375 39.703125 
Q 23.34375 36.234375 24.703125 33.890625 
Q 26.859375 37.109375 28.65625 39.59375 
L 37.40625 51.859375 
L 47.90625 51.859375 
L 29.984375 27.4375 
L 49.265625 0 
L 38.484375 0 
L 27.828125 16.109375 
L 25 20.453125 
L 11.375 0 
z
" id="ArialMT-120"/>
      </defs>
      <use xlink:href="#ArialMT-67"/>
      <use x="72.216797" xlink:href="#ArialMT-114"/>
      <use x="105.517578" xlink:href="#ArialMT-111"/>
      <use x="161.132812" xlink:href="#ArialMT-115"/>
      <use x="211.132812" xlink:href="#ArialMT-115"/>
      <use x="261.132812" xlink:href="#ArialMT-32"/>
      <use x="288.916016" xlink:href="#ArialMT-67"/>
      <use x="361.132812" xlink:href="#ArialMT-111"/>
      <use x="416.748047" xlink:href="#ArialMT-114"/>
      <use x="450.048828" xlink:href="#ArialMT-114"/>
      <use x="483.349609" xlink:href="#ArialMT-101"/>
      <use x="538.964844" xlink:href="#ArialMT-108"/>
      <use x="561.181641" xlink:href="#ArialMT-97"/>
      <use x="616.796875" xlink:href="#ArialMT-116"/>
      <use x="644.580078" xlink:href="#ArialMT-105"/>
      <use x="666.796875" xlink:href="#ArialMT-111"/>
      <use x="722.412109" xlink:href="#ArialMT-110"/>
      <use x="778.027344" xlink:href="#ArialMT-58"/>
      <use x="805.810547" xlink:href="#ArialMT-32"/>
      <use x="833.59375" xlink:href="#ArialMT-101"/>
      <use x="889.208984" xlink:href="#ArialMT-101"/>
      <use x="944.824219" xlink:href="#ArialMT-44"/>
      <use x="972.607422" xlink:href="#ArialMT-32"/>
      <use x="1000.390625" xlink:href="#ArialMT-101"/>
      <use x="1056.005859" xlink:href="#ArialMT-120"/>
     </g>
    </g>
   </g>
   <g id="patch_3">
    <path clip-path="url(#pd8e95180ac)" d="M 55.304375 403.546877 
L 55.304375 435.371248 
L 352.912962 435.371248 
L 352.912962 403.546877 
z
" style="fill:#ccd9ff;opacity:0.5;"/>
   </g>
   <g id="line2d_16">
    <path clip-path="url(#pd8e95180ac)" d="M 68.832038 304.934062 
L 71.564899 397.212303 
L 74.29776 416.600538 
L 77.030622 421.1147 
L 79.763483 419.862073 
L 82.496344 408.348996 
L 85.229205 420.372417 
L 87.962067 403.266278 
L 90.694928 416.757999 
L 93.427789 417.898581 
L 96.16065 410.163914 
L 98.893512 419.251263 
L 101.626373 426.469464 
L 104.359234 430.29834 
L 107.092095 420.286978 
L 109.824956 429.517483 
L 112.557818 415.827007 
L 115.290679 410.349075 
L 118.02354 423.258299 
L 120.756401 434.211479 
L 123.489263 441.425157 
L 126.222124 422.688687 
L 128.954985 421.822375 
L 131.687846 407.541057 
L 134.420707 412.12072 
L 137.153569 423.129002 
L 139.88643 428.972964 
L 142.619291 420.385683 
L 145.352152 425.013332 
L 148.085014 418.403104 
L 150.817875 415.759314 
L 153.550736 417.377892 
L 156.283597 423.032393 
L 159.016458 411.952884 
L 161.74932 424.731874 
L 164.482181 419.52688 
L 167.215042 412.211094 
L 169.947903 414.556239 
L 172.680765 415.378931 
L 175.413626 421.692751 
L 178.146487 415.473125 
L 180.879348 418.048078 
L 183.612209 425.317634 
L 186.345071 431.286684 
L 189.077932 415.965254 
L 191.810793 414.843028 
L 194.543654 407.582185 
L 197.276516 406.227237 
L 200.009377 422.173264 
L 202.742238 425.755195 
L 205.475099 436.595407 
L 208.20796 420.1689 
L 210.940822 413.443283 
L 213.673683 415.182222 
L 216.406544 410.399314 
L 219.139405 423.394246 
L 221.872267 413.296464 
L 224.605128 422.447694 
L 227.337989 419.94729 
L 230.07085 411.740376 
L 232.803711 411.392728 
L 235.536573 422.182611 
L 238.269434 418.049432 
L 241.002295 402.919235 
L 243.735156 414.539311 
L 246.468018 419.974406 
L 249.200879 430.925268 
L 251.93374 427.040054 
L 254.666601 419.083426 
L 257.399462 417.441054 
L 260.132324 413.999742 
L 262.865185 428.146443 
L 265.598046 431.843511 
L 268.330907 425.708857 
L 271.063769 425.612251 
L 273.79663 429.838653 
L 276.529491 422.223861 
L 279.262352 415.802126 
L 281.995213 421.171821 
L 284.728075 426.086842 
L 287.460936 418.15574 
L 290.193797 415.177814 
L 292.926658 420.490838 
L 295.65952 424.514845 
L 298.392381 426.362289 
L 301.125242 427.636336 
L 303.858103 421.617337 
L 306.590964 418.084987 
L 309.323826 421.578124 
L 312.056687 423.466451 
L 314.789548 420.556918 
L 317.522409 419.321615 
L 320.255271 415.335728 
L 322.988132 417.713099 
L 325.720993 422.485389 
L 328.453854 422.712772 
L 331.186715 422.874456 
L 333.919577 421.736329 
L 336.652438 419.459062 
L 339.385299 419.459062 
" style="fill:none;stroke:#1f77b4;stroke-linecap:round;stroke-width:1.5;"/>
   </g>
   <g id="patch_4">
    <path d="M 55.304375 533.984062 
L 55.304375 304.934062 
" style="fill:none;stroke:#262626;stroke-linecap:square;stroke-linejoin:miter;stroke-width:1.25;"/>
   </g>
   <g id="patch_5">
    <path d="M 55.304375 533.984062 
L 352.912962 533.984062 
" style="fill:none;stroke:#262626;stroke-linecap:square;stroke-linejoin:miter;stroke-width:1.25;"/>
   </g>
  </g>
  <g id="axes_2">
   <g id="patch_6">
    <path d="M 406.712962 533.984062 
L 704.321549 533.984062 
L 704.321549 304.934062 
L 406.712962 304.934062 
z
" style="fill:#ffffff;"/>
   </g>
   <g id="matplotlib.axis_3">
    <g id="xtick_7">
     <g id="line2d_17"/>
     <g id="text_18">
      <!-- 0 -->
      <g style="fill:#262626;" transform="translate(417.460156 544.641875)scale(0.1 -0.1)">
       <use xlink:href="#ArialMT-48"/>
      </g>
     </g>
    </g>
    <g id="xtick_8">
     <g id="line2d_18"/>
     <g id="text_19">
      <!-- 10 -->
      <g style="fill:#262626;" transform="translate(469.894639 544.641875)scale(0.1 -0.1)">
       <use xlink:href="#ArialMT-49"/>
       <use x="55.615234" xlink:href="#ArialMT-48"/>
      </g>
     </g>
    </g>
    <g id="xtick_9">
     <g id="line2d_19"/>
     <g id="text_20">
      <!-- 20 -->
      <g style="fill:#262626;" transform="translate(525.10959 544.641875)scale(0.1 -0.1)">
       <use xlink:href="#ArialMT-50"/>
       <use x="55.615234" xlink:href="#ArialMT-48"/>
      </g>
     </g>
    </g>
    <g id="xtick_10">
     <g id="line2d_20"/>
     <g id="text_21">
      <!-- 30 -->
      <g style="fill:#262626;" transform="translate(580.324541 544.641875)scale(0.1 -0.1)">
       <defs>
        <path d="M 4.203125 18.890625 
L 12.984375 20.0625 
Q 14.5 12.59375 18.140625 9.296875 
Q 21.78125 6 27 6 
Q 33.203125 6 37.46875 10.296875 
Q 41.75 14.59375 41.75 20.953125 
Q 41.75 27 37.796875 30.921875 
Q 33.84375 34.859375 27.734375 34.859375 
Q 25.25 34.859375 21.53125 33.890625 
L 22.515625 41.609375 
Q 23.390625 41.5 23.921875 41.5 
Q 29.546875 41.5 34.03125 44.421875 
Q 38.53125 47.359375 38.53125 53.46875 
Q 38.53125 58.296875 35.25 61.46875 
Q 31.984375 64.65625 26.8125 64.65625 
Q 21.6875 64.65625 18.265625 61.421875 
Q 14.84375 58.203125 13.875 51.765625 
L 5.078125 53.328125 
Q 6.6875 62.15625 12.390625 67.015625 
Q 18.109375 71.875 26.609375 71.875 
Q 32.46875 71.875 37.390625 69.359375 
Q 42.328125 66.84375 44.9375 62.5 
Q 47.5625 58.15625 47.5625 53.265625 
Q 47.5625 48.640625 45.0625 44.828125 
Q 42.578125 41.015625 37.703125 38.765625 
Q 44.046875 37.3125 47.5625 32.6875 
Q 51.078125 28.078125 51.078125 21.140625 
Q 51.078125 11.765625 44.234375 5.25 
Q 37.40625 -1.265625 26.953125 -1.265625 
Q 17.53125 -1.265625 11.296875 4.34375 
Q 5.078125 9.96875 4.203125 18.890625 
z
" id="ArialMT-51"/>
       </defs>
       <use xlink:href="#ArialMT-51"/>
       <use x="55.615234" xlink:href="#ArialMT-48"/>
      </g>
     </g>
    </g>
    <g id="xtick_11">
     <g id="line2d_21"/>
     <g id="text_22">
      <!-- 40 -->
      <g style="fill:#262626;" transform="translate(635.539493 544.641875)scale(0.1 -0.1)">
       <use xlink:href="#ArialMT-52"/>
       <use x="55.615234" xlink:href="#ArialMT-48"/>
      </g>
     </g>
    </g>
    <g id="xtick_12">
     <g id="line2d_22"/>
     <g id="text_23">
      <!-- 50 -->
      <g style="fill:#262626;" transform="translate(690.754444 544.641875)scale(0.1 -0.1)">
       <use xlink:href="#ArialMT-53"/>
       <use x="55.615234" xlink:href="#ArialMT-48"/>
      </g>
     </g>
    </g>
    <g id="text_24">
     <!-- Lag -->
     <g style="fill:#262626;" transform="translate(545.507568 559.21875)scale(0.12 -0.12)">
      <use xlink:href="#ArialMT-76"/>
      <use x="55.615234" xlink:href="#ArialMT-97"/>
      <use x="111.230469" xlink:href="#ArialMT-103"/>
     </g>
    </g>
   </g>
   <g id="matplotlib.axis_4">
    <g id="ytick_10">
     <g id="line2d_23"/>
     <g id="text_25">
      <!-- −1.00 -->
      <g style="fill:#262626;" transform="translate(377.9114 537.562969)scale(0.1 -0.1)">
       <use xlink:href="#ArialMT-8722"/>
       <use x="58.398438" xlink:href="#ArialMT-49"/>
       <use x="114.013672" xlink:href="#ArialMT-46"/>
       <use x="141.796875" xlink:href="#ArialMT-48"/>
       <use x="197.412109" xlink:href="#ArialMT-48"/>
      </g>
     </g>
    </g>
    <g id="ytick_11">
     <g id="line2d_24"/>
     <g id="text_26">
      <!-- −0.75 -->
      <g style="fill:#262626;" transform="translate(377.9114 508.931719)scale(0.1 -0.1)">
       <use xlink:href="#ArialMT-8722"/>
       <use x="58.398438" xlink:href="#ArialMT-48"/>
       <use x="114.013672" xlink:href="#ArialMT-46"/>
       <use x="141.796875" xlink:href="#ArialMT-55"/>
       <use x="197.412109" xlink:href="#ArialMT-53"/>
      </g>
     </g>
    </g>
    <g id="ytick_12">
     <g id="line2d_25"/>
     <g id="text_27">
      <!-- −0.50 -->
      <g style="fill:#262626;" transform="translate(377.9114 480.300469)scale(0.1 -0.1)">
       <use xlink:href="#ArialMT-8722"/>
       <use x="58.398438" xlink:href="#ArialMT-48"/>
       <use x="114.013672" xlink:href="#ArialMT-46"/>
       <use x="141.796875" xlink:href="#ArialMT-53"/>
       <use x="197.412109" xlink:href="#ArialMT-48"/>
      </g>
     </g>
    </g>
    <g id="ytick_13">
     <g id="line2d_26"/>
     <g id="text_28">
      <!-- −0.25 -->
      <g style="fill:#262626;" transform="translate(377.9114 451.669219)scale(0.1 -0.1)">
       <use xlink:href="#ArialMT-8722"/>
       <use x="58.398438" xlink:href="#ArialMT-48"/>
       <use x="114.013672" xlink:href="#ArialMT-46"/>
       <use x="141.796875" xlink:href="#ArialMT-50"/>
       <use x="197.412109" xlink:href="#ArialMT-53"/>
      </g>
     </g>
    </g>
    <g id="ytick_14">
     <g id="line2d_27"/>
     <g id="text_29">
      <!-- 0.00 -->
      <g style="fill:#262626;" transform="translate(383.752025 423.037969)scale(0.1 -0.1)">
       <use xlink:href="#ArialMT-48"/>
       <use x="55.615234" xlink:href="#ArialMT-46"/>
       <use x="83.398438" xlink:href="#ArialMT-48"/>
       <use x="139.013672" xlink:href="#ArialMT-48"/>
      </g>
     </g>
    </g>
    <g id="ytick_15">
     <g id="line2d_28"/>
     <g id="text_30">
      <!-- 0.25 -->
      <g style="fill:#262626;" transform="translate(383.752025 394.406719)scale(0.1 -0.1)">
       <use xlink:href="#ArialMT-48"/>
       <use x="55.615234" xlink:href="#ArialMT-46"/>
       <use x="83.398438" xlink:href="#ArialMT-50"/>
       <use x="139.013672" xlink:href="#ArialMT-53"/>
      </g>
     </g>
    </g>
    <g id="ytick_16">
     <g id="line2d_29"/>
     <g id="text_31">
      <!-- 0.50 -->
      <g style="fill:#262626;" transform="translate(383.752025 365.775469)scale(0.1 -0.1)">
       <use xlink:href="#ArialMT-48"/>
       <use x="55.615234" xlink:href="#ArialMT-46"/>
       <use x="83.398438" xlink:href="#ArialMT-53"/>
       <use x="139.013672" xlink:href="#ArialMT-48"/>
      </g>
     </g>
    </g>
    <g id="ytick_17">
     <g id="line2d_30"/>
     <g id="text_32">
      <!-- 0.75 -->
      <g style="fill:#262626;" transform="translate(383.752025 337.144219)scale(0.1 -0.1)">
       <use xlink:href="#ArialMT-48"/>
       <use x="55.615234" xlink:href="#ArialMT-46"/>
       <use x="83.398438" xlink:href="#ArialMT-55"/>
       <use x="139.013672" xlink:href="#ArialMT-53"/>
      </g>
     </g>
    </g>
    <g id="ytick_18">
     <g id="line2d_31"/>
     <g id="text_33">
      <!-- 1.00 -->
      <g style="fill:#262626;" transform="translate(383.752025 308.512969)scale(0.1 -0.1)">
       <use xlink:href="#ArialMT-49"/>
       <use x="55.615234" xlink:href="#ArialMT-46"/>
       <use x="83.398438" xlink:href="#ArialMT-48"/>
       <use x="139.013672" xlink:href="#ArialMT-48"/>
      </g>
     </g>
    </g>
    <g id="text_34">
     <!-- Cross Correlation: ee, ex -->
     <g style="fill:#262626;" transform="translate(371.5264 485.815312)rotate(-90)scale(0.12 -0.12)">
      <use xlink:href="#ArialMT-67"/>
      <use x="72.216797" xlink:href="#ArialMT-114"/>
      <use x="105.517578" xlink:href="#ArialMT-111"/>
      <use x="161.132812" xlink:href="#ArialMT-115"/>
      <use x="211.132812" xlink:href="#ArialMT-115"/>
      <use x="261.132812" xlink:href="#ArialMT-32"/>
      <use x="288.916016" xlink:href="#ArialMT-67"/>
      <use x="361.132812" xlink:href="#ArialMT-111"/>
      <use x="416.748047" xlink:href="#ArialMT-114"/>
      <use x="450.048828" xlink:href="#ArialMT-114"/>
      <use x="483.349609" xlink:href="#ArialMT-101"/>
      <use x="538.964844" xlink:href="#ArialMT-108"/>
      <use x="561.181641" xlink:href="#ArialMT-97"/>
      <use x="616.796875" xlink:href="#ArialMT-116"/>
      <use x="644.580078" xlink:href="#ArialMT-105"/>
      <use x="666.796875" xlink:href="#ArialMT-111"/>
      <use x="722.412109" xlink:href="#ArialMT-110"/>
      <use x="778.027344" xlink:href="#ArialMT-58"/>
      <use x="805.810547" xlink:href="#ArialMT-32"/>
      <use x="833.59375" xlink:href="#ArialMT-101"/>
      <use x="889.208984" xlink:href="#ArialMT-101"/>
      <use x="944.824219" xlink:href="#ArialMT-44"/>
      <use x="972.607422" xlink:href="#ArialMT-32"/>
      <use x="1000.390625" xlink:href="#ArialMT-101"/>
      <use x="1056.005859" xlink:href="#ArialMT-120"/>
     </g>
    </g>
   </g>
   <g id="patch_7">
    <path clip-path="url(#p8491ec9c9e)" d="M 406.712962 403.546877 
L 406.712962 435.371248 
L 704.321549 435.371248 
L 704.321549 403.546877 
z
" style="fill:#ccd9ff;opacity:0.5;"/>
   </g>
   <g id="line2d_32">
    <path clip-path="url(#p8491ec9c9e)" d="M 420.240625 406.883341 
L 425.76212 406.163411 
L 431.283615 394.235386 
L 436.805111 404.842527 
L 442.326606 424.033054 
L 447.848101 420.594158 
L 453.369596 428.879554 
L 458.891091 437.654568 
L 464.412586 412.093766 
L 469.934081 413.873351 
L 475.455576 410.655607 
L 480.977072 425.300285 
L 486.498567 425.454593 
L 492.020062 426.45917 
L 497.541557 437.409345 
L 503.063052 425.905367 
L 508.584547 422.981985 
L 514.106042 424.797144 
L 519.627537 403.255144 
L 525.149033 417.449607 
L 530.670528 398.26984 
L 536.192023 415.0823 
L 541.713518 421.468603 
L 547.235013 402.80783 
L 552.756508 414.568211 
L 558.278003 412.429796 
L 563.799498 419.328878 
L 569.320994 408.354722 
L 574.842489 409.521731 
L 580.363984 423.940446 
L 585.885479 429.943659 
L 591.406974 416.999039 
L 596.928469 393.705932 
L 602.449964 415.631736 
L 607.971459 422.612534 
L 613.492955 395.353515 
L 619.01445 398.857291 
L 624.535945 384.44636 
L 630.05744 410.907325 
L 635.578935 398.59103 
L 641.10043 411.126008 
L 646.621925 413.175626 
L 652.14342 424.044445 
L 657.664916 429.456571 
L 663.186411 398.16532 
L 668.707906 396.783321 
L 674.229401 407.091112 
L 679.750896 419.964318 
L 685.272391 417.133899 
L 690.793886 400.481387 
" style="fill:none;stroke:#1f77b4;stroke-linecap:round;stroke-width:1.5;"/>
   </g>
   <g id="patch_8">
    <path d="M 406.712962 533.984062 
L 406.712962 304.934062 
" style="fill:none;stroke:#262626;stroke-linecap:square;stroke-linejoin:miter;stroke-width:1.25;"/>
   </g>
   <g id="patch_9">
    <path d="M 406.712962 533.984062 
L 704.321549 533.984062 
" style="fill:none;stroke:#262626;stroke-linecap:square;stroke-linejoin:miter;stroke-width:1.25;"/>
   </g>
  </g>
  <g id="axes_3">
   <g id="patch_10">
    <path d="M 55.304375 255.134062 
L 704.321549 255.134062 
L 704.321549 26.084062 
L 55.304375 26.084062 
z
" style="fill:#ffffff;"/>
   </g>
   <g id="matplotlib.axis_5">
    <g id="xtick_13">
     <g id="line2d_33"/>
     <g id="text_35">
      <!-- 0 -->
      <g style="fill:#262626;" transform="translate(80.912499 268.655)scale(0.14 -0.14)">
       <use xlink:href="#ArialMT-48"/>
      </g>
     </g>
    </g>
    <g id="xtick_14">
     <g id="line2d_34"/>
     <g id="text_36">
      <!-- 20 -->
      <g style="fill:#262626;" transform="translate(198.672547 268.655)scale(0.14 -0.14)">
       <use xlink:href="#ArialMT-50"/>
       <use x="55.615234" xlink:href="#ArialMT-48"/>
      </g>
     </g>
    </g>
    <g id="xtick_15">
     <g id="line2d_35"/>
     <g id="text_37">
      <!-- 40 -->
      <g style="fill:#262626;" transform="translate(320.325251 268.655)scale(0.14 -0.14)">
       <use xlink:href="#ArialMT-52"/>
       <use x="55.615234" xlink:href="#ArialMT-48"/>
      </g>
     </g>
    </g>
    <g id="xtick_16">
     <g id="line2d_36"/>
     <g id="text_38">
      <!-- 60 -->
      <g style="fill:#262626;" transform="translate(441.977954 268.655)scale(0.14 -0.14)">
       <use xlink:href="#ArialMT-54"/>
       <use x="55.615234" xlink:href="#ArialMT-48"/>
      </g>
     </g>
    </g>
    <g id="xtick_17">
     <g id="line2d_37"/>
     <g id="text_39">
      <!-- 80 -->
      <g style="fill:#262626;" transform="translate(563.630658 268.655)scale(0.14 -0.14)">
       <use xlink:href="#ArialMT-56"/>
       <use x="55.615234" xlink:href="#ArialMT-48"/>
      </g>
     </g>
    </g>
    <g id="xtick_18">
     <g id="line2d_38"/>
     <g id="text_40">
      <!-- 100 -->
      <g style="fill:#262626;" transform="translate(681.390705 268.655)scale(0.14 -0.14)">
       <use xlink:href="#ArialMT-49"/>
       <use x="55.615234" xlink:href="#ArialMT-48"/>
       <use x="111.230469" xlink:href="#ArialMT-48"/>
      </g>
     </g>
    </g>
    <g id="text_41">
     <!-- Samples -->
     <g style="fill:#262626;" transform="translate(352.579681 285.629062)scale(0.14 -0.14)">
      <defs>
       <path d="M 4.5 23 
L 13.421875 23.78125 
Q 14.0625 18.40625 16.375 14.96875 
Q 18.703125 11.53125 23.578125 9.40625 
Q 28.46875 7.28125 34.578125 7.28125 
Q 39.984375 7.28125 44.140625 8.890625 
Q 48.296875 10.5 50.3125 13.296875 
Q 52.34375 16.109375 52.34375 19.4375 
Q 52.34375 22.796875 50.390625 25.3125 
Q 48.4375 27.828125 43.953125 29.546875 
Q 41.0625 30.671875 31.203125 33.03125 
Q 21.34375 35.40625 17.390625 37.5 
Q 12.25 40.1875 9.734375 44.15625 
Q 7.234375 48.140625 7.234375 53.078125 
Q 7.234375 58.5 10.296875 63.203125 
Q 13.375 67.921875 19.28125 70.359375 
Q 25.203125 72.796875 32.421875 72.796875 
Q 40.375 72.796875 46.453125 70.234375 
Q 52.546875 67.671875 55.8125 62.6875 
Q 59.078125 57.71875 59.328125 51.421875 
L 50.25 50.734375 
Q 49.515625 57.515625 45.28125 60.984375 
Q 41.0625 64.453125 32.8125 64.453125 
Q 24.21875 64.453125 20.28125 61.296875 
Q 16.359375 58.15625 16.359375 53.71875 
Q 16.359375 49.859375 19.140625 47.359375 
Q 21.875 44.875 33.421875 42.265625 
Q 44.96875 39.65625 49.265625 37.703125 
Q 55.515625 34.8125 58.484375 30.390625 
Q 61.46875 25.984375 61.46875 20.21875 
Q 61.46875 14.5 58.203125 9.4375 
Q 54.9375 4.390625 48.796875 1.578125 
Q 42.671875 -1.21875 35.015625 -1.21875 
Q 25.296875 -1.21875 18.71875 1.609375 
Q 12.15625 4.4375 8.421875 10.125 
Q 4.6875 15.828125 4.5 23 
z
" id="ArialMT-83"/>
       <path d="M 6.59375 0 
L 6.59375 51.859375 
L 14.453125 51.859375 
L 14.453125 44.578125 
Q 16.890625 48.390625 20.9375 50.703125 
Q 25 53.03125 30.171875 53.03125 
Q 35.9375 53.03125 39.625 50.640625 
Q 43.3125 48.25 44.828125 43.953125 
Q 50.984375 53.03125 60.84375 53.03125 
Q 68.5625 53.03125 72.703125 48.75 
Q 76.859375 44.484375 76.859375 35.59375 
L 76.859375 0 
L 68.109375 0 
L 68.109375 32.671875 
Q 68.109375 37.9375 67.25 40.25 
Q 66.40625 42.578125 64.15625 43.984375 
Q 61.921875 45.40625 58.890625 45.40625 
Q 53.421875 45.40625 49.796875 41.765625 
Q 46.1875 38.140625 46.1875 30.125 
L 46.1875 0 
L 37.40625 0 
L 37.40625 33.6875 
Q 37.40625 39.546875 35.25 42.46875 
Q 33.109375 45.40625 28.21875 45.40625 
Q 24.515625 45.40625 21.359375 43.453125 
Q 18.21875 41.5 16.796875 37.734375 
Q 15.375 33.984375 15.375 26.90625 
L 15.375 0 
z
" id="ArialMT-109"/>
       <path d="M 6.59375 -19.875 
L 6.59375 51.859375 
L 14.59375 51.859375 
L 14.59375 45.125 
Q 17.4375 49.078125 21 51.046875 
Q 24.5625 53.03125 29.640625 53.03125 
Q 36.28125 53.03125 41.359375 49.609375 
Q 46.4375 46.1875 49.015625 39.953125 
Q 51.609375 33.734375 51.609375 26.3125 
Q 51.609375 18.359375 48.75 11.984375 
Q 45.90625 5.609375 40.453125 2.21875 
Q 35.015625 -1.171875 29 -1.171875 
Q 24.609375 -1.171875 21.109375 0.6875 
Q 17.625 2.546875 15.375 5.375 
L 15.375 -19.875 
z
M 14.546875 25.640625 
Q 14.546875 15.625 18.59375 10.84375 
Q 22.65625 6.0625 28.421875 6.0625 
Q 34.28125 6.0625 38.453125 11.015625 
Q 42.625 15.96875 42.625 26.375 
Q 42.625 36.28125 38.546875 41.203125 
Q 34.46875 46.140625 28.8125 46.140625 
Q 23.1875 46.140625 18.859375 40.890625 
Q 14.546875 35.640625 14.546875 25.640625 
z
" id="ArialMT-112"/>
      </defs>
      <use xlink:href="#ArialMT-83"/>
      <use x="66.699219" xlink:href="#ArialMT-97"/>
      <use x="122.314453" xlink:href="#ArialMT-109"/>
      <use x="205.615234" xlink:href="#ArialMT-112"/>
      <use x="261.230469" xlink:href="#ArialMT-108"/>
      <use x="283.447266" xlink:href="#ArialMT-101"/>
      <use x="339.0625" xlink:href="#ArialMT-115"/>
     </g>
    </g>
   </g>
   <g id="matplotlib.axis_6">
    <g id="ytick_19">
     <g id="line2d_39"/>
     <g id="text_42">
      <!-- −1.0 -->
      <g style="fill:#262626;" transform="translate(24.1675 241.561528)scale(0.14 -0.14)">
       <use xlink:href="#ArialMT-8722"/>
       <use x="58.398438" xlink:href="#ArialMT-49"/>
       <use x="114.013672" xlink:href="#ArialMT-46"/>
       <use x="141.796875" xlink:href="#ArialMT-48"/>
      </g>
     </g>
    </g>
    <g id="ytick_20">
     <g id="line2d_40"/>
     <g id="text_43">
      <!-- −0.5 -->
      <g style="fill:#262626;" transform="translate(24.1675 194.519369)scale(0.14 -0.14)">
       <use xlink:href="#ArialMT-8722"/>
       <use x="58.398438" xlink:href="#ArialMT-48"/>
       <use x="114.013672" xlink:href="#ArialMT-46"/>
       <use x="141.796875" xlink:href="#ArialMT-53"/>
      </g>
     </g>
    </g>
    <g id="ytick_21">
     <g id="line2d_41"/>
     <g id="text_44">
      <!-- 0.0 -->
      <g style="fill:#262626;" transform="translate(32.344375 147.477209)scale(0.14 -0.14)">
       <use xlink:href="#ArialMT-48"/>
       <use x="55.615234" xlink:href="#ArialMT-46"/>
       <use x="83.398438" xlink:href="#ArialMT-48"/>
      </g>
     </g>
    </g>
    <g id="ytick_22">
     <g id="line2d_42"/>
     <g id="text_45">
      <!-- 0.5 -->
      <g style="fill:#262626;" transform="translate(32.344375 100.43505)scale(0.14 -0.14)">
       <use xlink:href="#ArialMT-48"/>
       <use x="55.615234" xlink:href="#ArialMT-46"/>
       <use x="83.398438" xlink:href="#ArialMT-53"/>
      </g>
     </g>
    </g>
    <g id="ytick_23">
     <g id="line2d_43"/>
     <g id="text_46">
      <!-- 1.0 -->
      <g style="fill:#262626;" transform="translate(32.344375 53.39289)scale(0.14 -0.14)">
       <use xlink:href="#ArialMT-49"/>
       <use x="55.615234" xlink:href="#ArialMT-46"/>
       <use x="83.398438" xlink:href="#ArialMT-48"/>
      </g>
     </g>
    </g>
    <g id="text_47">
     <!-- y, yhat -->
     <g style="fill:#262626;" transform="translate(17.220938 160.712187)rotate(-90)scale(0.14 -0.14)">
      <defs>
       <path d="M 6.203125 -19.96875 
L 5.21875 -11.71875 
Q 8.109375 -12.5 10.25 -12.5 
Q 13.1875 -12.5 14.9375 -11.515625 
Q 16.703125 -10.546875 17.828125 -8.796875 
Q 18.65625 -7.46875 20.515625 -2.25 
Q 20.75 -1.515625 21.296875 -0.09375 
L 1.609375 51.859375 
L 11.078125 51.859375 
L 21.875 21.828125 
Q 23.96875 16.109375 25.640625 9.8125 
Q 27.15625 15.875 29.25 21.625 
L 40.328125 51.859375 
L 49.125 51.859375 
L 29.390625 -0.875 
Q 26.21875 -9.421875 24.46875 -12.640625 
Q 22.125 -17 19.09375 -19.015625 
Q 16.0625 -21.046875 11.859375 -21.046875 
Q 9.328125 -21.046875 6.203125 -19.96875 
z
" id="ArialMT-121"/>
       <path d="M 6.59375 0 
L 6.59375 71.578125 
L 15.375 71.578125 
L 15.375 45.90625 
Q 21.53125 53.03125 30.90625 53.03125 
Q 36.671875 53.03125 40.921875 50.75 
Q 45.171875 48.484375 47 44.484375 
Q 48.828125 40.484375 48.828125 32.859375 
L 48.828125 0 
L 40.046875 0 
L 40.046875 32.859375 
Q 40.046875 39.453125 37.1875 42.453125 
Q 34.328125 45.453125 29.109375 45.453125 
Q 25.203125 45.453125 21.75 43.421875 
Q 18.3125 41.40625 16.84375 37.9375 
Q 15.375 34.46875 15.375 28.375 
L 15.375 0 
z
" id="ArialMT-104"/>
      </defs>
      <use xlink:href="#ArialMT-121"/>
      <use x="42.625" xlink:href="#ArialMT-44"/>
      <use x="70.408203" xlink:href="#ArialMT-32"/>
      <use x="98.191406" xlink:href="#ArialMT-121"/>
      <use x="148.191406" xlink:href="#ArialMT-104"/>
      <use x="203.806641" xlink:href="#ArialMT-97"/>
      <use x="259.421875" xlink:href="#ArialMT-116"/>
     </g>
    </g>
   </g>
   <g id="line2d_44">
    <path clip-path="url(#p3595f7b7a1)" d="M 84.805156 170.474051 
L 90.887791 70.097104 
L 96.970426 197.677047 
L 103.053061 229.488912 
L 109.135696 244.687288 
L 115.218332 96.578077 
L 121.300967 189.619734 
L 127.383602 198.052119 
L 133.466237 93.230307 
L 139.548872 122.253289 
L 145.631508 75.87612 
L 151.714143 187.669501 
L 157.796778 172.572972 
L 163.879413 107.865577 
L 169.962048 191.374855 
L 176.044683 219.285085 
L 182.127319 230.398019 
L 188.209954 165.360676 
L 194.292589 208.979003 
L 200.375224 228.276374 
L 206.457859 162.661768 
L 212.540495 191.984594 
L 218.62313 231.738576 
L 224.705765 171.79692 
L 230.7884 228.041136 
L 236.871035 151.256701 
L 242.95367 97.966557 
L 249.036306 182.488834 
L 255.118941 201.985788 
L 261.201576 99.845685 
L 267.284211 97.906567 
L 273.366846 137.976579 
L 279.449482 129.622832 
L 285.532117 222.102425 
L 291.614752 115.673082 
L 297.697387 104.188331 
L 303.780022 154.417483 
L 309.862658 181.521239 
L 315.945293 100.231509 
L 322.027928 115.235934 
L 328.110563 200.519152 
L 334.193198 219.644598 
L 340.275833 97.790033 
L 346.358469 65.685285 
L 352.441104 120.314795 
L 358.523739 171.609362 
L 364.606374 165.455626 
L 370.689009 128.301053 
L 376.771645 198.761019 
L 382.85428 82.635266 
L 388.936915 69.744278 
L 395.01955 40.475536 
L 401.102185 61.006011 
L 407.18482 119.693169 
L 413.267456 136.792626 
L 419.350091 114.717935 
L 425.432726 115.345147 
L 431.515361 192.511828 
L 437.597996 186.382182 
L 443.680632 217.627882 
L 449.763267 163.790682 
L 455.845902 201.236617 
L 461.928537 116.392101 
L 468.011172 66.581322 
L 474.093808 52.537458 
L 480.176443 70.164658 
L 486.259078 77.597759 
L 492.341713 97.369726 
L 498.424348 109.650738 
L 504.506983 66.75918 
L 510.589619 39.895771 
L 516.672254 36.495426 
L 522.754889 61.478463 
L 528.837524 52.868864 
L 534.920159 176.30325 
L 541.002795 170.487177 
L 547.08543 149.923739 
L 553.168065 182.580539 
L 559.2507 156.875602 
L 565.333335 61.100552 
L 571.415971 178.881251 
L 577.498606 62.304017 
L 583.581241 211.53339 
L 589.663876 181.637881 
L 595.746511 168.869201 
L 601.829146 138.881232 
L 607.911782 205.439427 
L 613.994417 161.25594 
L 620.077052 109.711613 
L 626.159687 64.886015 
L 632.242322 177.978997 
L 638.324958 105.899862 
L 644.407593 159.05182 
L 650.490228 169.501016 
L 656.572863 205.017775 
L 662.655498 179.81416 
L 668.738133 85.433068 
L 674.820769 166.183531 
" style="fill:none;stroke:#1f77b4;stroke-linecap:round;stroke-width:1.5;"/>
    <defs>
     <path d="M 0 3 
C 0.795609 3 1.55874 2.683901 2.12132 2.12132 
C 2.683901 1.55874 3 0.795609 3 0 
C 3 -0.795609 2.683901 -1.55874 2.12132 -2.12132 
C 1.55874 -2.683901 0.795609 -3 0 -3 
C -0.795609 -3 -1.55874 -2.683901 -2.12132 -2.12132 
C -2.683901 -1.55874 -3 -0.795609 -3 0 
C -3 0.795609 -2.683901 1.55874 -2.12132 2.12132 
C -1.55874 2.683901 -0.795609 3 0 3 
z
" id="md0ee5b6f36" style="stroke:#1f77b4;"/>
    </defs>
    <g clip-path="url(#p3595f7b7a1)">
     <use style="fill:#1f77b4;stroke:#1f77b4;" x="84.805156" xlink:href="#md0ee5b6f36" y="170.474051"/>
     <use style="fill:#1f77b4;stroke:#1f77b4;" x="90.887791" xlink:href="#md0ee5b6f36" y="70.097104"/>
     <use style="fill:#1f77b4;stroke:#1f77b4;" x="96.970426" xlink:href="#md0ee5b6f36" y="197.677047"/>
     <use style="fill:#1f77b4;stroke:#1f77b4;" x="103.053061" xlink:href="#md0ee5b6f36" y="229.488912"/>
     <use style="fill:#1f77b4;stroke:#1f77b4;" x="109.135696" xlink:href="#md0ee5b6f36" y="244.687288"/>
     <use style="fill:#1f77b4;stroke:#1f77b4;" x="115.218332" xlink:href="#md0ee5b6f36" y="96.578077"/>
     <use style="fill:#1f77b4;stroke:#1f77b4;" x="121.300967" xlink:href="#md0ee5b6f36" y="189.619734"/>
     <use style="fill:#1f77b4;stroke:#1f77b4;" x="127.383602" xlink:href="#md0ee5b6f36" y="198.052119"/>
     <use style="fill:#1f77b4;stroke:#1f77b4;" x="133.466237" xlink:href="#md0ee5b6f36" y="93.230307"/>
     <use style="fill:#1f77b4;stroke:#1f77b4;" x="139.548872" xlink:href="#md0ee5b6f36" y="122.253289"/>
     <use style="fill:#1f77b4;stroke:#1f77b4;" x="145.631508" xlink:href="#md0ee5b6f36" y="75.87612"/>
     <use style="fill:#1f77b4;stroke:#1f77b4;" x="151.714143" xlink:href="#md0ee5b6f36" y="187.669501"/>
     <use style="fill:#1f77b4;stroke:#1f77b4;" x="157.796778" xlink:href="#md0ee5b6f36" y="172.572972"/>
     <use style="fill:#1f77b4;stroke:#1f77b4;" x="163.879413" xlink:href="#md0ee5b6f36" y="107.865577"/>
     <use style="fill:#1f77b4;stroke:#1f77b4;" x="169.962048" xlink:href="#md0ee5b6f36" y="191.374855"/>
     <use style="fill:#1f77b4;stroke:#1f77b4;" x="176.044683" xlink:href="#md0ee5b6f36" y="219.285085"/>
     <use style="fill:#1f77b4;stroke:#1f77b4;" x="182.127319" xlink:href="#md0ee5b6f36" y="230.398019"/>
     <use style="fill:#1f77b4;stroke:#1f77b4;" x="188.209954" xlink:href="#md0ee5b6f36" y="165.360676"/>
     <use style="fill:#1f77b4;stroke:#1f77b4;" x="194.292589" xlink:href="#md0ee5b6f36" y="208.979003"/>
     <use style="fill:#1f77b4;stroke:#1f77b4;" x="200.375224" xlink:href="#md0ee5b6f36" y="228.276374"/>
     <use style="fill:#1f77b4;stroke:#1f77b4;" x="206.457859" xlink:href="#md0ee5b6f36" y="162.661768"/>
     <use style="fill:#1f77b4;stroke:#1f77b4;" x="212.540495" xlink:href="#md0ee5b6f36" y="191.984594"/>
     <use style="fill:#1f77b4;stroke:#1f77b4;" x="218.62313" xlink:href="#md0ee5b6f36" y="231.738576"/>
     <use style="fill:#1f77b4;stroke:#1f77b4;" x="224.705765" xlink:href="#md0ee5b6f36" y="171.79692"/>
     <use style="fill:#1f77b4;stroke:#1f77b4;" x="230.7884" xlink:href="#md0ee5b6f36" y="228.041136"/>
     <use style="fill:#1f77b4;stroke:#1f77b4;" x="236.871035" xlink:href="#md0ee5b6f36" y="151.256701"/>
     <use style="fill:#1f77b4;stroke:#1f77b4;" x="242.95367" xlink:href="#md0ee5b6f36" y="97.966557"/>
     <use style="fill:#1f77b4;stroke:#1f77b4;" x="249.036306" xlink:href="#md0ee5b6f36" y="182.488834"/>
     <use style="fill:#1f77b4;stroke:#1f77b4;" x="255.118941" xlink:href="#md0ee5b6f36" y="201.985788"/>
     <use style="fill:#1f77b4;stroke:#1f77b4;" x="261.201576" xlink:href="#md0ee5b6f36" y="99.845685"/>
     <use style="fill:#1f77b4;stroke:#1f77b4;" x="267.284211" xlink:href="#md0ee5b6f36" y="97.906567"/>
     <use style="fill:#1f77b4;stroke:#1f77b4;" x="273.366846" xlink:href="#md0ee5b6f36" y="137.976579"/>
     <use style="fill:#1f77b4;stroke:#1f77b4;" x="279.449482" xlink:href="#md0ee5b6f36" y="129.622832"/>
     <use style="fill:#1f77b4;stroke:#1f77b4;" x="285.532117" xlink:href="#md0ee5b6f36" y="222.102425"/>
     <use style="fill:#1f77b4;stroke:#1f77b4;" x="291.614752" xlink:href="#md0ee5b6f36" y="115.673082"/>
     <use style="fill:#1f77b4;stroke:#1f77b4;" x="297.697387" xlink:href="#md0ee5b6f36" y="104.188331"/>
     <use style="fill:#1f77b4;stroke:#1f77b4;" x="303.780022" xlink:href="#md0ee5b6f36" y="154.417483"/>
     <use style="fill:#1f77b4;stroke:#1f77b4;" x="309.862658" xlink:href="#md0ee5b6f36" y="181.521239"/>
     <use style="fill:#1f77b4;stroke:#1f77b4;" x="315.945293" xlink:href="#md0ee5b6f36" y="100.231509"/>
     <use style="fill:#1f77b4;stroke:#1f77b4;" x="322.027928" xlink:href="#md0ee5b6f36" y="115.235934"/>
     <use style="fill:#1f77b4;stroke:#1f77b4;" x="328.110563" xlink:href="#md0ee5b6f36" y="200.519152"/>
     <use style="fill:#1f77b4;stroke:#1f77b4;" x="334.193198" xlink:href="#md0ee5b6f36" y="219.644598"/>
     <use style="fill:#1f77b4;stroke:#1f77b4;" x="340.275833" xlink:href="#md0ee5b6f36" y="97.790033"/>
     <use style="fill:#1f77b4;stroke:#1f77b4;" x="346.358469" xlink:href="#md0ee5b6f36" y="65.685285"/>
     <use style="fill:#1f77b4;stroke:#1f77b4;" x="352.441104" xlink:href="#md0ee5b6f36" y="120.314795"/>
     <use style="fill:#1f77b4;stroke:#1f77b4;" x="358.523739" xlink:href="#md0ee5b6f36" y="171.609362"/>
     <use style="fill:#1f77b4;stroke:#1f77b4;" x="364.606374" xlink:href="#md0ee5b6f36" y="165.455626"/>
     <use style="fill:#1f77b4;stroke:#1f77b4;" x="370.689009" xlink:href="#md0ee5b6f36" y="128.301053"/>
     <use style="fill:#1f77b4;stroke:#1f77b4;" x="376.771645" xlink:href="#md0ee5b6f36" y="198.761019"/>
     <use style="fill:#1f77b4;stroke:#1f77b4;" x="382.85428" xlink:href="#md0ee5b6f36" y="82.635266"/>
     <use style="fill:#1f77b4;stroke:#1f77b4;" x="388.936915" xlink:href="#md0ee5b6f36" y="69.744278"/>
     <use style="fill:#1f77b4;stroke:#1f77b4;" x="395.01955" xlink:href="#md0ee5b6f36" y="40.475536"/>
     <use style="fill:#1f77b4;stroke:#1f77b4;" x="401.102185" xlink:href="#md0ee5b6f36" y="61.006011"/>
     <use style="fill:#1f77b4;stroke:#1f77b4;" x="407.18482" xlink:href="#md0ee5b6f36" y="119.693169"/>
     <use style="fill:#1f77b4;stroke:#1f77b4;" x="413.267456" xlink:href="#md0ee5b6f36" y="136.792626"/>
     <use style="fill:#1f77b4;stroke:#1f77b4;" x="419.350091" xlink:href="#md0ee5b6f36" y="114.717935"/>
     <use style="fill:#1f77b4;stroke:#1f77b4;" x="425.432726" xlink:href="#md0ee5b6f36" y="115.345147"/>
     <use style="fill:#1f77b4;stroke:#1f77b4;" x="431.515361" xlink:href="#md0ee5b6f36" y="192.511828"/>
     <use style="fill:#1f77b4;stroke:#1f77b4;" x="437.597996" xlink:href="#md0ee5b6f36" y="186.382182"/>
     <use style="fill:#1f77b4;stroke:#1f77b4;" x="443.680632" xlink:href="#md0ee5b6f36" y="217.627882"/>
     <use style="fill:#1f77b4;stroke:#1f77b4;" x="449.763267" xlink:href="#md0ee5b6f36" y="163.790682"/>
     <use style="fill:#1f77b4;stroke:#1f77b4;" x="455.845902" xlink:href="#md0ee5b6f36" y="201.236617"/>
     <use style="fill:#1f77b4;stroke:#1f77b4;" x="461.928537" xlink:href="#md0ee5b6f36" y="116.392101"/>
     <use style="fill:#1f77b4;stroke:#1f77b4;" x="468.011172" xlink:href="#md0ee5b6f36" y="66.581322"/>
     <use style="fill:#1f77b4;stroke:#1f77b4;" x="474.093808" xlink:href="#md0ee5b6f36" y="52.537458"/>
     <use style="fill:#1f77b4;stroke:#1f77b4;" x="480.176443" xlink:href="#md0ee5b6f36" y="70.164658"/>
     <use style="fill:#1f77b4;stroke:#1f77b4;" x="486.259078" xlink:href="#md0ee5b6f36" y="77.597759"/>
     <use style="fill:#1f77b4;stroke:#1f77b4;" x="492.341713" xlink:href="#md0ee5b6f36" y="97.369726"/>
     <use style="fill:#1f77b4;stroke:#1f77b4;" x="498.424348" xlink:href="#md0ee5b6f36" y="109.650738"/>
     <use style="fill:#1f77b4;stroke:#1f77b4;" x="504.506983" xlink:href="#md0ee5b6f36" y="66.75918"/>
     <use style="fill:#1f77b4;stroke:#1f77b4;" x="510.589619" xlink:href="#md0ee5b6f36" y="39.895771"/>
     <use style="fill:#1f77b4;stroke:#1f77b4;" x="516.672254" xlink:href="#md0ee5b6f36" y="36.495426"/>
     <use style="fill:#1f77b4;stroke:#1f77b4;" x="522.754889" xlink:href="#md0ee5b6f36" y="61.478463"/>
     <use style="fill:#1f77b4;stroke:#1f77b4;" x="528.837524" xlink:href="#md0ee5b6f36" y="52.868864"/>
     <use style="fill:#1f77b4;stroke:#1f77b4;" x="534.920159" xlink:href="#md0ee5b6f36" y="176.30325"/>
     <use style="fill:#1f77b4;stroke:#1f77b4;" x="541.002795" xlink:href="#md0ee5b6f36" y="170.487177"/>
     <use style="fill:#1f77b4;stroke:#1f77b4;" x="547.08543" xlink:href="#md0ee5b6f36" y="149.923739"/>
     <use style="fill:#1f77b4;stroke:#1f77b4;" x="553.168065" xlink:href="#md0ee5b6f36" y="182.580539"/>
     <use style="fill:#1f77b4;stroke:#1f77b4;" x="559.2507" xlink:href="#md0ee5b6f36" y="156.875602"/>
     <use style="fill:#1f77b4;stroke:#1f77b4;" x="565.333335" xlink:href="#md0ee5b6f36" y="61.100552"/>
     <use style="fill:#1f77b4;stroke:#1f77b4;" x="571.415971" xlink:href="#md0ee5b6f36" y="178.881251"/>
     <use style="fill:#1f77b4;stroke:#1f77b4;" x="577.498606" xlink:href="#md0ee5b6f36" y="62.304017"/>
     <use style="fill:#1f77b4;stroke:#1f77b4;" x="583.581241" xlink:href="#md0ee5b6f36" y="211.53339"/>
     <use style="fill:#1f77b4;stroke:#1f77b4;" x="589.663876" xlink:href="#md0ee5b6f36" y="181.637881"/>
     <use style="fill:#1f77b4;stroke:#1f77b4;" x="595.746511" xlink:href="#md0ee5b6f36" y="168.869201"/>
     <use style="fill:#1f77b4;stroke:#1f77b4;" x="601.829146" xlink:href="#md0ee5b6f36" y="138.881232"/>
     <use style="fill:#1f77b4;stroke:#1f77b4;" x="607.911782" xlink:href="#md0ee5b6f36" y="205.439427"/>
     <use style="fill:#1f77b4;stroke:#1f77b4;" x="613.994417" xlink:href="#md0ee5b6f36" y="161.25594"/>
     <use style="fill:#1f77b4;stroke:#1f77b4;" x="620.077052" xlink:href="#md0ee5b6f36" y="109.711613"/>
     <use style="fill:#1f77b4;stroke:#1f77b4;" x="626.159687" xlink:href="#md0ee5b6f36" y="64.886015"/>
     <use style="fill:#1f77b4;stroke:#1f77b4;" x="632.242322" xlink:href="#md0ee5b6f36" y="177.978997"/>
     <use style="fill:#1f77b4;stroke:#1f77b4;" x="638.324958" xlink:href="#md0ee5b6f36" y="105.899862"/>
     <use style="fill:#1f77b4;stroke:#1f77b4;" x="644.407593" xlink:href="#md0ee5b6f36" y="159.05182"/>
     <use style="fill:#1f77b4;stroke:#1f77b4;" x="650.490228" xlink:href="#md0ee5b6f36" y="169.501016"/>
     <use style="fill:#1f77b4;stroke:#1f77b4;" x="656.572863" xlink:href="#md0ee5b6f36" y="205.017775"/>
     <use style="fill:#1f77b4;stroke:#1f77b4;" x="662.655498" xlink:href="#md0ee5b6f36" y="179.81416"/>
     <use style="fill:#1f77b4;stroke:#1f77b4;" x="668.738133" xlink:href="#md0ee5b6f36" y="85.433068"/>
     <use style="fill:#1f77b4;stroke:#1f77b4;" x="674.820769" xlink:href="#md0ee5b6f36" y="166.183531"/>
    </g>
   </g>
   <g id="line2d_45">
    <path clip-path="url(#p3595f7b7a1)" d="M 84.805156 170.335307 
L 90.887791 70.015652 
L 96.970426 197.673613 
L 103.053061 229.455923 
L 109.135696 244.722699 
L 115.218332 96.684854 
L 121.300967 189.526789 
L 127.383602 197.966077 
L 133.466237 93.376218 
L 139.548872 122.372126 
L 145.631508 75.743627 
L 151.714143 187.644254 
L 157.796778 172.557802 
L 163.879413 107.760721 
L 169.962048 191.178788 
L 176.044683 219.274205 
L 182.127319 230.396469 
L 188.209954 165.382806 
L 194.292589 208.860459 
L 200.375224 228.247127 
L 206.457859 162.520955 
L 212.540495 191.96557 
L 218.62313 231.757791 
L 224.705765 171.73224 
L 230.7884 228.055759 
L 236.871035 151.210706 
L 242.95367 98.1767 
L 249.036306 182.553865 
L 255.118941 202.053771 
L 261.201576 99.893061 
L 267.284211 97.761761 
L 273.366846 138.032303 
L 279.449482 129.694651 
L 285.532117 222.168433 
L 291.614752 115.6873 
L 297.697387 104.305171 
L 303.780022 154.551073 
L 309.862658 181.429485 
L 315.945293 100.367199 
L 322.027928 115.135474 
L 328.110563 200.628499 
L 334.193198 219.641198 
L 340.275833 97.84751 
L 346.358469 65.771246 
L 352.441104 120.278796 
L 358.523739 171.624078 
L 364.606374 165.407137 
L 370.689009 128.186704 
L 376.771645 198.748476 
L 382.85428 82.626523 
L 388.936915 69.80708 
L 395.01955 40.394779 
L 401.102185 60.903178 
L 407.18482 119.68149 
L 413.267456 136.64084 
L 419.350091 114.724765 
L 425.432726 115.352288 
L 431.515361 192.460338 
L 437.597996 186.274797 
L 443.680632 217.572742 
L 449.763267 163.746878 
L 455.845902 201.249328 
L 461.928537 116.367483 
L 468.011172 66.685609 
L 474.093808 52.699577 
L 480.176443 70.207713 
L 486.259078 77.467477 
L 492.341713 97.382583 
L 498.424348 109.732383 
L 504.506983 66.800169 
L 510.589619 39.858531 
L 516.672254 36.621934 
L 522.754889 61.593367 
L 528.837524 53.102064 
L 534.920159 176.292059 
L 541.002795 170.495676 
L 547.08543 149.88809 
L 553.168065 182.378924 
L 559.2507 156.915117 
L 565.333335 61.100649 
L 571.415971 178.947331 
L 577.498606 62.342867 
L 583.581241 211.455744 
L 589.663876 181.499608 
L 595.746511 168.898913 
L 601.829146 139.067754 
L 607.911782 205.675614 
L 613.994417 161.302459 
L 620.077052 109.679407 
L 626.159687 65.124559 
L 632.242322 177.997286 
L 638.324958 105.941703 
L 644.407593 159.000065 
L 650.490228 169.359933 
L 656.572863 205.090913 
L 662.655498 179.927779 
L 668.738133 85.552512 
L 674.820769 166.314399 
" style="fill:none;stroke:#ff7f0e;stroke-linecap:round;stroke-width:1.5;"/>
    <defs>
     <path d="M 0 -3 
L -0.673542 -0.927051 
L -2.85317 -0.927051 
L -1.089814 0.354102 
L -1.763356 2.427051 
L -0 1.145898 
L 1.763356 2.427051 
L 1.089814 0.354102 
L 2.85317 -0.927051 
L 0.673542 -0.927051 
z
" id="mf53d1bd707" style="stroke:#ff7f0e;stroke-linejoin:bevel;"/>
    </defs>
    <g clip-path="url(#p3595f7b7a1)">
     <use style="fill:#ff7f0e;stroke:#ff7f0e;stroke-linejoin:bevel;" x="84.805156" xlink:href="#mf53d1bd707" y="170.335307"/>
     <use style="fill:#ff7f0e;stroke:#ff7f0e;stroke-linejoin:bevel;" x="90.887791" xlink:href="#mf53d1bd707" y="70.015652"/>
     <use style="fill:#ff7f0e;stroke:#ff7f0e;stroke-linejoin:bevel;" x="96.970426" xlink:href="#mf53d1bd707" y="197.673613"/>
     <use style="fill:#ff7f0e;stroke:#ff7f0e;stroke-linejoin:bevel;" x="103.053061" xlink:href="#mf53d1bd707" y="229.455923"/>
     <use style="fill:#ff7f0e;stroke:#ff7f0e;stroke-linejoin:bevel;" x="109.135696" xlink:href="#mf53d1bd707" y="244.722699"/>
     <use style="fill:#ff7f0e;stroke:#ff7f0e;stroke-linejoin:bevel;" x="115.218332" xlink:href="#mf53d1bd707" y="96.684854"/>
     <use style="fill:#ff7f0e;stroke:#ff7f0e;stroke-linejoin:bevel;" x="121.300967" xlink:href="#mf53d1bd707" y="189.526789"/>
     <use style="fill:#ff7f0e;stroke:#ff7f0e;stroke-linejoin:bevel;" x="127.383602" xlink:href="#mf53d1bd707" y="197.966077"/>
     <use style="fill:#ff7f0e;stroke:#ff7f0e;stroke-linejoin:bevel;" x="133.466237" xlink:href="#mf53d1bd707" y="93.376218"/>
     <use style="fill:#ff7f0e;stroke:#ff7f0e;stroke-linejoin:bevel;" x="139.548872" xlink:href="#mf53d1bd707" y="122.372126"/>
     <use style="fill:#ff7f0e;stroke:#ff7f0e;stroke-linejoin:bevel;" x="145.631508" xlink:href="#mf53d1bd707" y="75.743627"/>
     <use style="fill:#ff7f0e;stroke:#ff7f0e;stroke-linejoin:bevel;" x="151.714143" xlink:href="#mf53d1bd707" y="187.644254"/>
     <use style="fill:#ff7f0e;stroke:#ff7f0e;stroke-linejoin:bevel;" x="157.796778" xlink:href="#mf53d1bd707" y="172.557802"/>
     <use style="fill:#ff7f0e;stroke:#ff7f0e;stroke-linejoin:bevel;" x="163.879413" xlink:href="#mf53d1bd707" y="107.760721"/>
     <use style="fill:#ff7f0e;stroke:#ff7f0e;stroke-linejoin:bevel;" x="169.962048" xlink:href="#mf53d1bd707" y="191.178788"/>
     <use style="fill:#ff7f0e;stroke:#ff7f0e;stroke-linejoin:bevel;" x="176.044683" xlink:href="#mf53d1bd707" y="219.274205"/>
     <use style="fill:#ff7f0e;stroke:#ff7f0e;stroke-linejoin:bevel;" x="182.127319" xlink:href="#mf53d1bd707" y="230.396469"/>
     <use style="fill:#ff7f0e;stroke:#ff7f0e;stroke-linejoin:bevel;" x="188.209954" xlink:href="#mf53d1bd707" y="165.382806"/>
     <use style="fill:#ff7f0e;stroke:#ff7f0e;stroke-linejoin:bevel;" x="194.292589" xlink:href="#mf53d1bd707" y="208.860459"/>
     <use style="fill:#ff7f0e;stroke:#ff7f0e;stroke-linejoin:bevel;" x="200.375224" xlink:href="#mf53d1bd707" y="228.247127"/>
     <use style="fill:#ff7f0e;stroke:#ff7f0e;stroke-linejoin:bevel;" x="206.457859" xlink:href="#mf53d1bd707" y="162.520955"/>
     <use style="fill:#ff7f0e;stroke:#ff7f0e;stroke-linejoin:bevel;" x="212.540495" xlink:href="#mf53d1bd707" y="191.96557"/>
     <use style="fill:#ff7f0e;stroke:#ff7f0e;stroke-linejoin:bevel;" x="218.62313" xlink:href="#mf53d1bd707" y="231.757791"/>
     <use style="fill:#ff7f0e;stroke:#ff7f0e;stroke-linejoin:bevel;" x="224.705765" xlink:href="#mf53d1bd707" y="171.73224"/>
     <use style="fill:#ff7f0e;stroke:#ff7f0e;stroke-linejoin:bevel;" x="230.7884" xlink:href="#mf53d1bd707" y="228.055759"/>
     <use style="fill:#ff7f0e;stroke:#ff7f0e;stroke-linejoin:bevel;" x="236.871035" xlink:href="#mf53d1bd707" y="151.210706"/>
     <use style="fill:#ff7f0e;stroke:#ff7f0e;stroke-linejoin:bevel;" x="242.95367" xlink:href="#mf53d1bd707" y="98.1767"/>
     <use style="fill:#ff7f0e;stroke:#ff7f0e;stroke-linejoin:bevel;" x="249.036306" xlink:href="#mf53d1bd707" y="182.553865"/>
     <use style="fill:#ff7f0e;stroke:#ff7f0e;stroke-linejoin:bevel;" x="255.118941" xlink:href="#mf53d1bd707" y="202.053771"/>
     <use style="fill:#ff7f0e;stroke:#ff7f0e;stroke-linejoin:bevel;" x="261.201576" xlink:href="#mf53d1bd707" y="99.893061"/>
     <use style="fill:#ff7f0e;stroke:#ff7f0e;stroke-linejoin:bevel;" x="267.284211" xlink:href="#mf53d1bd707" y="97.761761"/>
     <use style="fill:#ff7f0e;stroke:#ff7f0e;stroke-linejoin:bevel;" x="273.366846" xlink:href="#mf53d1bd707" y="138.032303"/>
     <use style="fill:#ff7f0e;stroke:#ff7f0e;stroke-linejoin:bevel;" x="279.449482" xlink:href="#mf53d1bd707" y="129.694651"/>
     <use style="fill:#ff7f0e;stroke:#ff7f0e;stroke-linejoin:bevel;" x="285.532117" xlink:href="#mf53d1bd707" y="222.168433"/>
     <use style="fill:#ff7f0e;stroke:#ff7f0e;stroke-linejoin:bevel;" x="291.614752" xlink:href="#mf53d1bd707" y="115.6873"/>
     <use style="fill:#ff7f0e;stroke:#ff7f0e;stroke-linejoin:bevel;" x="297.697387" xlink:href="#mf53d1bd707" y="104.305171"/>
     <use style="fill:#ff7f0e;stroke:#ff7f0e;stroke-linejoin:bevel;" x="303.780022" xlink:href="#mf53d1bd707" y="154.551073"/>
     <use style="fill:#ff7f0e;stroke:#ff7f0e;stroke-linejoin:bevel;" x="309.862658" xlink:href="#mf53d1bd707" y="181.429485"/>
     <use style="fill:#ff7f0e;stroke:#ff7f0e;stroke-linejoin:bevel;" x="315.945293" xlink:href="#mf53d1bd707" y="100.367199"/>
     <use style="fill:#ff7f0e;stroke:#ff7f0e;stroke-linejoin:bevel;" x="322.027928" xlink:href="#mf53d1bd707" y="115.135474"/>
     <use style="fill:#ff7f0e;stroke:#ff7f0e;stroke-linejoin:bevel;" x="328.110563" xlink:href="#mf53d1bd707" y="200.628499"/>
     <use style="fill:#ff7f0e;stroke:#ff7f0e;stroke-linejoin:bevel;" x="334.193198" xlink:href="#mf53d1bd707" y="219.641198"/>
     <use style="fill:#ff7f0e;stroke:#ff7f0e;stroke-linejoin:bevel;" x="340.275833" xlink:href="#mf53d1bd707" y="97.84751"/>
     <use style="fill:#ff7f0e;stroke:#ff7f0e;stroke-linejoin:bevel;" x="346.358469" xlink:href="#mf53d1bd707" y="65.771246"/>
     <use style="fill:#ff7f0e;stroke:#ff7f0e;stroke-linejoin:bevel;" x="352.441104" xlink:href="#mf53d1bd707" y="120.278796"/>
     <use style="fill:#ff7f0e;stroke:#ff7f0e;stroke-linejoin:bevel;" x="358.523739" xlink:href="#mf53d1bd707" y="171.624078"/>
     <use style="fill:#ff7f0e;stroke:#ff7f0e;stroke-linejoin:bevel;" x="364.606374" xlink:href="#mf53d1bd707" y="165.407137"/>
     <use style="fill:#ff7f0e;stroke:#ff7f0e;stroke-linejoin:bevel;" x="370.689009" xlink:href="#mf53d1bd707" y="128.186704"/>
     <use style="fill:#ff7f0e;stroke:#ff7f0e;stroke-linejoin:bevel;" x="376.771645" xlink:href="#mf53d1bd707" y="198.748476"/>
     <use style="fill:#ff7f0e;stroke:#ff7f0e;stroke-linejoin:bevel;" x="382.85428" xlink:href="#mf53d1bd707" y="82.626523"/>
     <use style="fill:#ff7f0e;stroke:#ff7f0e;stroke-linejoin:bevel;" x="388.936915" xlink:href="#mf53d1bd707" y="69.80708"/>
     <use style="fill:#ff7f0e;stroke:#ff7f0e;stroke-linejoin:bevel;" x="395.01955" xlink:href="#mf53d1bd707" y="40.394779"/>
     <use style="fill:#ff7f0e;stroke:#ff7f0e;stroke-linejoin:bevel;" x="401.102185" xlink:href="#mf53d1bd707" y="60.903178"/>
     <use style="fill:#ff7f0e;stroke:#ff7f0e;stroke-linejoin:bevel;" x="407.18482" xlink:href="#mf53d1bd707" y="119.68149"/>
     <use style="fill:#ff7f0e;stroke:#ff7f0e;stroke-linejoin:bevel;" x="413.267456" xlink:href="#mf53d1bd707" y="136.64084"/>
     <use style="fill:#ff7f0e;stroke:#ff7f0e;stroke-linejoin:bevel;" x="419.350091" xlink:href="#mf53d1bd707" y="114.724765"/>
     <use style="fill:#ff7f0e;stroke:#ff7f0e;stroke-linejoin:bevel;" x="425.432726" xlink:href="#mf53d1bd707" y="115.352288"/>
     <use style="fill:#ff7f0e;stroke:#ff7f0e;stroke-linejoin:bevel;" x="431.515361" xlink:href="#mf53d1bd707" y="192.460338"/>
     <use style="fill:#ff7f0e;stroke:#ff7f0e;stroke-linejoin:bevel;" x="437.597996" xlink:href="#mf53d1bd707" y="186.274797"/>
     <use style="fill:#ff7f0e;stroke:#ff7f0e;stroke-linejoin:bevel;" x="443.680632" xlink:href="#mf53d1bd707" y="217.572742"/>
     <use style="fill:#ff7f0e;stroke:#ff7f0e;stroke-linejoin:bevel;" x="449.763267" xlink:href="#mf53d1bd707" y="163.746878"/>
     <use style="fill:#ff7f0e;stroke:#ff7f0e;stroke-linejoin:bevel;" x="455.845902" xlink:href="#mf53d1bd707" y="201.249328"/>
     <use style="fill:#ff7f0e;stroke:#ff7f0e;stroke-linejoin:bevel;" x="461.928537" xlink:href="#mf53d1bd707" y="116.367483"/>
     <use style="fill:#ff7f0e;stroke:#ff7f0e;stroke-linejoin:bevel;" x="468.011172" xlink:href="#mf53d1bd707" y="66.685609"/>
     <use style="fill:#ff7f0e;stroke:#ff7f0e;stroke-linejoin:bevel;" x="474.093808" xlink:href="#mf53d1bd707" y="52.699577"/>
     <use style="fill:#ff7f0e;stroke:#ff7f0e;stroke-linejoin:bevel;" x="480.176443" xlink:href="#mf53d1bd707" y="70.207713"/>
     <use style="fill:#ff7f0e;stroke:#ff7f0e;stroke-linejoin:bevel;" x="486.259078" xlink:href="#mf53d1bd707" y="77.467477"/>
     <use style="fill:#ff7f0e;stroke:#ff7f0e;stroke-linejoin:bevel;" x="492.341713" xlink:href="#mf53d1bd707" y="97.382583"/>
     <use style="fill:#ff7f0e;stroke:#ff7f0e;stroke-linejoin:bevel;" x="498.424348" xlink:href="#mf53d1bd707" y="109.732383"/>
     <use style="fill:#ff7f0e;stroke:#ff7f0e;stroke-linejoin:bevel;" x="504.506983" xlink:href="#mf53d1bd707" y="66.800169"/>
     <use style="fill:#ff7f0e;stroke:#ff7f0e;stroke-linejoin:bevel;" x="510.589619" xlink:href="#mf53d1bd707" y="39.858531"/>
     <use style="fill:#ff7f0e;stroke:#ff7f0e;stroke-linejoin:bevel;" x="516.672254" xlink:href="#mf53d1bd707" y="36.621934"/>
     <use style="fill:#ff7f0e;stroke:#ff7f0e;stroke-linejoin:bevel;" x="522.754889" xlink:href="#mf53d1bd707" y="61.593367"/>
     <use style="fill:#ff7f0e;stroke:#ff7f0e;stroke-linejoin:bevel;" x="528.837524" xlink:href="#mf53d1bd707" y="53.102064"/>
     <use style="fill:#ff7f0e;stroke:#ff7f0e;stroke-linejoin:bevel;" x="534.920159" xlink:href="#mf53d1bd707" y="176.292059"/>
     <use style="fill:#ff7f0e;stroke:#ff7f0e;stroke-linejoin:bevel;" x="541.002795" xlink:href="#mf53d1bd707" y="170.495676"/>
     <use style="fill:#ff7f0e;stroke:#ff7f0e;stroke-linejoin:bevel;" x="547.08543" xlink:href="#mf53d1bd707" y="149.88809"/>
     <use style="fill:#ff7f0e;stroke:#ff7f0e;stroke-linejoin:bevel;" x="553.168065" xlink:href="#mf53d1bd707" y="182.378924"/>
     <use style="fill:#ff7f0e;stroke:#ff7f0e;stroke-linejoin:bevel;" x="559.2507" xlink:href="#mf53d1bd707" y="156.915117"/>
     <use style="fill:#ff7f0e;stroke:#ff7f0e;stroke-linejoin:bevel;" x="565.333335" xlink:href="#mf53d1bd707" y="61.100649"/>
     <use style="fill:#ff7f0e;stroke:#ff7f0e;stroke-linejoin:bevel;" x="571.415971" xlink:href="#mf53d1bd707" y="178.947331"/>
     <use style="fill:#ff7f0e;stroke:#ff7f0e;stroke-linejoin:bevel;" x="577.498606" xlink:href="#mf53d1bd707" y="62.342867"/>
     <use style="fill:#ff7f0e;stroke:#ff7f0e;stroke-linejoin:bevel;" x="583.581241" xlink:href="#mf53d1bd707" y="211.455744"/>
     <use style="fill:#ff7f0e;stroke:#ff7f0e;stroke-linejoin:bevel;" x="589.663876" xlink:href="#mf53d1bd707" y="181.499608"/>
     <use style="fill:#ff7f0e;stroke:#ff7f0e;stroke-linejoin:bevel;" x="595.746511" xlink:href="#mf53d1bd707" y="168.898913"/>
     <use style="fill:#ff7f0e;stroke:#ff7f0e;stroke-linejoin:bevel;" x="601.829146" xlink:href="#mf53d1bd707" y="139.067754"/>
     <use style="fill:#ff7f0e;stroke:#ff7f0e;stroke-linejoin:bevel;" x="607.911782" xlink:href="#mf53d1bd707" y="205.675614"/>
     <use style="fill:#ff7f0e;stroke:#ff7f0e;stroke-linejoin:bevel;" x="613.994417" xlink:href="#mf53d1bd707" y="161.302459"/>
     <use style="fill:#ff7f0e;stroke:#ff7f0e;stroke-linejoin:bevel;" x="620.077052" xlink:href="#mf53d1bd707" y="109.679407"/>
     <use style="fill:#ff7f0e;stroke:#ff7f0e;stroke-linejoin:bevel;" x="626.159687" xlink:href="#mf53d1bd707" y="65.124559"/>
     <use style="fill:#ff7f0e;stroke:#ff7f0e;stroke-linejoin:bevel;" x="632.242322" xlink:href="#mf53d1bd707" y="177.997286"/>
     <use style="fill:#ff7f0e;stroke:#ff7f0e;stroke-linejoin:bevel;" x="638.324958" xlink:href="#mf53d1bd707" y="105.941703"/>
     <use style="fill:#ff7f0e;stroke:#ff7f0e;stroke-linejoin:bevel;" x="644.407593" xlink:href="#mf53d1bd707" y="159.000065"/>
     <use style="fill:#ff7f0e;stroke:#ff7f0e;stroke-linejoin:bevel;" x="650.490228" xlink:href="#mf53d1bd707" y="169.359933"/>
     <use style="fill:#ff7f0e;stroke:#ff7f0e;stroke-linejoin:bevel;" x="656.572863" xlink:href="#mf53d1bd707" y="205.090913"/>
     <use style="fill:#ff7f0e;stroke:#ff7f0e;stroke-linejoin:bevel;" x="662.655498" xlink:href="#mf53d1bd707" y="179.927779"/>
     <use style="fill:#ff7f0e;stroke:#ff7f0e;stroke-linejoin:bevel;" x="668.738133" xlink:href="#mf53d1bd707" y="85.552512"/>
     <use style="fill:#ff7f0e;stroke:#ff7f0e;stroke-linejoin:bevel;" x="674.820769" xlink:href="#mf53d1bd707" y="166.314399"/>
    </g>
   </g>
   <g id="patch_11">
    <path d="M 55.304375 255.134062 
L 55.304375 26.084062 
" style="fill:none;stroke:#262626;stroke-linecap:square;stroke-linejoin:miter;stroke-width:1.25;"/>
   </g>
   <g id="patch_12">
    <path d="M 55.304375 255.134062 
L 704.321549 255.134062 
" style="fill:none;stroke:#262626;stroke-linecap:square;stroke-linejoin:miter;stroke-width:1.25;"/>
   </g>
   <g id="text_48">
    <!-- Free run simulation -->
    <g style="fill:#262626;" transform="translate(302.787025 20.084062)scale(0.18 -0.18)">
     <defs>
      <path d="M 8.203125 0 
L 8.203125 71.578125 
L 56.5 71.578125 
L 56.5 63.140625 
L 17.671875 63.140625 
L 17.671875 40.96875 
L 51.265625 40.96875 
L 51.265625 32.515625 
L 17.671875 32.515625 
L 17.671875 0 
z
" id="ArialMT-70"/>
      <path d="M 40.578125 0 
L 40.578125 7.625 
Q 34.515625 -1.171875 24.125 -1.171875 
Q 19.53125 -1.171875 15.546875 0.578125 
Q 11.578125 2.34375 9.640625 5 
Q 7.71875 7.671875 6.9375 11.53125 
Q 6.390625 14.109375 6.390625 19.734375 
L 6.390625 51.859375 
L 15.1875 51.859375 
L 15.1875 23.09375 
Q 15.1875 16.21875 15.71875 13.8125 
Q 16.546875 10.359375 19.234375 8.375 
Q 21.921875 6.390625 25.875 6.390625 
Q 29.828125 6.390625 33.296875 8.421875 
Q 36.765625 10.453125 38.203125 13.9375 
Q 39.65625 17.4375 39.65625 24.078125 
L 39.65625 51.859375 
L 48.4375 51.859375 
L 48.4375 0 
z
" id="ArialMT-117"/>
     </defs>
     <use xlink:href="#ArialMT-70"/>
     <use x="61.083984" xlink:href="#ArialMT-114"/>
     <use x="94.384766" xlink:href="#ArialMT-101"/>
     <use x="150" xlink:href="#ArialMT-101"/>
     <use x="205.615234" xlink:href="#ArialMT-32"/>
     <use x="233.398438" xlink:href="#ArialMT-114"/>
     <use x="266.699219" xlink:href="#ArialMT-117"/>
     <use x="322.314453" xlink:href="#ArialMT-110"/>
     <use x="377.929688" xlink:href="#ArialMT-32"/>
     <use x="405.712891" xlink:href="#ArialMT-115"/>
     <use x="455.712891" xlink:href="#ArialMT-105"/>
     <use x="477.929688" xlink:href="#ArialMT-109"/>
     <use x="561.230469" xlink:href="#ArialMT-117"/>
     <use x="616.845703" xlink:href="#ArialMT-108"/>
     <use x="639.0625" xlink:href="#ArialMT-97"/>
     <use x="694.677734" xlink:href="#ArialMT-116"/>
     <use x="722.460938" xlink:href="#ArialMT-105"/>
     <use x="744.677734" xlink:href="#ArialMT-111"/>
     <use x="800.292969" xlink:href="#ArialMT-110"/>
    </g>
   </g>
   <g id="legend_1">
    <g id="line2d_46">
     <path d="M 640.087174 38.741875 
L 660.087174 38.741875 
" style="fill:none;stroke:#1f77b4;stroke-linecap:round;stroke-width:1.5;"/>
    </g>
    <g id="line2d_47">
     <g>
      <use style="fill:#1f77b4;stroke:#1f77b4;" x="650.087174" xlink:href="#md0ee5b6f36" y="38.741875"/>
     </g>
    </g>
    <g id="text_49">
     <!-- Data -->
     <g style="fill:#262626;" transform="translate(668.087174 42.241875)scale(0.1 -0.1)">
      <defs>
       <path d="M 7.71875 0 
L 7.71875 71.578125 
L 32.375 71.578125 
Q 40.71875 71.578125 45.125 70.5625 
Q 51.265625 69.140625 55.609375 65.4375 
Q 61.28125 60.640625 64.078125 53.1875 
Q 66.890625 45.75 66.890625 36.1875 
Q 66.890625 28.03125 64.984375 21.734375 
Q 63.09375 15.4375 60.109375 11.296875 
Q 57.125 7.171875 53.578125 4.796875 
Q 50.046875 2.4375 45.046875 1.21875 
Q 40.046875 0 33.546875 0 
z
M 17.1875 8.453125 
L 32.46875 8.453125 
Q 39.546875 8.453125 43.578125 9.765625 
Q 47.609375 11.078125 50 13.484375 
Q 53.375 16.84375 55.25 22.53125 
Q 57.125 28.21875 57.125 36.328125 
Q 57.125 47.5625 53.4375 53.59375 
Q 49.75 59.625 44.484375 61.671875 
Q 40.671875 63.140625 32.234375 63.140625 
L 17.1875 63.140625 
z
" id="ArialMT-68"/>
      </defs>
      <use xlink:href="#ArialMT-68"/>
      <use x="72.216797" xlink:href="#ArialMT-97"/>
      <use x="127.832031" xlink:href="#ArialMT-116"/>
      <use x="155.615234" xlink:href="#ArialMT-97"/>
     </g>
    </g>
    <g id="line2d_48">
     <path d="M 640.087174 52.887187 
L 660.087174 52.887187 
" style="fill:none;stroke:#ff7f0e;stroke-linecap:round;stroke-width:1.5;"/>
    </g>
    <g id="line2d_49">
     <g>
      <use style="fill:#ff7f0e;stroke:#ff7f0e;stroke-linejoin:bevel;" x="650.087174" xlink:href="#mf53d1bd707" y="52.887187"/>
     </g>
    </g>
    <g id="text_50">
     <!-- Model -->
     <g style="fill:#262626;" transform="translate(668.087174 56.387187)scale(0.1 -0.1)">
      <defs>
       <path d="M 7.421875 0 
L 7.421875 71.578125 
L 21.6875 71.578125 
L 38.625 20.90625 
Q 40.96875 13.8125 42.046875 10.296875 
Q 43.265625 14.203125 45.84375 21.78125 
L 62.984375 71.578125 
L 75.734375 71.578125 
L 75.734375 0 
L 66.609375 0 
L 66.609375 59.90625 
L 45.796875 0 
L 37.25 0 
L 16.546875 60.9375 
L 16.546875 0 
z
" id="ArialMT-77"/>
       <path d="M 40.234375 0 
L 40.234375 6.546875 
Q 35.296875 -1.171875 25.734375 -1.171875 
Q 19.53125 -1.171875 14.328125 2.25 
Q 9.125 5.671875 6.265625 11.796875 
Q 3.421875 17.921875 3.421875 25.875 
Q 3.421875 33.640625 6 39.96875 
Q 8.59375 46.296875 13.765625 49.65625 
Q 18.953125 53.03125 25.34375 53.03125 
Q 30.03125 53.03125 33.6875 51.046875 
Q 37.359375 49.078125 39.65625 45.90625 
L 39.65625 71.578125 
L 48.390625 71.578125 
L 48.390625 0 
z
M 12.453125 25.875 
Q 12.453125 15.921875 16.640625 10.984375 
Q 20.84375 6.0625 26.5625 6.0625 
Q 32.328125 6.0625 36.34375 10.765625 
Q 40.375 15.484375 40.375 25.140625 
Q 40.375 35.796875 36.265625 40.765625 
Q 32.171875 45.75 26.171875 45.75 
Q 20.3125 45.75 16.375 40.96875 
Q 12.453125 36.1875 12.453125 25.875 
z
" id="ArialMT-100"/>
      </defs>
      <use xlink:href="#ArialMT-77"/>
      <use x="83.300781" xlink:href="#ArialMT-111"/>
      <use x="138.916016" xlink:href="#ArialMT-100"/>
      <use x="194.53125" xlink:href="#ArialMT-101"/>
      <use x="250.146484" xlink:href="#ArialMT-108"/>
     </g>
    </g>
   </g>
  </g>
 </g>
 <defs>
  <clipPath id="pd8e95180ac">
   <rect height="229.05" width="297.608587" x="55.304375" y="304.934062"/>
  </clipPath>
  <clipPath id="p8491ec9c9e">
   <rect height="229.05" width="297.608587" x="406.712962" y="304.934062"/>
  </clipPath>
  <clipPath id="p3595f7b7a1">
   <rect height="229.05" width="649.017174" x="55.304375" y="26.084062"/>
  </clipPath>
 </defs>
</svg>
